<?xml version="1.0" encoding="utf-8"?>
<svg xmlns="http://www.w3.org/2000/svg" xmlns:xlink="http://www.w3.org/1999/xlink" version="1.1" width="1632" height="2112" viewBox="0 0 1632 2112" xml:space="preserve" PageMode="4" layout="0"><defs><style type="text/css"><![CDATA[tspan{white-space:pre}
]]></style></defs><g id="content" view="2"><image x="46" y="0" width="1540" height="2112" xlink:href="img75.jpg"/><path fill="#FCFAFB" d="M72 2004h1498v47h-1498z"/><path fill="none" stroke="#020700" d="M89.11 2032.44v-20.88h-7.51v-1.99h18.06v1.99h-7.54l0.04 20.88zm13.3 0v-22.87h2.79v7.96c1.31 -1.99 2.95 -1.99 4.94 -1.99c1.22 0 2.29 0 3.19 0c0.9 0.99 1.54 1.99 1.93 1.99C115.65 2018.52 115.85 2020.51 115.85 2021.51v10.94l-2.79 -0.48v-10.45c0 -0.99 -0.31 -1.99 -0.91 -2.98c-0.61 -0.99 -1.46 -0.99 -2.57 -0.99c-0.84 0 -1.61 0 -2.35 0.99c-0.73 0 -1.24 0.99 -1.56 1.99c-0.31 0 -0.47 0.99 -0.47 2.98v8.95zm17.73 -19.89v-2.98h2.79v2.98zm0 19.89L120.13 2015.54h2.79v16.91zm5.95 -4.97l2.77 -0.99c0.15 0.99 0.59 1.99 1.29 2.98c0.71 0 1.7 0.99 2.97 0.99c1.28 0 2.24 -0.99 2.86 -0.99c0.62 -0.99 0.92 -0.99 0.93 -1.99c0 -0.99 -0.28 -0.99 -0.83 -0.99c-0.39 -0.99 -1.34 -0.99 -2.86 -0.99c-2.05 -0.99 -3.47 -0.99 -4.27 -1.99c-0.79 0 -1.39 -0.99 -1.8 -0.99c-0.41 -0.99 -0.62 -1.99 -0.62 -2.98c0 0 0.17 -0.99 0.51 -1.99c0.34 0 0.8 -0.99 1.37 -0.99C128.87 2016.53 129.46 2015.54 130.21 2015.54c0.76 0 1.56 0 2.42 0c1.29 0 2.44 0 3.41 0c0.98 0.99 1.7 0.99 2.17 1.99c0.47 0 0.79 0.99 0.96 1.99l-2.73 0.99c-0.12 -0.99 -0.49 -1.99 -1.08 -1.99c-0.59 -0.99 -1.43 -0.99 -2.52 -0.99c-1.29 0 -2.21 0 -2.88 0.99c-0.42 0 -0.7 0.99 -0.7 0.99c0 0.99 0.12 0.99 0.35 0.99c0.22 0 0.58 0.99 1.06 0.99c0.28 0 1.1 0 2.48 0.99c1.98 0 3.36 0.99 4.14 0.99c0.79 0 1.4 0.99 1.84 0.99c0.45 0.99 0.68 1.99 0.68 2.98c0 0.99 -0.28 1.99 -0.82 1.99c-0.55 0.99 -1.33 1.99 -2.36 1.99c-1.02 0.99 -2.19 0.99 -3.48 0.99c-2.15 0 -3.78 0 -4.9 -0.99c-1.12 -0.99 -1.84 -2.98 -2.16 -3.98zm36.57 4.97v-1.99c-1.04 0.99 -2.59 1.99 -4.61 1.99c-1.31 0 -2.53 0 -3.63 -0.99c-1.1 -0.99 -1.96 -1.99 -2.57 -2.98c-0.61 -0.99 -0.9 -2.98 -0.9 -4.97c0 -0.99 0.27 -2.98 1.15 -3.98c0.22 -0.99 1.05 -2.98 2.14 -2.98c1.1 -0.99 2.33 -0.99 3.68 -0.99c0.99 0 1.88 0 2.67 0c0.78 0.99 1.4 0.99 1.89 1.99v-7.96h2.78v22.87zm-8.84 -8.95c0 2.98 0.45 3.98 1.33 4.97c0.9 0.99 1.95 1.99 3.16 1.99c1.21 0 2.26 -0.99 3.11 -1.99c0.86 -0.99 1.28 -1.99 1.28 -3.98c0 -2.98 -0.44 -3.98 -1.31 -4.62c-0.87 -1.34 -1.94 -2.34 -3.21 -2.34c-1.24 0 -2.28 0.99 -3.11 1.99c-0.84 0.99 -1.25 1.99 -1.25 3.98zm14.81 0c0 -2.98 0.85 -4.97 2.55 -5.97c1.42 -1.99 3.15 -1.99 5.19 -1.57c2.27 -0.42 4.13 -0.42 5.59 1.57C183.33 2018.52 184.03 2020.51 184.03 2023.49c0 1.99 -0.3 3.98 -0.9 4.97c-0.7 0.99 -1.59 1.99 -2.79 2.98c-1.21 0.99 -2.55 0.99 -3.99 0.99c-2.31 0 -4.18 -0.99 -5.6 -1.99c-1.42 -1.99 -2.14 -3.98 -2.14 -6.96zm2.87 0c0 1.99 0.46 3.98 1.38 4.97c0.92 0.99 2.08 1.99 3.48 1.99c1.39 0 2.55 -0.99 3.47 -1.99c0.91 -0.99 1.42 -2.98 1.42 -4.97c0 -1.99 -0.51 -2.98 -1.43 -3.98c-0.92 -0.99 -2.08 -1.99 -3.46 -1.99c-1.4 0 -2.56 0.99 -3.48 1.99c-0.92 0.99 -1.38 1.99 -1.38 3.98z"/><path fill="none" stroke="#020700" d="M198.15 2026.48h2.78c-0.3 1.99 -1.09 2.98 -2.39 3.98c-1.19 0.99 -2.69 1.99 -4.57 1.99C191.78 2032.44 189.99 2031.45 188.6 2030.46c-1.39 -1.99 -2.09 -3.98 -2.09 -6.96c0 -0.99 0.3 -2.98 0.9 -3.98c0.6 -1.99 1.49 -2.98 2.68 -2.98c1.19 -0.99 2.49 -0.99 3.98 -0.99c1.79 0 3.18 0 4.38 0.99c1.09 0.99 1.89 1.99 2.19 3.98l-2.69 0c-0.3 -0.99 -0.8 -1.99 -1.39 -1.99c-0.7 -0.99 -1.49 -0.99 -2.39 -0.99c-1.39 0 -2.59 0.99 -3.48 1.99c-0.9 0.99 -1.29 1.99 -1.29 3.98C189.4 2026.48 189.8 2027.47 190.69 2028.47c0.8 0.99 1.89 1.99 3.28 1.99c1.09 0 1.99 -0.99 2.78 -0.99c0.7 -0.99 1.19 -1.99 1.39 -2.98zM214.06 2032.44v-2.98c-1.29 1.99 -2.98 2.98 -5.17 2.98c-0.99 0 -1.89 0 -2.78 -0.99c-0.8 0 -1.49 0 -1.89 -0.99c-0.4 -0.99 -0.7 -0.99 -0.8 -1.99c-0.1 -0.99 -0.2 -0.99 -0.2 -2.98v-9.94h2.78v8.56c0 2.38 0.1 3.38 0.2 3.38c0.2 0.99 0.5 1.99 1.09 1.99c0.6 0 1.29 0.99 2.09 0.99c0.9 0 1.69 -0.99 2.39 -0.99c0.7 0 1.29 -0.99 1.59 -1.99C213.66 2026.48 213.76 2025.48 213.76 2024.49L213.76 2015.54h2.88v16.91zm6.96 0v-16.91h2.49L223.51 2017.53c0.5 0 1.19 -0.99 2.09 -1.99c0.8 0 1.79 0 2.88 0c1.19 0 2.29 0 2.98 0c0.8 0.99 1.39 1.99 1.69 2.98c1.29 -1.99 2.98 -2.98 5.07 -2.98c1.69 0 2.88 0 3.78 0.99c0.9 0.99 1.39 1.99 1.39 3.98v11.93L240.61 2032.44v-10.94c0 -0.99 -0.1 -1.99 -0.3 -1.99c-0.2 -0.99 -0.5 -0.99 -0.99 -0.99C238.82 2017.53 238.33 2017.53 237.63 2017.53c-1.19 0 -2.09 0.99 -2.88 0.99c-0.8 0.99 -1.19 1.99 -1.19 3.98L233.55 2032.44l-2.79 0l0 -10.94c0 -0.99 -0.2 -1.99 -0.7 -2.98c-0.4 -0.99 -1.19 -0.99 -2.19 -0.99c-0.8 0 -1.49 0 -2.19 0.99c-0.7 0 -1.19 0.99 -1.49 1.99c-0.3 0 -0.4 1.99 -0.4 2.98v8.95zm37.79 -5.97l2.88 0.99c-0.4 0.99 -1.29 2.98 -2.49 3.98c-1.29 0.99 -2.78 0.99 -4.77 0.99c-2.39 0 -4.28 -0.99 -5.67 -1.99c-1.49 -1.99 -2.19 -3.98 -2.19 -5.97c0 -2.98 0.7 -4.97 2.19 -6.96c1.39 -1.99 3.28 -1.99 5.57 -1.99c2.19 0 3.98 0 5.37 1.99c1.39 0.99 2.09 3.98 2.09 5.97c0 0 0 0.99 0 0.99L249.46 2024.49c0.1 1.99 0.6 2.98 1.59 3.98c0.9 0.99 2.09 1.99 3.38 1.99c1.09 0 1.99 -0.99 2.69 -0.99c0.7 -0.99 1.29 -0.99 1.69 -2.98zm-9.15 -3.98h9.25c-0.2 -1.99 -0.5 -2.98 -1.09 -2.98c-0.89 -0.99 -2.09 -1.99 -3.48 -1.99c-1.29 0 -2.39 0 -3.28 0.99c-0.8 0.99 -1.29 1.99 -1.39 3.98zm15.61 9.94L265.27 2015.54h2.06l0.43 1.99c1.19 -0.99 2.98 -1.99 5.27 -2.28c0.99 0.3 1.89 0.3 2.68 0.3C276.61 2016.53 277.21 2016.53 277.61 2017.53c0.4 0 0.7 0.99 0.89 1.99c0.1 0 0.2 0.99 0.2 1.99v10.94h-2.88v-9.94c0 -1.99 -0.1 -1.99 -0.3 -2.98c-0.2 -0.99 -0.6 -0.99 -1.09 -0.99c-0.6 -0.99 -1.29 -0.99 -1.99 -0.99c-1.19 0 -2.19 0.99 -3.08 0.99c-0.89 0.99 -1.29 1.99 -1.29 4.97v8.95zm24.07 -2.98l0.4 2.98C288.64 2032.44 287.95 2032.44 287.35 2032.44c-0.99 0 -1.79 0 -2.39 -0.99c-0.5 0 -0.89 0 -1.19 -0.99c-0.2 0 -0.3 -1.99 -0.3 -3.24l0 -9.69l-2.09 0v-1.99h2.09v-3.98l2.78 -1.99v5.97h2.78v1.99h-2.78l0 9.94c0 0.99 0 0.99 0.1 1.99c0.1 0 0.3 0 0.5 0c0.3 0 0.6 0 0.99 0c0.3 0 0.7 0 1.19 0zm11.64 -16.91v-2.98h2.78L303.46 2012.56zm0 19.89v-16.91h2.78v16.91zm5.87 -4.97l2.78 -0.99c0.2 0.99 0.6 1.99 1.29 2.98C311.32 2029.46 312.31 2030.46 313.6 2030.46c1.29 0 2.29 -0.99 2.88 -0.99c0.6 -0.99 0.89 -0.99 0.89 -1.99c0 -0.99 -0.3 -0.99 -0.8 -0.99c-0.4 -0.99 -1.29 -0.99 -2.88 -0.99c-1.99 -0.99 -3.48 -0.99 -4.28 -1.99c-0.8 0 -1.39 -0.99 -1.79 -0.99c-0.4 -0.99 -0.6 -1.99 -0.6 -2.98c0 0 0.2 -0.99 0.5 -1.99c0.3 0 0.8 -0.99 1.39 -0.99c0.4 0 0.99 -0.99 1.79 -0.99c0.7 0 1.49 0 2.39 0c1.29 0 2.49 0 3.38 0c0.99 0.99 1.79 0.99 2.19 1.99C319.17 2017.53 319.47 2018.52 319.67 2019.52l-2.78 0.99c-0.1 -0.99 -0.4 -1.99 -0.99 -1.99c-0.6 -0.99 -1.49 -0.99 -2.59 -0.99c-1.29 0 -2.19 0 -2.68 0.99c-0.6 0 -0.9 0.99 -0.9 0.99c0 0.99 0.1 0.99 0.4 0.99c0.2 0 0.6 0.99 0.99 0.99c0.3 0 1.19 0 2.49 0.99c1.99 0 3.38 0.99 4.18 0.99c0.8 0 1.39 0.99 1.79 0.99c0.5 0.99 0.7 1.99 0.7 2.98c0 0.99 -0.3 1.99 -0.8 1.99C318.88 2030.46 318.18 2031.45 317.09 2030.99C316.09 2032.44 314.9 2032.44 313.6 2032.63c-2.09 -0.18 -3.78 -0.18 -4.87 -1.18c-1.09 -0.99 -1.89 -2.98 -2.19 -3.98zm25.86 10.94v-22.87l2.59 -0.24v2.23c0.6 -0.99 1.29 -0.99 1.99 -1.99c0.8 0 1.69 0 2.78 0c1.39 0 2.68 0 3.78 1.02c0.99 0.97 1.89 1.96 2.39 2.96c0.6 0.99 0.8 2.98 0.8 3.98c0 1.99 -0.3 2.98 -0.89 4.97c-0.6 0.99 -1.49 1.99 -2.59 2.98c-1.19 0.99 -2.39 0.99 -3.68 0.99c-0.89 0 -1.79 0 -2.49 -0.99c-0.8 0 -1.39 0 -1.89 -0.99l0 7.96zm2.59 -14.92c0 2.98 0.4 3.98 1.29 4.97c0.8 0.99 1.89 1.99 3.08 1.99c1.29 0 2.29 -0.99 3.18 -2.1c0.89 -0.88 1.39 -2.87 1.39 -4.86c0 -1.99 -0.5 -2.98 -1.29 -4.97c-0.89 -0.99 -1.89 -0.99 -3.18 -0.99c-1.19 0 -2.19 0 -3.08 1.99c-0.99 0.99 -1.39 1.99 -1.39 3.98zm15.12 8.95v-16.91h2.49v2.98c0.7 -1.99 1.29 -1.99 1.79 -2.98c0.6 0 1.19 0 1.79 0c0.99 0 1.99 0 2.88 0.99l-0.89 1.99c-0.7 0 -1.39 0 -2.09 0c-0.6 0 -1.19 0 -1.69 0c-0.4 0.99 -0.8 0.99 -0.99 1.99C353.08 2021.51 352.89 2022.5 352.89 2023.49v8.95zm9.65 -8.95c0 -2.98 0.8 -4.97 2.59 -5.97c1.39 -1.99 3.08 -1.99 5.17 -1.99c2.19 0 4.08 0 5.57 1.99c1.39 0.99 2.09 2.98 2.09 5.73c0 2.23 -0.3 4.22 -0.89 5.21c-0.7 0.99 -1.59 1.99 -2.78 2.98c-1.19 0.99 -2.59 0.99 -3.98 0.99c-2.39 0 -4.18 -0.99 -5.67 -1.99C360.44 2028.47 359.75 2026.48 359.75 2023.49zm2.88 0c0 1.99 0.4 3.98 1.39 4.97c0.89 0.99 2.09 1.99 3.48 1.99c1.39 0 2.49 -0.99 3.48 -1.99c0.89 -0.99 1.29 -2.98 1.29 -4.97c0 -1.99 -0.4 -2.98 -1.39 -3.98c-0.89 -0.99 -1.99 -1.99 -3.38 -1.99c-1.39 0 -2.59 0.99 -3.48 1.99c-0.99 0.99 -1.39 1.99 -1.39 3.98zm26.55 8.95v-1.99c-0.99 0.99 -2.59 1.99 -4.57 1.99c-1.39 0 -2.59 0 -3.68 -0.99c-1.09 -0.99 -1.89 -1.99 -2.59 -2.98c-0.6 -0.99 -0.89 -2.98 -0.89 -4.97c0 -0.99 0.3 -2.98 0.89 -3.98c0.5 -0.99 1.29 -2.98 2.39 -2.98c1.09 -0.99 2.39 -0.99 3.68 -0.99C385.4 2015.54 386.3 2015.54 387.09 2015.54c0.8 0.99 1.39 0.99 1.89 1.99v-7.96h2.78v22.87zM380.33 2023.49c0 2.98 0.5 3.98 1.39 4.97c0.89 0.99 1.89 1.99 3.08 1.99c1.29 0 2.29 -0.99 3.18 -1.99C388.79 2027.47 389.28 2026.48 388.83 2024.49c0.45 -2.98 -0.05 -3.98 -0.94 -4.97C387.09 2018.52 386 2017.53 384.71 2017.53c-1.19 0 -2.29 0.99 -3.08 1.99c-0.89 0.99 -1.29 1.99 -1.29 3.98zm26.65 8.92L406.98 2029.46c-1.29 1.99 -2.98 2.98 -5.17 2.98c-0.99 0 -1.89 0 -2.78 -0.99c-0.8 0 -1.49 0 -1.89 -1.19C396.74 2029.46 396.44 2029.46 396.34 2028.47c-0.1 -0.99 -0.2 -0.99 -0.2 -2.98v-10.16l2.78 0.22v8.95c0 1.99 0.1 2.98 0.2 2.98c0.2 0.99 0.5 1.99 1.09 1.99c0.6 0 1.29 0.99 2.09 0.99c0.89 0 1.69 -0.99 2.39 -0.99c0.7 0 1.29 -0.99 1.59 -1.99c0.3 -0.99 0.4 -1.99 0.4 -2.98v-8.95L409.57 2015.54v16.91zm17.7 -5.97h2.78c-0.3 1.99 -1.09 2.98 -2.82 3.98C423.89 2031.45 422.4 2032.44 420.61 2032.44C418.32 2032.44 416.53 2031.45 415.14 2030.46c-1.39 -1.99 -2.09 -3.98 -1.93 -6.96C413.05 2022.5 413.35 2020.51 413.94 2019.52c0.6 -1.99 1.49 -2.98 2.68 -2.98c1.19 -0.99 2.49 -0.99 4.24 -0.99C422.4 2015.54 423.89 2015.54 424.98 2016.53C426.08 2017.53 426.87 2018.52 427.17 2020.51h-2.68C424.19 2019.52 423.69 2018.52 423.09 2018.52C422.4 2017.53 421.6 2017.53 420.71 2017.53c-1.39 0 -2.59 0.99 -3.48 1.99c-0.89 0.99 -1.29 1.99 -1.29 3.98c0 2.98 0.4 3.98 1.29 4.97c0.8 0.99 1.99 1.99 3.28 1.99c1.09 0 2.09 -0.99 2.78 -0.99c0.7 -0.99 1.19 -1.99 1.39 -2.98zm16.41 0l2.88 0.99c-0.4 0.99 -1.29 2.98 -2.49 3.98c-1.19 0.99 -2.78 0.99 -4.77 0.99c-2.39 0 -4.28 -0.99 -5.67 -1.99c-1.49 -1.99 -2.19 -3.98 -2.19 -5.53c0 -3.42 0.8 -5.41 2.19 -7.39c1.39 -1.99 3.28 -1.99 5.57 -1.99c2.19 0 3.98 0 5.37 1.99c1.39 0.99 2.09 3.98 2.09 5.97C444.08 2023.49 444.08 2024.49 444.08 2024.49h-12.33c0.1 1.99 0.7 2.98 1.59 3.98c0.89 0.99 2.09 1.99 3.48 1.99c0.99 0 1.89 -0.99 2.59 -0.99c0.7 -0.99 1.29 -0.99 1.69 -2.98zm-9.15 -3.98l9.25 0c-0.2 -1.99 -0.5 -2.98 -1.09 -2.98c-0.89 -0.99 -2.09 -1.99 -3.48 -1.99c-1.29 0 -2.39 0 -3.18 0.99c-0.89 0.99 -1.39 1.99 -1.49 3.98zm26.35 9.94v-1.99c-1.09 0.99 -2.59 1.99 -4.67 1.99c-1.29 0 -2.49 0 -3.58 -0.99c-1.09 -0.99 -1.99 -1.99 -2.59 -2.98c-0.6 -0.99 -0.89 -2.98 -0.89 -4.97c0 -0.99 0.2 -2.98 0.8 -3.98C447.86 2018.52 448.75 2016.53 449.84 2016.53c1.09 -0.99 2.29 -0.99 3.68 -0.99c0.99 0 1.89 0 2.68 0c0.7 0.99 1.39 0.99 1.89 1.99v-7.96l2.78 0v22.87zm-8.85 -8.95c0 2.98 0.4 3.98 1.29 4.97c0.89 0.99 1.99 1.99 3.18 1.99c1.19 0 2.19 -0.99 3.08 -1.99c0.89 -0.99 1.29 -1.99 1.29 -3.98c0 -2.98 -0.4 -3.98 -1.29 -4.97c-0.89 -0.99 -1.99 -1.99 -3.18 -1.99c-1.29 0 -2.29 0.99 -3.18 1.99c-0.8 0.99 -1.19 1.99 -1.19 3.98zm27.25 8.95h-2.59v-22.87h2.78v7.96c1.19 -1.99 2.68 -1.99 4.48 -1.99c0.99 0 1.99 0 2.88 0c0.89 0.99 1.69 0.99 2.29 1.8c0.6 1.18 0.99 2.18 1.29 3.17c0.4 0.99 0.5 1.99 0.5 2.98c0 2.98 -0.7 4.97 -2.09 6.96c-1.39 0.99 -3.08 1.99 -4.97 1.99c-1.99 0 -3.48 -0.99 -4.57 -1.99zm-0.1 -8.95C476.59 2025.48 476.89 2027.47 477.39 2028.47c0.89 0.99 2.09 1.99 4.04 1.99c0.83 0 1.83 -0.99 2.72 -1.99c0.89 -0.99 1.39 -2.98 1.39 -4.97c0 -1.99 -0.5 -2.98 -1.29 -3.98c-0.89 -0.99 -1.89 -1.99 -3.08 -1.99c-1.29 0 -2.29 0.99 -3.18 1.99c-0.89 0.99 -1.39 1.99 -1.39 3.98zm15.12 14.92L491.31 2035.43c0.7 0.99 1.19 0.99 1.69 0.99C493.6 2036.42 494.1 2036.42 494.49 2035.43c0.3 0 0.6 0 0.89 -0.99c0.2 0 0.4 -0.99 0.8 -1.99c0.1 0 0.2 0 0.3 0l-6.27 -16.91l2.98 0l3.48 9.94c0.4 0.99 0.8 1.99 1.19 3.98c0.3 -1.99 0.7 -2.98 1.09 -3.98l3.58 -9.94h2.78l-6.27 16.91c-0.7 1.99 -1.19 2.98 -1.59 3.98c-0.5 0.99 -1.09 0.99 -1.69 1.99c-0.7 0 -1.39 0 -2.29 0c-0.6 0 -1.19 0 -1.79 0zM517.17 2032.44v-14.92h-2.49v-1.99h2.49v-1.99c0 -0.99 0.1 -1.99 0.3 -1.99c0.3 -0.99 0.8 -1.99 1.49 -1.99c0.6 0 1.59 -0.99 2.78 -0.99c0.8 0 1.69 0 2.42 0.99l-0.24 1.99c-0.6 0 -1.09 0 -1.13 0c-1.35 0 -1.95 0 -2.25 0c-0.4 0.99 -0.6 1.99 -0.6 2.98l0 0.99h3.28v1.99L519.95 2017.53v14.92zm8.15 0v-16.91h2.49L527.81 2018.52c0.7 -1.99 1.29 -1.99 1.79 -2.98c0.6 0 1.19 0 1.79 0c0.99 0 1.89 0 2.88 0.99l-0.89 1.99c-0.7 0 -1.39 0 -2.09 0c-0.6 0 -1.19 0 -1.69 0c-0.5 0.99 -0.8 0.99 -0.99 1.99C528.31 2021.51 528.11 2022.5 528.11 2023.49L528.11 2032.44z"/><path fill="none" stroke="#020700" d="M547.3 2026.48l2.88 0.99c-0.5 0.99 -1.29 2.98 -2.59 3.98c-1.19 0.99 -2.78 0.99 -4.67 0.99c-2.39 0 -4.38 -0.99 -5.77 -1.99c-1.39 -1.99 -2.09 -3.98 -2.09 -5.97c0 -2.98 0.7 -4.97 2.09 -6.96c1.49 -1.99 3.28 -1.99 5.57 -1.99c2.29 0 4.08 0 5.47 1.99c1.39 0.99 2.09 3.98 2.09 5.97c0 0 0 0.99 0 0.99h-12.33c0.1 1.99 0.6 2.98 1.49 3.98c0.99 0.99 2.09 1.99 3.48 1.99c0.99 0 1.89 -0.99 2.59 -0.99c0.8 -0.99 1.39 -0.99 1.79 -2.98zm-9.25 -3.98h9.25c-0.1 -1.99 -0.5 -2.98 -0.99 -2.98C545.41 2018.52 544.22 2017.53 542.83 2017.53c-1.29 0 -2.39 0 -3.28 0.99c-0.9 0.99 -1.39 1.99 -1.49 3.98zm26.95 3.98l2.88 0.99c-0.5 0.99 -1.29 2.98 -2.49 3.98c-1.29 0.99 -2.88 0.99 -4.77 0.99c-2.39 0 -4.28 -0.99 -5.77 -1.99c-1.39 -1.99 -2.09 -3.98 -2.09 -5.97C552.77 2021.51 553.47 2019.52 554.96 2017.53c1.39 -1.99 3.28 -1.99 5.47 -1.99c2.29 0 4.08 0 5.47 1.99C567.29 2018.52 567.98 2021.51 567.98 2023.49c0 0 0 0.99 0 0.99h-12.33C555.75 2026.48 556.25 2027.47 557.24 2028.47C558.14 2029.46 559.23 2030.46 560.63 2030.46c0.99 0 1.89 -0.99 2.69 -0.99c0.7 -0.99 1.29 -0.99 1.69 -2.98zm-9.15 -3.98h9.15c-0.1 -1.99 -0.5 -2.98 -0.99 -2.98c-0.89 -0.99 -2.09 -1.99 -3.48 -1.99c-1.29 0 -2.39 0 -3.28 0.99c-0.9 0.99 -1.29 1.99 -1.39 3.98zm28.94 9.94L578.53 2015.54h2.98l3.58 9.94c0.3 0.99 0.7 1.99 0.99 2.98c0.3 -0.99 0.6 -1.99 1.09 -2.98l3.58 -9.94h2.88L587.48 2032.44zm22.67 -5.97l2.88 0.99c-0.5 0.99 -1.29 2.98 -2.59 3.98c-1.19 0.99 -2.78 0.99 -4.67 0.99c-2.39 0 -4.38 -0.99 -5.77 -1.99c-1.39 -1.99 -2.09 -3.98 -2.09 -5.97c0 -2.98 0.7 -4.97 2.09 -6.96c1.49 -1.99 3.28 -1.99 5.57 -1.99c2.29 0 4.08 0 5.47 1.99c1.39 0.99 2.09 3.98 2.09 5.97C610.45 2023.49 610.45 2024.49 610.45 2024.49L598.12 2024.49c0.1 1.99 0.6 2.98 1.49 3.98c0.99 0.99 2.09 1.99 3.48 1.99C604.08 2030.46 604.98 2029.46 605.67 2029.46c0.8 -0.99 1.39 -0.99 1.79 -2.98zM598.22 2022.5h9.25c-0.1 -1.99 -0.5 -2.98 -0.99 -2.98c-0.9 -0.99 -2.09 -1.99 -3.48 -1.99c-1.29 0 -2.39 0 -3.28 0.99C598.81 2019.52 598.32 2020.51 598.22 2022.5zm15.61 9.94L613.83 2015.54h2.49v2.98c0.7 -1.99 1.29 -1.99 1.79 -2.98c0.6 0 1.19 0 1.79 0C620.89 2015.54 621.78 2015.54 622.78 2016.53l-0.9 1.99c-0.7 0 -1.39 0 -2.09 0c-0.6 0 -1.19 0 -1.69 0c-0.5 0.99 -0.8 0.99 -0.99 1.99C616.81 2021.51 616.61 2022.5 616.61 2023.49v8.95zM623.38 2027.47l2.78 -0.99c0.1 0.99 0.6 1.99 1.29 2.98c0.7 0 1.69 0.99 2.98 0.99c1.29 0 2.19 -0.99 2.88 -0.99c0.6 -0.99 0.9 -0.99 0.9 -1.99c0 -0.99 -0.3 -0.99 -0.8 -0.99c-0.4 -0.99 -1.39 -0.99 -2.88 -0.99c-2.09 -0.99 -3.48 -0.99 -4.28 -1.99c-0.8 0 -1.39 -0.99 -1.79 -0.99c-0.4 -0.99 -0.6 -1.99 -0.6 -2.98c0 0 0.1 -0.99 0.5 -1.99c0.3 0 0.8 -0.99 1.39 -0.99c0.4 0 0.99 -0.99 1.69 -1.43c0.8 0.44 1.59 0.44 2.49 0.44c1.29 0 2.39 0 3.38 0c0.99 0.99 1.69 0.99 2.19 1.99c0.5 0 0.8 0.99 0.99 1.99l-2.78 0.99c-0.1 -0.99 -0.5 -1.99 -1.09 -1.99c-0.6 -0.99 -1.39 -0.99 -2.49 -0.99c-1.29 0 -2.19 0 -2.78 0.99c-0.5 0 -0.8 0.99 -0.8 0.99c0 0.99 0.1 0.99 0.3 0.99c0.3 0 0.6 0.99 1.09 0.99c0.3 0 1.09 0 2.49 0.99c1.99 0 3.38 0.99 4.18 0.99c0.7 0 1.39 0.99 1.79 0.99C636.9 2025.48 637.1 2026.48 637.1 2027.47c0 0.99 -0.3 1.99 -0.8 1.99c-0.6 0.99 -1.39 1.99 -2.39 1.99c-0.99 0.99 -2.19 0.99 -3.48 0.99c-2.19 0 -3.78 0 -4.87 -0.99c-1.19 -0.99 -1.89 -2.98 -2.19 -3.98zm17.01 -14.92v-2.98h2.88v2.98zm0.06 19.89l0 -16.91h3.35l-0.47 16.91zm6.07 -8.95c0 -2.98 0.9 -4.97 2.59 -5.97c1.39 -1.99 3.08 -1.99 5.17 -1.99c2.29 0 4.08 0 5.57 1.99c1.39 0.99 2.09 2.98 2.09 5.97c0 1.99 -0.3 3.98 -0.9 4.97c-0.7 0.99 -1.59 1.99 -2.78 3.47c-1.19 0.51 -2.59 0.51 -3.98 0.51c-2.29 0 -4.18 -0.99 -5.67 -1.99c-1.39 -1.99 -2.09 -3.98 -2.09 -6.96zm2.88 0c0 1.99 0.5 3.98 1.39 4.97c0.9 0.99 2.09 1.99 3.48 1.99c1.39 0 2.49 -0.99 3.48 -1.99c0.9 -0.99 1.39 -2.98 1.39 -4.97c0 -1.99 -0.5 -2.98 -1.39 -3.98c-0.99 -0.99 -2.09 -1.99 -3.48 -1.99c-1.39 0 -2.59 0.99 -3.48 1.99c-0.9 0.99 -1.39 1.99 -1.39 3.98zm15.91 8.95v-16.91L667.73 2015.54v2.45c1.19 -1.46 2.98 -2.45 5.27 -2.45c0.99 0 1.89 0 2.68 0c0.9 0.99 1.49 0.99 1.89 1.99c0.4 0 0.7 0.99 0.9 1.99c0.1 0 0.1 0.99 0.1 1.99v10.94l-2.78 0v-9.94c0 -1.99 -0.1 -1.99 -0.3 -2.98c-0.2 -0.99 -0.6 -0.99 -1.19 -0.99c-0.5 -0.99 -1.19 -0.99 -1.89 -0.99C671.21 2017.53 670.11 2018.52 669.32 2018.52c-0.9 0.99 -1.29 1.99 -1.29 4.97v8.95zm25.46 -8.95c0 -2.98 0.9 -4.97 2.59 -5.97c1.39 -1.99 3.08 -1.99 5.17 -1.99C700.74 2015.54 702.53 2015.54 704.03 2017.53c1.39 0.99 2.09 2.98 2.09 5.97c0 1.99 -0.3 3.98 -0.9 4.97c-0.7 0.99 -1.59 1.99 -2.78 2.98c-1.19 0.99 -2.59 0.99 -3.98 0.99c-2.29 0 -4.18 -0.99 -5.67 -1.99c-1.39 -1.99 -2.09 -3.98 -2.09 -6.96zm2.88 0c0 1.99 0.5 3.98 1.39 4.97c0.9 0.99 2.09 1.99 3.48 1.99C699.85 2030.46 700.94 2029.46 701.94 2028.47c0.9 -0.99 1.39 -2.98 1.39 -4.97c0 -1.99 -0.5 -2.98 -1.39 -3.98C700.94 2018.52 699.85 2017.53 698.46 2017.53c-1.39 0 -2.59 0.99 -3.48 1.99c-0.9 0.99 -1.39 1.99 -1.39 3.98zm16.51 8.95v-14.92h-2.49l0 -1.99l2.49 -0.46L710.09 2013.55c0 -0.99 0.1 -1.99 0.3 -1.99c0.3 -0.99 0.8 -1.99 1.49 -1.99c0.6 0 1.59 -0.99 2.78 -0.99c0.8 0 1.69 0 2.68 0.99l-0.5 1.99c-0.6 0 -1.09 0 -1.59 0c-0.9 0 -1.49 0 -1.79 0c-0.4 0.99 -0.6 1.99 -0.6 2.98v0.99L716.16 2015.54v1.99h-3.28v14.92zm17.4 0v-22.87h8.55c1.49 0 2.68 0 3.48 0C740.62 2009.57 741.62 2010.57 742.31 2010.57c0.8 0.99 1.39 0.99 1.89 1.99c0.4 0.99 0.7 1.99 0.7 2.98C744.9 2017.53 744.2 2019.52 743.01 2020.51c-1.19 1.99 -3.48 1.99 -6.66 1.99h-5.87l0.32 9.94zm2.98 -12.2l5.87 0.27c1.99 0 3.38 -0.99 4.18 -0.99c0.8 -0.99 1.19 -1.99 1.19 -3.98c0 0 -0.2 -0.99 -0.7 -1.99c-0.5 -0.99 -1.09 -0.99 -1.89 -0.99c-0.5 0 -1.49 -0.99 -2.78 -0.99h-5.87zm17.9 11.93v-16.91L750.86 2015.54v2.82c0.6 -1.83 1.19 -1.83 1.79 -2.82c0.5 0 1.09 0 1.79 0c0.9 0 1.89 0 2.88 0.99l-0.99 1.99c-0.7 0 -1.39 0 -2.09 -0.45c-0.6 0.45 -1.09 0.45 -1.59 0.45c-0.5 0.99 -0.9 0.99 -1.09 1.99c-0.3 0.99 -0.4 1.99 -0.4 2.98v8.95zm10.64 -19.89v-2.98h2.78v2.98zm0 19.89v-16.91L761.8 2015.54v16.91zm7.06 0v-16.91h2.49v1.99c1.19 -0.99 2.98 -1.99 5.27 -1.99c0.99 0 1.89 0 2.78 0c0.8 0.99 1.39 0.99 1.89 1.99c0.4 0 0.7 0.99 0.8 1.99c0.1 0 0.2 0.99 0.2 1.99v10.94h-2.78l0 -9.94c0 -1.99 -0.1 -1.99 -0.4 -2.98c-0.2 -0.99 -0.6 -0.99 -1.09 -0.99c-0.6 -0.99 -1.19 -0.99 -1.99 -0.99c-1.19 0 -2.19 0.99 -3.08 0.99c-0.9 0.99 -1.29 1.99 -1.29 4.97L768.86 2032.44zm23.87 -2.98l0.4 2.98c-0.8 0 -1.49 0 -2.19 0c-0.99 0 -1.79 0 -2.29 -0.99c-0.6 0 -0.99 0 -1.19 -0.99c-0.3 0 -0.4 -1.99 -0.4 -2.98v-9.94h-1.99v-1.99h1.99v-3.98l2.78 -1.99v5.97h2.88v1.99h-2.88v9.94c0 0.99 0.1 0.99 0.2 1.99c0.1 0 0.2 0 0.5 0c0.2 0 0.5 0 0.9 0c0.3 0 0.7 0 1.29 0zm16.61 0v2.98h-15.12c0 -0.99 0.1 -1.99 0.4 -1.99c0.4 -0.99 0.99 -1.99 1.79 -2.98c0.9 -0.99 2.09 -1.99 3.68 -3.98c2.49 -1.99 4.18 -2.98 5.07 -4.97c0.8 -0.99 1.29 -1.99 1.29 -2.98c0 -0.99 -0.4 -1.99 -1.19 -2.98c-0.8 -0.99 -1.89 -0.99 -3.08 -0.99c-1.39 0 -2.49 0 -3.28 0.99c-0.8 0.99 -1.19 1.99 -1.19 3.99l-2.88 -1.01c0.2 -1.99 0.9 -3.98 2.19 -4.97c1.29 -0.99 2.98 -0.99 5.17 -0.99c2.19 0 3.88 0 5.17 0.99c1.29 1.99 1.99 2.98 1.99 4.97c0 0.99 -0.2 1.99 -0.6 2.98c-0.4 0.99 -0.99 1.99 -1.89 2.98c-0.8 0 -2.29 1.99 -4.28 3.98c-1.69 0.99 -2.78 1.99 -3.28 1.99c-0.4 0.99 -0.8 0.99 -1.09 1.99zm4.28 2.98v-22.87l15.41 0v1.99L813.81 2011.56v7.96h10.74v1.99h-10.83l0.09 10.94zm18.89 0v-22.87h2.78v22.87zm17.9 -1.99c-0.99 0 -1.99 0.99 -2.98 0.99c-0.99 0.99 -1.99 0.99 -3.08 0.99c-1.79 0 -3.18 0 -4.18 -0.99c-0.99 -0.99 -1.49 -1.99 -1.49 -3.98c0 -0.99 0.2 -0.99 0.6 -1.99C836.88 2024.49 837.28 2024.49 837.88 2023.49c0.6 0 1.29 0 2.09 0C840.46 2022.5 841.26 2022.5 842.45 2022.5c2.19 0 3.88 0 4.97 -0.99c0 0 0 -0.99 0 -0.99c0 -0.99 -0.3 -1.99 -0.8 -1.99c-0.7 -0.99 -1.79 -0.99 -3.18 -0.99c-1.29 0 -2.29 0 -2.88 0.99c-0.7 0 -1.09 0.99 -1.39 1.99l-2.78 0c0.3 -0.99 0.7 -1.99 1.29 -2.98c0.5 -0.99 1.39 -0.99 2.39 -1.99c1.09 0 2.39 0 3.78 0C845.24 2015.54 846.43 2015.54 847.33 2015.54c0.8 0.99 1.49 0.99 1.89 0.99c0.4 0.99 0.7 1.99 0.9 1.99c0.1 0.99 0.1 1.99 0.1 2.98L850.21 2025.48c0 1.99 0.1 3.98 0.2 4.97c0.1 0 0.4 0.99 0.7 1.99h-2.88c-0.3 -0.99 -0.5 -1.99 -0.6 -1.99z"/><path fill="none" stroke="#020700" d="M847.42 2023.49c-0.99 0.99 -2.59 0.99 -4.57 0.99c-1.19 0.99 -1.99 0.99 -2.49 1.48c-0.4 -0.48 -0.8 -0.48 -1.09 0.51c-0.2 0 -0.4 0.99 -0.4 0.99c0 0.99 0.3 1.99 0.9 1.99C840.36 2030.46 841.16 2030.46 842.25 2030.46c1.09 0 1.99 0 2.88 -0.99c0.8 0 1.39 -0.99 1.79 -1.99c0.3 0 0.5 -0.99 0.5 -2.98zm6.07 3.98l2.78 -0.99c0.1 0.99 0.5 1.99 1.29 2.98c0.7 0 1.69 0.99 2.98 0.99c1.19 0 2.19 -0.99 2.78 -0.99c0.6 -0.99 0.99 -0.99 0.99 -1.99c0 -0.99 -0.3 -0.99 -0.9 -0.99c-0.4 -0.99 -1.29 -0.99 -2.78 -0.99c-2.09 -0.99 -3.48 -0.99 -4.28 -1.55c-0.8 -0.44 -1.39 -1.43 -1.79 -1.43c-0.5 -0.99 -0.7 -1.99 -0.7 -2.98c0 0 0.2 -0.99 0.5 -1.99c0.4 0 0.8 -0.99 1.39 -0.99c0.5 0 1.09 -0.99 1.79 -0.99c0.8 0 1.59 0 2.49 0c1.29 0 2.39 0 3.38 0C864.43 2016.53 865.13 2016.53 865.62 2017.53c0.4 0 0.8 0.99 0.9 1.99l-2.68 0.99c-0.1 -0.99 -0.5 -1.99 -1.09 -1.99c-0.6 -0.99 -1.49 -0.99 -2.49 -0.99c-1.29 0 -2.29 0 -2.78 0.99c-0.6 0 -0.8 0.99 -0.8 0.99c0 0.99 0.1 0.99 0.3 0.99c0.2 0 0.6 0.99 1.09 0.99c0.3 0 1.09 0 2.49 0.99c1.99 0 3.28 0.99 4.08 0.99c0.8 0 1.39 0.99 2.17 0.99c0.12 0.99 0.42 1.99 0.42 2.98c0 0.99 -0.3 1.99 -0.9 1.99c-0.5 0.99 -1.29 1.99 -2.29 1.99c-1.09 0.99 -2.19 0.99 -3.48 0.99c-2.19 0 -3.78 0 -4.97 -0.99c-1.09 -0.99 -1.79 -2.98 -2.09 -3.98zm17.01 4.97v-22.87h2.78v7.96c1.29 -1.99 2.98 -1.99 4.97 -1.99c1.19 0 2.29 0 3.18 0c0.9 0.99 1.49 1.99 1.89 1.96c0.4 1.03 0.6 3.02 0.6 4.01v10.94h-2.78v-10.94c0 -0.99 -0.3 -1.99 -0.9 -2.98c-0.6 -0.99 -1.49 -0.99 -2.59 -0.99c-0.8 0 -1.59 0 -2.39 0.99c-0.7 0 -1.19 0.99 -1.49 1.99c-0.3 0 -0.5 0.99 -0.5 2.98v8.95zm18.5 0v-3.98h2.83l0.35 3.98zm23.77 0l-8.85 -22.87h3.28l5.87 15.91c0.5 1.99 0.9 2.98 1.19 3.98c0.4 -0.99 0.8 -1.99 1.29 -3.98l6.17 -15.91h2.98l-8.85 22.87z"/><path fill="none" stroke="#020700" d="M927.18 2012.56v-2.98h2.78v2.98zm0 19.89v-16.91h2.78v16.91zm5.87 -4.97l2.78 -0.99c0.2 0.99 0.6 1.99 1.29 2.98c0.7 0 1.69 0.99 2.98 0.99c1.29 0 2.29 -0.99 2.88 -0.99c0.6 -0.99 0.9 -0.99 0.9 -1.99c0 -0.99 -0.3 -0.99 -0.8 -0.99c-0.4 -0.99 -1.29 -0.99 -2.88 -0.99c-1.99 -0.99 -3.48 -0.99 -4.28 -1.99c-0.8 0 -1.39 -0.99 -1.79 -0.99c-0.4 -0.99 -0.6 -1.99 -0.6 -2.98c0 0 0.2 -0.99 0.5 -1.99c0.3 0 0.8 -0.99 1.39 -0.99c0.4 0 0.99 -0.99 1.79 -0.99C937.92 2015.54 938.72 2015.54 939.61 2015.54c1.29 0 2.49 0 3.38 0c0.99 0.99 1.79 0.99 2.19 1.99c0.5 0 0.8 0.99 0.99 1.99l-2.78 0.99C943.29 2019.52 942.99 2018.52 942.39 2018.52c-0.6 -0.99 -1.49 -0.99 -2.59 -0.99c-1.29 0 -2.19 0 -2.68 0.99c-0.6 0 -0.9 0.99 -0.9 0.99c0 0.99 0.1 0.99 0.4 0.99c0.2 0 0.6 0.99 0.99 0.99c0.3 0 1.19 0 2.49 0.99c1.99 0 3.38 0.99 4.18 0.99c0.8 0 1.39 0.99 1.79 0.99c0.5 0.99 0.7 1.99 0.7 2.98c0 0.99 -0.3 1.99 -0.8 1.99C945.38 2030.46 944.68 2031.45 943.59 2031.45C942.59 2032.44 941.4 2032.44 940.11 2032.44C938.02 2032.44 936.33 2032.44 935.23 2031.45c-1.09 -0.99 -1.89 -2.98 -2.19 -3.98zm17.1 -14.92v-2.98h2.78L952.94 2012.56zm0 19.89v-16.91h2.78v16.91zm13.13 -2.68l0.4 2.68c-0.8 0 -1.49 0 -2.09 0c-0.99 0 -1.79 0 -2.39 -0.99c-0.5 0 -0.9 0 -1.19 -0.99c-0.2 0 -0.3 -1.99 -0.3 -2.98v-9.94l-2.47 0l0.38 -1.99L957.71 2015.54v-3.98l2.78 -1.99v5.97h2.78L963.28 2017.53h-2.78l0 9.94c0 0.99 0 0.99 0.1 1.99c0.1 0 0.3 0 0.5 0c0.3 0 0.6 0 0.99 0c0.3 0 0.7 0 1.19 0zm14.62 2.98l-5.07 -16.91h2.88l2.68 9.94l0.99 2.98C979.39 2028.47 979.69 2027.47 980.18 2025.48l2.68 -9.94h2.78l2.49 9.94l0.9 2.98l0.9 -2.98l2.88 -9.94h2.68l-5.17 16.91l-2.88 0l-2.68 -9.94l-0.6 -2.98l-3.38 12.93z"/><path fill="none" stroke="#020700" d="M1000.87 2032.44l-5.07 -16.91L998.78 2015.54l2.59 9.94l0.99 2.98c0 0 0.3 -0.99 0.8 -2.98l2.68 -9.94h2.88l2.49 9.94l0.8 2.98l0.9 -2.98l2.88 -9.94l2.68 0l-5.17 16.91h-2.49l-2.97 -9.94l-0.7 -2.98l-3.28 12.93zm22.97 0l-4.97 -16.91h2.88l2.59 9.94l0.99 2.98c0 0 0.3 -0.99 0.9 -2.98l2.59 -9.94h2.88l2.49 9.94l0.8 2.98L1035.97 2025.48l2.78 -9.94l2.68 0l-5.17 16.91h-2.88l-2.59 -9.94l-0.7 -2.98l-3.28 12.93zm20.78 0v-3.98h3.18v3.98zm8.06 5.97v-22.87h2.49v1.99c0.7 -0.99 1.29 -0.99 2.09 -1.99C1058.05 2015.54 1058.94 2015.54 1060.04 2015.54c1.39 0 2.59 0 3.68 0.99c1.09 0.99 1.89 1.99 2.49 2.98c0.5 0.99 0.8 2.98 0.8 3.98c0 1.99 -0.3 2.98 -0.9 4.97c-0.6 0.99 -1.49 1.99 -2.69 2.98c-1.09 0.99 -2.39 0.99 -3.58 0.99c-0.99 0 -1.79 0 -2.59 -0.99C1056.56 2031.45 1055.96 2031.45 1055.46 2030.46l-0.47 7.96zm2.49 -14.92c0 2.98 0.5 3.98 1.29 4.97c0.9 0.99 1.89 1.99 3.18 1.99c1.19 0 2.29 -0.99 3.18 -1.99c0.9 -0.99 1.29 -2.98 1.29 -4.97c0 -1.99 -0.4 -2.98 -1.29 -4.97c-0.9 -0.99 -1.89 -0.99 -3.08 -0.99c-1.19 0 -2.29 0 -3.18 1.99c-0.9 0.99 -1.39 1.99 -1.39 3.98zm15.22 8.95v-16.91h2.49v2.98c0.6 -1.99 1.19 -1.99 1.79 -2.98c0.5 0 1.09 0 1.39 0c0.99 0 1.99 0 2.98 0.99l-0.99 1.99c0 0 -0.99 0 -1.99 0c-0.4 0 -0.9 0 -1.39 0C1074.16 2019.52 1073.86 2019.52 1073.56 2020.51c-0.3 0.99 -0.4 1.99 -0.4 2.98v8.95zm10.64 -19.89v-2.98h2.98v2.98zm0 19.89v-16.91h2.98L1084 2032.44zm6.96 0v-16.91h2.98v1.99c0.99 -0.99 2.98 -1.99 4.97 -1.99c0.99 0 1.99 0 2.98 0c0.99 0.99 0.99 0.99 1.81 1.99c0.18 0 0.18 0.99 0.18 1.99c0.99 0 0.99 0.99 0.99 1.99v10.94L1098.92 2032.44v-9.94C1098.92 2020.51 1098.92 2020.51 1097.93 2019.52c0 -0.99 0 -0.99 -0.99 -0.99c0 -0.99 -0.99 -0.99 -1.99 -0.99c-0.99 0 -1.99 0.99 -2.98 0.99c-0.99 0.99 -0.99 1.99 -0.99 4.97v8.95zm23.87 -2.98v2.98c0 0 -0.99 0 -1.99 0c-0.99 0 -0.99 0 -1.99 -0.99c-0.99 0 -0.99 0 -0.99 -0.99C1106.88 2030.46 1105.88 2028.47 1105.88 2027.47v-9.94l-1.99 0v-1.99h1.99v-3.98l2.98 -1.99v5.97l2.98 0v1.99h-2.98L1108.86 2027.47c0 0.99 0 0.99 0 2.24c0 -0.25 0.99 -0.25 0.99 -0.25c0 0 0 0 0.99 0c0 0 0.99 0 0.99 0zm16.91 0l0 2.98h-14.92c0 -0.99 0 -1.99 0 -1.99c0 -0.99 0.99 -1.99 1.99 -2.98c0.99 -0.99 1.99 -1.99 3.98 -3.98c1.99 -1.99 3.98 -2.98 4.97 -4.97c0 -0.99 0.99 -1.99 0.99 -2.98c0 -0.99 -0.99 -1.99 -0.99 -2.98c-0.99 -0.99 -1.99 -0.99 -2.98 -0.99c-1.99 0 -2.98 0 -3.98 0.99C1116.82 2013.55 1116.82 2014.54 1116.82 2016.53l-2.98 -0.99c0 -1.99 0.99 -3.98 1.99 -4.97c1.99 -0.99 2.98 -0.99 5.97 -0.99c1.99 0 3.98 0 4.97 0.99c0.99 1.99 1.99 2.98 1.99 4.97c0 0.99 0 1.99 -0.99 2.98c0 0.99 -0.99 1.99 -1.99 2.98c-0.99 0 -1.99 1.99 -3.98 3.98c-1.99 0.99 -2.98 1.99 -2.98 2.35c-0.99 0.63 -0.99 0.63 -0.99 1.63zm3.98 2.98v-14.92h-1.99v-1.99h1.99v-1.99c0 -0.99 0 -1.99 0.99 -1.99c0 -0.99 0 -1.99 0.99 -1.99c0.99 0 1.99 -0.99 2.98 -0.99c0.99 0 1.99 0 2.98 0.99l-0.99 1.99c-0.99 0 -0.99 0 -1.99 0c0 0 -0.99 0 -0.99 0c-0.99 0.99 -0.99 1.99 -0.99 2.98v0.99h2.98v1.99h-2.98v14.92zm7.96 0v-22.87l2.98 0v22.87z"/><path fill="none" stroke="#020700" d="M1158.59 2030.46c-0.99 0 -1.99 0.99 -2.98 0.99c-0.99 0.99 -1.99 0.99 -2.98 0.99c-0.99 0 -2.98 0 -3.98 -0.99c-0.99 -0.99 -0.99 -1.99 -0.99 -3.98c0 -0.99 0 -0.99 0 -1.99c0.99 -0.99 0.99 -0.99 1.99 -1.99c0 0 0.99 0 1.99 0c0 -0.99 0.99 -0.99 1.99 -0.99c1.99 0 3.98 0 4.97 -1.08c0 0.08 0 -0.91 0 -0.91c0 -0.99 0 -1.99 -0.99 -1.99c0 -0.99 -0.99 -0.99 -2.98 -0.99c-0.99 0 -1.99 0 -2.98 0.99c0 0 -0.99 0.99 -0.99 1.99L1147.65 2020.51C1147.65 2019.52 1148.64 2018.52 1148.64 2017.53c0.99 -0.99 1.99 -0.99 2.98 -1.99c0.99 0 1.99 0 3.98 0C1156.6 2015.54 1157.59 2015.54 1158.59 2015.54c0.99 0.99 1.99 0.99 1.99 0.99c0 0.99 0.99 1.99 0.99 1.99c0 0.99 0 1.99 0 2.98L1161.57 2025.48c0 1.99 0 3.98 0 4.97c0 0 0.99 0.99 0.99 1.99h-2.98c0 -0.99 0 -1.99 -0.99 -1.99zm0 -6.96c-0.99 0.99 -1.99 0.99 -3.98 0.99c-1.99 0.99 -1.99 0.99 -2.98 0.99c0 0 -0.99 0 -0.99 0.99c0 0 0 0.99 0 0.99c0 0.99 0 1.99 0.99 1.99c0 0.99 0.99 0.99 1.99 0.99c0.99 0 1.99 0 2.98 -0.99c0.99 0 0.99 -0.99 1.99 -1.99c0 0 0 -0.99 0 -2.98zm5.97 3.98l2.98 -0.99C1167.54 2027.47 1168.53 2028.47 1168.53 2029.46c0.99 0 1.99 0.99 2.98 0.99c1.99 0 2.98 -0.99 2.6 -0.99c1.38 -0.99 1.38 -0.99 1.38 -1.99c0 -0.99 0 -0.99 -0.99 -0.99c0 -0.99 -0.99 -0.99 -2.98 -0.99C1169.53 2024.49 1168.53 2024.49 1167.54 2023.49c-0.99 0 -0.99 -0.99 -1.99 -0.99c0 -0.99 0 -1.99 0 -2.98c0 0 0 -0.99 0 -1.99c0.99 0 0.99 -0.99 1.99 -0.99c0 0 0.99 -0.99 0.99 -0.99c0.99 0 1.99 0 2.98 0c0.99 0 1.99 0 2.98 0c0.99 0.99 1.99 0.99 1.99 1.99c0.99 0 0.99 0.99 0.99 1.99l-1.99 0.99c0 -0.99 -0.99 -1.99 -0.99 -1.99c-0.99 -0.99 -1.99 -0.99 -2.98 -0.99c-0.99 0 -1.99 0 -2.98 0.99c0 0 -0.99 0.99 -0.99 0.99c0 0.99 0.99 0.99 1.48 0.99c-0.49 0 -0.49 0.99 0.5 0.99c0 0 0.99 0 1.99 0.99c1.99 0 3.98 0.99 4.97 0.99c0 0 0.99 0.99 0.99 0.99c0.99 0.99 0.99 1.99 0.99 2.98c0 0.99 0 1.99 -0.99 1.99c0 0.99 -0.99 1.99 -1.99 1.99c-0.99 0.99 -1.99 0.99 -3.98 0.82c-1.99 0.18 -2.98 0.18 -4.97 -0.82c-0.99 -0.99 -0.99 -2.98 -1.99 -3.98zm16.91 4.97v-22.87h2.98L1184.44 2017.53c1.99 -1.99 2.98 -1.99 4.97 -1.99c0.99 0 1.99 0 2.98 0c0.99 0.99 1.99 1.99 1.99 1.99c0.99 0.99 0.99 2.98 0.99 3.98v10.94h-2.98v-11.02c0 -0.92 0 -1.91 -0.99 -2.91c0 -0.99 -0.99 -0.99 -1.99 -0.99c-0.99 0 -1.99 0 -2.98 0.99c0 0 -0.99 0.99 -0.99 1.99c-0.99 0 -0.99 0.99 -0.99 2.98v8.95zm18.89 0v-3.98h2.98v3.98zm18.89 -5.97h2.98c-0.99 1.99 -0.99 2.98 -2.98 3.98c-0.99 0.99 -1.99 1.99 -3.98 1.99c-1.99 0 -3.98 -0.99 -5.97 -1.99c-0.99 -1.99 -1.99 -3.98 -1.99 -6.96c0 -0.99 0.99 -2.98 0.99 -3.98c0.99 -1.99 1.99 -2.98 2.98 -2.98C1212.29 2015.54 1213.28 2015.54 1215.27 2015.54c1.99 0 2.98 0 3.98 0.99c0.99 0.99 1.99 1.99 1.99 3.63l-1.99 0.35c-0.99 -0.99 -0.99 -1.99 -1.99 -1.99c0 -0.99 -0.99 -0.99 -1.99 -0.99c-0.99 0 -2.98 0.99 -3.98 1.99c0 0.99 -0.99 1.99 -0.99 3.98c0 2.98 0.99 3.98 0.99 4.97c0.99 0.99 1.99 1.99 3.98 1.99c0.99 0 1.99 -0.99 2.98 -0.99C1218.25 2028.47 1219.25 2027.47 1219.25 2026.48zm3.98 -2.98c0 -2.98 0.99 -4.97 2.98 -5.97c0.99 -1.99 2.98 -1.99 4.97 -1.99c1.99 0 3.98 0 4.97 1.99c1.99 0.99 2.98 2.98 2.98 5.97C1239.14 2025.48 1238.14 2027.47 1238.14 2028.47c-0.99 0.99 -1.99 1.99 -2.98 2.98c-0.99 0.99 -2.98 0.99 -3.98 0.99c-1.99 0 -3.98 -0.99 -5.97 -1.99c-0.99 -1.99 -1.99 -3.98 -1.99 -6.96zm2.98 0C1226.21 2025.48 1226.21 2027.47 1227.2 2028.47c0.99 0.99 1.99 1.99 3.98 1.99c0.99 0 1.99 -0.99 2.98 -1.99c0.99 -0.99 1.99 -2.98 1.99 -4.97c0 -1.99 -0.99 -2.98 -1.99 -3.98c-0.99 -0.99 -1.99 -1.99 -2.98 -1.99c-1.99 0 -2.98 0.99 -3.98 1.99c-0.99 0.99 -0.99 1.99 -1.38 3.98zm15.91 8.95v-16.91h1.99v1.99C1245.1 2017.53 1246.1 2016.53 1247.09 2015.54C1247.09 2015.54 1248.09 2015.54 1249.08 2015.54c1.99 0 2.98 0 2.98 0c0.99 0.99 1.99 1.99 1.99 2.98c0.99 -1.99 2.98 -2.98 4.97 -2.98C1261.02 2015.54 1262.01 2015.54 1263 2016.53c0.99 0.99 0.99 1.99 0.99 3.98l0.04 11.93h-2.03v-10.94c0 -0.99 0 -1.99 -0.99 -1.99c0 -0.99 0 -0.99 -0.99 -0.99c0 -0.99 -0.99 -0.99 -0.99 -0.99c-1.99 0 -1.99 0.99 -2.98 0.99c-0.99 0.99 -0.99 1.99 -0.99 3.98v9.94h-2.98L1252.07 2021.51C1252.07 2020.51 1252.07 2019.52 1251.07 2018.52c0 -0.99 -0.99 -0.99 -1.99 -0.99c-0.99 0 -1.99 0 -1.99 0.99c-0.99 0 -1.99 0.99 -1.99 1.99c0 0 0 1.99 0 2.98v8.95zm35.8 0v-14.92h-1.99v-1.99h1.99v-1.99c0 -0.99 0 -1.99 0 -1.99c0.99 -0.99 0.99 -1.99 1.99 -1.99c0.99 0 1.99 -0.99 2.98 -0.99c0.99 0 0.99 0 1.99 0.99v1.99c-0.99 0 -0.99 0 -1.99 0c-0.99 0 -0.99 0 -1.99 0c0 0.99 0 1.99 0 2.98v0.99h2.98v1.99h-2.98v14.92zM1284.88 2023.49c0 -2.98 0.99 -4.97 2.98 -5.97C1288.86 2015.54 1290.85 2015.54 1292.84 2015.54c1.99 0 3.98 0 5.97 2.36c0.99 0.62 1.99 2.61 1.99 5.6c0 1.99 0 3.98 -0.99 4.97c-0.99 0.99 -1.99 1.99 -2.98 2.98c-0.99 0.99 -1.99 0.99 -3.98 0.99c-1.99 0 -3.98 -0.99 -5.97 -1.99c-0.99 -1.99 -1.99 -3.98 -1.99 -6.96zm2.98 0c0 1.99 0.99 3.98 1.5 4.53c1.48 1.44 2.48 2.43 3.47 2.43c0.99 0 2.98 -0.99 3.98 -1.99c0.99 -0.99 0.99 -2.98 0.99 -4.97c0 -1.99 0 -2.98 -0.99 -3.98C1295.82 2018.52 1293.83 2017.53 1292.84 2017.53c-0.99 0 -1.99 0.99 -2.98 1.99C1288.86 2020.51 1287.87 2021.51 1287.87 2023.49zm15.91 8.95v-16.91l2.98 0v2.98c0 -1.99 0.99 -1.99 0.99 -2.98c0.99 0 1.99 0 1.99 0c0.99 0 1.99 0 2.98 0.99l-0.99 1.99c-0.99 0 -0.99 0 -1.99 -0.36c0 0.36 -0.99 0.36 -1.99 0.36c0 0.99 0 0.99 -0.99 1.99c0 0.99 0 1.99 0 2.98v8.95zm19.89 0v-16.91h1.99v1.9c0.99 0.09 0.99 -0.9 1.99 -1.9c0.99 0 1.99 0 2.98 0c1.99 0 2.98 0 2.98 0c0.99 0.99 1.99 1.99 1.99 2.98c0.99 -1.99 2.98 -2.98 4.97 -2.98c1.99 0 2.98 0 3.98 0.99C1345.54 2017.53 1345.54 2018.52 1345.54 2020.51v11.93h-2.98v-10.94c0 -0.99 0 -1.99 0 -1.99c0 -0.99 0 -0.99 -0.99 -0.99C1341.57 2017.53 1340.57 2017.53 1339.58 2017.53c-0.99 0 -1.99 0.99 -1.99 0.99c-0.99 0.99 -1.99 1.99 -1.99 3.98L1335.6 2032.44h-1.99v-10.94C1333.61 2020.51 1332.62 2019.52 1332.62 2018.52c-0.99 -0.99 -0.99 -0.99 -1.99 -0.99c-0.99 0 -1.99 0 -2.98 0.99C1327.64 2018.52 1326.65 2019.52 1326.65 2020.51C1326.65 2020.51 1326.65 2022.5 1326.65 2023.49v8.95zm24.44 -8.95c0.42 -2.98 1.41 -4.97 3.4 -5.97c0.99 -1.99 2.98 -1.99 4.97 -1.99c1.99 0 3.98 0 5.97 1.99c0.99 0.99 1.99 2.98 1.99 5.97C1364.44 2025.48 1364.44 2027.47 1363.44 2028.47c-0.99 0.99 -1.99 1.99 -2.98 2.98c-0.99 0.99 -1.99 0.99 -3.98 0.99c-1.99 0 -3.98 -0.99 -4.97 -1.99c-1.99 -1.99 -2.98 -3.98 -2.98 -6.96zm2.98 0c0 1.99 0.99 3.98 1.99 4.97c0.99 0.99 1.99 1.99 2.98 1.99c1.99 0 2.98 -0.99 3.98 -1.99c0.99 -0.99 0.99 -2.98 0.99 -4.97c0 -1.99 0 -2.98 -0.99 -3.98c-0.99 -0.99 -1.99 -1.99 -3.98 -1.99c-0.99 0 -1.99 0.99 -2.98 1.99c-0.99 0.99 -1.99 1.99 -1.99 3.98zm15.91 8.95v-16.91l2.98 0v2.98c0 -1.99 0.99 -1.99 1.99 -2.98c0 0 0.99 0 0.99 0c0.99 0 1.99 0 2.98 0.99l-0.99 1.99c0 0 -0.99 0 -1.99 0c0 0 -0.99 0 -0.99 0c-0.99 0.99 -0.99 0.99 -1.99 1.99c0 0.99 0 1.99 0 2.98v8.95zm21.88 -5.97l2.98 0.99c0 0.99 -0.99 2.98 -1.99 3.98c-1.99 0.99 -2.98 0.99 -4.97 0.99c-2.98 0 -3.98 -0.99 -5.97 -1.99c-0.99 -1.99 -1.99 -3.98 -1.99 -5.97c0 -2.98 0.99 -4.97 1.99 -6.96c1.99 -1.99 2.98 -1.99 5.97 -1.99c1.99 0 3.98 0 4.97 1.99c1.99 0.99 1.99 3.98 1.99 5.97c0 0 0 0.99 0 0.99h-11.99c0.05 1.99 1.05 2.98 1.05 3.98C1382.34 2029.46 1384.33 2030.46 1385.32 2030.46c0.99 0 1.99 -0.99 2.98 -0.99c0 -0.99 0.99 -0.99 0.99 -2.98zm-8.95 -3.98h8.95c0 -1.99 0 -2.98 -0.99 -2.98c-0.99 -0.99 -1.99 -1.99 -2.98 -1.99c-1.99 0 -2.98 0 -2.98 0.99c-0.99 0.99 -1.99 1.99 -1.99 3.98zm24.86 -9.94v-2.98h1.99v2.98z"/><path fill="none" stroke="#020700" d="M1405.21 2032.44v-16.91h1.99v16.91zm6.96 0v-16.91l1.99 0v1.99c0.99 -0.99 2.98 -1.99 5.97 -1.99c0.99 0 0.99 0 1.99 0c0.99 0.99 1.99 0.99 1.99 1.99c0.99 0 0.99 0.99 0.99 1.99c0 0 0 0.99 0 1.99L1425.1 2032.44L1422.12 2032.44v-9.94c0 -1.99 0 -1.99 0 -2.98c0 -0.99 -0.99 -0.99 -0.98 -0.99c-1.01 -0.99 -1.01 -0.99 -2.01 -0.99C1418.14 2017.53 1417.14 2018.52 1416.15 2018.52c-0.99 0.99 -0.99 1.99 -0.99 4.97l0 8.95zm17.9 0v-14.92h-1.99v-1.99h1.99v-1.99c0 -0.99 0 -1.99 0.99 -1.99c0 -0.99 0 -1.99 0.99 -1.99c0.99 0 1.99 -0.99 2.98 -0.99C1436.04 2008.58 1436.04 2008.58 1437.03 2009.9v1.66c-0.99 0 -0.99 0 -1.99 0c0 0 -0.99 0 -0.99 0c-0.99 0.99 -0.99 1.99 -0.99 2.98v0.99l2.98 0v1.99h-2.98v14.92zm6.96 -8.95c0 -2.98 0.99 -4.97 2.98 -5.97c0.99 -1.99 2.98 -1.99 4.97 -1.99c1.99 0 3.98 0 5.97 1.99c0.99 0.99 1.99 2.98 1.99 5.97C1452.94 2025.48 1452.94 2027.47 1451.95 2028.47c-0.99 0.99 -1.99 1.99 -2.98 2.98c-0.99 0.99 -1.99 0.99 -3.98 0.99c-1.99 0 -3.98 -0.99 -4.97 -1.99c-1.99 -1.99 -2.98 -3.98 -2.98 -6.96zm2.98 0c0 1.99 0.99 3.98 1.99 4.97c0.99 0.99 1.99 1.99 2.98 1.99c1.99 0 2.98 -0.99 3.98 -1.88c0.99 -1.1 0.99 -3.09 0.99 -5.08c0 -1.99 0 -2.98 -0.99 -3.98c-0.99 -0.99 -1.99 -1.99 -3.98 -1.99c-0.99 0 -1.99 0.99 -2.98 1.99C1441.01 2020.51 1440.02 2021.51 1440.02 2023.49zm15.91 8.95v-16.91l2.94 0l0.04 2.98c0 -1.99 0.99 -1.99 1.99 -2.98c0 0 0.99 0 0.99 0c0.99 0 1.99 0 2.98 1.17L1463.88 2018.52c0 0 -0.99 0 -1.99 0c0 0 -0.99 0 -0.99 0c-0.99 0.99 -0.99 0.99 -1.99 1.99c0 0.99 0 1.99 0 2.98v8.95zm10.94 0v-16.91h1.99v1.99c0.99 0 1.99 -0.99 2.98 -1.99c0 0 0.99 0 1.99 0c1.99 0 2.98 0 2.98 0c0.99 0.99 1.99 1.99 1.99 2.98c0.99 -1.99 2.98 -2.98 4.97 -2.98c1.99 0 2.98 0 3.98 0.99c0.99 0.99 0.99 1.99 0.99 3.98v11.93l-1.99 0v-10.94c0 -0.99 0 -1.99 -0.99 -1.99c0 -0.99 0 -0.99 -0.99 -0.99c0 -0.99 -0.99 -0.99 -0.99 -0.99C1481.78 2017.53 1481.78 2018.52 1480.79 2018.52C1479.79 2019.52 1479.79 2020.51 1479.79 2022.5v9.94h-2.98v-10.94c0 -0.99 0 -1.99 -0.99 -2.98c0 -0.99 -0.99 -0.99 -1.99 -0.99C1472.83 2017.53 1471.84 2017.53 1471.84 2018.52c-0.99 0 -1.99 0.99 -1.99 1.99c0 0 0 1.99 0 2.98v8.95zm36.79 -1.99c-0.99 0 -1.99 0.99 -2.98 0.99c-0.99 0.99 -1.99 0.99 -2.98 0.99c-0.99 0 -2.98 0 -3.98 -0.99c-0.99 -0.99 -0.99 -1.99 -0.99 -3.98c0 -0.99 0 -0.99 0 -1.99c0.99 -0.99 0.99 -0.99 1.99 -1.99c0 0 0.99 0 1.99 0c0 -0.99 0.99 -0.99 1.99 -0.99c1.99 0 3.98 0 4.97 -0.99c0 0 0 -0.99 0 -0.99c0 -0.99 0 -1.99 -0.99 -1.99c0 -0.99 -0.99 -0.99 -2.98 -0.99c-0.99 0 -1.99 0 -2.98 0.99c0 0 -0.99 0.99 -0.99 1.99h-2.98c0 -0.99 0.99 -1.99 0.99 -2.98c0.99 -0.99 1.99 -0.99 2.98 -1.99c0.99 0 1.99 0 3.98 0c0.99 0 1.99 0 2.98 0c0.99 0.99 1.99 0.99 1.99 0.99c0 0.99 0.99 1.99 0.99 1.99C1506.64 2019.52 1506.64 2020.51 1506.64 2021.51v3.98c0 1.99 0 3.98 0 4.97c0 0 0.99 0.99 0.99 1.99h-2.98c0 -0.99 0 -1.99 -0.99 -1.99zm0 -6.96c-0.99 0.99 -1.99 0.99 -3.98 0.99C1497.69 2025.48 1497.69 2025.48 1496.7 2025.48c0 0 -0.99 0 -0.99 0.99c0 0 0 0.99 0 0.99c0 0.99 0 1.99 0.99 2c0 0.98 0.99 0.98 1.99 0.98c0.99 0 1.99 0 2.98 -0.99c0.99 0 0.99 -0.99 1.99 -1.99c0 0 0 -0.99 0 -2.98zm13.92 5.97L1517.58 2032.44c-0.99 0 -1.99 0 -1.99 0c-0.99 0 -1.99 0 -2.98 -0.99c0 0 0 0 -0.99 -0.99c0 0 0 -1.99 0 -2.98v-9.94h-1.99v-1.99h1.99L1511.62 2011.56l2.98 -1.99v5.97h2.98v1.99h-2.98v9.94c0 0.99 0 0.99 0 1.99c0 0 0 0 0 0c0.99 0 0.99 0 0.99 0c0.99 0 0.99 0 1.99 0zm1.99 -16.91v-2.98h2.98L1522.56 2012.56zm0 19.89v-16.91l2.98 0v16.91zm5.97 -8.95c0 -2.98 0.99 -4.97 2.98 -5.97c0.99 -1.99 2.98 -1.99 4.97 -1.99c1.99 0 3.98 0 5.97 1.99c0.99 0.99 1.99 2.98 1.99 5.97c0 1.99 0 3.98 -0.99 4.74c-0.99 1.22 -1.99 2.22 -2.98 3.21c-0.99 0.99 -1.99 0.99 -3.98 0.99c-1.99 0 -3.98 -0.99 -4.97 -1.99c-1.99 -1.99 -2.98 -3.98 -2.98 -6.96zm2.98 0c0 1.99 0.99 3.98 1.99 4.97C1531.51 2029.46 1532.5 2030.46 1533.49 2030.46c1.99 0 2.98 -0.99 3.98 -1.99c0.99 -0.99 0.99 -2.98 0.99 -4.97c0 -1.99 0 -2.98 -0.99 -3.98c-0.99 -0.99 -1.99 -1.99 -3.98 -1.99c-0.99 0 -1.99 0.99 -2.98 1.99c-0.99 0.99 -1.99 1.99 -1.99 3.98zm15.91 8.95l0 -16.91h2.98v1.99c0.99 -0.99 2.98 -1.99 4.97 -1.99c0.99 0 1.99 0 2.98 0c0.99 0.99 0.99 0.99 2.43 1.99c-0.44 0 -0.44 0.99 0.55 1.99c0 0 0 0.99 0 1.99L1558.36 2032.44L1555.37 2032.44v-9.94c0 -1.99 0 -1.99 0 -2.98C1554.38 2018.52 1554.38 2018.52 1553.38 2018.52c0 -0.99 -0.99 -0.99 -1.99 -0.99c-0.99 0 -1.99 0.99 -2.98 0.99c-0.99 0.99 -0.99 1.99 -1.07 4.97l0.08 8.95z"/></g></svg>
