<?xml version="1.0" encoding="utf-8"?>
<svg xmlns="http://www.w3.org/2000/svg" xmlns:xlink="http://www.w3.org/1999/xlink" version="1.1" width="1632" height="2112" viewBox="0 0 1632 2112" xml:space="preserve" PageMode="4" layout="0"><defs><style type="text/css"><![CDATA[tspan{white-space:pre}
]]></style></defs><g id="content" view="2"><image x="46" y="0" width="1540" height="2112" xlink:href="img37.jpg"/><path fill="#FDFCF9" d="M67 2000h1500v42h-1500z"/><path fill="none" stroke="#170F19" d="M89.11 2032.44v-20.88h-7.51L81.6 2009.57h18.06v1.99h-7.54v20.88zm13.3 0v-22.87h2.79L105.2 2017.53c1.31 -1.99 2.95 -1.99 4.94 -1.99c1.22 0 2.29 0 3.19 0c0.9 0.99 1.54 1.99 1.93 1.99c0.39 0.99 0.59 2.98 0.59 3.98v10.94h-2.79v-10.94C113.05 2020.51 112.75 2019.52 112.14 2018.52c-0.61 -0.99 -1.46 -0.99 -2.57 -0.99c-0.84 0 -1.61 0 -2.35 0.99c-0.73 0 -1.24 0.99 -1.56 1.99c-0.31 0 -0.47 0.99 -0.47 2.98v8.95zm17.73 -19.89v-2.98h2.32l0.47 2.98zM120.13 2032.44v-16.91h2.79v16.91zm5.95 -4.93l2.77 -0.99c0.15 0.99 0.59 1.99 1.29 2.98c0.71 0 1.7 0.99 2.97 0.99c1.28 0 2.24 -0.99 2.86 -0.99c0.62 -0.99 0.92 -0.99 0.93 -1.99c0 -0.99 -0.28 -0.99 -0.83 -0.99c-0.39 -0.99 -1.34 -0.99 -2.86 -0.99c-2.05 -0.99 -3.47 -0.99 -4.27 -1.99c-0.79 0 -1.39 -0.99 -1.8 -0.99c-0.41 -0.99 -0.62 -1.99 -0.62 -2.98c0 0 0.17 -0.99 0.51 -1.99C127.39 2017.53 127.85 2016.53 128.43 2016.53c0.44 0 1.03 -0.99 1.78 -0.99c0.76 0 1.56 0 2.42 0C133.92 2015.54 135.06 2015.54 136.04 2015.54c0.98 0.99 1.7 0.99 2.17 1.99c0.47 0 0.79 0.99 0.96 1.99l-2.73 0.99c-0.12 -0.99 -0.49 -1.99 -1.08 -1.61c-0.59 -1.37 -1.43 -1.37 -2.52 -1.37c-1.29 0 -2.21 0 -2.75 0.99c-0.55 0 -0.83 0.99 -0.83 0.99c0 0.99 0.12 0.99 0.35 0.99C129.82 2020.51 130.18 2021.51 130.67 2021.37C130.94 2021.51 131.77 2021.51 133.14 2022.5c1.98 0 3.36 0.99 4.14 0.99C138.06 2023.49 138.68 2024.49 139.12 2024.49c0.45 0.99 0.68 1.99 0.68 2.98c0 0.99 -0.28 1.99 -0.82 1.99C138.43 2030.46 137.65 2031.45 136.62 2031.45c-1.02 0.99 -2.19 0.99 -3.48 0.99c-2.15 0 -3.78 0 -4.9 -0.99c-1.12 -0.99 -1.84 -2.98 -2.16 -3.98zm36.57 4.97v-1.99c-1.04 0.99 -2.59 1.99 -4.61 1.99c-1.31 0 -2.53 0 -3.63 -0.99c-1.1 -0.99 -1.96 -1.99 -2.57 -2.98c-0.61 -0.99 -0.9 -2.98 -0.9 -4.97c0 -0.99 0.27 -2.98 0.83 -3.98c0.55 -0.99 1.37 -2.98 2.47 -2.98c1.1 -0.99 2.33 -0.99 3.68 -0.99C158.9 2015.54 159.78 2015.54 160.57 2015.54c0.78 0.99 1.4 0.99 1.89 1.99v-7.96h2.78v22.87zm-8.84 -8.95C153.81 2026.48 154.25 2027.47 155.14 2028.47c0.9 0.99 1.95 1.99 3.16 1.99c1.21 0 2.26 -0.99 3.11 -1.99c0.86 -0.99 1.28 -1.99 1.28 -3.98c0 -2.98 -0.44 -3.98 -1.31 -4.97c-0.87 -0.99 -1.94 -1.99 -3.21 -1.99c-1.24 0 -2.28 0.99 -3.11 1.51c-0.84 1.47 -1.25 2.46 -1.25 4.45zm14.81 0.1c0 -3.08 0.85 -5.07 2.55 -6.07c1.42 -1.99 3.15 -1.99 5.19 -1.99c2.27 0 4.13 0 5.59 1.99c1.39 0.99 2.09 2.98 2.09 5.97C184.03 2025.48 183.73 2027.47 183.13 2028.47c-0.7 0.99 -1.59 1.99 -2.79 2.98c-1.21 0.99 -2.55 0.99 -3.99 0.99c-2.31 0 -4.18 -0.99 -5.6 -1.99C169.33 2028.47 168.61 2026.48 168.61 2023.49zm2.87 0C171.49 2025.48 171.95 2027.47 172.87 2028.47c0.92 0.99 2.08 1.99 3.48 1.99c1.39 0 2.55 -0.99 3.47 -1.99c0.91 -0.99 1.42 -2.98 1.42 -4.97c0 -1.99 -0.51 -2.98 -1.43 -3.98c-0.92 -0.99 -2.08 -1.99 -3.46 -1.99c-1.4 0 -2.56 0.99 -3.48 1.99c-0.92 0.99 -1.38 1.99 -1.38 4.1zm26.66 2.98h2.78c-0.3 1.99 -1.09 2.98 -2.39 3.98c-1.19 0.99 -2.69 1.99 -4.57 1.99c-2.19 0 -3.98 -0.99 -5.37 -1.99C187.21 2028.47 186.51 2026.48 186.51 2023.49C186.51 2022.5 186.81 2020.51 187.41 2019.52c0.6 -1.99 1.49 -2.98 2.68 -2.98c1.19 -0.99 2.49 -0.99 3.98 -0.99c1.79 0 3.18 0 4.38 0.99c1.09 0.99 1.89 1.99 2.19 3.98h-2.69c-0.3 -0.99 -0.8 -1.99 -1.39 -1.99c-0.7 -0.99 -1.49 -0.99 -2.39 -0.99c-1.39 0 -2.59 0.99 -3.48 1.99c-0.9 0.99 -1.29 1.99 -1.29 3.98c0 2.98 0.4 3.98 1.29 4.97c0.8 0.99 1.89 1.99 3.28 1.99c1.09 0 1.99 -0.99 2.78 -0.99c0.7 -0.99 1.19 -1.99 1.39 -2.98zm15.91 5.97v-2.98c-1.29 1.99 -2.98 2.98 -5.17 2.98c-0.99 0 -1.89 0 -2.78 -0.99c-0.8 0 -1.49 0 -1.89 -0.99c-0.4 -0.99 -0.7 -0.99 -0.8 -1.63C203.32 2027.47 203.22 2027.47 203.22 2025.48L203.22 2015.54h2.78v8.95c0 1.99 0.1 2.98 0.2 2.98c0.2 0.99 0.5 1.99 1.09 1.99C207.89 2029.46 208.59 2030.46 209.39 2030.46c0.9 0 1.69 -0.99 2.39 -0.99c0.7 0 1.29 -0.99 1.59 -1.99c0.3 -0.99 0.4 -1.99 0.4 -2.98v-8.95h2.88v16.91zm6.96 0l0 -16.91l2.49 0v1.99c0.5 0 1.19 -0.99 2.09 -1.99c0.8 0 1.79 0 2.88 0c1.19 0 2.29 0 2.98 0c0.8 0.99 1.39 1.99 1.69 2.98c1.29 -1.99 2.98 -2.98 5.07 -2.98c1.69 0 2.88 0 3.78 0.99c0.9 0.99 1.39 1.99 1.39 3.98v11.93h-2.78v-10.94C240.61 2020.51 240.51 2019.52 240.31 2019.52c-0.2 -0.99 -0.5 -0.99 -0.99 -0.99c-0.5 -0.99 -0.99 -0.99 -1.69 -0.99c-1.19 0 -2.09 0.99 -2.88 0.99c-0.8 0.99 -1.19 1.99 -1.19 3.98L233.55 2032.44h-2.78v-10.94c0 -0.99 -0.2 -1.99 -0.7 -2.98c-0.4 -0.99 -1.19 -0.99 -2.19 -0.79c-0.8 -0.21 -1.49 -0.21 -2.19 0.79c-0.7 0 -1.19 0.99 -1.49 1.99c-0.3 0 -0.4 1.99 -0.4 2.98v8.95zm37.79 -5.97l2.88 0.99c-0.4 0.99 -1.29 2.98 -2.49 3.98c-1.29 0.99 -2.78 0.99 -4.77 0.99c-2.39 0 -4.28 -0.99 -5.67 -1.99c-1.49 -1.99 -2.19 -3.98 -2.19 -5.97c0 -2.98 0.7 -4.97 2.19 -6.96c1.39 -1.99 3.28 -1.99 5.57 -1.99C256.52 2015.54 258.31 2015.54 259.71 2017.53c1.39 0.99 2.09 3.98 2.09 5.97c0 0 0 0.99 0 0.99L249.46 2024.49c0.1 1.99 0.6 2.98 1.59 3.98c0.9 0.99 2.09 1.99 3.38 1.99c1.09 0 1.99 -0.99 2.69 -0.99c0.7 -0.99 1.29 -0.99 1.69 -2.98zm-9.15 -3.98h9.25c-0.2 -1.99 -0.5 -2.98 -1.09 -2.98c-0.89 -0.99 -2.09 -1.99 -3.48 -1.99c-1.29 0 -2.39 0 -3.28 0.99c-0.8 0.99 -1.29 1.99 -1.39 3.98zm15.61 9.94v-16.91h2.95l-0.47 1.99C268.95 2016.53 270.74 2015.54 273.03 2015.54c0.99 0 1.89 0 2.68 0c0.9 0.99 1.49 0.99 1.89 1.99C278 2017.53 278.3 2018.52 278.5 2019.52c0.1 0 0.2 0.99 0.2 1.99v10.94l-2.88 0v-9.94c0 -1.99 -0.1 -1.99 -0.3 -2.98c-0.2 -0.99 -0.6 -0.99 -1.09 -0.99c-0.6 -0.99 -1.29 -0.99 -1.99 -0.99c-1.19 0 -2.19 0.99 -3.08 0.99c-0.89 0.99 -1.29 1.99 -1.29 4.97l0 8.95zm23.77 -2.98l0.4 2.98C288.64 2032.44 287.95 2032.44 287.35 2032.44c-0.99 0 -1.79 0 -2.39 -0.99c-0.5 0 -0.89 0 -1.19 -0.99c-0.2 0 -0.3 -1.99 -0.3 -2.98v-9.94h-2.09v-1.99l2.09 0L283.47 2011.56l2.78 -1.99v5.97L289.04 2015.54v1.99h-2.78l-0.11 9.94c0.11 0.99 0.11 0.99 0.21 1.99c0.1 0 0.3 0 0.5 0c0.3 0 0.6 0 0.99 0c0.3 0 0.7 0 1.19 0zm11.64 -16.91v-2.98h2.78v2.98zm0 19.89l0 -16.91h2.78v16.91zm5.87 -4.97l2.78 -0.99c0.2 0.99 0.6 1.99 1.29 2.98c0.7 0 1.69 0.99 2.98 0.99c1.29 0 2.29 -0.99 2.88 -0.99c0.6 -0.99 0.89 -0.99 0.89 -1.99c0 -0.99 -0.3 -0.99 -0.8 -0.99c-0.4 -0.99 -1.29 -0.99 -2.88 -0.99c-1.99 -0.99 -3.48 -0.99 -4.28 -1.99c-0.8 0 -1.39 -0.99 -1.79 -0.99c-0.4 -0.99 -0.6 -1.99 -0.6 -2.98c0 0 0.2 -0.99 0.5 -1.99c0.3 0 0.8 -0.99 1.39 -0.99c0.4 0 0.99 -0.99 2.12 -0.99c0.36 0 1.16 0 2.05 0c1.29 0 2.49 0 3.38 0c0.99 0.99 1.79 0.99 2.19 1.99c0.5 0 0.8 0.99 0.99 1.99l-2.78 0.99c-0.1 -0.99 -0.4 -1.99 -0.99 -1.99c-0.6 -0.99 -1.49 -0.99 -2.59 -0.99c-1.29 0 -2.19 0 -2.68 0.99c-0.6 0 -0.9 0.99 -0.9 0.99c0 0.99 0.1 0.99 0.4 0.99c0.2 0 0.6 0.99 0.99 0.99c0.3 0 1.19 0 2.49 0.99c1.99 0 3.38 0.99 4.18 0.99c0.8 0 1.39 0.99 1.79 0.99c0.5 0.99 0.7 1.99 0.7 2.98c0 0.99 -0.3 1.99 -0.8 1.99c-0.6 0.99 -1.29 1.99 -2.39 1.99c-0.99 0.99 -2.19 0.99 -3.48 0.99c-2.09 0 -3.78 0 -4.87 -0.99C307.64 2030.46 306.84 2028.47 306.54 2027.47zm25.86 10.94v-22.87h2.59l0 1.99c0.6 -0.99 1.29 -0.99 1.99 -1.99c0.8 0 1.69 0 2.78 0c1.39 0 2.68 0 3.78 0.99c0.99 0.99 1.89 1.99 2.39 2.98c0.6 0.99 0.8 2.98 0.8 3.98c0 1.99 -0.3 2.98 -0.89 4.97c-0.6 0.99 -1.49 1.99 -2.59 2.98c-1.19 0.99 -2.39 0.99 -3.68 0.99c-0.89 0 -1.79 0 -2.49 -0.99c-0.8 0 -1.39 0 -1.89 -0.99v7.96zm2.59 -14.92c0 2.98 0.4 3.98 1.29 4.97c0.8 0.99 1.89 1.99 3.08 1.6c1.29 0.39 2.29 -0.6 3.18 -1.6c0.89 -0.99 1.39 -2.98 1.39 -4.97c0 -1.99 -0.5 -2.98 -1.29 -4.97c-0.89 -0.99 -1.89 -0.99 -3.18 -0.99c-1.19 0 -2.19 0 -3.08 1.99c-0.99 0.99 -1.39 1.99 -1.39 3.98zm15.12 8.95v-16.91h2.49v2.98c0.7 -1.99 1.29 -1.99 1.79 -2.98c0.6 0 1.19 0 1.79 0c0.99 0 1.99 0 2.88 0.99l-0.89 1.99c-0.7 0 -1.39 0 -2.09 0c-0.6 0 -1.19 0 -1.69 0c-0.4 0.99 -0.8 0.99 -0.99 1.99c-0.3 0.99 -0.5 1.99 -0.5 2.98v8.95zm9.65 -8.95c0 -2.98 0.8 -4.97 2.59 -5.97c1.39 -1.99 3.08 -1.99 5.17 -1.99c2.19 0 4.08 0 5.57 1.99c1.39 0.99 2.09 2.98 2.09 5.97c0 1.99 -0.3 3.98 -0.89 4.97c-0.7 0.99 -1.59 1.99 -2.78 2.98c-1.19 0.99 -2.59 0.99 -3.98 0.99c-2.39 0 -4.18 -0.99 -5.67 -1.99c-1.39 -1.99 -2.09 -3.98 -2.09 -6.96zm2.88 0c0 1.99 0.4 3.98 1.39 4.97c0.89 0.99 2.09 1.99 3.48 1.99c1.39 0 2.49 -0.99 3.48 -1.99C371.88 2027.47 372.28 2025.48 372.28 2023.49c0 -1.99 -0.4 -2.98 -1.39 -3.98c-0.89 -0.99 -1.99 -1.99 -3.38 -1.99c-1.39 0 -2.59 0.99 -3.48 1.99c-0.99 0.99 -1.39 1.99 -1.39 3.66zm26.55 8.95v-1.99c-0.99 0.99 -2.59 1.99 -4.57 1.99c-1.39 0 -2.59 0 -3.68 -0.99c-1.09 -0.99 -1.89 -1.99 -2.59 -2.98c-0.6 -0.99 -0.89 -2.98 -0.89 -4.97c0 -0.99 0.3 -2.98 0.89 -3.98c0.5 -0.99 1.29 -2.98 2.39 -2.98c1.09 -0.99 2.39 -0.99 3.68 -0.99c0.99 0 1.89 0 2.68 0c0.8 0.99 1.39 0.99 1.89 1.99v-7.96h2.78v22.87zm-8.85 -8.95c0 2.98 0.5 3.98 1.39 4.97c0.89 0.99 1.89 1.99 3.08 1.99c1.29 0 2.29 -0.99 3.18 -1.99c0.8 -0.99 1.29 -1.99 1.29 -3.98c0 -2.98 -0.5 -3.98 -1.39 -4.97c-0.8 -0.99 -1.89 -1.99 -3.18 -1.99c-1.19 0 -2.29 0.99 -3.08 1.99C380.73 2020.51 380.33 2021.51 380.33 2023.49zm26.65 8.95l0 -2.98c-1.29 1.99 -2.98 2.98 -4.93 2.98c-1.24 0 -2.13 0 -3.03 -0.99c-0.8 0 -1.49 0 -1.89 -0.99c-0.4 -0.99 -0.7 -0.99 -0.8 -1.99c-0.1 -0.99 -0.2 -0.99 -0.2 -2.98l0 -9.94h2.75l0.03 8.95c0 1.99 0.1 2.98 0.2 2.98c0.2 0.99 0.5 1.99 1.09 1.99c0.6 0 1.29 0.99 2.09 0.99C403.2 2030.46 404 2029.46 404.7 2029.46c0.7 0 1.29 -0.99 1.59 -1.99c0.3 -0.99 0.4 -1.99 0.4 -2.98v-8.95h2.88v16.91zm17.7 -5.97h2.78c-0.3 1.99 -1.09 2.98 -2.39 3.98c-1.19 0.99 -2.68 1.99 -4.48 1.99c-2.29 0 -4.08 -0.99 -5.47 -1.99c-1.39 -1.99 -2.09 -3.98 -2.09 -6.96c0 -0.99 0.3 -2.98 0.89 -3.98C414.54 2017.53 415.44 2016.53 416.63 2016.53c1.19 -0.99 2.49 -0.99 3.98 -0.99c1.79 0 3.28 0 4.38 0.99c1.09 0.99 1.89 1.99 2.19 3.98h-2.68c-0.3 -0.99 -0.8 -1.99 -1.39 -1.99c-0.7 -0.99 -1.49 -0.99 -2.39 -0.99C419.31 2017.53 418.12 2018.52 417.23 2019.52C416.33 2020.51 415.93 2021.51 415.93 2023.49c0 2.98 0.4 3.98 1.29 4.97c0.8 0.99 1.99 1.99 3.28 1.99c1.09 0 2.09 -0.99 2.78 -0.99c0.7 -0.99 1.19 -1.99 1.39 -2.98z"/><path fill="none" stroke="#170F19" d="M441.09 2026.48l2.88 0.99c-0.4 0.99 -1.29 2.98 -2.49 3.98c-1.19 0.99 -2.78 0.99 -4.77 0.99c-2.39 0 -4.28 -0.99 -5.67 -1.99c-1.49 -1.99 -2.19 -3.98 -2.19 -5.97c0 -2.98 0.8 -4.97 2.19 -6.96c1.39 -1.99 3.28 -1.99 5.57 -1.99c2.19 0 3.98 0 5.37 1.99C443.38 2018.52 444.08 2021.51 444.08 2023.49c0 0 0 0.99 0 0.99L431.75 2024.49C431.84 2026.48 432.44 2027.47 433.34 2028.47c0.89 0.99 2.09 1.99 3.48 1.99c0.99 0 1.89 -0.99 2.59 -0.99c0.7 -0.99 1.29 -0.99 1.69 -2.98zM431.94 2022.5L441.19 2022.5c-0.2 -1.99 -0.5 -2.98 -1.09 -2.98c-0.89 -0.99 -2.09 -1.99 -3.48 -1.99c-1.29 0 -2.39 0 -3.18 0.99c-0.89 0.99 -1.39 1.99 -1.49 3.98zM458.3 2032.44L458.3 2030.46c-1.09 0.99 -2.59 1.99 -4.67 1.99c-1.29 0 -2.49 0 -3.58 -0.99c-1.09 -0.99 -1.99 -1.99 -2.59 -2.98c-0.6 -0.99 -0.89 -2.98 -0.89 -4.97C446.56 2022.5 446.76 2020.51 447.36 2019.52c0.5 -0.99 1.39 -2.98 2.49 -2.98c1.09 -0.99 2.29 -0.99 3.68 -0.99c0.99 0 1.89 0 2.68 0c0.7 0.99 1.39 0.99 1.89 1.99v-7.96h2.78v22.87z"/><path fill="none" stroke="#170F19" d="M449.45 2023.49c0 2.98 0.4 3.98 1.29 4.97c0.89 0.99 1.99 1.99 3.18 1.99C455.11 2030.46 456.11 2029.46 457 2028.47c0.89 -0.99 1.29 -1.99 1.29 -3.98c0 -2.98 -0.4 -3.98 -1.29 -4.97c-0.89 -0.99 -1.99 -1.99 -3.18 -1.99c-1.29 0 -2.29 0.99 -3.18 1.99c-0.8 0.99 -1.19 1.99 -1.19 3.98zm27.25 8.95h-2.59v-22.87l2.78 0L476.89 2017.53c1.19 -1.99 2.68 -1.99 4.48 -1.99c0.99 0 1.99 0 2.88 0c0.89 0.99 1.69 0.99 2.29 1.99c0.6 0.99 0.99 1.99 1.29 2.98c0.4 0.99 0.5 1.99 0.5 2.98c0 2.98 -0.7 4.97 -2.09 6.96c-1.39 0.99 -3.08 1.99 -4.97 1.99C479.28 2032.44 477.79 2031.45 476.69 2030.46zm-0.1 -8.95c0 1.99 0.3 3.98 0.8 4.97c0.89 0.99 2.09 1.99 3.58 1.99c1.29 0 2.29 -0.99 3.18 -1.99c0.89 -0.99 1.39 -2.98 1.39 -4.97c0 -1.99 -0.5 -2.98 -1.29 -3.98c-0.89 -0.99 -1.89 -1.99 -3.08 -1.99C479.88 2017.53 478.88 2018.52 477.99 2019.52c-0.89 0.99 -1.39 1.99 -1.39 3.98zm15.12 14.92L491.31 2035.43c0.7 0.99 1.19 0.99 1.69 0.99c0.6 0 1.09 0 1.49 -0.99c0.3 0 0.6 0 0.89 -0.99c0.2 0 0.4 -0.99 0.8 -1.99c0.1 0 0.2 0 0.3 0l-6.27 -16.91L493.2 2015.54L496.68 2025.48c0.4 0.99 0.8 1.99 1.19 3.98c0.3 -1.99 0.7 -2.98 1.09 -3.67l3.58 -10.25h2.78l-6.27 16.91c-0.7 1.99 -1.19 2.98 -1.59 3.98c-0.5 0.99 -1.09 0.99 -1.69 1.99c-0.7 0 -1.39 0 -2.29 0c-0.6 0 -1.19 0 -1.79 0zm25.46 -5.98v-14.91h-2.49l-0.5 -1.99h2.98v-1.99c0 -0.99 0.1 -1.99 0.3 -1.99c0.3 -0.99 0.8 -1.99 1.49 -1.99C519.56 2009.57 520.55 2008.58 521.74 2008.58c0.8 0 1.69 0 2.68 0.99l-0.5 1.99c-0.6 0 -1.09 0 -1.59 0c-0.9 0 -1.49 0 -1.79 0c-0.4 0.99 -0.6 1.99 -0.6 2.98v0.99h3.28v1.99h-3.28v14.92zm8.15 0v-16.91h2.49v2.98c0.7 -1.99 1.29 -1.99 1.79 -2.98c0.6 0 1.19 0 1.79 0c0.99 0 1.89 0 2.88 0.99l-0.89 1.99c-0.7 0 -1.39 0 -2.09 0c-0.6 0 -1.19 0 -1.69 0c-0.5 0.99 -0.8 0.99 -0.99 1.99c-0.3 0.99 -0.5 1.99 -0.5 2.98L528.11 2032.44zm21.98 -5.97l2.88 0.99c-0.5 0.99 -1.29 2.98 -2.59 3.98c-1.19 0.99 -2.78 0.99 -4.67 0.99c-2.39 0 -4.38 -0.99 -5.77 -1.99c-1.39 -1.99 -2.09 -3.98 -2.09 -5.97c0 -2.98 0.7 -4.97 2.09 -6.96c1.49 -1.99 3.28 -1.99 5.57 -1.99c2.29 0 4.08 0 5.47 1.99c1.39 0.99 2.09 3.98 2.09 5.97c0 0 0 0.99 0 0.99h-12.33c0.1 1.99 0.6 2.98 1.49 3.98c0.99 0.99 2.09 1.99 3.48 1.99c0.99 0 1.89 -0.99 2.59 -1.3c0.8 -0.68 1.39 -0.68 1.79 -2.67zm-9.25 -3.98h9.25c-0.1 -1.99 -0.5 -2.98 -0.99 -2.98c-0.9 -0.99 -2.09 -1.99 -3.48 -1.99c-1.29 0 -2.39 0 -3.28 0.99C538.65 2019.52 538.15 2020.51 538.05 2022.5zm26.95 3.98l2.88 0.99c-0.5 0.99 -1.29 2.98 -2.49 3.98C564.11 2032.44 562.52 2032.44 560.63 2032.44c-2.39 0 -4.28 -0.99 -5.77 -1.99C553.47 2028.47 552.77 2026.48 552.77 2024.49c0 -2.98 0.7 -4.97 2.19 -6.96c1.39 -1.99 3.28 -1.99 5.47 -1.99c2.29 0 4.08 0 5.47 1.99c1.39 0.99 2.09 3.98 2.09 5.97c0 0 0 0.99 0 0.99h-12.33c0.1 1.99 0.6 2.98 1.59 3.98c0.9 0.99 1.99 1.99 3.38 1.99c0.99 0 1.89 -0.99 2.69 -0.99c0.7 -0.99 1.29 -0.99 1.69 -2.98zm-9.15 -4.38h9.15c-0.1 -1.99 -0.5 -2.98 -0.99 -2.98c-0.89 -0.99 -2.09 -1.99 -3.48 -1.99c-1.29 0 -2.39 0 -3.28 0.99c-0.9 0.99 -1.29 1.99 -1.39 3.98zm28.94 9.94L578.53 2015.54h2.98l3.58 9.94c0.3 0.99 0.7 1.99 0.99 2.98c0.3 -0.99 0.6 -1.99 1.09 -2.98l3.58 -9.94h2.88l-6.17 16.91zm22.67 -5.97l2.88 0.99C609.85 2028.47 609.06 2030.46 607.76 2031.45c-1.19 0.99 -2.78 0.99 -4.67 0.99C600.7 2032.44 598.71 2031.45 597.32 2030.46c-1.39 -1.99 -2.09 -3.98 -2.09 -5.97c0 -2.98 0.7 -4.97 2.09 -6.96c1.49 -1.99 3.28 -1.99 5.57 -1.99c2.29 0 4.08 0 5.47 2.33c1.39 0.65 2.09 3.64 2.09 5.63c0 0 0 0.99 0 0.99h-12.33c0.1 1.99 0.6 2.98 1.49 3.98C600.6 2029.46 601.7 2030.46 603.09 2030.79c0.99 -0.33 1.89 -1.33 2.59 -1.33c0.8 -0.99 1.39 -0.99 1.79 -2.98zm-9.25 -3.98h9.25c-0.1 -1.99 -0.5 -2.98 -0.99 -2.98C605.57 2018.52 604.38 2017.53 602.99 2017.53c-1.29 0 -2.39 0 -3.28 0.99c-0.9 0.99 -1.39 1.99 -1.49 3.98zm15.61 9.94l0 -16.91h2.49v2.98c0.7 -1.99 1.29 -1.99 1.79 -2.98c0.6 0 1.19 0 1.79 0c0.99 0 1.89 0 2.88 0.99L621.88 2018.52C621.19 2018.52 620.49 2018.52 619.8 2018.52c-0.6 0 -1.19 0 -1.69 0c-0.5 0.99 -0.8 0.99 -0.99 1.99c-0.3 0.99 -0.5 1.99 -0.5 2.98v8.95zm9.55 -4.97l2.78 -0.99c0.1 0.99 0.6 1.99 1.29 2.98c0.7 0 1.69 0.99 2.98 0.99c1.29 0 2.19 -0.99 2.88 -0.99c0.6 -0.99 0.9 -0.99 0.9 -1.99c0 -0.99 -0.3 -0.99 -0.8 -0.99c-0.4 -0.99 -1.39 -0.99 -2.88 -0.99c-2.09 -0.99 -3.48 -0.99 -4.28 -1.99c-0.8 0 -1.39 -0.99 -1.79 -0.99C624.07 2021.5 623.87 2020.51 623.87 2019.52c0 0 0.1 -0.99 0.5 -1.99c0.3 0 0.8 -0.99 1.39 -0.99c0.4 0 0.99 -0.99 1.69 -0.99c0.8 0 1.59 0 2.49 0c1.29 0 2.39 0 3.38 0c0.99 0.99 1.69 0.99 2.19 1.99C636.01 2017.53 636.3 2018.52 636.5 2019.52l-2.78 0.99c-0.1 -0.99 -0.5 -1.99 -1.09 -1.99c-0.6 -0.99 -1.39 -0.99 -2.49 -0.99c-1.29 0 -2.19 0 -2.78 0.99c-0.5 0 -0.8 0.99 -0.8 0.99c0 0.99 0.1 0.99 0.3 0.99c0.3 0 0.6 0.99 1.09 0.99c0.3 0 1.09 0 2.49 0.99C632.42 2022.5 633.82 2023.49 634.61 2023.49c0.7 0 1.39 0.99 1.79 0.99c0.5 0.99 0.7 1.99 0.7 2.98c0 0.99 -0.3 1.99 -0.8 1.99C635.71 2030.46 634.91 2031.45 633.92 2031.45c-0.99 0.99 -2.19 0.99 -3.48 0.99c-2.19 0 -3.78 0 -4.87 -0.99c-1.19 -0.99 -1.89 -2.98 -2.19 -3.98zm17.01 -14.92v-2.98h2.88v2.98z"/><path fill="none" stroke="#170F19" d="M640.38 2032.44v-16.91h2.88v16.91zm6.07 -8.95c0 -2.98 0.9 -4.97 2.59 -5.97c1.39 -1.99 3.08 -1.99 5.17 -1.99c2.29 0 4.08 0 5.57 1.99c1.39 0.99 2.09 2.98 2.09 5.97c0 1.99 -0.3 3.98 -0.49 4.97c-1.1 0.99 -1.99 1.99 -3.18 2.98c-1.19 0.99 -2.59 0.99 -3.98 0.99c-2.29 0 -4.18 -0.99 -5.67 -1.99c-1.39 -1.99 -2.09 -3.98 -2.09 -6.96zm2.88 0C649.33 2025.48 649.83 2027.47 650.72 2028.47c0.9 0.99 2.09 1.99 3.48 1.99c1.39 0 2.49 -0.99 3.48 -1.99c0.9 -0.99 1.39 -2.98 1.39 -4.97c0 -1.99 -0.5 -2.98 -1.39 -3.98c-0.99 -0.99 -2.09 -1.99 -3.48 -1.99C652.81 2017.53 651.62 2018.52 650.72 2019.52c-0.9 0.99 -1.39 1.99 -1.39 3.98zm15.91 9.34l0 -16.91h2.49v1.99C668.92 2016.53 670.71 2015.54 673 2015.54c0.99 0 1.89 0 2.68 0c0.9 0.99 1.49 0.99 1.89 1.99c0.4 0 0.7 0.99 0.9 1.99C678.57 2019.52 678.57 2020.51 678.57 2021.98l0 10.46h-2.78v-9.94c0 -1.99 -0.1 -1.99 -0.3 -2.98c-0.2 -0.99 -0.6 -0.99 -0.95 -0.99c-0.74 -0.99 -1.43 -0.99 -2.13 -0.99c-1.19 0 -2.29 0.99 -3.08 0.99c-0.9 0.99 -1.29 1.99 -1.29 4.97v8.95z"/><path fill="none" stroke="#170F19" d="M690.7 2023.49c0 -2.98 0.9 -4.97 2.59 -5.97c1.39 -1.99 3.08 -1.99 5.17 -1.99c2.29 0 4.08 0 5.57 1.99C705.42 2018.52 706.11 2020.51 706.11 2023.49C706.11 2025.48 705.82 2027.47 705.22 2028.47c-0.7 0.99 -1.59 1.99 -2.78 2.98c-1.19 0.99 -2.59 0.99 -3.98 0.99C696.17 2032.44 694.28 2031.45 692.79 2030.46c-1.39 -1.99 -2.09 -3.98 -2.09 -6.96zm2.88 0c0 1.99 0.5 3.98 1.39 4.97c0.9 0.99 2.09 1.99 3.48 1.99c1.39 0 2.49 -0.99 3.48 -1.99c0.9 -0.99 1.39 -2.98 1.39 -4.97c0 -1.99 -0.5 -2.98 -1.39 -3.98C700.94 2018.52 699.85 2017.53 698.46 2017.53c-1.39 0 -2.59 0.99 -3.48 1.99c-0.9 0.99 -1.39 1.99 -1.39 3.98zm16.51 8.95l0.45 -14.92h-2.93v-1.99h2.49v-1.99c0 -0.99 0.1 -1.99 0.3 -1.99c0.3 -0.99 0.8 -1.99 1.49 -1.99c0.6 0 1.59 -0.99 2.78 -0.99c0.8 0 1.69 0 2.68 0.99L716.85 2011.56c-0.6 0 -1.09 0 -1.59 0c-0.9 0 -1.49 0 -1.79 0c-0.4 0.99 -0.6 1.99 -0.6 2.98l0 0.99h3.28l0 2.18L712.88 2017.53v14.92zm17.4 0v-22.87h8.55C737.54 2009.57 738.73 2009.57 739.53 2009.57c1.09 0 2.09 0.99 2.78 0.99c0.8 0.99 1.39 0.99 1.89 1.99c0.4 0.99 0.7 1.99 0.7 2.98c0 1.99 -0.7 3.98 -1.89 4.97c-1.19 1.99 -3.48 1.99 -6.5 1.99l-6.03 0v9.94zm2.98 -12.22l5.87 0.29c1.99 0 3.38 -0.99 4.18 -0.99C741.32 2018.52 741.71 2017.53 741.71 2015.54C741.71 2015.54 741.52 2014.54 741.02 2013.55c-0.5 -0.99 -1.09 -0.99 -1.89 -0.99c-0.5 0 -1.49 -0.99 -2.78 -0.99L730.48 2011.56zm17.9 11.93v-16.91L750.86 2015.54v2.98c0.6 -1.99 1.19 -1.99 1.79 -2.98c0.5 0 1.09 0 1.79 0c0.9 0 1.89 0 2.88 0.99l-0.99 1.99c-0.7 0 -1.39 0 -2.09 0c-0.6 0 -1.09 0 -1.59 0c-0.5 0.99 -0.9 0.99 -1.09 1.99c-0.3 0.99 -0.4 1.99 -0.4 2.98v8.95z"/><path fill="none" stroke="#170F19" d="M759.02 2012.56v-2.98h2.78v2.98zm0 19.89v-16.91h2.78v16.91zm7.06 0v-16.91h2.49v1.99C769.76 2016.53 771.55 2015.54 773.84 2015.54c0.99 0 1.89 0 2.78 0c0.8 0.99 1.39 0.99 1.89 1.99c0.4 0 0.7 0.99 0.8 1.99C779.4 2019.52 779.5 2020.51 779.5 2021.51L779.5 2032.44h-2.78l0 -9.94C776.72 2020.51 776.62 2020.51 776.32 2019.52c-0.2 -0.99 -0.6 -0.99 -1.09 -0.99c-0.6 -0.99 -1.19 -0.99 -1.99 -0.99C772.05 2017.53 771.05 2018.52 770.16 2018.52c-0.9 0.99 -1.29 1.99 -1.29 4.97v8.95zm23.97 -2.98l0.29 2.98c-0.8 0 -1.49 0 -2.19 0c-0.99 0 -1.79 0 -2.29 -0.99c-0.6 0 -0.99 0 -1.19 -0.99C784.38 2030.46 784.28 2028.47 784.28 2027.47L784.28 2017.53h-1.99v-1.99h1.99v-3.98l2.78 -1.99l0 5.97l2.88 0v1.99h-2.88v9.94c0 0.99 0.1 0.99 0.2 1.99c0.1 0 0.2 0 0.5 0c0.2 0 0.5 0 0.9 0c0.3 0 0.7 0 1.29 0zm16.61 0v2.98h-15.12c0 -0.99 0.1 -1.99 0.4 -1.99c0.4 -0.99 0.99 -1.99 1.79 -2.98c0.9 -0.99 2.09 -1.99 3.68 -3.98c2.49 -1.99 4.18 -2.98 5.07 -4.97c0.8 -0.99 1.29 -1.99 1.29 -2.98c0 -0.99 -0.4 -1.99 -1.19 -2.98C801.68 2011.56 800.59 2011.56 799.39 2011.56c-1.39 0 -2.49 0 -3.28 0.99c-0.8 0.99 -1.19 1.99 -1.19 3.98l-2.88 -0.99c0.2 -1.99 0.9 -3.98 2.19 -4.97c1.29 -0.99 2.98 -0.99 5.17 -0.99c2.19 0 3.88 0 5.17 0.99c1.29 1.99 1.99 2.98 1.99 4.97c0 0.99 -0.2 1.99 -0.6 2.98c-0.4 0.99 -0.99 1.99 -1.89 2.98c-0.8 0 -2.29 1.99 -4.28 3.98c-1.69 0.99 -2.78 1.99 -3.28 1.99c-0.4 0.99 -0.8 0.99 -1.09 1.99zm4.28 2.98v-22.87L826.24 2009.57v1.99h-12.43v7.96L824.55 2019.52l0 1.99l-10.74 0L813.81 2032.44zm18.89 0L829.72 2009.57l2.78 -0.04L832.51 2032.44zm17.9 -1.99c-0.99 0 -1.99 0.99 -2.98 0.99c-0.99 0.99 -1.99 0.99 -3.43 0.99c-1.45 0 -2.84 0 -3.83 -0.99c-0.99 -0.99 -1.49 -1.99 -1.49 -3.98c0 -0.99 0.2 -0.99 0.6 -1.99c0.4 -0.99 0.8 -0.99 1.39 -1.99c0.6 0 1.29 0 2.09 0c0.5 -0.99 1.29 -0.99 2.49 -0.99c2.19 0 3.88 0 4.97 -0.99c0 0 0 -0.99 0 -0.99c0 -0.99 -0.3 -1.99 -0.8 -1.99c-0.7 -0.99 -1.79 -0.99 -3.18 -1.21c-1.29 0.22 -2.29 0.22 -2.88 1.21c-0.7 0 -1.09 0.99 -1.39 1.99h-2.78c0.3 -0.99 0.7 -1.99 1.29 -2.98c0.5 -0.99 1.39 -0.99 2.39 -1.99c1.09 0 2.39 0 3.78 0C845.24 2015.54 846.43 2015.54 847.33 2015.54c0.8 0.99 1.49 0.99 1.89 0.99c0.4 0.99 0.7 1.99 0.9 1.99c0.1 0.99 0.1 1.99 0.1 2.98v3.98C850.21 2027.47 850.31 2029.46 850.41 2030.46c0.1 0 0.4 0.99 0.7 1.99h-2.88c-0.3 -0.99 -0.5 -1.99 -0.6 -1.99zm-0.2 -6.96c-0.99 0.99 -2.59 0.99 -4.57 0.99c-1.19 0.99 -1.99 0.99 -2.49 0.99c-0.4 0 -0.8 0 -1.09 0.99C839.07 2026.48 838.87 2027.47 838.87 2027.47c0 0.99 0.3 1.99 0.9 1.99C840.36 2030.46 841.16 2030.46 842.25 2030.46c1.09 0 1.99 0 2.88 -0.99c0.8 0 1.39 -0.99 1.79 -1.99c0.3 0 0.5 -0.99 0.5 -2.98zm6.07 3.98L856.28 2026.48c0.1 0.99 0.5 1.99 1.29 2.98c0.7 0 1.69 0.99 2.98 0.99c1.19 0 2.19 -0.99 2.78 -0.99c0.6 -0.99 0.99 -0.99 0.99 -1.99C864.33 2026.48 864.03 2026.48 863.44 2026.48c-0.4 -0.99 -1.29 -0.99 -2.78 -0.99c-2.09 -0.99 -3.48 -0.99 -4.28 -1.99c-0.8 0 -1.39 -0.99 -1.79 -0.99c-0.5 -0.99 -0.7 -1.99 -0.7 -2.98c0 0 0.2 -0.99 0.5 -1.99c0.4 0 0.8 -0.99 1.39 -0.99c0.5 0 1.09 -0.99 1.79 -0.99c0.8 0 1.59 0 2.49 0c1.29 0 2.39 0 3.38 0c0.99 0.99 1.69 0.99 2.19 1.99c0.4 0 0.8 0.99 0.9 1.99l-2.68 0.99c-0.1 -0.99 -0.5 -1.99 -1.09 -1.99c-0.6 -0.99 -1.49 -0.99 -2.49 -0.99c-1.29 0 -2.29 0 -2.78 0.99c-0.6 0 -0.8 0.99 -0.8 0.99c0 0.99 0.1 0.99 0.3 0.99c0.2 0 0.6 0.99 1.09 0.99c0.3 0 1.09 0 2.49 0.99c1.99 0 3.28 0.99 4.08 0.99c0.8 0 1.39 0.99 1.89 0.99c0.4 0.99 0.7 1.99 0.7 2.98C867.21 2028.47 866.92 2029.46 866.32 2029.46c-0.5 0.99 -1.29 1.99 -2.29 1.99c-1.09 0.99 -2.19 0.99 -3.48 0.99c-2.19 0 -3.78 0 -4.97 -0.99c-1.09 -0.99 -1.79 -2.98 -2.09 -3.98zm17.01 4.97l0.06 -22.87L873.28 2009.57v7.96c1.29 -1.99 2.98 -1.99 4.97 -1.99c1.19 0 2.29 0 3.18 0c0.9 0.99 1.49 1.99 1.89 1.99c0.4 0.99 0.6 2.98 0.6 3.98L883.92 2032.44L881.14 2032.44v-10.94c0 -0.99 -0.3 -1.99 -0.9 -2.98c-0.6 -0.99 -1.49 -0.99 -2.59 -0.99c-0.8 0 -1.59 0 -2.39 0.99c-0.7 0 -1.19 0.99 -1.49 1.99c-0.3 0 -0.5 0.99 -0.5 2.98l0 8.95zm18.5 0v-3.98l3.18 0v3.98zm23.77 0l-8.85 -22.87h3.28l5.87 15.91c0.5 1.99 0.9 2.98 1.19 3.98c0.4 -0.99 0.8 -1.99 1.29 -3.98l6.17 -15.91h2.98l-8.85 22.87zm14.42 -19.89v-2.98h2.78v2.98zm0 19.89v-16.91h2.78L929.96 2032.44z"/><path fill="none" stroke="#170F19" d="M933.05 2027.47l2.78 -0.99C936.03 2027.47 936.43 2028.47 937.12 2029.46c0.7 0 1.69 0.99 2.98 0.99c1.29 0 2.29 -0.99 2.88 -0.99c0.6 -0.99 0.9 -0.99 0.9 -1.99c0 -0.99 -0.3 -0.99 -0.8 -0.99c-0.4 -0.99 -1.29 -0.99 -2.88 -0.99c-1.99 -0.99 -3.48 -0.99 -4.28 -1.99c-0.8 0 -1.39 -0.99 -1.79 -0.99c-0.4 -0.99 -0.6 -1.99 -0.6 -2.98c0 0 0.2 -0.99 0.5 -1.99c0.3 0 0.8 -0.99 1.39 -0.99c0.4 0 0.99 -0.99 1.79 -0.99c0.7 0 1.49 0 2.39 0c1.29 0 2.49 0 3.38 0c0.99 0.99 1.79 0.99 2.19 1.99c0.5 0 0.8 0.99 1.32 1.99l-3.11 0.99c-0.1 -0.99 -0.4 -1.99 -0.99 -1.99c-0.6 -0.99 -1.49 -0.99 -2.59 -0.99c-1.29 0 -2.19 0 -2.68 0.99c-0.6 0 -0.9 0.99 -0.9 0.99c0 0.99 0.1 0.99 0.4 0.99c0.2 0 0.6 0.99 0.99 0.99c0.3 0 1.19 0 2.49 0.99c1.99 0 3.38 0.99 4.18 0.99c0.8 0 1.39 0.99 1.79 0.99c0.5 0.99 0.7 1.99 0.55 2.98c0.15 0.99 -0.15 1.99 -0.73 1.99C945.38 2030.46 944.68 2031.45 943.59 2031.45c-0.99 0.99 -2.19 0.99 -3.48 0.99c-2.09 0 -3.78 0 -4.87 -0.99c-1.09 -0.99 -1.89 -2.98 -1.74 -3.98zm17.1 -14.92v-2.98h2.78v2.98zm0.27 19.89v-16.91h2.78v16.91zm13.13 -2.98l0.4 2.98c-0.8 0 -1.49 0 -2.09 0c-0.99 0 -1.79 0 -2.39 -0.99C958.7 2031.45 958.31 2031.45 958.01 2030.46C957.81 2030.46 957.71 2028.47 957.71 2027.47v-9.94h-2.09v-1.99L957.71 2015.54v-3.98l2.78 -1.99v5.97h2.78L963.28 2017.53L960.49 2017.53v9.94C960.49 2028.47 960.49 2028.47 960.59 2029.46c0.1 0 0.3 0 0.5 0c0.3 0 0.6 0 0.99 0c0.3 0 0.7 0 1.19 0zm14.62 2.98l-5.07 -16.91h2.88L978.39 2025.48l0.99 2.98c0 0 0.3 -0.99 0.8 -2.98l2.68 -9.94l2.78 0L988.14 2025.48l0.9 2.98l0.9 -2.98l2.88 -9.94h2.68l-5.17 16.91h-2.88l-2.68 -9.94l-0.6 -2.98L980.78 2032.44zm22.97 0L995.8 2015.54h2.98l2.59 9.94L1002.36 2028.47c0 0 0.3 -0.99 0.8 -2.98L1005.84 2015.54h2.88l2.49 9.94l0.8 2.98l0.9 -2.98l2.88 -9.94h2.68l-5.17 16.91l-2.88 0.47l-2.59 -10.42l-0.7 -2.98l-3.28 12.93zm22.97 0l-4.97 -16.91h2.88l2.59 9.94l0.99 3.11c0 -0.12 0.3 -1.12 0.9 -3.11l2.59 -9.94h2.88l2.49 9.94l0.8 2.98l0.99 -2.98l2.78 -9.94h2.68l-5.17 16.91h-2.88l-2.59 -9.94l-0.7 -2.98L1026.82 2032.44zm20.78 0v-3.98h3.18v3.98zm8.43 5.97L1052.68 2015.54h2.49v1.99c0.7 -0.99 1.29 -0.99 2.09 -1.99c0.8 0 1.69 0 2.78 0c1.39 0 2.59 0 4.16 0.99c0.62 0.99 1.41 1.99 2.01 2.98c0.5 0.99 0.8 2.98 0.8 3.98c0 1.99 -0.3 2.98 -0.9 4.97c-0.6 0.99 -1.49 1.99 -2.69 2.98c-1.09 0.99 -2.39 0.99 -3.58 0.99c-0.99 0 -1.79 0 -2.59 -0.99c-0.7 0 -1.29 0 -1.79 -0.99v7.96zm2.49 -14.92c0 2.98 0.5 3.98 1.29 4.97c0.9 0.99 1.89 1.99 3.18 1.99c1.19 0 2.29 -0.99 3.18 -1.99c0.9 -0.99 1.29 -2.98 1.29 -4.97c0 -1.99 -0.4 -2.98 -1.29 -4.97C1061.93 2017.53 1060.93 2017.53 1059.74 2017.53c-1.19 0 -2.29 0 -3.18 1.74c-0.9 1.25 -1.39 2.24 -1.39 4.23zm15.22 8.95v-16.91h2.49L1072.87 2018.52c0.6 -1.99 1.19 -1.99 1.79 -2.98c0.5 0 1.09 0 1.39 0c0.99 0 1.99 0 2.98 0.99l-0.99 1.99C1078.04 2018.52 1077.04 2018.52 1076.05 2018.52c-0.4 0 -0.9 0 -1.39 0c-0.5 0.99 -0.8 0.99 -1.09 1.99c-0.3 0.99 -0.4 1.99 -0.4 2.98v8.95zm10.64 -19.89v-2.98h2.98L1084 2012.56zm0 19.89v-16.91h2.98v16.91zm6.96 0L1087.98 2015.54h2.98v1.99c0.99 -0.99 2.98 -1.99 4.97 -1.99c0.99 0 1.99 0 2.98 0C1099.92 2016.53 1099.92 2016.53 1100.91 2017.53c0 0 0 0.99 0 1.99C1101.9 2019.52 1101.9 2020.51 1101.9 2021.51v10.94h-2.98v-9.94c0 -1.99 0 -1.99 -0.99 -2.98c0 -0.99 0 -0.99 -0.99 -0.99c0 -0.99 -0.99 -0.99 -1.99 -0.99c-0.99 0 -1.99 0.99 -2.98 0.99c-0.99 0.99 -0.99 1.99 -0.99 4.97v8.95zm23.87 -2.98v2.98c0 0 -0.99 0 -1.99 0c-0.99 0 -0.99 0 -1.99 -0.99c-0.99 0 -0.99 0 -0.99 -0.99C1106.88 2030.46 1105.88 2028.47 1105.88 2027.47v-9.94h-1.99v-1.99h1.99L1105.88 2011.56l2.98 -1.99v5.97h2.98v1.99h-2.98v9.94c0 0.99 0 0.99 0 1.99c0 0 0.99 0 0.99 0C1109.86 2029.46 1109.86 2029.46 1110.85 2029.46c0 0 0.99 0 0.99 0zm16.91 0L1128.75 2032.44h-14.92c0 -0.99 0 -1.99 0 -1.99c0 -0.99 0.99 -1.99 1.99 -2.98C1116.82 2026.48 1117.81 2025.48 1119.8 2023.49c1.99 -1.99 3.98 -2.98 4.97 -4.97c0 -0.99 0.99 -1.99 0.99 -2.98c0 -0.99 -0.99 -1.99 -0.99 -2.98c-0.99 -0.99 -1.99 -0.99 -2.98 -0.99C1119.8 2011.56 1118.81 2011.56 1117.81 2012.55c-0.99 0.99 -0.99 1.99 -0.99 3.98l-2.98 -0.99c0 -1.99 0.99 -3.98 1.99 -4.97c1.99 -0.99 2.98 -0.99 5.97 -0.99c1.99 0 3.98 0 4.97 0.99C1127.76 2012.55 1128.75 2013.55 1128.75 2015.54C1128.75 2016.53 1128.75 2017.53 1127.76 2018.52c0 0.99 -0.99 1.99 -1.99 2.98c-0.99 0 -1.99 1.99 -3.98 3.98C1119.8 2026.48 1118.81 2027.47 1118.81 2027.47c-0.99 0.99 -0.99 0.99 -0.99 1.99zm3.98 2.98v-14.92h-1.99v-1.99h1.99v-1.99c0 -0.99 0 -1.99 0.99 -1.99c0 -0.99 0 -1.99 0.99 -1.99c0.99 0 1.99 -0.99 2.98 -0.99c0.99 0 1.99 0 2.95 0.99l-0.96 1.99c-0.99 0 -0.99 0 -1.99 0c0 0 -0.99 0 -0.99 0c-0.99 0.99 -0.99 1.99 -0.99 2.98v0.99h2.98l0 1.99l-2.98 0L1135.72 2032.44zm7.96 0v-22.87h2.98v22.87zm17.9 -1.99C1157.59 2030.46 1156.6 2031.45 1155.6 2031.45c-0.99 0.99 -1.99 0.99 -2.98 0.99c-0.99 0 -2.98 0 -3.98 -0.99c-0.99 -0.99 -0.99 -1.99 -0.99 -3.98c0 -0.99 0 -0.99 0 -1.99c0.99 -0.99 0.99 -0.99 1.99 -1.99c0 0 0.99 0 1.99 0c0 -0.99 0.99 -0.99 1.99 -0.99c1.99 0 3.98 0 4.97 -0.99c0 0 0 -0.99 0 -0.99c0 -0.99 0 -1.99 -0.99 -1.99c0 -0.99 -0.99 -0.99 -2.98 -0.99c-0.99 0 -1.99 0 -2.98 0.99c0 0 -0.99 0.99 -0.99 1.99h-2.98c0 -0.99 0.99 -1.99 0.99 -2.98c0.99 -0.99 1.99 -0.99 2.98 -1.99c0.99 0 1.99 0 3.98 0.39c0.99 -0.39 1.99 -0.39 2.98 -0.39c0.99 0.99 1.99 0.99 1.99 0.99c0 0.99 0.99 1.99 0.99 1.99c0 0.99 0 1.99 0 2.98v3.98c0 1.99 0 3.98 0 4.97C1161.57 2030.46 1162.57 2031.45 1162.57 2032.44L1159.58 2032.44c0 -0.99 0 -1.99 -0.99 -1.99zm0 -6.96c-0.99 0.99 -1.99 0.99 -3.98 0.99C1152.62 2025.48 1152.62 2025.48 1151.63 2025.48c0 0 -0.99 0 -0.99 0.99c0 0 0 0.99 0 0.99c0 0.99 0 1.99 0.99 1.99c0 0.99 0.99 0.99 1.99 0.99c0.99 0 1.99 0 2.98 -0.99C1157.59 2029.46 1157.59 2028.47 1158.59 2027.47C1158.59 2027.47 1158.59 2026.48 1158.59 2024.49zm5.97 3.98l2.98 -0.99c0 0.99 0.99 1.99 0.99 2.98c0.99 0 1.99 0.99 2.98 0.99c1.99 0 2.98 -0.99 2.98 -0.99c0.99 -0.99 0.99 -0.99 0.99 -1.99c0 -0.99 0 -0.99 -0.99 -0.99c0 -0.99 -0.99 -0.99 -2.98 -0.99c-1.99 -0.99 -2.98 -0.99 -3.98 -1.99c-0.99 0 -0.99 -0.99 -1.99 -0.99C1165.55 2021.5 1165.55 2020.51 1165.55 2019.52c0 0 0 -0.99 0 -1.99c0.99 0 0.99 -0.99 1.99 -0.99c0 0 0.99 -0.99 0.99 -0.99c0.99 0 1.99 0 2.98 0c0.99 0 1.99 0 2.98 0c0.99 0.99 1.99 0.99 1.99 1.99c0.99 0 0.99 0.99 0.99 1.99l-1.99 0.99c0 -0.99 -0.99 -1.99 -0.99 -1.99c-0.99 -0.99 -1.99 -0.99 -2.98 -0.99c-0.99 0 -1.99 0 -2.98 0.99c0 0 -0.99 0.99 -0.99 0.99c0 0.99 0.99 0.99 0.99 0.99c0 0 0 0.99 0.99 0.99c0 0 0.99 0 2.08 0.99c1.9 0 3.89 0.99 4.88 0.99c0 0 0.99 0.99 0.99 0.99c0.99 0.99 0.99 1.99 0.99 2.98c0 0.99 0 1.99 -0.99 1.99c0 0.99 -0.99 1.99 -1.99 1.99c-0.99 0.99 -1.99 0.99 -3.98 0.99c-1.99 0 -2.98 0 -4.97 -0.99c-0.99 -0.99 -0.99 -2.98 -1.99 -3.98zm16.91 4.97L1181.46 2009.57h2.98v7.96c1.99 -1.99 2.98 -1.99 4.97 -1.99c0.99 0 1.99 0 2.98 0C1193.39 2016.53 1194.39 2017.53 1194.39 2017.53c0.99 0.99 0.99 2.98 0.99 3.98v10.94h-2.98v-10.94c0 -0.99 0 -1.99 -0.99 -2.98c0 -0.99 -0.99 -0.99 -1.99 -0.99c-0.99 0 -1.99 0 -2.98 0.99c0 0 -0.99 0.99 -0.99 1.99c-0.99 0 -0.99 0.99 -0.99 2.98l-0.06 8.95zm18.89 0.24v-3.98h2.98l0.2 3.98zm18.89 -5.97l2.98 0C1221.24 2028.47 1221.24 2029.46 1219.25 2030.46c-0.99 0.99 -1.99 1.99 -3.98 1.99c-1.99 0 -3.98 -0.99 -5.97 -1.99c-0.99 -1.99 -1.99 -3.98 -1.99 -6.96c0 -0.99 0.99 -2.98 0.99 -3.98c0.99 -1.99 1.99 -2.98 2.98 -2.98C1212.29 2015.54 1213.28 2015.54 1215.27 2015.54c1.99 0 2.98 0 3.98 0.99c0.99 0.99 1.99 1.99 1.99 3.98h-1.99c-0.99 -0.99 -0.99 -1.99 -1.99 -1.99c0 -0.99 -0.99 -0.99 -1.99 -0.99c-0.99 0 -2.98 0.99 -3.98 1.74c0 1.25 -0.99 2.24 -0.99 4.23c0 2.98 0.99 3.98 0.99 4.97c0.99 0.99 1.99 1.99 3.98 1.99c0.99 0 1.99 -0.99 2.98 -0.99c0 -0.99 0.99 -1.99 0.99 -2.98zm3.98 -2.98c0 -2.98 0.99 -4.97 2.98 -5.97C1227.2 2015.54 1229.19 2015.54 1231.18 2015.54c1.99 0 3.98 0 4.97 1.99c1.99 0.99 2.98 2.98 2.98 5.97c0 1.99 -0.99 3.98 -0.99 4.97c-0.99 0.99 -1.99 1.99 -2.98 2.98C1234.17 2032.44 1232.18 2032.44 1231.18 2032.44c-1.99 0 -3.98 -0.99 -5.97 -1.99c-0.99 -1.99 -1.99 -3.98 -1.99 -6.96zm2.98 0c0 1.99 0 3.98 0.99 4.97c0.99 0.99 1.99 1.99 3.98 1.99c0.99 0 1.99 -0.99 2.98 -1.99c0.99 -0.99 1.99 -2.98 1.99 -4.97c0 -1.99 -0.99 -2.98 -1.99 -3.98c-0.99 -0.99 -1.99 -1.99 -2.98 -1.99c-1.99 0 -2.98 0.99 -3.98 1.99c-0.99 0.99 -0.99 1.99 -0.99 3.98zm15.91 8.95v-16.91l1.99 0v1.99c0.99 0 1.99 -0.99 2.98 -1.99c0 0 0.99 0 1.99 0c1.99 0 2.98 0 2.98 0C1253.06 2016.53 1254.05 2017.53 1254.05 2018.52c0.99 -1.99 2.98 -2.98 4.97 -2.98c1.99 0 2.98 0 3.98 0.99c0.99 0.99 0.99 1.99 0.99 3.98v11.93h-1.99v-10.94c0 -0.99 0 -1.99 -0.99 -1.99c0 -0.99 0 -0.99 -0.99 -0.99c0 -0.99 -0.99 -0.99 -1.37 -0.99c-1.62 0 -1.62 0.99 -2.61 0.99c-0.99 0.99 -0.99 1.99 -0.99 3.98v9.94h-2.98v-10.94c0 -0.99 0 -1.99 -0.99 -2.98c0 -0.99 -0.99 -0.99 -1.99 -0.99c-0.99 0 -1.99 0 -1.99 0.99c-0.99 0 -1.99 0.99 -2.31 1.99c0.32 0 0.32 1.99 0.32 2.98v8.95zm35.8 0v-14.92h-1.99v-1.99h1.99v-1.99C1277.92 2012.56 1277.92 2011.56 1277.92 2011.56c0.99 -0.99 0.99 -1.99 1.99 -1.99c0.99 0 1.99 -0.99 2.98 -0.88c0.99 -0.11 0.99 -0.11 1.99 0.88v1.99c-0.99 0 -0.99 0 -1.99 0c-0.99 0 -0.99 0 -1.99 0.16c0 0.83 0 1.83 0 2.82v0.99h2.98l0.19 1.99h-3.17l0 14.92z"/><path fill="none" stroke="#170F19" d="M1284.88 2023.49c0 -2.98 0.99 -4.97 2.98 -5.97c0.99 -1.99 2.98 -1.99 4.97 -1.99c1.99 0 3.98 0 5.97 1.99c0.99 0.99 1.99 2.98 1.99 5.97c0 1.99 0 3.98 -0.99 4.97c-0.99 0.99 -1.99 1.99 -2.98 2.98c-0.99 0.99 -1.99 0.99 -3.98 0.99c-1.99 0 -3.98 -0.99 -5.97 -1.99c-0.99 -1.99 -1.99 -3.98 -1.99 -6.96z"/><path fill="none" stroke="#170F19" d="M1287.87 2023.49c0 1.99 0.99 3.98 1.99 4.97c0.99 0.99 1.99 1.99 2.98 1.99c0.99 0 2.98 -0.99 3.98 -1.99c0.99 -0.99 0.99 -2.98 0.99 -4.97c0 -1.99 0 -2.98 -1.29 -3.98c-0.7 -0.99 -2.69 -1.99 -3.68 -1.99c-0.99 0 -1.99 0.99 -2.98 1.99c-0.99 0.99 -1.99 1.99 -1.99 3.98z"/><path fill="none" stroke="#170F19" d="M1303.78 2032.44v-16.91h2.98l0 2.98c0 -1.99 0.99 -1.99 0.99 -2.98c0.99 0 1.99 0 1.99 0c0.99 0 1.99 0 2.98 0.99l-0.99 1.99c-0.99 0 -0.99 0 -1.99 0c0 0 -0.99 0 -1.99 0c0 0.99 0 0.99 -1.35 1.99c0.36 0.99 0.36 1.99 0.36 2.98v8.95zm19.89 -0.18v-16.73h1.99v1.99c0.99 0 0.99 -0.99 1.99 -1.99c0.99 0 1.99 0 2.98 0c1.99 0 2.98 0 2.98 0c0.99 0.99 1.99 1.99 1.99 2.98c0.99 -1.99 2.98 -2.98 4.97 -2.98c1.99 0 2.98 0 3.98 0.99c0.99 0.99 0.99 1.99 0.99 3.98v11.93h-2.98v-10.94c0 -0.99 0 -1.99 0 -1.99c0 -0.99 0 -0.99 -0.99 -0.99c0 -0.99 -0.99 -0.99 -1.99 -0.99C1338.58 2017.53 1337.59 2018.52 1337.59 2018.52c-0.99 0.99 -1.99 1.99 -1.99 3.98v9.94l-1.99 0l0 -10.94c0 -0.99 -0.99 -1.99 -0.99 -2.98c-0.99 -0.99 -0.99 -0.99 -1.99 -0.99c-0.99 0 -1.99 0 -2.98 0.99c0 0 -0.99 0.99 -0.99 1.99c0 0 0 1.99 0 2.98v8.95zm24.86 -8.95c0 -2.98 0.99 -4.97 2.98 -5.97C1352.5 2015.54 1354.49 2015.54 1356.48 2015.54c1.99 0 3.98 0 5.97 1.99c0.99 0.99 1.99 2.98 1.99 5.97c0 1.99 0 3.98 -0.99 4.97c-0.99 0.99 -1.99 1.99 -2.98 2.98c-0.99 0.99 -1.99 0.99 -3.98 0.99c-1.99 0 -3.98 -0.99 -4.97 -1.99c-1.99 -1.99 -2.98 -3.98 -2.98 -6.96zm2.98 0c0 1.99 0.99 3.98 1.99 4.97c0.99 0.99 1.99 1.99 2.98 1.99c1.99 0 2.98 -0.99 3.98 -1.99C1361.46 2027.47 1361.46 2025.48 1361.46 2023.49c0 -1.99 0 -2.98 -0.99 -3.98c-0.99 -0.99 -1.99 -1.99 -3.98 -1.99C1355.49 2017.53 1354.49 2018.52 1353.5 2019.52c-0.99 0.99 -1.99 1.99 -1.99 3.98zm15.91 8.95l0 -16.91h2.98v2.98c0 -1.99 0.99 -1.99 1.99 -2.98C1372.39 2015.54 1373.39 2015.54 1373.39 2015.54c0.99 0 1.99 0 2.98 0.99l-0.99 1.99C1375.38 2018.52 1374.38 2018.52 1373.39 2018.52c0 0 -0.99 0 -0.99 0c-0.99 0.99 -0.99 0.99 -1.99 1.99c0 0.99 0 1.99 0 2.98l0 8.95zm21.88 -5.97l2.98 0.99c0 0.99 -0.99 2.98 -1.99 3.98c-1.99 0.99 -2.98 0.99 -4.97 0.99c-2.98 0 -3.98 -0.99 -5.97 -1.99c-0.99 -1.99 -1.99 -3.98 -1.99 -5.97c0 -2.98 0.99 -4.97 1.99 -6.96c1.99 -1.99 2.98 -1.99 5.97 -2.21c1.99 0.22 3.98 0.22 4.97 2.21c1.99 0.99 1.99 3.98 1.99 5.97c0 0 0 0.99 0 0.99h-11.93c0 1.99 0.99 2.98 0.99 3.98c0.99 0.99 2.98 1.99 3.98 1.99c0.99 0 1.99 -0.99 2.98 -0.99c0 -0.99 0.99 -0.99 0.99 -2.98zM1380.35 2022.5h8.95c0 -1.99 0 -2.98 -0.99 -2.98c-0.99 -0.99 -1.99 -1.99 -3.11 -1.99c-1.86 0 -2.85 0 -2.85 0.99c-0.99 0.99 -1.99 1.99 -1.99 3.98zm24.86 -9.94L1405.21 2009.57h1.99v2.98zm0 19.89v-16.91h1.59l0.4 16.91zm6.96 0v-16.91l1.99 0v1.99c0.99 -0.99 2.98 -1.99 5.97 -1.99c0.99 0 0.99 0 1.99 0c0.99 0.99 1.99 0.99 1.99 1.99c0.99 0 0.99 0.99 0.99 1.99c0 0 0 0.99 0 1.99l-0.24 10.94h-2.74l0 -9.94c0 -1.99 0 -1.99 0 -2.98C1422.12 2018.52 1421.12 2018.52 1421.12 2018.52c-0.99 -0.99 -0.99 -0.99 -1.99 -0.99c-0.99 0 -1.99 0.99 -2.98 0.99c-0.99 0.99 -0.99 1.99 -0.99 4.97v8.95zm17.9 0v-14.92h-1.99l0 -1.99h1.99v-1.99c0 -0.99 0 -1.99 0.99 -1.99c0 -0.99 0 -1.99 0.99 -1.99c0.99 0 1.99 -0.99 2.98 -0.99c0.99 0 0.99 0 1.99 0.99v1.99c-0.99 0 -0.99 0 -1.99 0C1435.04 2011.56 1434.05 2011.56 1434.42 2011.56c-1.36 0.99 -1.36 1.99 -1.36 2.98v0.99h2.98l-0.17 1.99h-2.81v14.92zm6.96 -8.95c0 -2.98 0.99 -4.97 2.98 -5.97c0.99 -1.99 2.98 -1.99 4.97 -1.99c1.99 0 3.98 0 5.97 1.99c0.99 0.99 1.99 2.98 1.99 5.97c0 1.99 0 3.98 -0.99 4.97c-0.99 0.99 -1.99 1.99 -2.98 2.98c-0.99 0.99 -1.99 0.99 -3.98 0.99C1443 2032.44 1441.01 2031.45 1440.02 2030.46c-1.99 -1.99 -2.98 -3.98 -2.98 -6.96zm2.98 0c0 1.99 0.99 3.98 1.99 4.97c0.99 0.99 1.99 1.99 2.98 1.99C1446.98 2030.46 1447.97 2029.46 1448.97 2028.47c0.99 -0.99 0.99 -2.98 0.99 -4.97c0 -1.99 0 -2.98 -0.99 -3.98c-0.99 -0.99 -1.99 -1.99 -3.98 -1.99c-0.99 0 -1.99 0.99 -2.98 1.99c-0.99 0.99 -1.99 1.99 -1.99 3.98zM1455.93 2032.44v-16.91h2.98v2.98c0 -1.99 0.99 -1.99 1.99 -2.98c0 0 0.99 0 0.99 0C1462.89 2015.54 1463.88 2015.54 1464.88 2016.53l-0.99 1.99c0 0 -0.99 0 -1.99 0c0 0 -0.99 0 -0.99 0c-0.99 0.99 -0.99 0.99 -1.99 1.99c0 0.99 0 1.99 0 2.98v8.95zm10.94 0v-16.91h1.99v1.99c0.99 0 1.99 -0.99 2.98 -1.99c0 0 0.99 0 1.99 0c1.99 0 2.98 0 2.98 0c0.99 0.99 1.99 1.99 1.99 2.98c0.99 -1.99 2.98 -2.98 4.97 -2.98c1.99 0 2.98 0 3.98 0.99c0.99 0.99 0.99 1.99 0.99 3.98L1488.74 2032.44h-1.99v-10.94c0 -0.99 0 -1.99 -0.99 -1.99c0 -0.99 0 -0.99 -0.99 -0.99c0 -0.99 -0.99 -0.99 -0.99 -0.99c-1.99 0 -1.99 0.99 -2.98 0.99c-0.99 0.99 -0.99 1.99 -0.99 3.98l-0.34 9.94L1476.81 2032.44L1476.81 2021.51c0 -0.99 0 -1.99 -0.99 -2.98c0 -0.99 -0.99 -0.99 -1.99 -0.99c-0.99 0 -1.99 0 -1.99 0.99c-0.99 0 -1.99 0.99 -1.67 1.99c-0.32 0 -0.32 1.99 -0.32 2.98v8.95zm36.79 -1.99c-0.99 0 -1.99 0.99 -2.98 1.15c-0.99 0.84 -1.99 0.84 -2.98 0.84c-0.99 0 -2.98 0 -3.98 -0.99c-0.99 -0.99 -0.99 -1.99 -0.99 -3.98c0 -0.99 0 -0.99 0 -1.99c0.99 -0.99 0.99 -0.99 1.99 -1.99c0 0 0.99 0 1.99 0c0 -0.99 0.99 -0.99 1.99 -0.99C1500.68 2022.5 1502.67 2022.5 1503.66 2021.51c0 0 0 -0.99 0 -0.99c0 -0.99 0 -1.99 -0.99 -1.99c0 -0.99 -0.99 -0.99 -2.98 -0.99c-0.99 0 -1.99 0 -2.98 0.99c0 0 -0.99 0.99 -0.99 1.99h-2.98c0 -0.99 0.99 -1.99 0.99 -2.98c0.99 -0.99 1.99 -0.99 2.98 -1.99c0.99 0 1.99 0 3.98 0c0.99 0 1.99 0 2.98 0c0.99 0.99 1.99 0.99 1.99 0.99c0 0.99 0.99 1.99 0.99 1.99c0 0.99 0 1.99 0 2.98v3.98c0 1.99 0 3.98 0 4.97c0 0 0.99 0.99 0.88 1.99h-2.87c0 -0.99 0 -1.99 -0.99 -2.04zm0 -6.96C1502.67 2024.49 1501.67 2024.49 1499.68 2024.49c-1.99 0.99 -1.99 0.99 -2.98 0.99c0 0 -0.99 0 -0.99 0.99c0 0 0 0.99 0 0.99c0 0.99 0 1.99 0.99 1.99c0 0.99 0.99 0.99 1.99 0.99c0.99 0 1.99 0 2.98 -0.99C1502.67 2029.46 1502.67 2028.47 1503.66 2027.47c0 0 0 -0.99 0 -2.98zm13.92 5.97v2.98c-0.99 0 -1.99 0 -1.99 0c-0.99 0 -1.99 0 -2.98 -0.99C1512.61 2031.45 1512.61 2031.45 1511.62 2030.46c0 0 0 -1.99 0 -2.98v-9.94L1509.63 2017.53v-1.99h1.99v-3.98l2.98 -1.99v5.97h2.98v1.99h-2.98l0 9.94C1514.6 2028.47 1514.6 2028.47 1514.6 2029.46c0 0 0 0 0 0c0.99 0 0.99 0 0.99 0c0.99 0 0.99 0 1.99 0zm1.99 -16.91v-2.98L1522.56 2009.57l0.4 2.98zm0 19.89v-16.91h2.98v16.91zm5.97 -8.95c0 -2.98 0.99 -4.97 2.98 -5.97c0.99 -1.99 2.98 -1.99 4.97 -1.99c1.99 0 3.98 0 5.97 1.99C1540.46 2018.52 1541.45 2020.51 1541.45 2023.49c0 1.99 0 3.98 -0.99 4.97c-0.99 0.99 -1.99 1.99 -2.98 2.98c-0.99 0.99 -1.99 0.99 -3.98 0.99c-1.99 0 -3.98 -0.99 -4.97 -1.99C1526.53 2028.47 1525.54 2026.48 1525.54 2023.49zm2.98 0c0 1.99 0.99 3.98 1.99 4.97c0.99 0.99 1.99 1.99 2.98 1.99c1.99 0 2.98 -0.99 3.98 -1.99c0.99 -0.99 0.99 -2.98 0.99 -4.97c0 -1.99 0 -2.98 -0.99 -3.98c-0.99 -0.99 -1.99 -1.99 -3.98 -1.99c-0.99 0 -1.99 0.99 -2.98 1.99c-0.99 0.99 -1.99 1.99 -1.99 3.98zm15.91 8.95L1544.43 2015.54h2.98v1.99c0.99 -0.99 2.98 -1.99 4.97 -1.99c0.99 0 1.99 0 2.98 0c0.99 0.99 0.99 0.99 1.99 1.99c0 0 0 0.99 0.99 1.99c0 0 0 0.99 0 1.99v10.94h-2.98v-9.94c0 -1.99 0 -1.99 0 -2.98c-0.99 -0.99 -0.99 -0.99 -1.99 -0.99c0 -0.99 -0.99 -0.99 -1.99 -0.99c-0.99 0 -1.99 0.99 -2.98 0.99c-0.99 0.99 -0.99 1.99 -0.99 4.97v8.95z"/></g></svg>
