<?xml version="1.0" encoding="utf-8"?>
<svg xmlns="http://www.w3.org/2000/svg" xmlns:xlink="http://www.w3.org/1999/xlink" version="1.1" width="1632" height="2112" viewBox="0 0 1632 2112" xml:space="preserve" PageMode="4" layout="0"><defs><style type="text/css"><![CDATA[tspan{white-space:pre}
]]></style></defs><g id="content" view="2"><image x="46" y="0" width="1540" height="2112" xlink:href="img25.jpg"/><rect x="76" y="2001" width="1498" height="45" fill="#F8F7F5"/><path fill="none" stroke="#3B3C35" d="M89.11 2032.44v-20.88h-7.51v-1.99h18.06v1.99h-7.54v20.88zM102.4 2032.44v-22.87h2.79v7.96c1.31 -1.99 2.95 -1.99 4.94 -1.99c1.22 0 2.29 0 3.19 0c0.9 0.99 1.54 1.99 1.93 1.99C115.65 2018.52 115.85 2020.51 115.85 2021.51L115.85 2032.44h-2.79l0 -10.94C113.05 2020.51 112.75 2019.52 112.14 2018.52c-0.61 -0.99 -1.46 -0.99 -2.57 -0.99c-0.84 0 -1.61 0 -2.35 0.99c-0.73 0 -1.24 0.99 -1.56 1.99c-0.31 0 -0.47 0.99 -0.47 2.98v8.95zm17.73 -19.89v-2.98h2.79v2.98zm0 19.89v-16.91h2.79v16.91zm5.95 -4.97L128.86 2026.48c0.15 0.99 0.59 1.99 1.29 2.98c0.71 0 1.7 0.99 2.97 0.99c1.28 0 2.24 -0.99 2.86 -0.99c0.62 -0.99 0.92 -0.99 0.93 -1.99c0 -0.99 -0.28 -0.99 -0.83 -0.99c-0.39 -0.99 -1.34 -0.99 -2.86 -0.99c-2.05 -0.99 -3.47 -0.99 -4.27 -1.99c-0.79 0 -1.39 -0.99 -1.8 -0.99C126.76 2021.5 126.55 2020.51 126.55 2019.52c0 0 0.17 -0.99 0.51 -1.99c0.34 0 0.8 -0.99 1.37 -0.99c0.44 0 1.03 -0.99 1.78 -0.99c0.76 0 1.56 0 2.42 0c1.29 0 2.44 0 3.41 0c0.98 0.99 1.7 0.99 2.17 1.99C138.67 2017.53 138.99 2018.52 139.17 2019.52l-2.73 0.99c-0.12 -0.99 -0.49 -1.99 -1.08 -1.99c-0.59 -0.99 -1.43 -0.99 -2.52 -0.99c-1.29 0 -2.21 0 -2.75 0.99c-0.55 0 -0.83 0.99 -0.83 0.99c0 0.99 0.12 0.99 0.35 0.99c0.22 0 0.58 0.99 1.06 0.99c0.28 0 1.1 0 2.48 0.99c1.98 0 3.36 0.99 4.14 0.99c0.79 0 1.4 0.99 1.84 0.99c0.45 0.99 0.68 1.99 0.68 2.98c0 0.99 -0.28 1.99 -0.82 1.99C138.43 2030.46 137.65 2031.45 136.62 2031.45c-1.02 0.99 -2.19 0.99 -3.48 0.99c-2.15 0 -3.78 0 -4.9 -0.99C127.12 2030.46 126.4 2028.47 126.08 2027.16zm36.57 4.97l0 -1.99c-1.04 0.99 -2.59 1.99 -4.61 1.99c-1.31 0 -2.53 0 -3.63 -0.99c-1.1 -0.99 -1.96 -1.99 -2.57 -2.98c-0.61 -0.99 -0.9 -2.98 -0.9 -4.97c0 -0.99 0.27 -2.98 0.83 -3.98C152.31 2018.52 153.13 2016.53 154.22 2016.53c1.1 -0.99 2.33 -0.99 3.68 -0.99c0.99 0 1.88 0 3.14 0c0.3 0.99 0.92 0.99 1.41 1.99l0 -7.96h2.78L165.24 2032.44zm-8.84 -8.95c0 2.98 0.45 3.98 1.33 4.97c0.9 0.99 1.95 1.99 3.16 1.99C159.52 2030.46 160.56 2029.46 161.41 2028.47C162.27 2027.47 162.7 2026.48 162.7 2024.49c0 -2.98 -0.44 -3.98 -1.31 -4.97c-0.87 -0.99 -1.94 -1.99 -3.21 -1.99c-1.24 0 -2.28 0.99 -3.11 1.99c-0.84 0.99 -1.25 1.99 -1.25 3.98z"/><path fill="none" stroke="#3B3C35" d="M168.61 2023.49c0 -2.98 0.85 -4.97 2.55 -5.97c1.42 -1.99 3.15 -1.99 5.19 -1.99c2.27 0 4.13 0 5.59 1.99c1.39 0.99 2.09 2.98 2.09 5.97c0 1.99 -0.3 3.98 -0.9 4.97c-0.7 0.99 -1.59 1.99 -2.79 2.98c-1.21 0.99 -2.55 0.99 -3.99 0.99c-2.31 0 -4.18 -0.99 -5.6 -1.99c-1.42 -1.99 -2.14 -3.98 -2.14 -6.96zm2.87 0C171.49 2025.48 171.95 2027.47 172.87 2028.47c0.92 0.99 2.08 1.99 3.48 1.99c1.39 0 2.55 -0.99 3.47 -1.99c0.91 -0.99 1.42 -2.98 1.42 -4.97C181.24 2021.51 180.74 2020.51 179.81 2019.52c-0.92 -0.99 -2.08 -1.99 -3.46 -1.99c-1.4 0 -2.56 0.99 -3.48 1.99c-0.92 0.99 -1.38 1.99 -1.38 3.98zm26.66 2.98h2.78c-0.3 1.99 -1.09 2.98 -2.39 3.98c-1.19 0.99 -2.69 1.99 -4.57 1.99c-2.19 0 -3.98 -0.99 -5.37 -1.99C187.21 2028.47 186.51 2026.48 186.51 2023.49c0 -0.99 0.3 -2.98 0.9 -3.98c0.6 -1.99 1.49 -2.98 2.28 -2.98c1.59 -0.99 2.89 -0.99 4.38 -0.99c1.79 0 3.18 0 4.38 0.99c1.09 0.99 1.89 1.99 2.19 3.98l-2.69 0c-0.3 -0.99 -0.8 -1.99 -1.39 -1.99c-0.7 -0.99 -1.49 -0.99 -2.39 -0.99C192.78 2017.53 191.59 2018.52 190.69 2019.52c-0.9 0.99 -1.29 1.99 -1.29 3.98c0 2.98 0.4 3.98 1.29 4.97c0.8 0.99 1.89 1.99 3.28 1.99c1.09 0 1.99 -0.99 2.78 -0.99c0.7 -0.99 1.19 -1.99 1.39 -2.98zm15.91 5.97v-2.98c-1.29 1.99 -2.98 2.98 -5.17 2.98c-0.99 0 -1.89 0 -2.78 -0.99c-0.8 0 -1.49 0 -1.89 -0.99c-0.4 -0.99 -0.7 -0.99 -0.8 -1.99c-0.1 -0.99 -0.2 -0.99 -0.2 -2.98v-9.94h2.78v8.95C206.01 2026.48 206.1 2027.47 206.2 2027.47C206.4 2028.47 206.7 2029.46 207.3 2029.46c0.6 0 1.29 0.99 2.09 0.99c0.9 0 1.69 -0.99 2.39 -0.99c0.7 0 1.29 -0.99 1.59 -1.99C213.66 2026.48 213.76 2025.48 213.76 2024.49v-8.95h2.88v16.91zm6.96 0v-16.91h2.49v1.99c0.5 0 1.19 -0.99 2.09 -1.99c0.8 0 1.79 0 2.88 0c1.19 0 2.29 0 2.98 0c0.8 0.99 1.39 1.99 1.69 2.98c1.29 -1.99 2.98 -2.98 5.07 -2.98c1.69 0 2.88 0 3.78 0.99c0.9 0.99 1.39 1.99 1.39 3.98v11.93h-2.78v-10.94c0 -0.99 -0.1 -1.99 -0.3 -1.99C240.12 2018.52 239.82 2018.52 239.32 2018.52c-0.5 -0.99 -0.99 -0.99 -1.69 -0.99c-1.19 0 -2.09 0.99 -2.88 0.99c-0.8 0.99 -1.19 1.99 -1.19 3.98l0 9.94h-2.78v-10.94c0 -0.99 -0.2 -1.99 -0.7 -2.98c-0.4 -0.99 -1.19 -0.99 -2.19 -0.99c-0.8 0 -1.49 0 -2.19 0.99c-0.7 0 -1.19 0.99 -1.49 1.99c-0.3 0 -0.4 1.99 -0.36 2.98l-0.04 8.95zm37.79 -5.97l2.88 0.99c-0.4 0.99 -1.29 2.98 -2.49 3.98c-1.29 0.99 -2.78 0.99 -4.77 0.99c-2.39 0 -4.28 -0.99 -5.67 -1.99c-1.49 -1.99 -2.19 -3.98 -2.19 -5.97c0 -2.98 0.7 -4.97 2.19 -6.96c1.39 -1.99 3.28 -1.99 5.57 -1.99c2.19 0 3.98 0 5.37 1.99c1.39 0.99 2.09 3.98 2.09 5.97c0 0 0 0.99 0 0.99h-12.33c0.1 1.99 0.6 2.98 1.59 3.98c0.9 0.99 2.09 1.99 3.38 1.99c1.09 0 1.99 -0.99 2.69 -0.99c0.7 -0.99 1.29 -0.99 1.69 -2.98zm-9.15 -3.98L258.91 2022.5c-0.2 -1.99 -0.5 -2.98 -1.09 -2.98C256.92 2018.52 255.73 2017.53 254.34 2017.53c-1.29 0 -2.39 0 -3.28 0.99c-0.8 0.99 -1.29 1.99 -1.39 3.98zm15.61 9.94v-16.91L267.76 2015.54v1.99c1.19 -0.99 2.98 -1.99 5.27 -1.99c0.99 0 1.89 0 2.68 0c0.9 0.99 1.49 0.99 1.89 1.99c0.4 0 0.7 0.99 0.89 1.99C278.6 2019.52 278.7 2020.51 278.7 2021.51v10.94h-2.88v-9.94c0 -1.99 -0.1 -1.99 -0.3 -2.98c-0.2 -0.99 -0.6 -0.99 -1.09 -0.99c-0.6 -0.99 -1.29 -0.99 -1.99 -0.99c-1.19 0 -2.19 0.99 -3.08 0.99c-0.89 0.99 -1.29 1.99 -1.29 4.97v8.95zm23.77 -2.98l0.4 2.98c-0.8 0 -1.49 0 -2.09 0C286.36 2032.44 285.56 2032.44 284.96 2031.45c-0.5 0 -0.89 0 -1.19 -0.99c-0.2 0 -0.3 -1.99 -0.3 -2.98v-9.94h-2.09v-1.99h2.09v-3.98L286.26 2009.96v5.58l2.78 0l0 1.99h-2.78v9.94c0 0.99 0 0.99 0.1 1.99c0.1 0 0.3 0 0.5 0c0.3 0 0.6 0 0.99 0C288.15 2029.46 288.54 2029.46 289.04 2029.46zm11.64 -16.91v-2.98h2.78v2.98zm0 19.89v-16.91h2.78l0.44 16.91zM306.54 2027.47l2.78 -0.99c0.2 0.99 0.6 1.99 1.29 2.98c0.7 0 1.69 0.99 2.98 0.99c1.29 0 2.29 -0.99 2.88 -0.99c0.6 -0.99 0.89 -0.99 0.89 -1.99c0 -0.99 -0.3 -0.99 -0.8 -0.99c-0.4 -0.99 -1.29 -0.99 -2.88 -0.99c-1.99 -0.99 -3.48 -0.99 -4.28 -1.99C308.63 2023.49 308.04 2022.5 307.64 2022.5c-0.4 -0.99 -0.6 -1.99 -0.6 -2.98c0 0 0.2 -0.99 0.5 -1.99c0.3 0 0.8 -0.99 1.39 -0.99c0.4 0 0.99 -0.99 1.79 -0.99C311.42 2015.54 312.21 2015.54 313.11 2015.54c1.29 0 2.49 0 3.38 0c0.99 0.99 1.79 0.99 2.19 1.99c0.5 0 0.8 0.99 0.99 1.99l-2.78 0.99c-0.1 -0.99 -0.4 -1.99 -0.99 -1.99c-0.6 -0.99 -1.49 -0.99 -2.59 -0.99C312.01 2017.53 311.12 2017.53 310.62 2018.52c-0.6 0 -0.9 0.99 -0.9 0.99c0 0.99 0.1 0.99 0.4 0.99c0.2 0 0.6 0.99 0.99 0.99c0.3 0 1.19 0 2.49 0.99c1.99 0 3.38 0.99 4.18 0.99c0.8 0 1.39 0.99 1.79 0.99c0.5 0.99 0.7 1.99 0.7 2.98c0 0.99 -0.3 1.99 -0.8 1.99c-0.6 0.99 -1.29 1.99 -2.39 1.99c-0.99 0.99 -2.19 0.99 -3.48 0.99c-2.09 0 -3.78 0 -4.87 -0.99c-1.09 -0.99 -1.89 -2.98 -2.19 -3.98zM332.4 2038.41v-22.87h2.59v1.99c0.6 -0.99 1.29 -0.99 1.99 -1.99C337.77 2015.54 338.66 2015.54 339.76 2015.54c1.39 0 2.68 0 3.78 0.99c0.99 0.99 1.89 1.99 2.39 2.98c0.6 0.99 0.8 2.98 0.8 3.98c0 1.99 -0.3 2.98 -0.89 4.97c-0.6 0.99 -1.49 1.99 -2.59 2.98c-1.19 0.99 -2.39 0.99 -3.68 0.99c-0.89 0 -1.79 0 -2.49 -0.99c-0.8 0 -1.39 0 -1.89 -0.99v7.96zm2.59 -14.92c0 2.98 0.4 3.98 1.29 4.97c0.8 0.99 1.89 1.99 3.08 1.99c1.29 0 2.29 -0.99 3.18 -1.99c0.89 -0.99 1.39 -2.98 1.39 -4.97c0 -1.99 -0.5 -2.98 -1.29 -4.97c-0.89 -0.99 -1.89 -0.99 -3.18 -0.99c-1.19 0 -2.19 0 -3.08 1.99c-0.99 0.99 -1.39 1.99 -1.39 3.98zm15.12 8.95v-16.91h2.49v2.98c0.7 -1.99 1.29 -1.99 1.79 -2.98c0.6 0 1.19 0 1.79 0c0.99 0 1.99 0 2.88 0.99l-0.89 1.99C357.46 2018.52 356.76 2018.52 356.07 2018.52C355.47 2018.52 354.87 2018.52 354.38 2018.52c-0.4 0.99 -0.8 0.99 -0.99 1.99c-0.3 0.99 -0.5 1.99 -0.5 2.98v8.95z"/><path fill="none" stroke="#3B3C35" d="M359.75 2023.49c0 -2.98 0.8 -4.97 2.59 -5.97c1.39 -1.99 3.08 -1.99 5.17 -1.99c2.19 0 4.08 0 5.57 1.99c1.39 0.99 2.09 2.98 2.09 5.97c0 1.99 -0.3 3.98 -0.89 4.97c-0.7 0.99 -1.59 1.99 -2.78 2.98c-1.19 0.99 -2.59 0.99 -3.98 0.99c-2.39 0 -4.18 -0.99 -5.67 -1.99c-1.39 -1.99 -2.09 -3.98 -2.09 -6.96zm2.88 0c0 1.99 0.4 3.98 1.39 4.97c0.89 0.99 2.09 1.99 3.48 1.99c1.39 0 2.49 -0.99 3.48 -1.99C371.88 2027.47 372.28 2025.48 372.28 2023.49c0 -1.99 -0.4 -2.98 -1.39 -3.98c-0.89 -0.99 -1.99 -1.99 -3.38 -1.99c-1.39 0 -2.59 0.99 -3.48 1.99c-0.99 0.99 -1.39 1.99 -1.39 3.72zm26.55 8.95v-1.99c-0.99 0.99 -2.59 1.99 -4.57 1.99c-1.39 0 -2.59 0 -3.68 -0.99c-1.09 -0.99 -1.89 -1.99 -2.59 -2.98c-0.6 -0.99 -0.89 -2.98 -0.89 -4.97c0 -0.99 0.3 -2.98 0.89 -3.98c0.5 -0.99 1.29 -2.98 2.39 -2.98c1.09 -0.99 2.39 -0.99 3.68 -0.99c0.99 0 1.89 0 2.68 0c0.8 0.99 1.39 0.99 1.89 1.99v-7.96L391.77 2009.57L391.77 2032.44zm-8.85 -8.95c0 2.98 0.5 3.98 1.39 4.97c0.89 0.99 1.89 1.99 3.08 1.99C386.1 2030.46 387.09 2029.46 387.99 2028.47c0.8 -0.99 1.29 -1.99 1.29 -3.98c0 -2.98 -0.5 -3.98 -1.39 -4.97C387.09 2018.52 386 2017.53 384.71 2017.05C383.51 2017.53 382.42 2018.52 381.63 2019.52c-0.89 0.99 -1.29 1.99 -1.29 3.98zm26.65 8.95v-2.98c-1.29 1.99 -2.98 2.98 -5.17 2.59c-0.99 0.4 -1.89 0.4 -2.78 -0.6c-0.8 0 -1.49 0 -1.89 -0.99c-0.4 -0.99 -0.7 -0.99 -0.8 -1.99c-0.1 -0.99 -0.2 -0.99 -0.2 -2.98v-9.94h2.78v8.95c0 1.99 0.1 2.98 0.2 2.98c0.2 0.99 0.5 1.99 1.09 1.99c0.6 0 1.29 0.99 2.09 0.99C403.2 2030.46 404 2029.46 404.7 2029.46C405.39 2029.46 405.99 2028.47 406.29 2027.47c0.3 -0.99 0.4 -1.99 0.4 -2.98v-8.95L409.57 2015.54v16.91zm17.7 -5.97h2.78c-0.3 1.99 -1.09 2.98 -2.39 3.98c-1.19 0.99 -2.68 1.99 -4.48 1.99C418.32 2032.44 416.53 2031.45 415.14 2030.46c-1.39 -1.99 -2.09 -3.98 -2.09 -6.96c0 -0.99 0.3 -2.98 0.89 -3.98c0.6 -1.99 1.49 -2.98 2.68 -2.98c1.19 -0.99 2.49 -0.99 3.98 -0.99c1.79 0 3.28 0 4.38 0.99C426.08 2017.53 426.87 2018.52 427.17 2020.51h-2.68c-0.3 -0.99 -0.8 -1.99 -1.39 -1.99c-0.7 -0.99 -1.49 -0.99 -2.39 -0.99c-1.39 0 -2.59 0.99 -3.48 1.99c-0.89 0.99 -1.29 1.99 -1.29 3.98C415.93 2026.48 416.33 2027.47 417.23 2028.47c0.8 0.99 1.99 1.99 3.28 1.99c1.09 0 2.09 -0.99 2.78 -0.99C423.99 2028.47 424.49 2027.47 424.68 2026.48zm16.41 0l2.88 0.99c-0.4 0.99 -1.29 2.98 -2.49 3.98c-1.19 0.99 -2.78 0.99 -4.77 0.99C434.33 2032.44 432.44 2031.45 431.05 2030.46c-1.49 -1.99 -2.19 -3.98 -2.19 -5.97c0 -2.98 0.8 -4.97 2.19 -6.96c1.39 -1.99 3.28 -1.99 5.57 -1.99c2.19 0 3.98 0 5.37 1.99c1.39 0.99 2.09 3.98 1.94 5.73C444.08 2023.49 444.08 2024.49 444.08 2024.49l-12.33 0c0.1 1.99 0.7 2.98 1.59 3.98c0.89 0.99 2.09 1.99 3.48 1.99c0.99 0 1.89 -0.99 2.59 -0.99c0.7 -0.99 1.29 -0.99 1.69 -2.98zm-9.15 -3.98h9.25c-0.2 -1.99 -0.5 -2.98 -1.09 -2.98c-0.89 -0.99 -2.09 -1.99 -3.48 -1.99c-1.29 0 -2.39 0 -3.18 0.99c-0.89 0.99 -1.39 1.99 -1.49 3.98zm26.35 9.94v-1.99c-1.09 0.99 -2.59 1.99 -4.67 1.99C452.33 2032.44 451.14 2032.44 450.04 2031.45c-1.09 -0.99 -1.99 -1.99 -2.59 -2.98c-0.6 -0.99 -0.89 -2.98 -0.89 -4.97c0 -0.99 0.2 -2.98 0.8 -3.98c0.5 -0.99 1.39 -2.98 2.49 -2.98c1.09 -0.99 2.29 -0.99 3.68 -0.99c0.99 0 1.89 0 2.68 0c0.7 0.99 1.39 0.99 1.89 1.99v-7.96h2.78v22.87zm-8.85 -8.95c0 2.98 0.4 3.98 1.29 4.97C451.63 2029.46 452.73 2030.46 453.92 2030.46c1.19 0 2.19 -0.99 3.08 -1.99c0.89 -0.99 1.29 -1.99 1.29 -3.98c0 -2.98 -0.4 -3.98 -1.29 -4.97c-0.89 -0.99 -1.99 -1.99 -3.18 -1.99c-1.29 0 -2.29 0.99 -3.18 1.99c-0.8 0.99 -1.19 1.99 -1.19 3.98zm27.25 8.95h-2.59v-22.87h2.78v7.96c1.19 -1.99 2.68 -1.99 4.48 -1.99c0.99 0 1.99 0 2.88 0c0.89 0.99 1.69 0.99 2.29 1.99c0.6 0.99 0.99 1.99 1.29 2.98c0.4 0.99 0.5 1.99 0.5 2.98c0 2.98 -0.7 4.97 -2.09 6.96C484.85 2031.45 483.16 2032.44 481.27 2032.44c-1.99 0 -3.48 -0.99 -4.57 -1.99zm-0.1 -8.95c0 1.99 0.3 3.98 0.8 4.97c0.89 0.99 2.09 1.99 3.58 1.99c1.29 0 2.29 -0.99 3.18 -1.99c0.89 -0.99 1.39 -2.98 1.39 -4.97c0 -1.99 -0.5 -2.98 -1.29 -3.98c-0.89 -0.99 -1.89 -1.99 -3.08 -1.99c-1.29 0 -2.29 0.99 -3.18 1.99c-0.89 0.99 -1.39 1.99 -1.39 3.98zm15.12 14.92l-0.4 -2.98c0.7 0.99 1.19 0.99 1.69 0.99c0.6 0 1.09 0 1.49 -0.99c0.3 0 0.6 0 0.89 -0.99c0.2 0 0.4 -0.99 0.8 -1.99c0.1 0 0.2 0 0.3 0l-6.27 -16.91l2.98 0l3.48 9.94c0.4 0.99 0.8 1.99 1.19 3.98c0.3 -1.99 0.7 -2.98 1.09 -3.98L502.55 2015.54h2.78l-6.27 16.91c-0.7 1.99 -1.19 2.98 -1.59 3.98c-0.5 0.99 -1.09 0.99 -1.69 1.99c-0.7 0 -1.39 0 -2.29 0c-0.6 0 -1.19 0 -1.79 0zm25.46 -5.97v-14.92l-2.49 0v-1.99h2.49v-1.99c0 -0.99 0.1 -1.99 0.3 -1.99c0.3 -0.99 0.8 -1.99 1.49 -1.99c0.6 0 1.59 -0.99 2.78 -0.99c0.8 0 1.69 0 2.68 0.99l-0.5 1.99c-0.6 0 -1.09 0 -1.59 0c-0.9 0 -1.49 0 -1.79 0c-0.4 0.99 -0.6 1.99 -0.6 2.98L519.95 2015.54h3.28l0 1.99h-3.28v14.92zm8.15 0L525.32 2015.54h2.49v2.98c0.7 -1.99 1.29 -1.99 1.79 -2.98c0.6 0 1.19 0 1.79 0c0.99 0 1.89 0 2.88 0.99l-0.89 1.99c-0.7 0 -1.39 0 -2.09 0c-0.6 0 -1.19 0 -1.69 0c-0.5 0.99 -0.8 0.99 -0.99 1.99c-0.3 0.99 -0.5 1.99 -0.5 2.98v8.95zm21.98 -5.97l2.88 0.99c-0.5 0.99 -1.29 2.98 -2.59 3.98c-1.19 0.99 -2.78 0.99 -4.67 0.99c-2.39 0 -4.38 -0.99 -5.77 -1.99c-1.39 -1.99 -2.09 -3.98 -2.09 -5.97c0 -2.98 0.7 -4.97 2.09 -6.96c1.49 -1.99 3.28 -1.99 5.57 -1.99c2.29 0 4.08 0 5.47 1.99C549.59 2018.52 550.28 2021.51 550.28 2023.49c0 0 0 0.99 0 0.99l-12.33 0c0.1 1.99 0.6 2.98 1.49 3.98c0.99 0.99 2.09 1.99 3.48 1.99c0.99 0 1.89 -0.99 2.59 -0.99c0.8 -0.99 1.39 -0.99 1.79 -2.98zm-9.25 -3.59l9.25 -0.38c-0.1 -1.99 -0.5 -2.98 -0.99 -2.98c-0.9 -0.99 -2.09 -1.99 -3.46 -1.99c-1.31 0 -2.4 0 -3.3 0.99c-0.9 0.99 -1.39 1.99 -1.49 3.98zm26.95 3.98l2.88 0.99C567.39 2028.47 566.59 2030.46 565.4 2031.45c-1.29 0.99 -2.88 0.99 -4.77 0.99c-2.39 0 -4.28 -0.99 -5.77 -1.99c-1.39 -1.99 -2.09 -3.98 -2.09 -5.97c0 -2.98 0.7 -4.97 2.19 -6.96c1.39 -1.99 3.28 -1.99 5.47 -1.99c2.29 0 4.08 0 5.47 1.99c1.39 0.99 2.09 3.98 2.09 5.97c0 0 0 0.99 0 0.99h-12.33c0.1 1.99 0.6 2.98 1.59 3.98c0.9 0.99 1.99 1.99 3.38 1.99c0.99 0 1.89 -0.99 2.69 -0.99c0.7 -0.99 1.29 -0.99 1.69 -2.98zm-9.15 -3.98h9.15c-0.1 -1.99 -0.5 -2.98 -0.99 -2.98c-0.89 -0.99 -2.09 -1.99 -3.48 -1.99c-1.29 0 -2.39 0 -3.28 0.99c-0.9 0.99 -1.29 1.99 -1.39 3.98zm28.94 9.94l-6.27 -16.91h2.98l3.58 9.94c0.3 0.99 0.7 1.99 0.99 2.98c0.3 -0.99 0.6 -1.99 1.09 -2.98l3.58 -9.94h2.88l-6.17 16.91zm22.67 -5.97l2.88 0.99c-0.5 0.99 -1.29 2.98 -2.59 3.98C606.57 2032.44 604.98 2032.44 603.09 2032.44c-2.39 0 -4.38 -0.99 -5.77 -1.99c-1.39 -1.99 -2.09 -3.98 -2.09 -5.97c0 -2.98 0.7 -4.97 2.09 -6.96c1.49 -1.99 3.28 -1.99 5.57 -1.99c2.29 0 4.08 0 5.47 1.99c1.39 0.99 2.09 3.98 2.09 5.97c0 0 0 0.99 0 0.89l-12.33 0.1C598.22 2026.48 598.71 2027.47 599.61 2028.47C600.6 2029.46 601.7 2030.46 603.09 2030.46c0.99 0 1.89 -0.99 2.59 -0.99c0.8 -0.99 1.39 -0.99 1.79 -2.98z"/><path fill="none" stroke="#3B3C35" d="M598.22 2022.5l9.25 0c-0.1 -1.99 -0.5 -2.98 -0.99 -2.98c-0.9 -0.99 -2.09 -1.99 -3.48 -1.99C601.7 2017.53 600.6 2017.53 599.71 2018.52c-0.9 0.99 -1.39 1.99 -1.49 3.98zm15.61 9.94v-16.91h2.49v2.98c0.7 -1.99 1.29 -1.99 1.79 -2.98C618.7 2015.54 619.3 2015.54 619.89 2015.54c0.99 0 1.89 0 2.69 0.99l-0.7 1.99c-0.7 0 -1.39 0 -2.09 0c-0.6 0 -1.19 0 -1.69 0C617.61 2019.52 617.31 2019.52 617.11 2020.51c-0.3 0.99 -0.5 1.99 -0.5 2.98v8.95zm9.55 -4.97l2.78 -0.99c0.1 0.99 0.6 1.99 1.29 2.98c0.7 0 1.69 0.99 2.98 0.99c1.29 0 2.19 -0.99 2.88 -0.99c0.6 -0.99 0.9 -0.99 0.9 -1.99c0 -0.99 -0.3 -0.99 -0.8 -0.99c-0.4 -0.99 -1.39 -0.99 -2.88 -0.99c-2.09 -0.99 -3.48 -0.99 -4.28 -1.99c-0.8 0 -1.39 -0.99 -1.79 -0.99c-0.4 -0.99 -0.6 -1.99 -0.6 -2.98c0 0 0.1 -0.99 0.5 -1.99C624.67 2017.53 625.17 2016.53 625.7 2016.53c0.46 0 1.06 -0.99 1.76 -0.99c0.8 0 1.59 0 2.49 0c1.29 0 2.39 0 3.38 0c0.99 0.99 1.69 0.99 2.19 1.99c0.5 0 0.8 0.99 0.83 1.99l-2.62 0.99C633.62 2019.52 633.22 2018.52 632.62 2018.52c-0.6 -0.99 -1.39 -0.99 -2.49 -0.99c-1.29 0 -2.19 0 -2.78 0.99c-0.5 0 -0.8 0.99 -0.8 0.99c0 0.99 0.1 0.99 0.3 0.99c0.3 0 0.6 0.99 1.09 0.99C628.25 2021.51 629.04 2021.51 630.44 2022.5c1.99 0 3.38 0.99 4.18 0.99c0.7 0 1.39 0.99 1.79 0.99c0.5 0.99 0.7 1.99 0.7 2.98c0 0.99 -0.3 1.99 -0.8 1.99c-0.6 0.99 -1.39 1.99 -2.39 1.99C632.92 2032.44 631.73 2032.44 630.44 2032.44c-2.19 0 -3.78 0 -4.87 -0.99c-1.19 -0.99 -1.89 -2.98 -2.19 -3.98zm17.01 -14.92v-2.98l2.88 0L643.26 2012.56zM640.38 2032.44v-16.91h2.88v16.91zm6.07 -8.95c0 -2.98 0.9 -4.97 2.59 -5.97C650.42 2015.54 652.11 2015.54 654.2 2015.54c2.29 0 4.08 0 5.57 1.99c1.39 0.99 2.09 2.98 2.09 5.97c0 1.99 -0.3 3.98 -0.9 4.97c-0.7 0.99 -1.59 1.99 -2.78 2.98c-1.19 0.99 -2.59 0.99 -3.98 0.99c-2.29 0 -4.18 -0.99 -5.67 -1.99c-1.39 -1.99 -2.09 -3.98 -2.09 -6.96zm2.88 0c0 1.99 0.5 3.98 1.39 4.97c0.9 0.99 2.09 1.99 3.48 1.99C655.6 2030.46 656.69 2029.46 657.68 2028.47c0.9 -0.99 1.39 -2.98 1.39 -4.97c0 -1.99 -0.5 -2.98 -1.39 -3.98c-0.99 -0.99 -2.09 -1.99 -3.48 -1.99c-1.39 0 -2.59 0.99 -3.48 1.93c-0.9 1.05 -1.39 2.04 -1.39 4.03zm15.91 8.95v-16.91L667.73 2015.54v1.99c1.19 -0.99 2.98 -1.99 5.27 -1.99c0.99 0 1.89 0 2.68 0C676.58 2016.53 677.18 2016.53 677.57 2017.53c0.4 0 0.7 0.99 0.9 1.99c0.1 0 0.1 0.99 0.1 1.99v10.94h-2.78l0 -9.94c0 -1.99 -0.1 -1.99 -0.3 -2.98c-0.2 -0.99 -0.6 -0.99 -1.19 -0.99C673.79 2017.53 673.1 2017.53 672.4 2017.53c-1.19 0 -2.29 0.99 -3.08 0.99c-0.9 0.99 -1.29 1.99 -1.29 4.97v8.95zm25.46 -8.95c0 -2.98 0.9 -4.97 2.59 -5.97c1.39 -1.99 3.08 -1.99 5.17 -1.99c2.29 0 4.08 0 5.57 1.99c1.39 0.99 2.09 2.98 2.09 5.97c0 1.99 -0.3 3.98 -0.9 4.97c-0.7 0.99 -1.59 1.99 -2.78 2.98c-1.19 0.99 -2.59 0.99 -3.98 0.99c-2.29 0 -4.18 -0.99 -5.67 -1.99c-1.39 -1.99 -2.09 -3.98 -2.09 -6.96zM693.58 2023.49c0 1.99 0.5 3.98 1.39 4.97c0.9 0.99 2.09 1.99 3.48 1.99c1.39 0 2.49 -0.99 3.48 -1.99c0.9 -0.99 1.39 -2.98 1.39 -4.97c0 -1.99 -0.5 -2.98 -1.39 -3.98c-0.99 -0.99 -2.09 -1.99 -3.48 -1.99c-1.39 0 -2.59 0.99 -3.48 1.99c-0.9 0.99 -1.39 1.99 -1.39 3.98zm16.51 8.95v-14.92h-2.49l0 -1.99h2.49v-1.99c0 -0.99 0.1 -1.99 0.3 -1.99c0.3 -0.99 0.8 -1.99 1.49 -1.99c0.6 0 1.59 -0.99 2.78 -0.99C715.46 2008.58 716.36 2008.58 717.35 2009.57L716.85 2011.56c-0.6 0 -1.09 0 -1.59 0c-0.9 0 -1.49 0 -1.79 0c-0.4 0.99 -0.6 1.99 -0.6 2.98v0.99l3.28 0L716.16 2017.53h-3.28L712.88 2032.44zm17.4 0v-22.87h8.55c1.49 0 2.68 0 3.48 0c1.09 0 2.09 0.99 2.78 0.99c0.8 0.99 1.39 0.99 1.89 1.99C744.6 2013.55 744.9 2014.54 744.9 2015.54c0 1.99 -0.7 3.98 -1.89 4.97c-1.19 1.99 -3.48 1.99 -6.66 1.99h-5.87L730.48 2032.44zm2.98 -11.93L736.34 2020.51c1.99 0 3.38 -0.99 4.18 -0.99C741.32 2018.52 741.71 2017.53 741.71 2015.54c0 0 -0.2 -0.99 -0.7 -1.99c-0.5 -0.99 -1.09 -0.99 -1.89 -0.99c-0.5 0 -1.49 -0.99 -2.78 -0.99L730.48 2011.56zM748.38 2032.44v-16.91h2.49v2.98c0.6 -1.99 1.19 -1.99 1.79 -2.98c0.5 0 1.09 0 1.79 0c0.9 0 1.89 0 2.88 0.99l-0.99 1.99c-0.7 0 -1.39 0 -2.09 0c-0.6 0 -1.09 0 -1.59 0c-0.5 0.99 -0.9 0.99 -1.09 1.99c-0.3 0.99 -0.4 1.99 -0.4 2.98v8.95zm10.64 -19.89l0 -2.98h2.78v2.98zm0 19.89v-16.91h2.78v16.91zm7.06 0L766.08 2015.54h2.49v1.99c1.19 -0.99 2.98 -1.99 5.27 -1.99c0.99 0 1.89 0 2.78 0c0.8 0.99 1.39 0.99 1.89 1.99c0.4 0 0.7 0.99 0.8 1.99c0.1 0 0.2 0.99 0.2 1.99v10.94h-2.78v-9.94c0 -1.99 -0.1 -1.99 -0.4 -2.98c-0.2 -0.99 -0.6 -0.99 -1.09 -0.99c-0.6 -0.99 -1.19 -0.99 -1.99 -0.99c-1.19 0 -2.19 0.99 -3.08 0.99c-0.9 0.99 -1.29 1.99 -1.29 4.97v8.95zm23.87 -2.98l0.4 2.98c-0.8 0 -1.49 0 -2.19 0c-0.99 0 -1.79 0 -2.29 -0.99c-0.6 0 -0.99 0 -1.19 -0.99c-0.3 0 -0.4 -1.99 -0.4 -2.98L784.28 2017.53h-1.99v-1.99h1.99v-3.98l2.78 -1.99L787.06 2015.54h2.88v1.99h-2.88l-0.11 9.94c0.11 0.99 0.21 0.99 0.31 1.99c0.1 0 0.2 0 0.5 0c0.2 0 0.5 0 0.9 0c0.3 0 0.7 0 1.29 0zm16.61 0v2.98h-15.12c0 -0.99 0.1 -1.99 0.4 -1.99c0.4 -0.99 0.99 -1.99 1.79 -2.98c0.9 -0.99 2.09 -1.99 3.68 -3.98C799.79 2021.51 801.48 2020.51 802.38 2018.52c0.8 -0.99 1.29 -1.99 1.29 -2.98c0 -0.99 -0.4 -1.99 -1.19 -2.98c-0.8 -0.99 -1.89 -0.99 -3.08 -0.99c-1.39 0 -2.49 0 -3.28 0.99c-0.8 0.99 -1.19 1.99 -1.19 3.98l-2.88 -0.99c0.2 -1.99 0.9 -3.98 2.19 -4.97c1.29 -0.99 2.98 -0.99 4.86 -0.99c2.5 0 4.19 0 5.48 0.99c1.29 1.99 1.99 2.98 1.99 4.97c0 0.99 -0.2 1.99 -0.6 2.98c-0.4 0.99 -0.99 1.99 -1.89 2.98c-0.8 0 -2.29 1.99 -4.28 4.32C798.1 2026.48 797.01 2027.47 796.51 2027.47c-0.4 0.99 -0.8 0.99 -1.09 1.99zm4.28 2.98v-22.87h15.41l0 1.99h-12.43v7.96h10.74v1.99L813.81 2021.51v10.94zm18.89 0.47v-23.34h2.78l0 22.87zm17.9 -1.99c-0.99 0 -1.99 0.99 -2.98 1.15c-0.99 0.84 -1.99 0.84 -3.08 0.84c-1.79 0 -3.18 0 -4.18 -0.99c-0.99 -0.99 -1.49 -1.99 -1.49 -3.98c0 -0.99 0.2 -0.99 0.6 -1.99c0.4 -0.99 0.8 -0.99 1.39 -1.99c0.6 0 1.29 0 2.09 0c0.5 -0.99 1.29 -0.99 2.49 -0.99c2.19 0 3.88 0 4.97 -0.99c0 0 0 -0.99 0 -0.99c0 -0.99 -0.3 -1.99 -0.8 -1.99c-0.7 -0.99 -1.79 -0.99 -3.18 -0.99c-1.29 0 -2.29 0 -2.88 0.99c-0.7 0 -1.09 0.99 -1.39 1.99h-2.78c0.3 -0.99 0.7 -1.99 1.29 -2.98C838.18 2016.53 839.07 2016.53 840.07 2015.54c1.09 0 2.39 0 3.78 0c1.39 0 2.59 0 3.48 0c0.8 0.99 1.49 0.99 1.89 0.99c0.4 0.99 0.7 1.99 0.9 1.99c0.1 0.99 0.1 1.99 0.1 2.98v3.98c0 1.99 0.1 3.98 0.2 4.97c0.1 0 0.4 0.99 0.7 1.99h-2.88c-0.3 -0.99 -0.5 -1.99 -0.6 -1.99zm-0.2 -6.96c-0.99 0.99 -2.59 0.99 -4.57 0.99c-1.19 0.99 -1.99 0.99 -2.49 0.99c-0.4 0 -0.8 0 -1.09 0.99c-0.2 0 -0.4 0.99 -0.4 0.99c0 0.99 0.3 1.99 0.9 1.99c0.6 0.99 1.39 0.99 2.49 0.99c1.09 0 1.99 0 2.88 -0.99c0.8 0 1.39 -0.99 1.79 -1.99c0.3 0 0.5 -0.99 0.5 -2.98zm6.07 3.98l2.78 -0.99c0.1 0.99 0.5 1.99 1.29 2.98c0.7 0 1.69 0.99 2.98 0.99c1.19 0 2.19 -0.99 2.78 -0.99c0.6 -0.99 0.99 -0.99 0.99 -1.99c0 -0.99 -0.3 -0.99 -0.9 -0.99c-0.4 -0.99 -1.29 -0.99 -2.78 -0.99c-2.09 -0.99 -3.48 -0.99 -4.28 -1.99c-0.8 0 -1.39 -0.99 -1.79 -0.99c-0.5 -0.99 -0.7 -1.99 -0.7 -2.98c0 0 0.2 -0.99 0.5 -1.99c0.4 0 0.8 -0.99 1.39 -0.99c0.5 0 1.09 -0.99 1.79 -0.99c0.8 0 1.59 0 2.49 0c1.29 0 2.39 0 3.38 0C864.43 2016.53 865.13 2016.53 865.62 2017.53c0.4 0 0.8 0.99 0.9 1.99l-2.68 0.99c-0.1 -0.99 -0.5 -1.99 -1.09 -1.99c-0.6 -0.99 -1.49 -0.99 -2.49 -0.99c-1.29 0 -2.29 0 -2.78 0.99c-0.6 0 -0.8 0.99 -0.8 0.99c0 0.99 0.1 0.99 0.3 0.99c0.2 0 0.6 0.99 1.09 0.99c0.3 0 1.09 0 2.49 0.99c1.99 0 3.28 0.99 4.08 0.99c0.8 0 1.39 0.99 1.89 0.99c0.4 0.99 0.7 1.99 0.7 2.98c0 0.99 -0.3 1.99 -0.9 1.99c-0.5 0.99 -1.29 1.99 -2.29 1.99c-1.09 0.99 -2.19 0.99 -3.48 0.99c-2.19 0 -3.78 0 -4.97 -0.99c-1.09 -0.99 -1.79 -2.98 -2.09 -3.98zm17.01 4.97v-22.87L873.28 2009.57v7.96C874.57 2015.54 876.26 2015.54 878.25 2015.54c1.19 0 2.29 0 3.18 0c0.9 0.99 1.49 1.99 1.89 1.99c0.4 0.99 0.6 2.98 0.6 3.98v10.94h-2.78v-10.94c0 -0.99 -0.3 -1.99 -0.9 -2.98c-0.6 -0.99 -1.49 -0.99 -2.59 -0.99c-0.8 0 -1.59 0 -2.39 0.99c-0.7 0 -1.19 0.99 -1.49 1.99c-0.3 0 -0.5 0.99 -0.5 2.98v8.95zm18.5 0l0 -3.98h3.18v3.98zm23.77 0l-8.85 -22.87L907.19 2009.57l5.87 15.91c0.5 1.99 0.9 2.98 1.19 3.98c0.4 -0.99 0.8 -1.99 1.29 -3.98l6.17 -15.91h2.98L915.84 2032.44zm14.42 -19.89v-2.98h2.78v2.98zm0 19.89v-16.91h2.78v16.91zm5.87 -4.97l2.78 -0.99C936.03 2027.47 936.43 2028.47 937.12 2029.46c0.7 0 1.69 0.99 2.98 0.99c1.29 0 2.29 -0.99 2.88 -0.99c0.6 -0.99 0.9 -0.99 0.9 -1.99c0 -0.99 -0.3 -0.99 -0.8 -0.99c-0.4 -0.99 -1.29 -0.99 -2.88 -0.99c-1.99 -0.99 -3.48 -0.99 -4.28 -1.99c-0.8 0 -1.39 -0.99 -1.79 -0.99c-0.4 -0.99 -0.6 -1.99 -0.6 -2.98c0 0 0.2 -0.99 0.5 -1.99c0.3 0 0.8 -0.99 1.39 -0.99C935.83 2016.53 936.43 2015.54 937.22 2015.54c0.7 0 1.49 0 2.39 0c1.29 0 2.49 0 3.38 0c0.99 0.99 1.79 0.99 2.19 1.99c0.5 0 0.8 0.99 0.99 1.99L943.39 2020.51c-0.1 -0.99 -0.4 -1.99 -0.99 -1.99c-0.6 -0.99 -1.49 -0.99 -2.59 -0.99c-1.29 0 -2.19 0 -2.68 0.99C936.53 2018.52 936.23 2019.52 936.23 2019.52c0 0.99 0.1 0.99 0.4 0.99c0.2 0 0.6 0.99 0.99 0.99C937.92 2021.51 938.81 2021.51 940.11 2022.5c1.99 0 3.38 0.99 4.18 0.99c0.8 0 1.39 0.99 1.79 0.99c0.5 0.99 0.7 1.99 0.7 2.98c0 0.99 -0.3 1.99 -0.8 1.99c-0.6 0.99 -1.29 1.99 -2.39 1.99c-0.99 0.99 -2.19 0.99 -3.48 0.99c-2.09 0 -3.78 0 -4.87 -0.99C934.14 2030.46 933.34 2028.47 933.05 2027.47zm17.1 -14.92v-2.98h2.78L952.94 2012.56zm0 19.89v-16.91h2.78v16.91zm13.13 -2.98l0.4 2.98c-0.8 0 -1.49 0 -2.09 0C960.59 2032.44 959.8 2032.44 959.2 2031.45c-0.5 0 -0.9 0 -1.19 -0.99c-0.2 0 -0.3 -1.99 -0.3 -2.98v-9.94h-2.09v-1.99l2.09 -0.39v-3.59l2.78 -1.99l0.42 5.97l2.36 0.22v1.77h-2.78v9.94c0 0.99 0 0.99 0.1 1.99C960.69 2029.46 960.89 2029.46 961.09 2029.46c0.3 0 0.6 0 0.99 0c0.3 0 0.7 0 1.19 0zm14.62 2.98l-5.07 -16.91h2.88l2.68 9.94l0.99 2.98C979.39 2028.47 979.69 2027.47 980.18 2025.48l2.68 -9.94h2.78l2.49 9.94l0.9 2.98l0.9 -2.98l2.88 -9.94h2.68l-5.17 16.91h-2.88l-2.68 -9.94l-0.6 -2.98l-3.38 12.93zm22.97 0l-5.07 -16.91h2.98l2.59 9.94L1002.36 2028.47c0 0 0.3 -0.99 0.8 -2.98l2.68 -9.94h2.88l2.49 9.94l0.8 2.98l0.9 -2.98l2.88 -9.94L1018.47 2015.54l-5.17 16.91h-2.88l-2.59 -9.94l-0.7 -2.98l-3.28 12.93zm22.97 0l-4.97 -16.91h2.88l2.59 9.94l0.99 2.98c0 0 0.3 -0.99 0.9 -2.98l2.59 -9.94h2.88l2.49 9.94L1034.98 2028.47l0.99 -2.98l2.78 -9.94h2.68l-5.17 16.91h-2.88l-2.59 -9.94l-0.7 -2.98l-3.28 12.93zm20.78 0v-3.98L1047.81 2028.47v3.98zm7.86 5.97v-22.87h2.49v1.99c0.7 -0.99 1.29 -0.99 2.09 -1.99c0.8 0 1.69 0 2.78 0c1.39 0 2.59 0 3.68 0.99c1.09 0.99 1.89 1.99 2.49 2.98c0.5 0.99 0.8 2.98 0.8 3.98c0 1.99 -0.3 2.98 -0.9 4.97c-0.6 0.99 -1.49 1.99 -2.69 2.98c-1.09 0.99 -2.39 0.99 -3.58 0.99C1058.84 2032.44 1058.05 2032.44 1057.25 2031.45c-0.7 0 -1.29 0 -1.79 -0.99v7.96zm2.49 -14.92c0 2.98 0.5 3.98 1.29 4.97c0.9 0.99 1.89 1.99 3.18 1.99c1.19 0 2.29 -0.99 3.18 -1.99c0.9 -0.99 1.29 -2.98 1.29 -4.97c0 -1.99 -0.4 -2.98 -1.29 -4.97c-0.9 -0.99 -1.89 -0.99 -3.08 -0.99c-1.19 0 -2.29 0 -3.18 1.99c-0.9 0.99 -1.39 1.99 -1.39 3.98zm15.22 8.95l0 -16.91h2.49l0.02 2.98c0.58 -1.99 1.18 -1.99 1.77 -2.98C1075.15 2015.54 1075.75 2015.54 1076.05 2015.54c0.99 0 1.99 0 2.98 0.99L1078.04 2018.52c0 0 -0.99 0 -1.99 0c-0.4 0 -0.9 0 -1.39 0c-0.5 0.99 -0.8 0.99 -1.09 1.99c-0.3 0.99 -0.4 1.99 -0.4 2.98v8.95zm10.64 -19.89v-2.98h2.98v2.98zm0.27 19.89l-0.27 -16.91l2.98 0.08v16.82zm6.96 0v-16.91l2.99 0L1090.96 2017.53c0.99 -0.99 2.98 -1.99 4.97 -1.99c0.99 0 1.99 0 2.98 0C1099.92 2016.53 1099.92 2016.53 1100.91 2017.53c0 0 0 0.99 0 1.99c0.99 0 0.99 0.99 0.59 1.99l0.4 10.94h-2.98v-9.94c0 -1.99 0 -1.99 -0.99 -2.98c0 -0.99 0 -0.99 -0.99 -0.99c0 -0.99 -0.99 -0.99 -1.99 -0.99c-0.99 0 -1.99 0.99 -2.98 0.99C1090.96 2019.52 1090.96 2020.51 1090.96 2023.49v8.95zm23.87 -2.98v2.98c0 0 -0.99 0 -1.99 0c-0.99 0 -0.99 0 -1.99 -0.99c-0.99 0 -0.99 0 -0.99 -0.99c0 0 -0.99 -1.99 -0.99 -2.98v-9.94h-1.99v-1.99h1.99v-3.98l3.46 -1.99l-0.48 5.97h2.98v1.99h-2.98v9.94c0 0.99 0 0.99 0 1.99C1108.86 2029.46 1109.86 2029.46 1109.86 2029.46c0 0 0 0 0.99 0C1110.85 2029.46 1111.85 2029.46 1111.85 2029.46zm16.91 0v2.98h-14.92c0 -0.99 0 -1.99 0 -1.99c0 -0.99 0.99 -1.99 1.99 -2.98c0.99 -0.99 1.99 -1.99 3.98 -3.98c1.99 -1.99 3.98 -2.98 4.97 -4.97c0 -0.99 0.99 -1.99 0.99 -2.98c0 -0.99 -0.99 -1.99 -0.99 -2.98c-0.99 -0.99 -1.99 -0.99 -2.98 -0.99c-1.99 0 -2.98 0 -3.98 0.99c-0.99 0.99 -0.99 1.99 -0.99 3.98l-2.98 -0.99c0 -1.99 0.99 -3.98 1.99 -4.97C1117.81 2009.57 1118.81 2009.57 1121.79 2009.57c1.99 0 3.98 0 4.97 0.99c0.99 1.99 1.99 2.98 1.99 4.97c0 0.99 0 1.99 -0.99 3.14c0 0.84 -0.99 1.83 -1.99 2.82c-0.99 0 -1.99 1.99 -3.98 3.98c-1.99 0.99 -2.98 1.99 -2.98 1.99c-0.99 0.99 -0.99 0.99 -0.99 1.99zm3.98 2.98v-14.92h-1.99L1130.74 2015.54h1.99v-1.99c0 -0.99 0 -1.99 0.99 -1.99c0 -0.99 0 -1.99 0.99 -1.99C1135.72 2009.57 1136.71 2008.58 1137.7 2008.58c0.99 0 1.99 0 2.98 0.99l-0.99 1.99c-0.99 0 -0.99 0 -1.99 0c0 0 -0.99 0 -0.99 0c-0.99 0.99 -0.99 1.99 -0.99 2.98v0.99h2.98l0 1.99h-2.98v14.92zm7.96 0v-22.87h2.98v22.87zm17.9 -1.99c-0.99 0 -1.99 0.99 -2.98 0.99c-0.99 0.99 -1.99 0.99 -2.98 0.99c-0.99 0 -2.98 0 -3.98 -0.99c-0.99 -0.99 -0.99 -1.99 -0.99 -3.98C1147.65 2026.48 1147.65 2026.48 1147.65 2025.48c0.99 -0.99 0.99 -0.99 1.99 -1.99C1149.64 2023.49 1150.63 2023.49 1151.63 2023.49c0 -0.99 0.99 -0.99 1.99 -0.99c1.99 0 3.98 0 4.97 -0.99c0 0 0 -0.99 0 -0.99c0 -0.99 0 -1.99 -0.99 -1.99c0 -0.99 -0.99 -0.99 -2.98 -0.99C1153.61 2017.53 1152.62 2017.53 1151.63 2018.52c0 0 -0.99 0.99 -0.99 1.99h-2.98c0 -0.99 0.99 -1.99 0.99 -2.98c0.99 -0.99 1.99 -0.99 2.98 -1.99c0.99 0 1.99 0 3.98 0c0.99 0 1.99 0 3.34 0c0.64 0.99 1.63 0.99 1.63 0.99c0 0.99 0.99 1.99 0.99 1.99c0 0.99 0 1.99 0 2.98v3.72c0 2.25 0 4.24 0 5.23C1161.57 2030.46 1162.57 2031.45 1162.57 2032.44h-2.98c0 -0.99 0 -1.99 -0.99 -1.99zm0 -6.96c-0.99 0.99 -1.99 0.99 -3.98 0.99c-1.99 0.99 -1.99 0.99 -2.98 0.99c0 0 -0.99 0 -0.99 0.99C1150.63 2026.48 1150.63 2027.47 1150.63 2027.47c0 0.99 0 1.99 0.99 1.99c0 0.99 0.99 0.99 1.99 0.99c0.99 0 1.99 0 2.98 -0.99C1157.59 2029.46 1157.59 2028.47 1158.59 2027.47c0 0 0 -0.99 0 -2.98zM1164.55 2027.47L1167.54 2026.48C1167.54 2027.47 1168.53 2028.47 1168.53 2029.46c0.99 0 1.99 0.99 2.98 0.99c1.99 0 2.98 -0.99 2.98 -0.99c0.99 -0.99 0.99 -0.99 0.99 -1.99c0 -0.99 0 -0.99 -0.99 -0.99c0 -0.99 -0.99 -0.99 -2.98 -0.99c-1.99 -0.99 -2.98 -0.99 -3.98 -1.99c-0.99 0 -0.99 -0.99 -1.99 -0.99C1165.55 2021.5 1165.55 2020.51 1165.55 2019.52C1165.55 2019.52 1165.55 2018.52 1165.55 2017.53c0.99 0 0.99 -0.99 1.99 -0.99c0 0 0.99 -0.99 0.99 -0.99c0.99 0 1.99 0 2.98 0c0.99 0 1.99 0 2.98 0c0.99 0.99 1.99 0.99 1.99 1.99c0.99 0 0.99 0.99 0.99 1.99L1175.49 2020.51c0 -0.99 -0.99 -1.99 -0.99 -1.99c-0.99 -0.99 -1.99 -0.99 -2.98 -0.99c-0.99 0 -1.99 0 -2.98 0.99c0 0 -0.99 0.99 -0.99 0.99c0 0.99 0.99 0.99 0.99 0.99c0 0 0 0.99 0.99 0.99C1169.53 2021.51 1170.52 2021.51 1171.52 2022.5c1.99 0 3.98 0.99 4.97 0.99c0 0 0.99 0.99 0.99 0.99c0.99 0.99 0.99 1.99 0.99 2.98c0 0.99 0 1.99 -0.99 1.99c0 0.99 -0.99 1.99 -1.99 1.99c-0.99 0.99 -1.99 0.99 -3.98 0.99c-1.99 0 -2.98 0 -4.97 -0.99c-0.99 -0.99 -0.99 -2.98 -1.99 -3.98zm16.91 4.97v-22.87h2.98v7.96c1.99 -1.99 2.98 -1.99 4.97 -2.01c0.99 0.02 1.99 0.02 2.98 0.02c0.99 0.99 1.99 1.99 1.99 1.99c0.99 0.99 0.99 2.98 0.99 3.98v10.94h-2.98v-10.94c0 -0.99 0 -1.99 -0.99 -2.98C1191.4 2017.53 1190.41 2017.53 1189.42 2017.53c-0.99 0 -1.99 0 -2.51 0.99c-0.47 0 -1.47 0.99 -1.47 1.99c-0.99 0 -0.99 0.99 -0.99 2.98v8.88zm18.89 0v-3.98L1203.34 2028.47L1203.34 2032.44zm18.89 -5.57h2.98c-0.99 1.99 -0.99 2.98 -2.98 3.98c-0.99 0.99 -1.99 1.99 -3.98 1.99c-1.99 0 -3.98 -0.99 -5.97 -1.99c-0.99 -1.99 -1.99 -3.98 -1.99 -6.96c0 -0.99 0.99 -2.98 0.99 -3.98C1209.3 2017.53 1210.3 2016.53 1211.29 2016.53C1212.29 2015.54 1213.28 2015.54 1215.27 2015.54c1.99 0 2.98 0 3.98 0.99c0.99 0.99 1.99 1.99 1.99 3.98h-1.99c-0.99 -0.99 -0.99 -1.99 -1.99 -1.99c0 -0.99 -0.99 -0.99 -1.99 -0.99c-0.99 0 -2.98 0.99 -3.98 1.99c0 0.99 -0.99 1.99 -0.99 3.98c0 2.98 0.99 3.98 0.99 4.97c0.99 0.99 1.99 1.99 3.98 1.99c0.99 0 1.99 -0.99 2.98 -0.99c0 -0.99 0.99 -1.99 0.99 -2.98zm3.98 -2.98c0 -2.98 0.99 -4.97 2.98 -5.97c0.99 -1.99 2.98 -1.99 4.97 -1.99c1.99 0 3.98 0 4.97 1.99C1238.14 2018.52 1239.14 2020.51 1239.27 2023.49c-0.13 1.99 -1.13 3.98 -1.13 4.97c-0.99 0.99 -1.99 1.99 -2.98 2.98c-0.99 0.99 -2.98 0.99 -3.98 0.99c-1.99 0 -3.98 -0.99 -5.97 -1.99C1224.22 2028.47 1223.23 2026.48 1223.23 2023.49zM1226.21 2023.49c0 1.99 0 3.98 0.99 4.97c0.99 0.99 1.99 1.99 3.98 1.99c0.99 0 1.99 -0.99 2.98 -1.99c0.99 -0.99 1.99 -2.98 1.99 -4.97c0 -1.99 -0.99 -2.98 -1.99 -3.98c-0.99 -0.99 -1.99 -1.99 -2.98 -2.21c-1.99 0.22 -2.98 1.22 -3.98 2.21c-0.99 0.99 -0.99 1.99 -0.99 3.98zm15.91 8.95v-16.91h1.99l0 1.99c0.99 0 1.99 -0.99 2.98 -1.99c0 0 0.99 0 1.99 0c1.99 0 2.98 0 2.98 0c0.99 0.99 1.99 1.99 1.99 2.98c0.99 -1.99 2.98 -2.98 4.97 -2.98C1261.02 2015.54 1262.01 2015.54 1263 2016.53c0.99 0.99 0.99 1.99 0.99 3.98l0 11.93h-1.99l0 -10.94c0 -0.99 0 -1.99 -0.99 -1.99c0 -0.99 0 -0.99 -0.99 -0.99c0 -0.99 -0.99 -0.99 -0.99 -0.99c-1.99 0 -1.99 0.99 -2.98 0.99c-0.99 0.99 -0.99 1.99 -0.99 3.98v9.94h-2.98v-10.94c0 -0.99 0 -1.99 -0.99 -2.98c0 -0.99 -0.99 -0.99 -1.99 -0.99c-0.99 0 -1.99 0 -1.99 0.99c-0.99 0 -1.99 0.99 -1.99 1.99c0 0 0 1.99 0 2.98v8.95zm35.8 0v-14.92h-1.99v-1.99h1.99v-1.99c0 -0.99 0 -1.99 0 -1.99c0.99 -0.99 0.99 -1.99 1.99 -1.99c0.99 0 1.99 -0.99 2.98 -0.99c0.99 0 0.99 0 1.99 0.99l0 1.99c-0.99 0 -0.99 0 -1.99 0c-0.99 0 -0.99 0 -1.99 0c0 0.99 0 1.99 0 2.98v0.99h2.98v1.99h-2.98v14.92zm6.96 -8.95c0 -2.98 0.99 -4.97 2.98 -5.97c0.99 -1.99 2.98 -1.99 4.97 -1.99c1.99 0 3.98 0 5.97 1.99c0.99 0.99 1.99 2.98 1.99 5.97C1300.79 2025.48 1300.79 2027.47 1300.01 2028.47c-1.2 0.99 -2.2 1.99 -3.19 2.98c-0.99 0.99 -1.99 0.99 -3.98 0.99c-1.99 0 -3.98 -0.99 -5.97 -1.99c-0.99 -1.99 -1.99 -3.98 -1.99 -6.96zm2.98 0c0 1.99 0.99 3.98 1.99 4.97c0.99 0.99 1.99 1.99 2.98 1.99c0.99 0 2.98 -0.99 3.98 -1.99c0.99 -0.99 0.99 -2.98 0.99 -4.97c0 -1.99 0 -2.98 -0.99 -3.98c-0.99 -0.99 -2.98 -1.99 -3.98 -1.99c-0.99 0 -1.99 0.99 -2.98 1.99c-0.99 0.99 -1.99 1.99 -1.99 3.98zm15.43 8.95L1303.78 2015.68l2.98 -0.15l-0.28 2.98c0.28 -1.99 1.27 -1.99 1.27 -2.98c0.99 0 1.99 0 1.99 0c0.99 0 1.99 0 2.98 0.99l-0.99 1.99c-0.99 0 -0.99 0 -1.99 0C1309.74 2018.52 1308.75 2018.52 1307.75 2018.52c0 0.99 0 0.99 -0.99 1.99c0 0.99 0 1.99 0 2.98v8.95zM1323.67 2032.44v-16.91L1325.65 2015.54v1.99C1326.65 2017.53 1326.65 2016.53 1327.64 2015.54c0.99 0 1.99 0 2.98 0c1.99 0 2.98 0 2.98 0c0.99 0.99 1.99 1.99 1.99 2.98c0.99 -1.99 2.98 -2.98 4.97 -2.98c1.99 0 2.98 0 3.98 0.99c0.99 0.99 0.99 1.99 0.99 3.98l0 11.93h-2.98v-10.94c0 -0.99 0 -1.99 0 -1.99c0 -0.99 0 -0.99 -0.99 -0.99c0 -0.99 -0.99 -0.99 -1.99 -0.99c-0.99 0 -1.99 0.99 -1.99 0.99c-0.99 0.99 -1.99 1.99 -1.99 3.98v9.94h-1.99v-10.94c0 -0.99 -0.99 -1.99 -0.99 -2.98c-0.99 -0.99 -0.99 -0.99 -1.99 -0.99c-0.99 0 -1.99 0 -2.97 0.99c-0.02 0 -1.01 0.99 -1.01 1.99c0 0 0 1.99 0 2.98v8.95zm24.86 -8.95c0 -2.98 0.99 -4.97 2.98 -5.97C1352.5 2015.54 1354.49 2015.54 1356.48 2015.54c1.99 0 3.98 0 5.97 1.99c0.99 0.99 1.99 2.98 1.99 5.97c0 1.99 0 3.98 -0.99 4.97c-0.99 0.99 -1.99 1.99 -2.98 2.98c-0.99 0.99 -1.99 0.99 -3.98 0.99C1354.49 2032.44 1352.5 2031.45 1351.51 2030.46C1349.52 2028.47 1348.53 2026.48 1348.53 2023.49zm2.98 0C1351.51 2025.48 1352.5 2027.47 1353.5 2028.47c0.99 0.99 1.99 1.99 2.98 1.99c1.99 0 2.98 -0.99 3.98 -1.99c0.99 -0.99 0.99 -2.98 0.99 -4.97c0 -1.99 0 -2.98 -0.99 -3.98c-0.99 -0.99 -1.99 -1.99 -3.98 -1.99c-0.99 0 -1.99 0.99 -2.98 1.99c-0.99 0.99 -1.99 1.99 -1.99 3.98zm15.91 8.95l0 -16.91h2.98v2.98c0 -1.99 0.99 -1.99 1.99 -2.98c0 0 0.99 0 0.99 0c0.99 0 1.99 0 2.98 0.99l-0.99 1.99c0 0 -0.99 0 -1.99 0c0 0 -0.99 0 -0.99 0c-0.99 0.99 -0.99 0.99 -1.99 1.99c0 0.99 0 1.99 0 2.98v8.95zM1389.66 2026.48l2.63 0.99c0 0.99 -0.99 2.98 -1.99 3.98c-1.99 0.99 -2.98 0.99 -5.47 0.99c-2.48 0 -3.48 -0.99 -5.47 -1.99c-0.99 -1.99 -1.99 -3.98 -1.99 -5.97c0 -2.98 0.99 -4.97 1.99 -6.96c1.99 -1.99 2.98 -1.99 5.97 -1.99c1.99 0 3.98 0 4.97 1.99C1392.28 2018.52 1392.28 2021.51 1392.28 2023.49c0 0 0 0.99 0 0.99h-11.93c0 1.99 0.99 2.98 0.99 3.98c0.99 0.99 2.98 1.99 3.98 1.99c0.99 0 1.99 -0.99 2.98 -0.81C1388.31 2028.47 1389.3 2028.47 1389.3 2026.48zm-8.95 -3.74h8.95c0 -1.99 0 -2.98 -0.99 -2.98c-0.99 -0.99 -1.99 -1.99 -2.98 -1.99C1383.33 2017.53 1382.34 2017.53 1382.34 2018.52c-0.99 0.99 -1.99 1.99 -1.99 3.98z"/><path fill="none" stroke="#3B3C35" d="M1405.21 2012.56l0 -2.98h1.99v2.98zm0.43 19.89l-0.43 -16.91h1.99v16.91zm6.96 -0.14v-16.91l1.99 0v1.99c0.99 -0.99 2.98 -1.99 5.97 -1.99c0.99 0 0.99 0 1.99 0c0.99 0.99 1.99 0.99 1.99 1.99c0.99 0 0.99 0.99 0.99 1.99c0 0 0 0.99 0 1.99v10.94h-2.98v-9.94C1422.12 2020.51 1422.12 2020.51 1422.12 2019.52c0 -0.99 -0.99 -0.99 -0.99 -0.99c-0.99 -0.99 -0.99 -0.99 -1.99 -0.99C1418.14 2017.53 1417.14 2018.52 1416.15 2018.52c-0.99 0.99 -0.99 1.99 -0.99 4.97v8.95zM1430.07 2032.44v-14.92h-1.99v-1.99L1430.07 2015.54v-1.99c0 -0.99 0 -1.99 0.99 -1.99c0 -0.99 0 -1.99 0.99 -1.99c0.99 0 1.99 -0.99 3.09 -0.99c0.89 0 0.89 0 1.88 0.99L1437.03 2011.56c-0.99 0 -0.99 0 -1.99 0c0 0 -0.99 0 -0.99 0C1433.06 2012.56 1433.06 2013.55 1433.06 2014.54v0.99l2.98 0v1.99h-2.98l0 14.92zm6.96 -8.95c0 -2.98 0.99 -4.97 2.98 -5.97c0.99 -1.99 2.98 -1.99 4.97 -1.99c1.99 0 3.98 0 5.97 1.99c0.99 0.99 1.99 2.98 1.99 5.97c0 1.99 0 3.98 -0.99 4.97c-0.99 0.99 -1.99 1.99 -2.98 2.98c-0.99 0.99 -1.99 0.99 -3.98 0.99C1443 2032.44 1441.01 2031.45 1440.02 2030.46c-1.99 -1.99 -2.98 -3.98 -2.98 -6.96zm2.98 0c0 1.99 0.99 3.98 1.99 4.97c0.99 0.99 1.99 1.99 2.98 1.99C1446.98 2030.46 1447.97 2029.46 1448.97 2028.47c0.99 -0.99 0.99 -2.98 0.99 -4.97c0 -1.99 0 -2.98 -0.99 -3.98c-0.99 -0.99 -1.99 -1.99 -3.98 -1.99C1443.99 2017.53 1443 2018.52 1442.01 2019.52c-0.99 0.99 -1.99 1.99 -1.99 3.98zm15.91 8.95v-16.91h2.98L1458.91 2018.52c0 -1.99 0.99 -1.99 1.99 -2.98c0 0 0.99 0 0.99 0c0.99 0 1.99 0 2.98 0.99l-0.99 1.99c0 0 -0.99 0 -1.99 0C1461.89 2018.52 1460.9 2018.52 1460.9 2018.99c-0.99 0.53 -0.99 0.53 -1.99 1.52c0 0.99 0 1.99 0 2.98v8.95zm10.94 0L1466.87 2015.54h1.99v1.99c0.99 0 1.99 -0.99 2.98 -1.99c0 0 0.99 0 1.99 0c1.99 0 2.98 0 2.98 0c0.99 0.99 1.99 1.99 1.99 2.98c0.99 -1.99 2.98 -2.98 4.97 -2.98c1.99 0 2.98 0 3.98 0.99c0.99 0.99 0.99 1.99 0.99 3.98v11.93h-1.99v-10.94c0 -0.99 0 -1.99 -0.99 -1.99c0 -0.99 0 -0.99 -0.99 -0.99c0 -0.99 -0.99 -0.99 -0.99 -0.99c-1.99 0 -1.99 0.99 -2.98 0.99c-0.99 0.99 -0.99 1.99 -0.99 3.98L1479.79 2032.44h-2.98L1476.81 2021.51c0 -0.99 0 -1.99 -0.99 -2.98c0 -0.99 -0.99 -0.99 -1.99 -0.99c-0.99 0 -1.99 0 -1.99 0.99c-0.99 0 -1.99 0.99 -1.99 1.99c0 0 0 1.99 0 2.98L1469.85 2032.44z"/><path fill="none" stroke="#3B3C35" d="M1503.66 2030.46c-0.99 0 -1.99 0.99 -2.68 0.99c-1.3 0.99 -2.29 0.99 -3.28 0.99c-0.99 0 -2.98 0 -3.98 -0.99c-0.99 -0.99 -0.99 -1.99 -0.99 -3.98c0 -0.99 0 -0.99 0 -1.99c0.99 -0.99 0.99 -0.99 1.99 -1.99c0 0 0.99 0 1.99 0c0 -0.99 0.99 -0.99 1.99 -0.99c1.99 0 3.98 0 4.97 -0.99c0 0 0 -0.99 0 -0.99c0 -0.99 0 -1.99 -0.99 -1.99c0 -0.99 -0.99 -0.99 -2.98 -0.99c-0.99 0 -1.99 0 -2.98 0.99c0 0 -0.99 0.99 -0.99 1.99h-2.98c0 -0.99 0.99 -1.99 0.99 -2.98c0.99 -0.99 1.99 -0.99 2.98 -1.99c0.99 0 1.99 0 3.98 0c0.99 0 1.99 0 2.98 0C1504.66 2016.53 1505.65 2016.53 1505.65 2016.53c0 0.99 0.99 1.99 0.99 1.99c0 0.99 0 1.99 0 2.98v4.2c0 1.76 0 3.75 0 4.75c0 0 0.99 0.99 1.26 1.99h-3.25c0 -0.99 0 -1.99 -0.99 -1.99zm0 -6.96c-0.99 0.99 -1.99 0.99 -3.93 0.99c-2.04 0.99 -2.04 0.99 -3.03 0.99c0 0 -0.99 0 -0.99 0.99c0 0 0 0.99 0 0.99c0 0.99 0 1.99 0.99 1.99c0 0.99 0.99 0.99 1.99 0.99c0.99 0 1.99 0 2.98 -0.99c0.99 0 0.99 -0.99 1.99 -1.99c0 0 0 -0.99 0 -2.98zm13.92 5.97v2.98c-0.99 0 -1.99 0 -1.99 0c-0.99 0 -1.99 0 -2.98 -0.99c0 0 0 0 -0.99 -0.99c0 0 0 -1.99 0 -2.98v-9.94h-1.99v-1.99h1.99v-3.98l2.98 -1.99v5.97l2.98 0.1v1.88h-2.98l0.3 9.94c-0.3 0.99 -0.3 0.99 -0.3 1.99c0 0 0 0 0 -0.18c0.99 0.18 0.99 0.18 0.99 0.18c0.99 0 0.99 0 1.99 0zm1.99 -16.91v-2.98h2.98L1522.56 2012.56zm0 19.89L1519.57 2015.54h2.98v16.91zm5.97 -9.01c0 -2.98 0.99 -4.97 2.98 -5.97c0.99 -1.99 2.98 -1.99 4.97 -1.99C1535.48 2015.54 1537.47 2015.54 1539.46 2017.53c0.99 0.99 1.99 2.98 1.99 5.97c0 1.99 0 3.98 -0.99 5.25c-0.99 0.72 -1.99 1.72 -2.98 2.71c-0.99 0.99 -1.99 0.99 -3.98 0.99c-1.99 0 -3.98 -0.99 -4.97 -1.99c-1.99 -1.99 -2.98 -3.98 -2.98 -6.96zm2.98 0C1528.52 2025.48 1529.52 2027.47 1530.51 2028.47c0.99 0.99 1.99 1.99 2.98 1.99c1.99 0 2.98 -0.99 3.98 -1.99c0.99 -0.99 0.99 -2.98 0.99 -4.97c0 -1.99 0 -2.98 -0.99 -3.98c-0.99 -0.99 -1.99 -1.99 -3.98 -1.99c-0.99 0 -1.99 0.99 -2.98 1.99c-0.99 0.99 -1.99 1.99 -1.99 3.98zm15.91 8.95l0 -16.91L1547.42 2015.54v1.99c0.99 -0.99 2.98 -1.99 4.97 -1.99c0.99 0 1.99 0 2.98 0c0.99 0.99 0.99 0.99 1.99 1.99c0 0 0 0.99 0.99 1.99c0 0 0 0.99 0 1.99v10.94h-2.98l0 -9.94c0 -1.99 0 -1.99 0 -2.98c-0.99 -0.99 -0.99 -0.99 -1.99 -0.99c0 -0.99 -0.99 -0.99 -1.99 -0.99c-0.99 0 -1.99 0.99 -2.98 0.99c-0.99 0.99 -0.99 1.99 -0.99 4.97v8.95z"/></g></svg>
