<?xml version="1.0" encoding="utf-8"?>
<svg xmlns="http://www.w3.org/2000/svg" xmlns:xlink="http://www.w3.org/1999/xlink" version="1.1" width="1632" height="2112" viewBox="0 0 1632 2112" xml:space="preserve" PageMode="4" layout="0"><defs><style type="text/css"><![CDATA[tspan{white-space:pre}
]]></style></defs><g id="content" view="2"><image x="46" y="0" width="1540" height="2112" xlink:href="img69.jpg"/><path fill="#FBF9FE" d="M69 2002h1501v44h-1501z"/><path fill="none" stroke="#191117" d="M89.11 2032.44v-20.88h-7.51v-1.99h18.06v1.99h-7.54v20.88zm13.3 0v-22.87L105.2 2009.57v7.96c1.31 -1.99 2.95 -1.99 4.94 -1.99c1.22 0 2.29 0 3.19 0c0.9 0.99 1.54 1.99 1.93 1.99C115.65 2018.52 115.85 2020.51 115.85 2021.51l0.48 10.94h-3.28L113.05 2021.51C113.05 2020.51 112.75 2019.52 112.14 2018.52c-0.61 -0.99 -1.46 -0.99 -2.57 -1.31c-0.84 0.31 -1.61 0.31 -2.35 1.31c-0.73 0 -1.24 0.99 -1.56 1.99c-0.31 0 -0.47 0.99 -0.47 2.98v8.95zm17.73 -19.89v-2.98h2.79v2.98zm0 19.89v-16.91h2.79v16.91zm5.95 -4.97l2.77 -0.99c0.15 0.99 0.59 1.99 1.29 2.98c0.71 0 1.7 0.99 2.97 0.99C134.41 2030.46 135.36 2029.46 135.99 2029.46c0.62 -0.99 0.92 -0.99 0.93 -1.99c0 -0.99 -0.28 -0.99 -0.83 -0.99c-0.39 -0.99 -1.34 -0.99 -2.86 -0.99c-2.05 -0.99 -3.47 -0.99 -4.27 -1.99C128.18 2023.49 127.57 2022.5 127.17 2022.5c-0.41 -0.99 -0.62 -1.99 -0.62 -2.98c0 0 0.17 -0.99 0.51 -1.99c0.34 0 0.8 -0.99 1.37 -0.99c0.44 0 1.03 -0.99 1.78 -0.99c0.76 0 1.56 0 2.42 0c1.29 0 2.44 0 3.41 0c0.98 0.99 1.7 0.99 2.17 1.99c0.47 0 0.79 0.99 0.96 1.99l-2.73 0.99c-0.12 -0.99 -0.49 -1.99 -1.08 -1.99c-0.59 -0.99 -1.43 -0.99 -2.52 -0.99c-1.29 0 -2.21 0 -2.75 0.99c-0.55 0 -0.83 0.99 -0.83 0.99C129.25 2020.51 129.37 2020.51 129.6 2020.51c0.22 0 0.58 0.99 1.06 0.99c0.28 0 1.1 0 2.48 0.99c1.98 0 3.36 0.99 4.14 0.99c0.79 0 1.4 0.99 1.84 0.99c0.45 0.99 0.68 1.99 0.68 2.98c0 0.99 -0.28 1.99 -0.82 1.99c-0.55 0.99 -1.33 1.99 -2.36 1.99c-1.02 0.99 -2.19 0.99 -3.48 0.99c-2.15 0 -3.78 0 -4.9 -0.99c-1.12 -0.99 -1.84 -2.98 -2.16 -3.98zm36.57 4.97v-1.99C161.6 2031.45 160.06 2032.44 158.03 2032.44c-1.31 0 -2.53 0 -3.63 -0.6C153.3 2030.46 152.44 2029.46 151.84 2028.47c-0.61 -0.99 -0.9 -2.98 -0.9 -4.97c0 -0.99 0.27 -2.98 0.83 -3.98c0.55 -0.99 1.37 -2.98 2.47 -2.98c1.1 -0.99 2.33 -0.99 3.68 -0.99C158.9 2015.54 159.78 2015.54 160.57 2015.54C161.34 2016.53 161.97 2016.53 162.46 2017.53v-7.96h2.78v22.87zm-8.84 -8.95c0 2.98 0.45 3.98 1.33 4.97C156.03 2029.46 157.09 2030.46 158.3 2030.46c1.21 0 2.26 -0.99 3.11 -1.99c0.86 -0.99 1.28 -1.99 1.28 -3.98c0 -2.98 -0.44 -3.98 -1.31 -4.97c-0.87 -0.99 -1.94 -1.99 -3.21 -1.99c-1.24 0 -2.28 0.99 -3.11 1.99c-0.84 0.99 -1.25 1.99 -1.25 3.98zm14.81 0c0 -2.98 0.85 -4.97 2.55 -5.97c1.42 -1.99 3.15 -1.99 5.19 -1.99c2.27 0 4.13 0 5.59 1.99c1.39 0.99 2.09 2.98 2.09 5.97C184.03 2025.48 183.73 2027.47 183.13 2028.47c-0.7 0.99 -1.59 1.99 -2.79 2.73c-1.21 1.25 -2.55 1.25 -3.99 1.25c-2.31 0 -4.18 -0.99 -5.6 -1.99c-1.42 -1.99 -2.14 -3.98 -2.14 -6.96zm2.87 0c0 1.99 0.46 3.98 1.38 4.97c0.92 0.99 2.08 1.99 3.48 1.99c1.39 0 2.55 -0.99 3.47 -1.99c0.91 -0.99 1.42 -2.98 1.42 -4.97C181.24 2021.51 180.74 2020.51 179.81 2019.52c-0.92 -0.99 -2.08 -1.99 -3.46 -1.99c-1.4 0 -2.56 0.99 -3.48 1.99c-0.92 0.99 -1.38 1.99 -1.38 3.98zm26.66 2.98h2.78c-0.3 1.99 -1.09 2.98 -2.39 3.98c-1.19 0.99 -2.69 1.99 -4.57 1.99c-2.19 0 -3.98 -0.99 -5.37 -1.99c-1.39 -1.99 -2.09 -3.98 -2.09 -6.96C186.51 2022.5 186.81 2020.51 187.41 2019.52c0.6 -1.99 1.49 -2.98 2.68 -2.98C191.29 2015.54 192.58 2015.54 194.07 2015.54c1.79 0 3.18 0 4.38 0.99c1.09 0.99 1.89 1.99 2.19 3.98l-2.69 0c-0.3 -0.99 -0.8 -1.99 -1.39 -1.99c-0.7 -0.99 -1.49 -0.99 -2.39 -0.99c-1.39 0 -2.59 0.99 -3.48 1.99c-0.9 0.99 -1.29 1.99 -1.29 3.98C189.4 2026.48 189.8 2027.47 190.69 2028.47c0.8 0.99 1.89 1.99 3.28 1.99c1.09 0 1.99 -0.99 2.78 -0.99c0.7 -0.99 1.19 -1.99 1.39 -2.98zm15.91 5.97v-2.98c-1.29 1.99 -2.98 2.98 -5.17 2.98C207.89 2032.44 207 2032.44 206.1 2031.45c-0.8 0 -1.49 0 -1.89 -0.99c-0.4 -0.99 -0.7 -0.99 -0.8 -1.99c-0.1 -0.99 -0.2 -0.99 -0.2 -2.98v-9.94h2.78v8.95c0 1.99 0.1 2.98 0.2 2.98c0.2 0.99 0.5 1.99 1.09 1.99c0.6 0 1.29 0.99 2.09 0.99c0.9 0 1.69 -0.99 2.39 -0.99c0.7 0 1.29 -0.99 1.59 -1.99c0.3 -0.99 0.4 -1.99 0.4 -2.98v-8.95L216.65 2015.54v16.91zm6.96 0v-16.91h2.49v1.99c0.5 0 1.19 -0.99 2.09 -2.09c0.8 0.11 1.79 0.11 2.88 0.11c1.19 0 2.29 0 2.98 0c0.8 0.99 1.39 1.99 1.69 2.98C234.45 2016.53 236.14 2015.54 238.23 2015.54c1.69 0 2.88 0 3.63 0.99c1.04 0.99 1.54 1.99 1.54 4.2L243.4 2032.44h-2.78v-10.94c0 -0.99 -0.1 -1.99 -0.3 -1.99c-0.2 -0.99 -0.5 -0.99 -0.99 -0.99C238.82 2017.53 238.33 2017.53 237.63 2017.53c-1.19 0 -2.09 0.99 -2.45 0.99c-1.23 0.99 -1.63 1.99 -1.63 3.98v9.94l-2.78 0v-10.94c0 -0.99 -0.2 -1.99 -0.7 -2.98c-0.4 -0.99 -1.19 -0.99 -2.19 -0.99c-0.8 0 -1.49 0 -2.19 0.99c-0.7 0 -1.19 0.99 -1.49 1.99c-0.3 0 -0.4 1.99 -0.4 2.98v8.95zm37.79 -5.97l2.88 0.99c-0.4 0.99 -1.29 2.98 -2.49 3.98c-1.29 0.99 -2.78 0.99 -4.77 0.99C252.05 2032.44 250.16 2031.45 248.77 2030.46c-1.49 -1.99 -2.19 -3.98 -2.19 -5.97c0 -2.98 0.7 -4.97 2.19 -6.96c1.39 -1.99 3.28 -1.99 5.57 -1.99c2.19 0 3.98 0 5.37 1.99c1.39 0.99 2.09 3.98 2.09 5.97c0 0 0 0.99 0 0.99l-12.33 -0.24c0.1 2.23 0.6 3.22 1.59 4.22c0.9 0.99 2.09 1.99 3.38 1.99C255.53 2030.46 256.42 2029.46 257.12 2029.46c0.7 -0.99 1.29 -0.99 1.69 -2.98zm-9.15 -3.98h9.25c-0.2 -1.99 -0.5 -2.98 -1.09 -2.98c-0.89 -0.99 -2.09 -1.99 -3.48 -1.99c-1.29 0 -2.39 0 -3.28 0.99c-0.8 0.99 -1.29 1.99 -1.39 3.98zm15.61 9.94v-16.91h2.49v1.99C268.95 2016.53 270.74 2015.54 273.03 2015.54C274.03 2015.54 274.92 2015.54 275.72 2015.54c0.9 0.99 1.49 0.99 1.89 1.99c0.4 0 0.7 0.99 1.36 1.99c-0.37 0 -0.27 0.99 -0.27 1.99v10.94h-2.88v-9.94c0 -1.99 -0.1 -1.99 -0.3 -2.98c-0.2 -0.99 -0.6 -0.99 -1.09 -0.99c-0.6 -0.99 -1.29 -0.99 -1.99 -0.99c-1.19 0 -2.19 0.99 -3.08 0.99c-0.89 0.99 -1.29 1.99 -1.29 4.97L268.06 2032.44zm23.77 -2.98l0.4 2.98C288.64 2032.44 287.95 2032.44 287.35 2032.44c-0.99 0 -1.79 0 -2.39 -0.99c-0.5 0 -0.89 0 -1.19 -0.99c-0.2 0 -0.3 -1.99 -0.3 -2.98v-9.94h-2.09v-1.99h2.09v-4.47l2.78 -1.5v5.97h2.78v1.99l-2.78 0.03l0 9.92c0 0.99 0 0.99 0.1 1.99C286.46 2029.46 286.66 2029.46 286.85 2029.46c0.3 0 0.6 0 0.99 0c0.3 0 0.7 0 1.19 0zM300.68 2012.56L300.68 2009.57l2.78 -0.35l0 3.34zm0 19.89v-16.91l2.78 0v16.91zm5.87 -4.97l2.78 -0.99c0.2 0.99 0.6 1.99 1.29 2.98c0.7 0 1.69 0.99 2.98 0.99c1.29 0 2.29 -0.99 2.88 -0.99c0.6 -0.99 0.89 -0.99 0.89 -1.99c0 -0.99 -0.3 -0.99 -0.8 -0.99c-0.4 -0.99 -1.29 -0.99 -2.88 -0.99c-1.99 -0.99 -3.48 -0.99 -4.28 -1.99c-0.8 0 -1.39 -0.99 -1.79 -0.99c-0.4 -0.99 -0.6 -1.99 -0.6 -2.98c0 0 0.2 -0.99 0.52 -1.99c0.28 0 0.78 -0.99 1.37 -0.99c0.4 0 0.99 -0.99 1.79 -0.99C311.42 2015.54 312.21 2015.54 313.11 2015.54c1.29 0 2.49 0 3.38 0c0.99 0.99 1.79 0.99 2.19 1.99c0.5 0 0.8 0.99 0.99 1.99l-2.78 0.99c-0.1 -0.99 -0.4 -1.99 -0.99 -1.99c-0.6 -0.99 -1.49 -0.99 -2.59 -0.99c-1.29 0 -2.19 0 -2.68 0.99c-0.6 0 -0.9 0.99 -0.9 0.99c0 0.99 0.1 0.99 0.4 0.99c0.2 0 0.6 0.99 0.99 0.99c0.3 0 1.19 0 2.49 0.99C315.59 2022.5 316.99 2023.49 317.78 2023.49c0.8 0 1.39 0.99 1.79 0.99c0.5 0.99 0.7 1.99 1.04 2.98c-0.35 0.99 -0.65 1.99 -1.14 1.99c-0.6 0.99 -1.29 1.99 -2.39 1.99c-0.99 0.99 -2.19 0.99 -3.48 0.99c-2.09 0 -3.78 0 -4.87 -0.99C307.64 2030.46 306.84 2028.47 306.54 2027.47zm25.86 10.94v-22.87h2.59v1.99c0.6 -0.99 1.29 -0.99 1.99 -1.99C337.77 2015.54 338.66 2015.54 339.76 2015.54c1.39 0 2.68 0 3.78 0.99c0.99 0.99 1.89 1.99 2.39 2.98c0.6 0.99 0.8 2.98 0.8 3.98c0 1.99 -0.3 2.98 -0.89 4.97c-0.6 0.99 -1.49 1.99 -2.59 2.98c-1.19 0.99 -2.39 0.99 -3.68 0.99c-0.89 0 -1.79 0 -2.49 -0.99c-0.8 0 -1.39 0 -1.89 -0.99v7.96zm2.59 -14.92c0 2.98 0.4 3.98 1.29 4.97c0.8 0.99 1.89 1.99 3.08 1.99c1.29 0 2.29 -0.99 3.18 -1.99c0.89 -0.99 1.39 -2.98 1.39 -4.97c0 -1.99 -0.5 -2.98 -1.29 -4.97c-0.89 -0.99 -1.89 -0.99 -3.18 -0.99c-1.19 0 -2.19 0 -3.08 1.99c-0.99 0.99 -1.39 1.99 -1.61 3.98zm15.12 8.95v-16.91h2.49v2.98c0.7 -1.99 1.29 -1.99 1.79 -2.98C354.97 2015.54 355.57 2015.54 356.17 2015.54c0.99 0 1.99 0 2.88 0.99l-0.89 1.99c-0.7 0 -1.39 0 -2.09 0c-0.6 0 -1.19 0 -1.69 0c-0.4 0.99 -0.8 0.99 -0.99 1.99c-0.3 0.99 -0.5 1.99 -0.5 2.98l0 8.95zm9.65 -8.95c0 -2.98 0.8 -4.97 2.59 -5.97c1.39 -1.99 3.08 -1.99 5.17 -1.99c2.19 0 4.08 0 5.57 1.99c1.39 0.99 2.09 2.98 2.09 5.97c0 1.99 -0.3 3.98 -0.89 4.97c-0.7 0.99 -1.59 1.99 -2.78 2.98c-1.19 0.99 -2.59 0.99 -3.98 0.99c-2.39 0 -4.18 -0.99 -5.67 -1.99c-1.39 -1.99 -2.09 -3.98 -2.09 -6.96zm2.88 0c0 1.99 0.4 3.98 1.39 4.97c0.89 0.99 2.09 1.99 3.48 1.99c1.39 0 2.49 -0.99 3.48 -1.99c0.89 -0.99 1.29 -2.98 1.29 -4.97c0 -1.99 -0.4 -2.98 -1.39 -3.98c-0.89 -0.99 -1.99 -1.99 -3.38 -1.99c-1.39 0 -2.59 0.99 -3.48 1.99c-0.99 0.99 -1.39 1.99 -1.39 3.98zm26.55 8.95v-1.99C388.19 2031.45 386.6 2032.44 384.61 2032.44c-1.39 0 -2.59 0 -3.68 -0.99c-1.09 -0.99 -1.89 -1.99 -2.59 -2.98c-0.6 -0.99 -0.89 -2.98 -0.89 -4.97c0 -0.99 0.3 -2.98 0.89 -3.98c0.5 -0.99 1.29 -2.98 2.39 -2.98c1.09 -0.99 2.39 -0.99 3.68 -0.99C385.4 2015.54 386.3 2015.54 387.09 2015.54c0.8 0.99 1.39 0.99 1.89 1.99v-7.96h2.78v22.87zm-8.85 -8.95c0 2.98 0.5 3.98 1.39 4.97c0.89 0.99 1.89 1.99 3.08 1.99c1.29 0 2.29 -0.99 3.18 -1.99c0.8 -0.99 1.29 -1.99 1.29 -3.98C389.28 2021.51 388.79 2020.51 387.89 2019.52c-0.8 -0.99 -1.89 -1.99 -3.18 -1.99c-1.19 0 -2.29 0.99 -3.08 1.99c-0.89 0.99 -1.29 1.99 -1.29 3.98zm26.71 8.95l-0.06 -2.98c-1.29 1.99 -2.98 2.98 -5.17 2.98c-0.99 0 -1.89 0 -2.78 -0.99c-0.8 0 -1.49 0 -1.89 -0.99c-0.4 -0.99 -0.7 -0.99 -0.8 -1.99c-0.1 -0.99 -0.2 -0.99 -0.2 -2.98v-9.94h2.78v8.95c0 1.99 0.1 2.98 0.2 2.98c0.2 0.99 0.5 1.99 1.09 1.99c0.6 0 1.29 0.99 2.09 0.99c0.89 0 1.69 -0.99 2.39 -0.99c0.7 0 1.29 -0.99 1.59 -1.99c0.3 -0.99 0.4 -1.99 0.4 -2.98l0 -8.95h2.88L409.57 2032.44zm17.7 -5.97h2.78c-0.3 1.99 -1.09 2.98 -2.39 3.98c-1.19 0.99 -2.68 1.99 -4.48 1.99c-2.29 0 -4.08 -0.99 -5.47 -1.99c-1.39 -1.99 -2.09 -3.98 -2.09 -6.96C413.05 2022.5 413.35 2020.51 413.94 2019.52c0.6 -1.99 1.49 -2.98 2.68 -2.98c1.19 -0.99 2.49 -0.99 3.98 -0.99c1.79 0 3.28 0 4.38 0.99c1.09 0.99 1.89 1.99 2.19 3.98h-2.68c-0.3 -0.99 -0.8 -1.99 -1.39 -1.99c-0.7 -0.99 -1.49 -0.99 -2.39 -0.99c-1.39 0 -2.59 0.99 -3.48 1.99c-0.89 0.99 -1.29 1.99 -1.29 3.98c0 2.98 0.4 3.98 1.29 4.97c0.8 0.99 1.99 1.99 3.28 1.99c1.09 0 2.09 -0.99 2.78 -0.99c0.7 -0.99 1.19 -1.99 1.39 -2.98zm16.41 0L443.98 2027.47c-0.4 0.99 -1.29 2.98 -2.49 3.98c-1.19 0.99 -2.78 0.99 -4.77 0.67c-2.39 0.32 -4.28 -0.67 -5.67 -1.66c-1.49 -1.99 -2.19 -3.98 -2.19 -5.97c0 -2.98 0.8 -4.97 2.19 -6.96c1.39 -1.99 3.28 -1.99 5.57 -1.99C438.81 2015.54 440.6 2015.54 441.99 2017.53c1.39 0.99 2.09 3.98 2.09 5.97c0 0 0 0.99 0 0.99h-12.33c0.1 1.99 0.7 2.98 1.59 3.98c0.89 0.99 2.09 1.99 3.48 1.99c0.99 0 1.89 -0.99 2.59 -0.99c0.7 -0.99 1.29 -0.99 1.69 -2.98zm-9.15 -3.98h9.25c-0.2 -1.99 -0.5 -2.98 -1.09 -2.98C439.2 2018.52 438.01 2017.53 436.62 2017.53c-1.29 0 -2.39 0 -3.18 0.99c-0.89 0.99 -1.39 1.99 -1.33 3.98zm26.35 9.94v-1.99c-1.09 0.99 -2.59 1.99 -4.67 1.99c-1.29 0 -2.49 0 -3.58 -0.99c-1.09 -0.99 -1.99 -1.99 -2.59 -2.98c-0.6 -0.99 -0.89 -2.98 -0.89 -4.97C446.56 2022.5 446.76 2020.51 447.36 2019.52c0.5 -0.99 1.39 -2.98 2.49 -2.98c1.09 -0.99 2.29 -0.99 3.68 -0.99c0.99 0 1.89 0 2.68 0c0.7 0.99 1.39 0.99 1.89 1.99v-7.96L460.88 2009.57v22.87zm-8.85 -8.95c0 2.98 0.4 3.98 1.29 4.97c0.89 0.99 1.99 1.99 3.18 1.99c1.19 0 2.19 -0.99 3.08 -1.99c0.89 -0.99 1.29 -1.99 1.29 -3.98c0 -2.98 -0.4 -3.98 -1.29 -4.97c-0.89 -0.99 -1.99 -1.99 -3.18 -1.99c-1.29 0 -2.29 0.99 -3.18 1.99c-0.8 0.99 -1.19 1.99 -1.19 3.98z"/><path fill="none" stroke="#191117" d="M476.69 2032.44l-2.59 -0.34v-22.54h2.78v7.96c1.19 -1.99 2.68 -1.99 4.48 -1.99c0.99 0 1.99 0 2.88 0c0.89 0.99 1.69 0.99 2.29 1.99c0.6 0.99 0.99 1.99 1.29 2.98c0.4 0.99 0.5 1.99 0.5 2.98c0 2.98 -0.7 4.97 -2.09 6.96c-1.39 0.99 -3.08 1.99 -4.97 1.99c-1.99 0 -3.48 -0.99 -4.57 -1.99zm-0.1 -8.95c0 1.99 0.3 3.98 0.8 4.97c0.89 0.99 2.09 1.99 3.58 1.99C482.26 2030.46 483.26 2029.46 484.15 2028.47c0.89 -0.99 1.39 -2.98 1.39 -4.97c0 -1.99 -0.5 -2.98 -1.29 -3.98c-0.89 -0.99 -1.89 -1.99 -3.08 -1.99c-1.29 0 -2.29 0.99 -3.18 1.99c-0.89 0.99 -1.39 1.99 -1.39 3.98zm15.12 14.92l-0.4 -2.98c0.7 0.99 1.19 0.99 1.69 0.99c0.6 0 1.09 0 1.49 -0.99c0.3 0 0.6 0 0.89 -0.99c0.2 0 0.4 -0.99 0.8 -1.99c0.1 0 0.2 0 0.3 0l-6.27 -16.91h2.98l3.48 9.94c0.4 0.99 0.8 1.99 1.19 3.98c0.3 -1.99 0.7 -2.98 1.09 -3.98l3.58 -9.94h2.78l-6.27 16.91c-0.7 1.99 -1.19 2.98 -1.59 3.98c-0.5 0.99 -1.09 0.99 -1.69 1.99c-0.7 0 -1.39 0 -2.29 0c-0.6 0 -1.19 0 -1.79 0zm25.46 -5.97v-14.92h-2.49v-1.99h2.49v-1.99c0 -0.99 0.1 -1.99 0.3 -1.99c0.3 -0.99 0.8 -1.99 1.49 -1.99c0.6 0 1.59 -0.99 2.78 -0.99C522.54 2008.58 523.43 2008.58 524.43 2009.57l-0.5 1.99c-0.6 0 -1.09 0 -1.59 0c-0.9 0 -1.49 0 -1.79 0c-0.4 0.99 -0.6 1.99 -0.6 2.98l0 0.99h3.28v1.99h-2.8l-0.48 14.92zm8.15 0v-16.91h2.49v2.98c0.7 -1.99 1.29 -1.99 1.79 -2.98c0.6 0 1.19 0 1.79 0c0.99 0 1.89 0 2.88 0.99l-0.89 1.99c-0.7 0 -1.39 0 -2.09 0c-0.6 0 -1.19 0 -1.69 0c-0.5 0.99 -0.8 0.99 -0.99 1.99c-0.3 0.99 -0.5 1.99 -0.5 2.98v8.95zm21.98 -5.97l2.88 0.99c-0.5 0.99 -1.29 2.98 -2.59 3.98c-1.19 0.99 -2.78 0.99 -4.67 0.99c-2.39 0 -4.38 -0.99 -5.77 -1.99c-1.39 -1.99 -2.09 -3.98 -2.09 -5.97c0 -2.98 0.7 -4.97 2.09 -6.96C538.65 2015.54 540.44 2015.54 542.73 2015.54c2.29 0 4.08 0 5.47 1.99c1.39 0.99 2.09 3.98 2.09 5.97C550.28 2023.49 550.28 2024.49 550.28 2024.49h-12.33c0.1 1.99 0.6 2.98 1.49 3.98c0.99 0.99 2.09 1.99 3.48 1.99c0.99 0 1.89 -0.99 2.59 -0.99c0.8 -0.99 1.39 -0.99 1.79 -2.98zm-9.25 -3.98h9.25c-0.1 -1.99 -0.5 -2.98 -0.99 -2.98c-0.9 -0.99 -2.09 -1.99 -3.48 -1.99c-1.29 0 -2.39 0 -3.28 0.99c-0.9 0.99 -1.39 1.99 -1.82 3.98z"/><path fill="none" stroke="#191117" d="M565 2026.48l2.88 0.99c-0.5 0.99 -1.29 2.98 -2.49 3.98c-1.29 0.99 -2.88 0.99 -4.77 0.99c-2.39 0 -4.28 -0.99 -5.77 -1.99c-1.39 -1.99 -2.09 -3.98 -2.09 -5.97c0 -2.98 0.7 -4.97 2.19 -6.96c1.39 -1.99 3.28 -1.99 5.47 -1.99c2.29 0 4.08 0 5.47 1.99C567.29 2018.52 567.98 2021.51 567.98 2023.49c0 0 0 0.99 0 0.99h-12.33C555.75 2026.48 556.25 2027.47 557.24 2028.47c0.9 0.99 1.99 1.99 3.38 1.99C561.62 2030.46 562.52 2029.46 563.31 2029.46c0.7 -0.99 1.29 -0.99 1.69 -2.98zm-9.15 -3.98h9.15c-0.1 -1.99 -0.5 -2.98 -0.99 -2.98c-0.89 -0.99 -2.09 -1.99 -3.48 -1.99c-1.29 0 -2.39 0 -3.28 0.99c-0.9 0.99 -1.29 1.99 -1.39 3.98zm28.94 9.94l-6.27 -16.91h2.98l3.58 9.94C585.39 2026.48 585.79 2027.47 586.08 2028.47c0.3 -0.99 0.6 -1.99 1.09 -2.98l3.58 -9.94h2.78l-6.06 16.91zm22.67 -5.97l2.88 0.99c-0.5 0.99 -1.29 2.98 -2.59 3.98c-1.19 0.99 -2.78 0.99 -4.67 0.99c-2.39 0 -4.38 -0.99 -5.77 -1.99c-1.39 -1.99 -2.09 -3.98 -2.09 -5.97c0 -2.98 0.7 -4.97 2.09 -6.96c1.49 -1.99 3.28 -1.99 5.57 -1.99c2.29 0 4.08 0 5.47 1.99c1.39 0.99 2.09 3.98 2.09 5.97c0 0 0 0.99 0 0.99h-12.33c0.1 1.99 0.6 2.98 1.49 3.98c0.99 0.99 2.09 1.99 3.48 1.99c0.99 0 1.89 -0.99 2.59 -0.99C606.47 2028.47 607.07 2028.47 607.46 2026.48zm-9.25 -3.98h9.25c-0.1 -1.99 -0.5 -2.98 -0.99 -2.98c-0.9 -0.99 -2.09 -1.99 -3.48 -1.99c-1.29 0 -2.39 0 -3.28 0.99c-0.9 0.99 -1.39 1.99 -1.49 3.98zm15.61 9.63l0 -16.59L616.31 2015.54v2.98c0.7 -1.99 1.29 -1.99 1.79 -2.98c0.6 0 1.19 0 1.79 0c0.99 0 1.89 0 2.88 0.99l-0.9 2.13c-0.7 -0.14 -1.39 -0.14 -2.09 -0.14C619.2 2018.52 618.6 2018.52 618.1 2018.52c-0.5 0.99 -0.8 0.99 -0.99 1.99c-0.3 0.99 -0.5 1.99 -0.5 2.98v8.95zm9.55 -4.97l2.78 -0.99c0.1 0.99 0.6 1.99 1.29 2.98c0.7 0 1.69 0.99 2.98 0.99c1.29 0 2.19 -0.99 2.88 -0.99c0.6 -0.99 0.9 -0.99 0.9 -1.99c0 -0.99 -0.3 -0.99 -0.8 -0.99c-0.4 -0.99 -1.39 -0.99 -2.88 -0.99c-2.09 -0.99 -3.48 -0.99 -4.28 -1.99c-0.8 0 -1.39 -0.99 -1.79 -0.99c-0.4 -0.99 -0.6 -1.99 -0.6 -2.98c0 0 0.1 -0.99 0.5 -1.99c0.3 0 0.8 -0.99 1.39 -0.99c0.4 0 0.99 -0.99 1.69 -0.99c0.8 0 1.59 0 2.49 0c1.29 0 2.39 0 3.38 0c0.99 0.99 1.69 0.99 2.19 1.99c0.5 0 0.8 0.99 0.99 1.99l-2.78 0.99c-0.1 -0.99 -0.5 -1.99 -1.09 -1.99c-0.6 -0.99 -1.39 -0.99 -2.49 -0.99C628.84 2017.53 627.95 2017.53 627.35 2018.52c-0.5 0 -0.8 0.99 -0.8 0.99c0 0.99 0.1 0.99 0.3 0.99c0.3 0 0.6 0.99 1.09 0.99c0.3 0 1.09 0 2.49 0.99c1.99 0 3.38 0.99 4.18 0.99c0.7 0 1.39 0.99 1.79 0.99c0.5 0.99 0.7 1.99 0.7 2.98C637.1 2028.47 636.8 2029.46 636.3 2029.46c-0.6 0.99 -1.39 1.99 -2.39 1.99c-0.99 0.99 -2.19 0.99 -3.48 0.99c-2.19 0 -3.78 0 -4.87 -0.99c-1.19 -0.99 -1.89 -2.98 -2.19 -3.98zM640.38 2012.56v-2.98h2.88v2.98zm0 19.89v-16.91h2.88v16.91z"/><path fill="none" stroke="#191117" d="M646.45 2023.49c0 -2.98 0.9 -4.97 2.59 -5.97c1.39 -1.99 3.08 -1.99 5.17 -2.01c2.29 0.02 4.08 0.02 5.49 2.01C661.16 2018.52 661.86 2020.51 661.86 2023.49c0 1.99 -0.3 3.98 -0.9 4.5c-0.7 1.47 -1.59 2.46 -2.78 3.46c-1.19 0.99 -2.59 0.99 -3.98 0.99c-2.29 0 -4.18 -0.99 -5.67 -1.99c-1.39 -1.99 -2.09 -3.98 -2.09 -6.96zm2.88 0.14c0 1.85 0.5 3.84 1.39 4.84c0.9 0.99 2.09 1.99 3.48 1.99c1.39 0 2.49 -0.99 3.48 -1.99C658.58 2027.47 659.08 2025.48 659.08 2023.49c0 -1.99 -0.5 -2.98 -1.39 -3.98c-0.99 -0.99 -2.09 -1.99 -3.48 -1.99c-1.39 0 -2.59 0.99 -3.48 1.99c-0.9 0.99 -1.39 1.99 -1.39 3.98zm15.91 8.95v-16.91h2.49v1.99c1.19 -0.99 2.98 -1.99 5.27 -1.99c0.99 0 1.89 0 2.68 0c0.9 0.99 1.49 0.99 1.89 1.99C677.97 2017.53 678.27 2018.52 678.47 2019.52c0.1 0 0.1 0.99 0.1 1.99v10.94h-2.78v-9.94C675.78 2020.51 675.68 2020.51 675.48 2019.52c-0.2 -0.99 -0.6 -0.99 -1.19 -0.99c-0.5 -0.99 -1.19 -0.99 -1.89 -0.99c-1.19 0 -2.29 0.99 -3.08 0.99c-0.9 0.99 -1.29 1.99 -1.29 4.97v8.95zm25.46 -8.95c0 -2.98 0.9 -4.97 2.59 -5.97C694.68 2015.54 696.37 2015.54 698.46 2015.54c2.29 0 4.08 0 5.57 1.99c1.39 0.99 2.09 2.98 2.09 5.97c0 1.99 -0.3 3.98 -0.9 4.97c-0.7 0.99 -1.59 1.99 -2.78 2.98c-1.19 0.99 -2.59 0.99 -3.98 0.99C696.17 2032.44 694.28 2031.45 692.79 2030.46c-1.39 -1.99 -2.09 -3.98 -2.09 -6.96zm2.88 0c0 1.99 0.5 3.98 1.39 4.97c0.9 0.99 2.09 1.99 3.48 1.99c1.39 0 2.49 -0.99 3.48 -1.99c0.9 -0.99 1.39 -2.98 1.39 -4.97C703.33 2021.51 702.83 2020.51 701.94 2019.52c-0.99 -0.99 -2.09 -1.99 -3.48 -1.99c-1.39 0 -2.59 0.99 -3.48 1.99c-0.9 0.99 -1.39 1.99 -1.39 3.98zm16.51 8.95v-14.92L707.61 2017.53v-1.99h2.49v-1.99C710.09 2012.56 710.19 2011.56 710.39 2011.56c0.3 -0.99 0.8 -1.99 1.49 -1.99C712.48 2009.57 713.47 2008.58 714.67 2008.58c0.8 0 1.69 0 2.68 0.99l-0.5 1.99c-0.6 0 -1.09 0 -1.59 0c-0.9 0 -1.49 0 -1.79 0c-0.4 0.99 -0.6 1.99 -0.6 2.98v0.99h3.28v1.99l-3.28 0.42v14.5zM727.49 2032.44v-22.87h8.55c1.49 0 2.68 0 3.48 0c1.09 0 2.09 0.99 2.78 0.99c0.8 0.99 1.39 0.99 1.89 1.99c0.4 0.99 0.7 1.99 0.7 2.98c0 1.99 -0.7 3.98 -1.89 4.97c-1.19 1.99 -3.48 1.99 -6.66 1.99h-5.87v9.94zm2.98 -11.93l5.87 0C738.33 2020.51 739.73 2019.52 740.52 2019.52C741.32 2018.52 741.71 2017.53 741.71 2015.54c0 0 -0.2 -0.99 -0.7 -1.99c-0.5 -0.99 -1.09 -0.99 -1.89 -0.99c-0.5 0 -1.49 -0.99 -2.78 -0.99h-5.87zm17.9 11.93v-16.91h2.49v2.98c0.6 -1.99 1.19 -1.99 1.79 -3.21c0.5 0.22 1.09 0.22 1.79 0.22c0.9 0 1.89 0 2.88 0.99l-0.99 1.99C755.64 2018.52 754.94 2018.52 754.24 2018.52c-0.6 0 -1.09 0 -1.59 0c-0.5 0.99 -0.9 0.99 -1.09 1.99c-0.3 0.99 -0.4 1.99 -0.4 2.98v8.95zm10.64 -19.89v-2.98h2.78v2.98zm0 19.89v-16.91h2.78v16.91zm7.06 0v-16.91L768.56 2015.54v1.99C769.76 2016.53 771.55 2015.54 773.84 2015.54c0.99 0 1.89 0 2.78 0c0.8 0.99 1.39 0.99 1.89 1.99c0.4 0 0.7 0.99 0.8 1.99c0.1 0 0.2 0.99 0.2 1.99v10.94h-2.78v-9.94c0 -1.99 -0.1 -1.99 -0.4 -2.98c-0.2 -0.99 -0.6 -0.99 -1.09 -0.99c-0.6 -0.99 -1.19 -0.99 -1.99 -0.99C772.05 2017.53 771.05 2018.52 770.16 2018.52c-0.9 0.99 -1.29 1.99 -1.29 4.97L768.86 2032.44zm23.87 -2.98l0.4 2.98c-0.8 0 -1.49 0 -2.19 0C787.16 2032.44 786.37 2032.44 785.87 2031.45c-0.6 0 -0.99 0 -1.19 -0.99c-0.3 0 -0.4 -1.99 -0.4 -2.98v-9.94h-1.99l0 -1.99h1.99l0 -3.98l2.78 -1.99v5.97h2.88v1.99h-2.88L787.06 2027.47c0 0.99 0.1 0.99 0.2 1.99c0.1 0 0.2 0 0.5 0C787.96 2029.46 788.26 2029.46 788.65 2029.46c0.3 0 0.7 0 1.29 0zm16.61 0L806.55 2032.44h-15.12c0 -0.99 0.1 -1.99 0.4 -1.99c0.4 -0.99 0.99 -1.99 1.79 -2.98c0.9 -0.99 2.09 -1.99 3.68 -3.98c2.49 -1.99 4.18 -2.98 5.07 -4.97c0.8 -0.99 1.29 -1.99 1.29 -2.98c0 -0.99 -0.4 -1.99 -1.19 -2.98c-0.8 -0.99 -1.89 -0.99 -3.08 -0.99c-1.39 0 -2.49 0 -3.28 0.99c-0.8 0.99 -1.19 1.99 -1.65 3.98l-2.43 -0.99c0.2 -1.99 0.9 -3.98 2.19 -4.97C795.51 2009.57 797.2 2009.57 799.39 2009.57c2.19 0 3.88 0 5.17 0.99C805.86 2012.55 806.55 2013.55 806.55 2015.54C806.55 2016.53 806.35 2017.53 805.96 2018.52c-0.4 0.99 -0.99 1.99 -1.89 2.98c-0.8 0 -2.29 1.99 -4.28 3.98c-1.69 0.99 -2.78 1.99 -3.28 1.99c-0.4 0.99 -0.8 0.99 -1.09 1.99zm4.28 3.44v-22.87h15.41v1.99h-12.43v7.96h10.74v1.99h-10.74l0 10.94zm18.89 0v-22.87h2.78l0 22.87zm17.9 -1.99c-0.99 0 -1.99 0.99 -2.98 0.99c-0.99 0.99 -1.99 0.99 -3.08 0.99c-1.79 0 -3.18 0 -4.18 -0.99c-0.99 -0.99 -1.49 -1.99 -1.49 -3.98c0 -0.99 0.2 -0.99 0.6 -1.99c0.4 -0.99 0.8 -0.99 1.19 -1.99c0.8 0 1.49 0 2.29 0c0.5 -0.99 1.29 -0.99 2.49 -0.99c2.19 0 3.88 0 4.97 -0.99c0 0 0 -0.99 0 -0.99C847.42 2019.52 847.13 2018.52 846.63 2018.52c-0.7 -0.99 -1.79 -0.99 -3.18 -0.99c-1.29 0 -2.29 0 -2.88 0.99c-0.7 0 -1.09 0.99 -1.39 1.99h-2.78c0.3 -0.99 0.7 -1.99 1.29 -2.98c0.5 -0.99 1.39 -0.99 2.39 -1.99c1.09 0 2.39 0 3.78 0c1.39 0 2.59 0 3.48 0C848.12 2016.53 848.82 2016.53 849.21 2016.53c0.4 0.99 0.7 1.99 0.9 1.99C850.21 2019.52 850.21 2020.51 850.21 2021.51v3.98c0 1.99 0.1 3.98 0.2 4.97c0.1 0 0.4 0.99 0.7 1.99l-2.88 0.44C847.92 2031.45 847.72 2030.46 847.62 2030.46zm-0.2 -6.96C846.43 2024.49 844.84 2024.49 842.85 2024.49C841.66 2025.48 840.86 2025.48 840.36 2025.48c-0.4 0 -0.8 0 -1.09 0.99c-0.2 0 -0.4 0.99 -0.4 1.27c0 0.72 0.3 1.72 1.32 1.72c0.17 0.99 0.97 0.99 2.06 0.99c1.09 0 1.99 0 2.88 -0.99c0.8 0 1.39 -0.99 1.79 -1.99c0.3 0 0.5 -0.99 0.5 -2.98zm5.71 3.98l2.78 -0.99c0.1 0.99 0.5 1.99 1.29 2.98c0.7 0 1.69 0.99 2.98 0.99c1.19 0 2.19 -0.99 2.78 -0.99c0.6 -0.99 0.99 -0.99 0.99 -1.99c0 -0.99 -0.3 -0.99 -0.9 -0.99c-0.4 -0.99 -1.29 -0.99 -2.78 -0.99c-2.09 -0.99 -3.48 -0.99 -4.28 -1.99c-0.8 0 -1.39 -0.99 -1.79 -0.99c-0.5 -0.99 -0.7 -1.99 -0.7 -2.98c0 0 0.2 -0.99 0.5 -1.99c0.4 0 0.8 -0.99 1.39 -0.99c0.5 0 1.09 -0.99 1.79 -0.99c0.8 0 1.59 0 2.49 0c1.29 0 2.39 0 3.38 0c0.99 0.99 1.69 0.99 2.19 1.99c0.4 0 0.8 0.99 0.9 1.58L863.83 2020.51C863.73 2019.52 863.34 2018.52 862.74 2018.52C862.14 2017.53 861.25 2017.53 860.25 2017.53c-1.29 0 -2.29 0 -2.78 0.99c-0.6 0 -0.8 0.99 -0.8 0.99c0 0.99 0.1 0.99 0.3 0.99C857.17 2020.51 857.57 2021.51 858.07 2021.51c0.3 0 1.09 0 2.49 0.99c1.99 0 3.28 0.99 4.08 0.99c0.8 0 1.39 0.99 1.89 0.99c0.4 0.99 0.7 1.99 0.7 2.98c0 0.99 -0.3 1.99 -0.9 1.99c-0.5 0.99 -1.29 1.99 -2.29 1.99c-1.09 0.99 -2.19 0.99 -3.48 0.99c-2.19 0 -3.78 0 -4.97 -0.99c-1.09 -0.99 -1.79 -2.98 -2.09 -3.98zm17.01 4.97v-22.87l2.78 0v7.96c1.29 -1.99 2.98 -1.99 4.97 -1.99c1.19 0 2.29 0 3.18 0c0.9 0.99 1.49 1.99 1.89 2.18C883.72 2018.52 883.92 2020.51 883.92 2021.51v10.94h-2.78v-10.94c0 -0.99 -0.3 -1.99 -0.9 -2.98c-0.6 -0.99 -1.49 -0.99 -2.59 -0.99c-0.8 0 -1.59 0 -2.39 0.99c-0.7 0 -1.19 0.99 -1.49 1.99c-0.3 0 -0.5 0.99 -0.5 2.98v8.95zm18.5 0l0 -3.98h3.18v3.98zm23.77 0l-8.85 -22.87h3.28l5.87 15.91c0.5 1.99 0.9 2.98 1.19 3.98c0.4 -0.99 0.8 -1.99 1.29 -3.98l6.17 -15.91h2.98l-8.85 22.87zm14.42 -19.89v-2.98h2.78v2.98z"/><path fill="none" stroke="#191117" d="M927.18 2032.44v-16.91h2.78v16.91zm5.87 -4.97l2.78 -0.99c0.2 0.99 0.6 1.99 1.29 2.98c0.7 0 1.69 0.99 2.98 0.99C941.4 2030.46 942.39 2029.46 942.99 2029.46c0.6 -0.99 0.9 -0.99 0.9 -1.99c0 -0.99 -0.3 -0.99 -0.8 -0.99c-0.4 -0.99 -1.29 -0.99 -2.88 -0.52C938.22 2024.49 936.73 2024.49 935.93 2023.49C935.14 2023.49 934.54 2022.5 934.14 2022.5c-0.4 -0.99 -0.6 -1.99 -0.6 -2.98c0 0 0.2 -0.99 0.5 -1.99c0.3 0 0.8 -0.99 1.39 -0.99c0.4 0 0.99 -0.99 1.79 -0.99c0.7 0 1.49 0 2.39 0c1.29 0 2.49 0 3.38 0C943.99 2016.53 944.78 2016.53 945.18 2017.53c0.5 0 0.8 0.99 0.99 1.99l-2.78 0.99C943.29 2019.52 942.99 2018.52 942.39 2018.52C941.8 2017.53 940.9 2017.53 939.81 2017.53c-1.29 0 -2.19 0 -2.68 0.99c-0.6 0 -0.9 0.99 -0.9 0.99c0 0.99 0.1 0.99 0.4 0.99c0.2 0 0.6 0.99 0.99 0.99c0.3 0 1.19 0 2.15 0.99c2.32 0 3.71 0.99 4.51 0.99c0.8 0 1.39 0.99 1.79 0.99c0.5 0.99 0.7 1.99 0.7 2.98c0 0.99 -0.3 1.99 -0.8 1.99c-0.6 0.99 -1.29 1.99 -2.39 1.99c-0.99 0.99 -2.19 0.99 -3.48 0.99c-2.09 0 -3.78 0 -4.87 -0.99c-1.09 -0.99 -1.89 -2.98 -2.19 -3.98zm17.1 -14.92v-2.98L952.94 2009.57v2.98zm0 19.89v-16.91h2.78L952.94 2032.44zm13.13 -2.98l0.4 2.98c-0.8 0 -1.49 0 -2.09 0c-0.99 0 -1.79 0 -2.39 -0.99c-0.5 0 -0.9 0 -1.19 -0.99c-0.2 0 -0.3 -1.99 -0.3 -2.98v-9.94h-2.09v-1.99h2.09v-3.98l2.78 -1.99v5.97L963.28 2015.54v1.99h-2.78v9.94c0 0.99 0 0.99 0.1 1.99C960.69 2029.46 960.89 2029.46 961.09 2029.46c0.3 0 0.6 0 0.99 0c0.3 0 0.7 0 1.19 0zm14.62 2.98l-5.07 -16.91h2.88l2.68 9.94L979.39 2028.47c0 0 0.3 -0.99 0.8 -2.98l2.68 -9.94h2.78l2.49 9.94l0.9 2.98L989.93 2025.48l2.88 -9.94h2.68l-5.17 16.91h-3.28l-2.29 -9.94l-0.6 -2.98l-3.38 12.93zm22.97 0l-5.07 -16.91h2.98l2.59 9.94l0.99 2.98c0 0 0.3 -0.99 0.8 -2.98l2.68 -9.94h2.88l2.49 9.94l0.8 2.98l0.9 -2.98l2.88 -9.94h2.68l-5.17 16.91h-2.88l-2.59 -9.94L1007.29 2019.52l-3.44 12.93zm22.97 0l-4.97 -16.91h2.88l2.59 9.94l0.99 2.98c0 0 0.3 -0.99 0.9 -2.98l2.59 -9.94h2.88l2.49 9.94l0.8 2.98l0.99 -2.98l2.78 -9.94h2.68L1036.27 2032.44h-2.88L1030.8 2022.5l-0.7 -2.98l-3.28 12.93zm20.78 0v-3.98h3.18v3.98z"/><path fill="none" stroke="#191117" d="M1052.68 2038.41v-22.87l2.49 0v1.99c0.7 -0.99 1.29 -0.99 2.09 -1.99c0.8 0 1.69 0 2.78 0C1061.43 2015.54 1062.62 2015.54 1063.72 2016.53c1.09 0.99 1.89 1.99 2.49 2.98c0.5 0.99 0.8 2.98 0.8 3.98c0 1.99 -0.3 2.98 -0.9 4.97C1065.51 2029.46 1064.61 2030.46 1063.42 2031.45c-1.09 0.99 -2.39 0.99 -3.58 0.99c-0.99 0 -1.79 0 -2.59 -0.99c-0.7 0 -1.29 0 -1.79 -0.99v7.96zm2.49 -14.92c0 2.98 0.5 3.98 1.29 4.97c0.9 0.99 1.89 1.99 3.18 1.99c1.19 0 2.29 -0.99 3.18 -1.99C1063.72 2027.47 1064.11 2025.48 1064.11 2023.49C1064.11 2021.51 1063.72 2020.51 1062.82 2018.52c-0.9 -0.99 -1.89 -0.99 -3.08 -0.99c-1.19 0 -2.29 0 -3.18 1.99c-0.9 0.99 -1.39 1.99 -1.39 3.98zm15.22 8.95l0 -16.91h2.49v2.98c0.6 -1.99 1.19 -1.99 1.79 -2.98c0.5 0 1.09 0 1.39 0c0.99 0 1.99 0 2.98 0.99l-0.99 1.99C1078.04 2018.52 1077.04 2018.52 1076.05 2018.52c-0.4 0 -0.9 0 -1.39 0c-0.5 0.99 -0.8 0.99 -1.09 1.99c-0.3 0.99 -0.4 1.99 -0.4 2.98v8.95zm10.64 -19.89v-2.98h2.98v2.98zm0 19.89L1081.02 2015.54h2.98v16.91zm6.96 0v-16.91h2.98v1.99c0.99 -0.99 2.98 -1.99 4.97 -1.99c0.99 0 1.99 0 2.98 0c0.99 0.99 0.99 0.99 1.99 1.99c0 0 0 0.99 0 1.99C1101.9 2019.52 1101.9 2020.51 1101.9 2021.51l0 10.94h-2.98l0.46 -9.94c-0.46 -1.99 -0.46 -1.99 -1.46 -2.98c0 -0.99 0 -0.99 -0.99 -0.99c0 -0.99 -0.99 -0.99 -1.99 -0.99c-0.99 0 -1.99 0.99 -2.98 0.99C1090.96 2019.52 1090.96 2020.51 1090.96 2023.49v8.95zm23.87 -2.98v2.98C1111.85 2032.44 1110.85 2032.44 1109.86 2032.44C1108.86 2032.44 1108.86 2032.44 1107.87 2031.45c-0.99 0 -0.99 0 -0.99 -0.99c0 0 -0.99 -1.99 -0.99 -2.98L1105.88 2017.53h-1.99v-1.99h1.99v-3.98l2.98 -1.99v5.97h2.98v1.99h-2.98v9.94c0 0.99 0 0.99 0 1.99c0 0 0.99 0 0.99 0c0 0 0 0 0.99 0c0 0 0.99 0 0.99 0zm16.91 0v2.98h-14.92c0 -0.99 0 -1.99 0 -1.99c0 -0.99 0.99 -1.99 1.99 -2.98c0.99 -0.99 1.99 -1.99 3.98 -3.98c1.99 -1.99 3.98 -2.98 4.97 -4.97c0 -0.99 0.99 -1.99 0.99 -2.98c0 -0.99 -0.99 -1.99 -0.99 -2.98c-0.99 -0.99 -1.99 -0.99 -2.98 -0.99c-1.99 0 -2.98 0 -3.98 0.99c-0.99 0.99 -0.99 1.99 -0.99 3.98l-2.98 -0.99c0 -1.99 0.99 -3.98 1.99 -4.97C1117.81 2009.57 1118.81 2009.57 1121.79 2009.57c1.99 0 3.98 0 4.97 0.99c0.99 1.99 1.99 2.98 1.99 4.97c0 0.99 0 1.99 -0.99 2.98c0 0.99 -0.99 1.99 -1.99 2.98C1124.78 2021.51 1123.78 2023.49 1121.79 2025.48c-1.99 0.99 -2.98 1.99 -2.98 1.99c-0.99 0.99 -0.99 0.99 -0.63 1.99zm3.98 2.98L1132.73 2017.53h-1.99v-1.99L1132.73 2015.54v-1.99c0 -0.99 0 -1.99 0.99 -1.99c0 -0.99 0 -1.99 0.99 -1.99c0.99 0 1.99 -0.99 2.98 -0.99c0.99 0 1.99 0 2.98 0.99l-0.99 1.99c-0.99 0 -0.99 0 -1.99 0c0 0 -0.99 0 -0.99 0c-0.99 0.99 -0.99 1.99 -0.51 2.98l-0.49 0.99h2.98v1.99h-2.98v14.92zm7.96 0.06v-22.87h2.98v22.87zM1158.59 2030.46c-0.99 0 -1.99 0.99 -2.98 0.99c-0.99 0.99 -1.99 0.99 -2.98 0.99c-0.99 0 -2.98 0 -3.98 -0.99c-0.99 -0.99 -0.99 -1.99 -0.99 -3.98c0 -0.99 0 -0.99 0 -1.99c0.99 -0.99 0.99 -0.99 1.99 -1.99c0 0 0.99 0 1.99 0c0 -0.99 0.99 -0.99 1.99 -0.99C1155.6 2022.5 1157.59 2022.5 1158.59 2021.51c0 0 0 -0.99 0 -0.99c0 -0.99 0 -1.99 -0.99 -1.99c0 -0.99 -0.99 -0.99 -2.98 -0.99c-0.99 0 -1.99 0 -2.98 0.99c0 0 -0.99 0.99 -0.99 1.99h-2.98c0 -0.99 0.99 -1.99 0.99 -2.98c0.99 -0.99 1.99 -0.99 2.98 -1.99c0.99 0 1.99 0 3.98 0c0.99 0 1.99 0 2.98 0c0.99 0.99 1.99 0.99 1.99 0.99c0 0.99 0.99 1.99 0.99 1.99c0 0.99 0 1.99 0 2.98v3.98c0 1.99 0 3.98 0 4.97c0 0 0.99 0.99 0.99 1.99h-2.98c0 -0.99 0 -1.99 -0.99 -1.99zm0 -6.96c-0.99 0.99 -1.99 0.99 -3.98 0.99C1152.62 2025.48 1152.62 2025.48 1151.63 2025.48c0 0 -0.99 0 -0.99 0.99c0 0 0 0.99 0 0.99c0 0.99 0 1.99 0.99 1.99c0 0.99 0.99 0.99 1.99 0.99C1154.61 2030.46 1155.6 2030.46 1156.6 2029.46c0.99 0 0.99 -0.99 1.99 -1.99c0 0 0 -0.99 0.15 -2.98zm5.97 3.98L1167.54 2026.48C1167.54 2027.47 1168.53 2028.47 1168.53 2029.46c0.99 0 1.99 0.99 2.98 0.99c1.99 0 2.98 -0.99 2.98 -0.99c0.99 -0.99 0.99 -0.99 0.99 -1.99c0 -0.99 0 -0.99 -1.03 -0.99c0.04 -0.99 -0.95 -0.99 -2.94 -0.99c-1.99 -0.99 -2.98 -0.99 -3.98 -1.99c-0.99 0 -0.99 -0.99 -1.99 -0.99c0 -0.99 0 -1.99 0 -2.98c0 0 0 -0.99 0 -1.99c0.99 0 0.99 -0.99 1.99 -0.99c0 0 0.99 -0.99 0.99 -0.99c0.99 0 1.99 0 2.98 0c0.99 0 1.99 0 2.98 0c0.99 0.99 1.99 0.99 1.99 1.99c0.99 0 0.99 0.99 0.99 1.99l-1.99 0.99c0 -0.99 -0.99 -1.99 -0.99 -1.99C1173.5 2017.53 1172.51 2017.53 1171.52 2017.53c-0.99 0 -1.99 0 -2.98 0.99c0 0 -0.99 0.99 -0.99 0.99c0 0.99 0.99 0.99 0.99 0.99c0 0 0 0.99 0.99 0.99c0 0 0.99 0 1.99 0.99c1.99 0 3.98 0.99 4.97 0.99c0 0 0.99 0.99 0.99 0.99c0.99 0.99 0.99 1.99 0.99 2.98c0 0.99 0 1.99 -0.99 1.99c0 0.99 -0.99 1.99 -1.99 1.99c-0.99 0.99 -1.99 0.99 -3.98 0.99c-1.99 0 -2.98 0 -4.97 -0.99c-0.99 -0.99 -0.99 -2.98 -1.99 -3.98zm16.91 4.97v-22.87h2.98v7.96C1186.43 2015.54 1187.43 2015.54 1189.42 2015.54c0.99 0 1.99 0 2.98 0c0.99 0.99 1.99 1.99 1.99 1.99c0.99 0.99 0.99 2.98 0.99 3.98v10.94h-2.98v-10.94c0 -0.99 0 -1.99 -0.99 -2.98c0 -0.99 -0.99 -0.99 -1.99 -0.99c-0.99 0 -1.99 0 -2.98 0.99c0 0 -0.99 0.99 -0.99 1.99c-0.99 0 -0.99 0.99 -0.99 2.98v8.95zM1200.35 2032.44v-3.98L1203.34 2028.47v3.98zm18.89 -5.97h2.98c-0.99 1.99 -0.99 2.98 -2.98 3.98c-0.99 0.99 -1.99 1.99 -3.98 1.99c-1.99 0 -3.98 -0.99 -5.97 -1.99c-0.99 -1.99 -1.99 -3.98 -1.99 -6.96c0 -0.99 0.99 -2.98 0.99 -3.98c0.99 -1.99 1.99 -2.98 2.98 -2.98C1212.29 2015.54 1213.28 2015.54 1215.27 2015.54c1.99 0 2.98 0 3.98 0.99c0.99 0.99 1.99 1.99 1.99 3.98h-1.99c-0.99 -0.99 -0.99 -1.99 -1.99 -1.99c0 -0.99 -0.99 -0.99 -1.99 -0.99c-0.99 0 -2.98 0.99 -3.98 1.99c0 0.99 -0.99 1.99 -0.99 3.98c0 2.98 0.99 3.98 0.99 4.97c0.99 0.99 1.99 1.99 3.98 1.99c0.99 0 1.99 -0.99 2.98 -0.99c0 -0.99 0.99 -1.99 0.99 -2.98zm3.98 -2.98c0 -2.98 0.99 -4.97 2.98 -5.97c0.99 -1.99 2.98 -1.99 4.97 -1.99c1.99 0 3.98 0 4.97 1.99C1238.14 2018.52 1239.14 2020.51 1239.14 2023.49c0 1.99 -0.99 3.98 -0.99 4.97c-0.99 0.99 -1.99 1.99 -2.98 2.98c-0.99 0.99 -2.98 0.99 -3.98 0.99c-1.99 0 -3.98 -0.99 -5.97 -1.99c-0.99 -1.99 -1.99 -3.98 -1.99 -6.96zm2.98 0c0 1.99 0 3.98 0.99 4.97c0.99 0.99 1.99 1.99 3.98 1.99c0.99 0 1.99 -0.99 2.98 -1.99c0.99 -0.99 1.99 -2.98 1.99 -4.97c0 -1.99 -0.99 -2.98 -1.99 -3.98C1233.17 2018.52 1232.18 2017.53 1231.18 2017.53c-1.99 0 -2.98 0.99 -3.98 1.99c-0.99 0.99 -0.99 1.99 -0.99 3.98zm15.91 8.95v-16.91l1.99 0L1244.11 2017.53c0.99 0 1.99 -0.99 2.98 -1.99c0 0 0.99 0 1.99 0c1.99 0 2.98 0 2.98 0c0.99 0.99 1.99 1.99 1.99 2.98c0.99 -1.99 2.98 -2.98 4.97 -2.98c1.99 0 2.98 0 3.98 0.99c0.99 0.99 0.99 1.99 1.12 3.98l-0.12 11.93h-1.99v-10.94c0 -0.99 0 -1.99 -0.99 -1.99c0 -0.99 0 -0.99 -0.99 -0.99c0 -0.99 -0.99 -0.99 -0.99 -0.99c-1.99 0 -1.99 0.99 -2.98 0.99c-0.99 0.99 -0.99 1.99 -0.99 3.98v9.94h-2.98l0 -10.94c0 -0.99 0 -1.99 -0.99 -2.98c0 -0.99 -0.99 -0.99 -1.99 -0.99c-0.99 0 -1.99 0 -1.99 0.99c-0.99 0 -1.99 0.99 -1.99 1.99c0 0 0 1.99 0 2.98l0 8.95zm35.8 0v-14.92l-1.99 0l0 -1.99h1.99v-1.99c0 -0.99 0 -1.99 0 -1.99c0.99 -0.99 0.99 -1.99 1.99 -1.99c0.99 0 1.99 -0.99 2.98 -0.99c0.99 0 0.99 0 1.99 0.99v1.99c-0.99 0 -0.99 0 -1.99 0c-0.99 0 -0.99 0 -1.99 0c0 0.99 0 1.99 0 2.98v0.99L1283.89 2015.54l0 1.99h-2.98v14.92z"/><path fill="none" stroke="#191117" d="M1284.88 2023.49c0 -2.98 0.99 -4.97 2.98 -5.97c0.99 -1.99 2.98 -1.99 4.97 -1.99c1.99 0 3.98 0 5.97 1.99c0.99 0.99 1.99 2.98 1.99 5.97c0 1.99 0 3.98 -0.99 4.97c-0.99 0.99 -1.99 1.99 -2.98 2.98c-0.99 0.99 -1.99 0.99 -3.98 0.99c-1.99 0 -3.98 -0.99 -5.97 -1.99c-0.99 -1.99 -1.99 -3.98 -1.99 -6.96zM1287.87 2023.49c0 1.99 0.99 3.98 1.99 4.97c0.99 0.99 1.99 1.99 2.98 1.99c0.99 0 2.98 -0.99 3.98 -1.99C1297.81 2027.47 1297.81 2025.48 1297.81 2023.49c0 -1.99 0 -2.98 -0.99 -3.98c-0.99 -0.99 -2.98 -1.99 -3.98 -1.99c-0.99 0 -1.99 0.99 -2.98 1.99c-0.99 0.99 -1.99 1.99 -1.99 3.98zm15.91 8.95v-16.91h2.98v2.98c0 -1.99 0.99 -1.99 0.99 -2.98c0.99 0 1.99 0 1.99 0c0.99 0 1.99 0 2.98 0.99l-0.99 1.99c-0.99 0 -0.99 0 -1.99 0c0 0 -0.99 0 -1.99 0C1307.75 2019.52 1307.75 2019.52 1306.76 2020.51c0 0.99 0 1.99 0 2.98v8.95zm19.89 0L1323.67 2015.54h1.99v1.99c0.99 0 0.99 -0.99 1.99 -1.99C1328.64 2015.54 1329.63 2015.54 1330.63 2015.54C1332.62 2015.54 1333.61 2015.54 1333.61 2015.54c0.99 0.99 1.99 1.99 1.99 2.98c0.99 -1.99 2.98 -2.98 4.97 -2.98c1.99 0 2.98 0 3.98 0.99C1345.54 2017.53 1345.54 2018.52 1345.54 2020.51v11.93L1342.56 2032.44v-10.94C1342.56 2020.51 1342.56 2019.52 1342.56 2019.52c0 -0.99 0 -0.99 -0.99 -0.99c0 -0.99 -0.99 -0.99 -1.99 -0.99c-0.99 0 -1.99 0.99 -1.99 0.99c-0.99 0.99 -1.99 1.99 -1.99 3.98L1335.6 2032.44L1333.61 2032.44v-10.94c0 -0.99 -0.99 -1.99 -0.99 -2.98c-0.99 -0.99 -0.99 -0.99 -1.99 -0.99c-0.99 0 -1.99 0 -2.98 0.99c0 0 -0.99 0.99 -0.99 1.99c0 0 0 1.99 0 2.98v8.95zm24.86 -8.95c0 -2.98 0.99 -4.97 2.98 -5.97c0.99 -1.99 2.98 -1.99 4.97 -1.99c1.99 0 3.98 0 5.97 1.99c0.99 0.99 1.99 2.98 1.99 5.97c0 1.99 0 3.98 -0.99 5.41c-0.99 0.55 -1.99 1.55 -2.98 2.54c-0.99 0.99 -1.99 0.99 -3.98 0.99c-1.99 0 -3.98 -0.99 -4.97 -1.99c-1.99 -1.99 -2.98 -3.98 -2.98 -6.96zm2.98 0c0 1.99 0.99 3.98 1.81 4.97C1354.49 2029.46 1355.49 2030.46 1356.48 2030.46c1.99 0 2.98 -0.99 3.98 -1.99c0.99 -0.99 0.99 -2.98 0.99 -4.97c0 -1.99 0 -2.98 -0.99 -3.98c-0.99 -0.99 -1.99 -1.99 -3.98 -1.99C1355.49 2017.53 1354.49 2018.52 1353.5 2019.52c-0.99 0.99 -1.99 1.99 -1.99 3.98zm15.91 8.95v-16.91l2.98 0v2.98c0 -1.99 0.99 -1.99 1.99 -2.98c0 0 0.99 0 0.99 0c0.99 0 1.99 0 2.98 0.99l-0.99 1.99c0 0 -0.99 0 -1.99 0c0 0 -0.99 0 -0.99 0c-0.99 0.99 -0.99 0.99 -1.99 1.99c0 0.99 0 1.99 0 2.98L1370.41 2032.44z"/><path fill="none" stroke="#191117" d="M1389.3 2026.48l2.98 0.99c0 0.99 -0.99 2.98 -1.99 3.98c-1.99 0.99 -2.98 0.99 -4.97 0.99C1382.34 2032.44 1381.34 2031.45 1379.35 2030.46c-0.99 -1.99 -1.99 -3.98 -1.99 -5.97c0 -2.98 0.99 -4.97 1.99 -6.96c1.99 -1.99 2.98 -1.99 5.97 -1.99c1.99 0 3.98 0 4.97 1.99c1.99 0.99 1.99 3.98 1.99 5.97c0 0 0 0.99 0 0.99L1380.35 2024.49c0 1.99 0.99 2.98 0.99 3.98C1382.34 2029.46 1384.33 2030.46 1385.32 2030.46c0.99 0 1.99 -0.99 2.98 -0.99c0 -0.99 0.99 -0.99 0.99 -2.98zm-8.95 -3.98h8.95c0 -1.99 0 -2.98 -0.99 -2.98c-0.99 -0.99 -1.99 -1.99 -2.98 -1.99c-1.99 0 -2.98 0 -2.98 0.99c-0.99 0.99 -1.99 1.99 -1.99 3.98zm24.7 -9.94l0.16 -2.98h1.99L1407.2 2012.56zm0 19.89v-16.91h1.99v16.91zm6.96 0v-16.91h1.99v1.99c0.99 -0.99 2.98 -1.99 5.97 -1.99c0.99 0 0.99 0 1.99 0c0.99 0.99 1.99 0.99 1.99 1.99c0.99 0 0.99 0.99 0.99 1.99C1425.1 2019.52 1425.1 2020.51 1425.1 2021.51v10.94l-2.98 0v-9.94c0 -1.99 0 -1.99 0 -2.98c0 -0.99 -0.99 -0.99 -0.99 -0.99c-0.99 -0.99 -0.99 -0.99 -1.99 -0.99c-0.99 0 -1.99 0.99 -2.98 0.99c-0.99 0.99 -0.99 1.99 -0.99 4.97v8.95zm17.9 0v-14.92l-2.11 0.16l0.12 -2.15h1.99L1430.07 2013.55c0 -0.99 0 -1.99 0.99 -1.99c0 -0.99 0 -1.99 0.99 -1.99C1433.06 2009.57 1434.05 2008.58 1435.04 2008.58c0.99 0 0.99 0 1.99 0.99v1.99c-0.99 0 -0.99 0 -1.99 0c0 0 -0.99 0 -0.99 0c-0.99 0.99 -0.99 1.99 -0.99 2.98v0.99h2.98v1.99h-2.98v14.92zm6.96 -8.95c0 -2.98 0.99 -4.97 2.98 -5.97c0.99 -1.99 2.98 -1.99 4.97 -1.99c1.99 0 3.98 0 5.97 1.99c0.99 0.99 1.99 2.98 1.99 5.97c0 1.99 0 3.98 -0.99 4.97c-0.99 0.99 -1.99 1.99 -2.98 2.98c-0.99 0.99 -1.99 0.99 -3.98 0.99c-1.99 0 -3.98 -0.99 -4.97 -1.99c-1.99 -1.99 -2.98 -3.98 -2.98 -6.96zm2.98 0c0 1.99 0.99 3.98 1.99 4.97c0.99 0.99 1.99 1.99 2.98 1.99c1.99 0 2.98 -0.99 3.98 -1.99c0.99 -0.99 0.99 -2.98 0.99 -4.97c0 -1.99 0 -2.98 -0.99 -3.98c-0.99 -0.99 -1.99 -1.99 -3.98 -1.99C1443.99 2017.53 1443 2018.52 1442.01 2019.52c-0.99 0.99 -1.99 1.99 -1.99 3.98zm15.91 8.95v-16.91h3.01L1458.91 2018.52c0 -1.99 0.99 -1.99 1.99 -2.98c0 0 0.99 0 0.99 0c0.99 0 1.99 0 2.98 0.99l-0.99 1.99c0 0 -0.99 0 -1.99 0c0 0 -0.99 0 -0.99 0c-0.99 0.99 -0.99 0.99 -1.99 1.99c0 0.99 0 1.99 0 2.98v8.95zm10.94 0v-16.91h1.99l0 1.99C1469.85 2017.53 1470.84 2016.53 1471.84 2015.54c0 0 0.99 0 1.99 0c1.99 0 2.98 0 2.98 0c0.99 0.99 1.99 1.99 1.99 2.98c0.99 -1.99 2.98 -2.98 4.97 -2.98c1.99 0 2.98 0 3.98 0.99c0.99 0.99 0.99 1.99 0.99 3.98v11.93h-1.99v-10.94c0 -0.99 0 -1.99 -0.99 -1.99c0 -0.99 0 -0.99 -0.99 -0.99c0 -0.99 -0.99 -0.99 -0.99 -0.99C1481.78 2017.53 1481.78 2018.52 1480.79 2018.52c-0.99 0.99 -0.99 1.99 -0.99 3.98v9.94h-2.5l-0.49 -10.94c0 -0.99 0 -1.99 -0.99 -2.98C1475.82 2017.53 1474.82 2017.53 1473.83 2017.53c-0.99 0 -1.99 0 -1.99 0.99c-0.99 0 -1.99 0.99 -1.99 1.99c0 0 0 1.99 0 2.98v8.95zm36.79 -1.99c-0.99 0 -1.99 0.99 -2.98 0.99c-0.99 0.99 -1.99 0.99 -2.98 0.99C1496.7 2032.44 1494.71 2032.44 1493.72 2031.45c-0.99 -0.99 -0.99 -1.99 -0.99 -3.98c0 -0.99 0 -0.99 0 -1.99c0.99 -0.99 0.99 -0.99 1.99 -1.99c0 0 0.99 0 1.99 0C1496.7 2022.5 1497.69 2022.5 1498.69 2022.5C1500.68 2022.5 1502.67 2022.5 1503.66 2021.45c0 0.05 0 -0.94 0 -0.94C1503.66 2019.52 1503.66 2018.52 1502.67 2018.52c0 -0.99 -0.99 -0.99 -2.98 -0.99c-0.99 0 -1.99 0 -2.98 0.99c0 0 -0.99 0.99 -0.99 1.99h-2.98c0 -0.99 0.99 -1.99 0.99 -2.98c0.99 -0.99 1.99 -0.99 2.98 -1.99c0.99 0 1.99 0 3.98 0c0.99 0 1.99 0 2.98 0c0.99 0.99 1.99 0.99 1.99 0.99c0 0.99 0.99 1.99 0.99 1.99c0 0.99 0 1.99 0 2.98v3.98c0 1.99 0 3.98 0 4.97c0 0 0.99 0.99 0.99 1.99h-2.98c0 -0.99 0 -1.99 -0.99 -1.99zm0 -6.96C1502.67 2024.49 1501.67 2024.49 1499.68 2024.49c-1.99 0.99 -1.99 0.99 -2.98 0.99c0 0 -0.99 0 -0.99 0.99c0 0 0 0.99 0 0.99c0 0.99 0 1.99 0.99 1.99c0 0.99 0.99 0.99 1.99 0.99c0.99 0 1.99 0 2.98 -0.99c0.99 0 0.99 -0.99 1.99 -1.99c0 0 0 -0.99 0 -2.98zM1517.58 2029.06v3.38c-0.99 0 -1.99 0 -1.99 0C1514.6 2032.44 1513.61 2032.44 1512.61 2031.45c0 0 0 0 -0.99 -0.99c0 0 0 -1.99 0 -2.98v-9.94L1509.63 2017.53v-1.99L1511.62 2015.54v-3.98l2.98 -1.99v5.97h2.98v1.99h-2.98v9.94c0 0.99 0 0.99 0 1.99c0 0 0 0 0 0c0.99 0 0.99 0 0.99 0c0.99 0 0.99 0 1.99 0zm1.99 -16.91L1519.57 2009.57h2.98v2.98zm0 19.89l0 -16.91h2.98v16.91zm5.97 -8.93C1525.54 2020.51 1526.53 2018.52 1528.52 2017.53c0.99 -1.99 2.98 -1.99 4.97 -1.99c1.99 0 3.98 0 5.97 1.99c0.99 0.99 1.99 2.98 1.99 5.97c0 1.99 0 3.98 -0.99 4.97c-0.99 0.99 -1.99 1.99 -2.98 2.98c-0.99 0.99 -1.99 0.99 -3.98 0.99c-1.99 0 -3.98 -0.99 -4.97 -1.99c-1.99 -1.99 -2.98 -3.98 -2.98 -7.41zm2.98 0c0 1.99 0.99 3.98 1.99 4.97c0.99 0.99 1.99 1.99 2.98 1.99c1.99 0 2.98 -0.99 3.98 -1.99c0.99 -0.99 0.99 -2.98 0.99 -4.97c0 -1.99 0 -2.98 -0.99 -3.98c-0.99 -0.99 -1.99 -1.99 -3.98 -1.99c-0.99 0 -1.99 0.99 -2.98 1.99c-0.99 0.99 -1.99 1.99 -1.99 3.98zM1544.43 2032.44v-16.91l2.98 0v1.99C1548.41 2016.53 1550.4 2015.54 1552.39 2015.54c0.99 0 1.99 0 2.98 0c0.99 0.99 0.99 0.99 1.99 1.99c0 0 0 0.99 0.99 1.99c0 0 0 0.99 0 1.99v10.94h-2.98L1555.37 2022.5c0 -1.99 0 -1.99 0 -2.98c-0.99 -0.99 -0.99 -0.99 -1.99 -0.99c0 -0.99 -0.99 -0.99 -1.99 -0.99c-0.99 0 -1.99 0.99 -2.98 0.99c-0.99 0.99 -0.99 1.99 -0.99 4.97v8.95z"/></g></svg>
