<?xml version="1.0" encoding="utf-8"?>
<svg xmlns="http://www.w3.org/2000/svg" xmlns:xlink="http://www.w3.org/1999/xlink" version="1.1" width="1632" height="2112" viewBox="0 0 1632 2112" xml:space="preserve" PageMode="4" layout="0"><defs><style type="text/css"><![CDATA[tspan{white-space:pre}
]]></style></defs><g id="content" view="2"><image x="46" y="0" width="1540" height="2112" xlink:href="img63.jpg"/><rect x="73" y="2002" width="1498" height="46" fill="#F8FAFA"/><path fill="none" stroke="#1F1E1C" d="M89.11 2032.44v-20.88h-7.51v-1.99L99.18 2009.57l0.48 1.99h-7.54v20.88zm13.3 0v-22.87h2.79v7.96c1.31 -1.99 2.95 -1.99 4.94 -1.99c1.22 0 2.29 0 3.19 0c0.9 0.99 1.54 1.99 1.93 1.99c0.39 0.99 0.59 2.98 0.59 3.98v10.94h-2.79v-10.94c0 -0.99 -0.31 -1.99 -0.91 -2.98c-0.61 -0.99 -1.46 -0.99 -2.57 -0.99c-0.84 0 -1.61 0 -2.35 0.99c-0.73 0 -1.24 0.99 -1.56 1.99c-0.31 0 -0.47 0.99 -0.47 2.98v8.95zm17.73 -19.89v-2.98h2.79v2.98zm0 19.89v-16.91h2.79v16.91zm5.95 -4.97l2.77 -0.99c0.15 0.99 0.59 1.99 1.29 2.98c0.71 0 1.7 0.99 2.91 0.99c1.35 0 2.3 -0.99 2.93 -0.68C136.6 2028.47 136.91 2028.47 136.92 2027.47c0 -0.99 -0.28 -0.99 -0.83 -0.99c-0.39 -0.99 -1.34 -0.99 -2.86 -0.99c-2.05 -0.99 -3.47 -0.99 -4.27 -1.99c-0.79 0 -1.39 -0.99 -1.8 -0.99c-0.41 -0.99 -0.62 -1.99 -0.62 -2.98C126.55 2019.52 126.72 2018.52 127.06 2017.53c0.34 0 0.8 -0.99 1.37 -0.99c0.44 0 1.03 -0.99 1.78 -0.99c0.76 0 1.56 0 2.42 0c1.29 0 2.44 0 3.41 0c0.98 0.99 1.7 0.99 2.17 1.99C138.67 2017.53 138.99 2018.52 139.17 2019.52l-2.73 0.99c-0.12 -0.99 -0.49 -1.99 -1.08 -1.99c-0.59 -0.99 -1.43 -0.99 -2.52 -0.99c-1.29 0 -2.21 0 -2.75 0.99c-0.55 0 -0.83 0.99 -0.83 0.99c0 0.99 0.12 0.99 0.35 0.99C129.82 2020.51 130.18 2021.51 130.67 2021.51c0.28 0 1.1 0 2.48 0.99c1.98 0 3.36 0.99 4.14 0.99c0.79 0 1.4 0.99 1.84 0.99c0.45 0.99 0.68 1.99 0.68 2.98c0 0.99 -0.28 1.99 -0.82 1.99c-0.55 0.99 -1.33 1.99 -2.36 1.99c-1.02 0.99 -2.19 0.99 -3.48 0.99c-2.15 0 -3.78 0 -4.9 -0.99c-1.12 -0.99 -1.84 -2.98 -2.16 -3.98zm36.57 5.08v-2.1c-1.04 0.99 -2.59 1.99 -4.61 1.99c-1.31 0 -2.53 0 -3.63 -0.99c-1.1 -0.99 -1.96 -1.99 -2.57 -2.98c-0.61 -0.99 -0.9 -2.98 -0.9 -4.97c0 -0.99 0.27 -2.98 0.83 -3.98c0.55 -0.99 1.37 -2.98 2.47 -2.98c1.1 -0.99 2.33 -0.99 3.68 -0.99c0.99 0 1.88 0 2.67 0c0.78 0.99 1.4 0.99 1.89 1.99v-7.96h2.78v22.87zm-8.84 -8.95c0 2.98 0.45 3.98 1.33 4.97c0.9 0.99 1.95 1.99 3.16 1.99c1.21 0 2.26 -0.99 3.11 -1.99c0.86 -0.99 1.28 -1.99 1.28 -3.98c0 -2.98 -0.44 -3.98 -1.31 -4.97c-0.87 -0.99 -1.94 -1.99 -3.21 -1.99c-1.24 0 -2.28 0.99 -3.11 1.99C154.22 2020.51 153.81 2021.51 153.81 2023.49zm14.81 0c0 -2.98 0.85 -4.97 2.55 -5.97c1.42 -1.99 3.15 -1.99 5.19 -1.99c2.27 0 4.13 0 5.59 1.99c1.39 0.99 2.09 2.98 2.09 5.97c0 1.99 -0.3 3.98 -0.9 4.97C182.44 2029.46 181.54 2030.46 180.34 2031.45c-1.21 0.99 -2.55 0.99 -3.99 0.99c-2.31 0 -4.18 -0.99 -5.6 -1.99c-1.42 -1.99 -2.14 -3.98 -2.14 -6.96z"/><path fill="none" stroke="#1F1E1C" d="M171.49 2023.49c0 1.99 0.46 3.98 1.57 4.97c0.74 0.99 1.89 1.99 3.29 1.99c1.39 0 2.55 -0.99 3.47 -1.99c0.91 -0.99 1.42 -2.98 1.42 -4.97c0 -1.99 -0.51 -2.98 -1.43 -3.98C178.89 2018.52 177.73 2017.53 176.35 2017.53c-1.4 0 -2.56 0.99 -3.48 1.99c-0.92 0.99 -1.38 1.99 -1.38 3.98zm26.66 2.98h2.78c-0.3 1.99 -1.09 2.98 -2.39 3.98C197.35 2031.45 195.86 2032.44 193.97 2032.44c-2.19 0 -3.98 -0.99 -5.37 -1.99c-1.39 -1.99 -2.09 -3.98 -2.09 -6.96c0 -0.99 0.3 -2.98 0.9 -3.98c0.6 -1.99 1.49 -2.98 2.68 -2.98c1.19 -0.99 2.49 -0.99 3.75 -0.99c2.02 0 3.41 0 4.6 0.99c1.09 0.99 1.89 1.99 2.19 3.98h-2.69c-0.3 -0.99 -0.8 -1.99 -1.39 -1.99c-0.7 -0.99 -1.49 -0.99 -2.39 -0.99c-1.39 0 -2.59 0.99 -3.48 1.99c-0.9 0.99 -1.29 1.99 -1.29 3.98c0 2.98 0.4 3.98 1.29 4.97c0.8 0.99 1.89 1.99 3.28 1.99c1.09 0 1.99 -0.99 2.78 -0.99c0.7 -0.99 1.19 -1.99 1.39 -2.98zm15.91 5.97v-2.98c-1.29 1.99 -2.98 2.98 -5.17 2.98c-0.99 0 -1.89 0 -2.78 -0.99c-0.8 0 -1.49 0 -1.89 -0.99c-0.4 -0.99 -0.7 -0.99 -0.8 -1.99c-0.1 -0.99 -0.2 -0.99 -0.2 -2.98L203.22 2015.54h2.78v8.95c0 1.99 0.1 2.98 0.2 2.98c0.2 0.99 0.5 1.99 1.09 1.99c0.6 0 1.29 0.99 2.09 0.99c0.9 0 1.69 -0.99 2.39 -0.99c0.7 0 1.29 -0.99 1.56 -1.99c0.33 -0.99 0.43 -1.99 0.43 -2.98v-8.95h2.88v16.91z"/><path fill="none" stroke="#1F1E1C" d="M221.02 2032.44l0 -16.91h2.49v1.99c0.5 0 1.19 -0.99 2.09 -1.99c0.8 0 1.79 0 2.88 0c1.19 0 2.29 0 2.98 0C232.26 2016.53 232.86 2017.53 233.15 2018.52c1.29 -1.99 2.98 -2.98 5.07 -2.98c1.69 0 2.88 0 3.78 0.99c0.9 0.99 1.39 1.99 1.39 3.98v11.93h-2.78v-10.94C240.61 2020.51 240.51 2019.52 240.31 2019.52c-0.2 -0.99 -0.5 -0.99 -0.99 -0.99c-0.5 -0.99 -0.99 -0.99 -1.69 -0.99c-1.19 0 -2.09 0.99 -2.88 0.99C233.95 2019.52 233.55 2020.51 233.55 2022.5v9.94h-2.78v-10.94c0 -0.99 -0.2 -1.99 -0.7 -2.98c-0.4 -0.99 -1.19 -0.99 -2.19 -0.99C227.09 2017.53 226.39 2017.53 225.7 2018.52c-0.7 0 -1.19 0.99 -1.49 1.99c-0.3 0 -0.4 1.99 -0.4 2.98L223.81 2032.44zm37.79 -5.97l2.88 0.99c-0.4 0.99 -1.29 2.98 -2.49 3.98c-1.29 0.99 -2.78 0.99 -4.77 0.99c-2.39 0 -4.28 -0.99 -5.67 -1.99c-1.49 -1.99 -2.19 -3.98 -2.19 -5.97c0 -2.98 0.7 -4.97 2.19 -6.96c1.39 -1.99 3.28 -1.99 5.57 -1.99c2.19 0 3.98 0 5.37 1.99c1.39 0.99 2.09 3.98 2.09 5.97c0 0 0 0.99 0 0.99l-12.33 0c0.1 1.99 0.6 2.98 1.59 3.98c0.9 0.99 2.09 1.99 3.38 1.99C255.53 2030.46 256.42 2029.46 257.12 2029.46c0.7 -0.99 1.29 -0.99 1.69 -2.98zm-9.15 -3.98h9.25c-0.2 -1.99 -0.5 -2.98 -1.09 -2.98C256.92 2018.52 255.73 2017.53 254.34 2017.53c-1.29 0 -2.39 0 -3.28 0.99c-0.8 0.99 -1.29 1.99 -1.39 3.98zm15.61 9.94l-0.05 -16.91h2.54v1.99c1.19 -0.99 2.98 -1.99 5.27 -1.99c0.99 0 1.89 0 2.68 0c0.9 0.99 1.49 0.99 1.89 1.99c0.4 0 0.7 0.99 0.89 1.99c0.1 0 0.2 0.99 0.2 1.99v10.94h-2.88v-9.94c0 -1.99 -0.1 -1.99 -0.3 -2.98c-0.2 -0.99 -0.6 -0.99 -1.09 -0.99c-0.6 -0.99 -1.29 -0.99 -1.99 -0.52c-1.19 -0.48 -2.19 0.52 -3.08 0.52c-0.89 0.99 -1.29 1.99 -1.29 4.97l0 8.95zm23.77 -2.98l0.4 2.98c-0.8 0 -1.49 0 -2.09 0c-0.99 0 -1.79 0 -2.39 -0.99c-0.5 0 -0.89 0 -1.19 -0.99c-0.2 0 -0.3 -1.99 -0.3 -2.98v-9.94h-2.09v-1.99L283.47 2015.54L283.47 2011.56l2.78 -1.99v5.97h2.78v1.99l-2.78 0v9.94c0 0.99 0 0.99 0.1 1.99c0.1 0 0.3 0 0.5 0c0.3 0 0.6 0 0.99 0c0.3 0 0.7 0 1.19 0zm11.64 -16.91v-2.98h2.78v2.98zm0 19.89v-16.91h2.78v16.91zM306.54 2027.47l2.78 -0.99c0.2 0.99 0.6 1.99 1.29 2.98c0.7 0 1.69 0.99 2.98 0.99c1.29 0 2.29 -0.99 2.88 -0.99c0.6 -0.99 0.89 -0.99 0.89 -1.99c0 -0.99 -0.3 -0.99 -0.8 -0.99c-0.4 -0.99 -1.29 -0.99 -2.88 -0.99C311.72 2024.49 310.22 2024.49 309.43 2023.49c-0.8 0 -1.39 -0.99 -1.79 -1c-0.4 -0.99 -0.6 -1.99 -0.6 -2.98c0 0 0.2 -0.99 0.5 -1.99C307.84 2017.53 308.33 2016.53 308.93 2016.53c0.4 0 0.99 -0.99 1.79 -0.99c0.7 0 1.49 0 2.39 0c1.29 0 2.49 0 3.38 0C317.48 2016.53 318.28 2016.53 318.68 2017.53c0.5 0 0.8 0.99 0.99 1.99l-2.78 0.99c-0.1 -0.99 -0.4 -1.99 -0.99 -1.99c-0.6 -0.99 -1.49 -0.99 -2.59 -0.99c-1.29 0 -2.19 0 -2.68 0.99c-0.6 0 -0.9 0.99 -0.9 0.99c0 0.99 0.1 0.99 0.4 0.99c0.2 0 0.6 0.99 0.99 0.99c0.3 0 1.19 0 2.49 0.99c1.99 0 3.38 0.99 4.18 0.99c0.8 0 1.39 0.99 1.79 0.99c0.5 0.99 0.7 1.99 0.7 2.98c0 0.99 -0.3 1.99 -0.8 1.99c-0.6 0.99 -1.29 1.99 -2.39 1.99c-0.99 0.99 -2.19 0.99 -3.48 0.99c-2.09 0 -3.78 0 -4.87 -0.99c-1.09 -0.99 -1.89 -2.98 -2.19 -3.98zm25.86 10.94l0 -22.87L334.99 2015.54L334.99 2017.53c0.6 -0.99 1.29 -0.99 1.99 -1.99c0.8 0 1.69 0 2.78 0c1.39 0 2.68 0 3.78 0.99c0.99 0.99 1.89 1.99 2.39 2.98c0.6 0.99 0.8 2.98 0.8 3.98c0 1.99 -0.3 2.98 -0.89 4.97c-0.6 0.99 -1.49 1.99 -2.59 2.98c-1.19 0.99 -2.39 0.99 -3.68 0.99c-0.89 0 -1.79 0 -2.49 -0.99c-0.8 0 -1.39 0 -1.89 -0.99v7.96zm2.59 -14.92c0 2.98 0.4 3.98 1.29 4.97c0.8 0.99 1.89 1.99 3.08 1.99c1.29 0 2.29 -0.99 3.18 -1.99c0.89 -0.99 1.39 -2.98 1.39 -4.97c0 -1.99 -0.5 -2.98 -1.29 -4.97c-0.89 -0.99 -1.89 -0.99 -3.18 -0.99c-1.19 0 -2.19 0 -3.08 1.99c-0.99 0.99 -1.39 1.99 -1.04 3.98zm15.12 8.95v-16.91h2.49v2.98c0.7 -1.99 1.29 -1.99 1.79 -2.98C354.97 2015.54 355.57 2015.54 356.17 2015.54c0.99 0 1.99 0 2.88 0.99L358.16 2018.52c-0.7 0 -1.39 0 -2.09 0C355.47 2018.52 354.87 2018.52 354.38 2018.52c-0.4 0.99 -0.8 0.99 -0.99 1.99c-0.3 0.99 -0.5 1.99 -0.5 2.98v8.95zm9.65 -8.95c0 -2.98 0.8 -4.97 2.59 -5.97c1.39 -1.99 3.08 -1.99 5.17 -1.99c2.19 0 4.08 0 5.57 1.99c1.39 0.99 2.09 2.98 2.09 5.97c0 1.99 -0.3 3.98 -0.89 4.97c-0.7 0.99 -1.59 1.99 -2.78 2.98c-1.19 0.99 -2.59 0.99 -3.98 0.99c-2.39 0 -4.18 -0.99 -5.67 -1.99c-1.39 -1.99 -2.09 -3.98 -2.09 -6.96zm2.88 0c0 1.99 0.4 3.98 1.39 4.97c0.89 0.99 2.09 1.99 3.48 1.99c1.39 0 2.49 -0.99 3.48 -1.99c0.89 -0.99 1.29 -2.98 1.29 -4.97c0 -1.99 -0.4 -2.98 -1.39 -3.98c-0.89 -0.99 -1.99 -1.99 -3.38 -1.99c-1.39 0 -2.59 0.99 -3.48 1.99c-0.99 0.99 -1.39 1.99 -1.39 3.98zm26.55 8.95v-1.99c-0.99 0.99 -2.59 1.99 -4.57 1.99C383.22 2032.44 382.02 2032.44 380.93 2031.45c-1.09 -0.99 -1.89 -1.99 -2.59 -2.98c-0.6 -0.99 -0.89 -2.98 -0.89 -4.97c0 -0.99 0.3 -2.98 0.89 -3.98c0.5 -0.99 1.29 -2.98 2.39 -2.98c1.09 -0.99 2.39 -0.99 3.68 -0.99c0.99 0 1.89 0 2.68 0c0.8 0.99 1.39 0.99 1.89 1.99v-7.96L391.77 2009.57v22.87zm-8.85 -8.95C380.33 2026.48 380.83 2027.47 381.72 2028.47c0.89 0.99 1.89 1.99 2.84 1.99c1.54 0 2.53 -0.99 3.43 -1.99c0.8 -0.99 1.29 -1.99 1.29 -3.98C389.28 2021.51 388.79 2020.51 387.89 2019.52c-0.8 -0.99 -1.89 -1.99 -3.18 -1.99c-1.19 0 -2.29 0.99 -3.08 1.99C380.73 2020.51 380.33 2021.51 380.33 2023.49zm26.65 9.04v-3.07c-1.29 1.99 -2.98 2.98 -5.17 2.98c-0.99 0 -1.89 0 -2.78 -0.99c-0.8 0 -1.49 0 -1.89 -0.99c-0.4 -0.99 -0.7 -0.99 -0.8 -1.99c-0.1 -0.99 -0.2 -0.99 -0.2 -2.98v-9.94L398.93 2015.54v8.95c0 1.99 0.1 2.98 0.2 2.98c0.2 0.99 0.5 1.99 1.09 1.99c0.6 0 1.29 0.99 2.09 0.99c0.89 0 1.69 -0.99 2.39 -0.99c0.7 0 1.29 -0.99 1.59 -1.99c0.3 -0.99 0.4 -1.99 0.4 -3.25v-8.69h2.88v16.91zm17.7 -5.97h2.78c-0.3 1.99 -1.09 2.98 -2.39 3.98c-1.19 0.99 -2.68 1.99 -4.48 1.99C418.32 2032.44 416.53 2031.45 415.14 2030.46c-1.39 -1.99 -2.09 -3.98 -2.09 -6.96c0 -0.99 0.3 -2.98 0.89 -3.98c0.6 -1.99 1.49 -2.98 2.68 -2.98c1.19 -0.99 2.49 -0.99 3.98 -0.99c1.79 0 3.28 0 4.38 0.99c1.09 0.99 1.89 1.99 2.19 3.98h-2.68c-0.3 -0.99 -0.8 -1.99 -1.39 -1.99C422.4 2017.53 421.6 2017.53 420.71 2017.53c-1.39 0 -2.59 0.99 -3.48 1.99c-0.89 0.99 -1.29 1.99 -1.29 3.98c0 2.98 0.4 3.98 1.29 4.97c0.8 0.99 1.99 1.99 2.98 1.99c1.4 0 2.39 -0.99 3.09 -0.99c0.7 -0.99 1.19 -1.99 1.39 -2.98zm16.41 0l2.88 0.99c-0.4 0.99 -1.29 2.98 -2.49 3.98c-1.19 0.99 -2.78 0.99 -4.81 0.99c-2.35 0 -4.24 -0.99 -5.63 -1.99c-1.49 -1.99 -2.19 -3.98 -2.19 -5.97c0 -2.98 0.8 -4.97 2.19 -6.96c1.39 -1.99 3.28 -1.99 5.57 -1.99c2.19 0 3.98 0 5.37 1.99c1.39 0.99 2.09 3.98 2.09 5.97c0 0 0 0.99 0 0.99h-12.33c0.1 1.99 0.7 2.98 1.59 3.98c0.89 0.99 2.09 1.99 3.48 1.99c0.99 0 1.89 -0.99 2.59 -0.99c0.7 -0.99 1.29 -0.99 1.69 -2.98zm-9.15 -3.98h9.25c-0.2 -1.99 -0.5 -2.98 -1.09 -2.98c-0.89 -0.99 -2.09 -1.99 -3.48 -1.99c-1.29 0 -2.39 0 -3.18 0.99c-0.89 0.99 -1.39 1.99 -1.49 3.98zm26.35 9.94v-1.99c-1.09 0.99 -2.59 1.99 -4.67 1.99c-1.29 0 -2.49 0 -3.58 -0.99C448.95 2030.46 448.05 2029.46 447.46 2028.47c-0.6 -0.99 -0.89 -2.98 -0.89 -4.97c0 -0.99 0.2 -2.98 0.8 -3.98C447.86 2018.52 448.75 2016.53 449.84 2016.53c1.09 -0.99 2.29 -0.99 3.68 -0.99c0.99 0 1.89 0 2.68 0c0.7 0.99 1.39 0.99 1.89 1.99v-7.96l2.78 0l0 22.87zm-8.85 -8.95c0 2.98 0.4 3.98 1.29 4.97c0.89 0.99 1.99 1.99 3.18 1.99c1.19 0 2.19 -0.99 3.08 -1.99c0.89 -0.99 1.29 -1.99 1.29 -3.98c0 -2.98 -0.4 -3.98 -1.29 -4.97c-0.89 -0.99 -1.99 -1.99 -3.18 -2.45C452.53 2017.53 451.53 2018.52 450.64 2019.52c-0.8 0.99 -1.19 1.99 -1.19 3.98zm27.25 8.95h-2.59l0 -22.87h2.78v7.96c1.19 -1.99 2.68 -1.99 4.01 -1.99c1.46 0 2.45 0 3.35 0c0.89 0.99 1.69 0.99 2.29 1.99C487.14 2018.52 487.53 2019.52 487.83 2020.51c0.4 0.99 0.5 1.99 0.5 2.98c0 2.98 -0.7 4.97 -2.09 6.96c-1.39 0.99 -3.08 1.99 -4.97 1.99c-1.99 0 -3.48 -0.99 -4.57 -1.99zm-0.1 -8.95c0 1.99 0.3 3.98 0.8 4.97c0.89 0.99 2.09 1.99 3.58 1.99c1.29 0 2.29 -0.99 3.18 -1.99c0.89 -0.99 1.39 -2.98 1.39 -4.97c0 -1.99 -0.5 -2.98 -1.29 -3.98c-0.89 -0.99 -1.89 -1.99 -3.08 -1.99c-1.29 0 -2.29 0.99 -3.18 1.99c-0.89 0.99 -1.39 1.99 -1.39 4.41zM491.71 2038.41l-0.4 -2.98c0.7 0.99 1.19 0.99 1.69 0.99c0.6 0 1.09 0 1.49 -0.99c0.3 0 0.6 0 0.89 -0.99C495.59 2034.43 495.79 2033.44 496.19 2032.44c0.1 0 0.2 0 0.3 0l-6.27 -16.91h2.98l3.48 9.94c0.4 0.99 0.8 1.99 1.19 3.98c0.3 -1.99 0.7 -2.98 1.09 -3.98l3.58 -9.94l2.78 0l-6.27 16.91C498.37 2034.43 497.88 2035.43 497.48 2036.42c-0.5 0.99 -1.09 0.99 -1.69 1.99c-0.7 0 -1.39 0 -2.29 0c-0.6 0 -1.19 0 -1.79 0zm25.46 -5.97v-14.92h-2.49v-1.99h2.49v-1.99c0 -0.99 0.1 -1.99 0.3 -1.99C517.77 2010.57 518.26 2009.57 518.96 2009.57C519.56 2009.57 520.55 2008.58 521.74 2008.58C522.54 2008.58 523.43 2008.58 524.43 2009.57l-0.5 1.99c-0.6 0 -1.09 0 -1.59 0c-0.9 0 -1.49 0 -1.79 0c-0.4 0.99 -0.6 1.99 -0.6 2.98v1.32l3.28 -0.32v1.99h-3.28l0 14.92zm8.15 0v-16.91h2.49v2.98c0.7 -1.99 1.29 -1.99 1.79 -2.98c0.6 0 1.19 0 1.79 0c0.99 0 1.89 0 2.88 0.99L533.38 2018.52c-0.7 0 -1.39 0 -2.09 0c-0.6 0 -1.19 0 -1.69 0c-0.5 0.99 -0.8 0.99 -0.99 1.99c-0.3 0.99 -0.5 1.99 -0.5 2.98v8.95zm21.98 -5.97l2.88 0.99c-0.5 0.99 -1.29 2.98 -2.59 3.98c-1.19 0.99 -2.78 0.99 -4.67 0.99c-2.39 0 -4.38 -0.99 -5.77 -1.99c-1.39 -1.99 -2.09 -3.98 -2.09 -5.97c0 -2.98 0.7 -4.97 2.09 -6.96c1.49 -1.99 3.28 -1.99 5.57 -1.99c2.29 0 4.08 0 5.47 1.99C549.59 2018.52 550.28 2021.51 550.28 2023.49C550.28 2023.49 550.28 2024.49 550.28 2024.49h-12.33c0.1 1.99 0.6 2.98 1.49 3.98c0.99 0.99 2.09 1.99 3.48 1.99C543.92 2030.46 544.81 2029.46 545.51 2029.46C546.31 2028.47 546.9 2028.47 547.3 2026.48zm-9.25 -3.98l9.25 0c-0.1 -1.99 -0.5 -2.98 -0.99 -2.98c-0.9 -0.99 -2.09 -1.99 -3.48 -1.99c-1.29 0 -2.39 0 -3.28 0.99c-0.9 0.99 -1.39 1.99 -1.49 3.98zm26.95 3.98l2.88 0.99c-0.5 0.99 -1.29 2.98 -2.49 3.98c-1.29 0.99 -2.88 0.99 -4.77 0.99c-2.39 0 -4.28 -0.99 -5.77 -1.99c-1.39 -1.99 -2.09 -3.98 -2.09 -5.97c0 -2.98 0.7 -4.97 2.19 -6.96c1.39 -1.99 3.28 -1.99 5.47 -1.99c2.29 0 4.08 0 5.47 1.99c1.39 0.99 2.09 3.98 2.09 5.97c0 0 0 0.99 0 0.99h-12.33c0.1 1.99 0.6 2.98 1.59 3.98c0.9 0.99 1.99 1.99 3.38 1.99c0.99 0 1.89 -0.99 2.69 -0.99c0.7 -0.99 1.29 -0.99 1.69 -2.98zm-9.15 -3.98h9.15c-0.1 -1.99 -0.5 -2.98 -0.99 -2.98c-0.89 -0.99 -2.09 -1.99 -3.48 -1.99c-1.29 0 -2.39 0 -3.28 0.99c-0.9 0.99 -1.29 1.99 -1.39 3.98z"/><path fill="none" stroke="#1F1E1C" d="M584.74 2032.44l-6.21 -16.55l2.98 -0.36l3.58 9.94c0.3 0.99 0.7 1.99 0.99 2.98c0.3 -0.99 0.6 -1.99 1.09 -2.98l3.58 -9.94L593.64 2015.54l-6.17 16.91zm22.67 -5.74l2.88 0.77c-0.5 0.99 -1.29 2.98 -2.59 3.98C606.57 2032.44 604.98 2032.44 603.09 2032.44c-2.39 0 -4.38 -0.99 -5.77 -1.99c-1.39 -1.99 -2.09 -3.98 -2.09 -6.29c0 -2.66 0.7 -4.65 2.09 -6.64c1.49 -1.99 3.28 -1.99 5.57 -1.99c2.29 0 4.08 0 5.47 1.99c1.39 0.99 2.09 3.98 2.09 5.97c0 0 0 0.99 0 0.99h-12.33c0.1 1.99 0.6 2.98 1.49 3.98c0.99 0.99 2.09 1.99 3.48 1.99c0.99 0 1.89 -0.99 2.59 -0.99c0.8 -0.99 1.39 -0.99 1.79 -2.98zm-9.25 -3.98h9.25C607.36 2020.51 606.97 2019.52 606.47 2019.52c-0.9 -0.99 -2.09 -1.99 -3.48 -1.99c-1.29 0 -2.39 0 -3.28 0.99c-0.9 0.99 -1.39 1.99 -1.49 3.98zm15.61 9.94v-16.91l2.49 0v2.98c0.7 -1.99 1.29 -1.99 1.79 -2.98c0.6 0 1.19 0 1.79 0c0.99 0 1.89 0 2.88 0.99l-0.9 1.99c-0.7 0 -1.39 0 -2.09 0c-0.6 0 -1.19 0 -1.76 0c-0.42 0.99 -0.72 0.99 -0.92 1.99c-0.3 0.99 -0.5 1.99 -0.5 2.98v8.95zm9.55 -4.97l2.78 -0.99C626.26 2027.47 626.76 2028.47 627.45 2029.46c0.7 0 1.69 0.99 2.98 0.77C631.73 2030.46 632.62 2029.46 633.32 2029.46c0.6 -0.99 0.9 -0.99 0.9 -1.99c0 -0.99 -0.3 -0.99 -0.8 -0.99c-0.4 -0.99 -1.39 -0.99 -2.88 -0.99c-2.09 -0.99 -3.48 -0.99 -4.28 -1.99c-0.8 0 -1.39 -0.99 -1.79 -0.99c-0.4 -0.99 -0.6 -1.99 -0.6 -2.98c0 0 0.1 -0.99 0.5 -1.99c0.3 0 0.8 -0.99 1.39 -0.99c0.4 0 0.99 -0.99 1.69 -0.99c0.8 0 1.59 0 2.49 0c1.29 0 2.39 0 3.38 0c0.99 0.99 1.69 0.99 2.19 1.99c0.5 0 0.8 0.99 0.99 1.99l-2.78 0.99c-0.1 -0.99 -0.5 -1.99 -1.09 -1.99c-0.6 -0.99 -1.39 -0.99 -2.49 -0.99c-1.29 0 -2.19 0 -2.78 0.99c-0.5 0 -0.8 0.99 -0.8 0.99c0 0.99 0.1 0.99 0.3 0.99c0.3 0 0.6 0.99 1.09 0.99c0.3 0 1.09 0 2.49 0.99c1.99 0 3.38 0.99 4.18 0.99c0.7 0 1.39 0.99 1.79 0.99c0.5 0.99 0.7 1.99 0.7 2.98c0 0.99 -0.3 1.99 -0.8 1.99C635.71 2030.46 634.91 2031.45 633.92 2031.45c-0.99 0.99 -2.19 0.99 -3.48 0.99c-2.19 0 -3.78 0 -4.87 -0.99c-1.19 -0.99 -1.89 -2.98 -2.19 -3.98zm17.01 -14.92v-2.98h2.88v2.98zm0 19.89l0 -16.91h2.88v16.91zM646.45 2023.49c0 -2.98 0.9 -4.97 2.59 -5.97c1.39 -1.99 3.08 -1.99 5.17 -1.99c2.29 0 4.08 0 5.57 1.99c1.39 0.99 2.09 2.98 2.09 5.97C661.86 2025.48 661.56 2027.47 660.97 2028.47C660.27 2029.46 659.37 2030.46 658.18 2031.45C656.99 2032.44 655.6 2032.44 654.2 2032.44c-2.29 0 -4.18 -0.99 -5.67 -1.99c-1.39 -1.99 -2.09 -3.98 -2.09 -6.96zm2.88 0c0 1.99 0.5 3.98 1.39 5.14c0.9 0.83 2.09 1.82 3.48 1.82c1.39 0 2.49 -0.99 3.48 -2.45c0.9 -0.53 1.39 -2.52 1.39 -4.51c0 -1.99 -0.5 -2.98 -1.39 -3.98c-0.99 -0.99 -2.09 -1.99 -3.48 -1.99c-1.39 0 -2.59 0.99 -3.48 1.99c-0.9 0.99 -1.39 1.99 -1.39 3.98zm15.91 8.95l0.12 -16.91h2.36v1.99c1.19 -0.99 2.98 -1.99 5.27 -1.99c0.99 0 1.89 0 2.68 0c0.9 0.99 1.49 0.99 1.89 1.99c0.4 0 0.7 0.99 0.9 1.99c0.1 0 0.1 0.99 0.1 1.99v10.94h-2.78L675.78 2022.5C675.78 2020.51 675.68 2020.51 675.48 2019.52c-0.2 -0.99 -0.6 -0.99 -1.19 -0.99c-0.5 -0.99 -1.19 -0.99 -1.89 -0.99c-1.19 0 -2.29 0.99 -3.08 0.99c-0.9 0.99 -1.29 1.99 -1.29 4.97l0 8.95zm25.46 -8.95c0 -2.98 0.9 -4.97 2.59 -5.97c1.39 -1.99 3.08 -1.99 5.17 -1.99c2.29 0 4.08 0 5.57 1.99c1.39 0.99 2.09 2.98 2.09 5.97c0 1.99 -0.3 3.98 -0.9 4.97c-0.7 0.99 -1.59 1.99 -2.78 2.98c-1.19 0.99 -2.59 0.99 -3.98 0.99c-2.29 0 -4.18 -0.99 -5.67 -1.99c-1.39 -1.99 -2.09 -3.98 -2.09 -6.96zm2.88 0c0 1.99 0.5 3.98 1.39 4.97c0.9 0.99 2.09 1.99 3.48 1.99c1.39 0 2.49 -0.99 3.48 -1.99c0.9 -0.99 1.39 -2.98 1.39 -4.97c0 -1.99 -0.5 -2.98 -1.39 -3.98c-0.99 -0.99 -2.09 -1.99 -3.48 -1.99c-1.39 0 -2.59 0.99 -3.48 2.46c-0.9 0.53 -1.39 1.52 -1.39 3.51zm16.51 8.95L710.09 2017.53h-2.49v-1.99h2.49L710.09 2013.55c0 -0.99 0.1 -1.99 0.3 -1.99c0.3 -0.99 0.8 -1.99 1.49 -1.99c0.6 0 1.59 -0.99 2.78 -0.99c0.8 0 1.69 0 2.68 0.99l-0.5 1.99c-0.6 0 -1.09 0 -1.59 0c-0.9 0 -1.49 0 -1.79 0c-0.4 0.99 -0.6 1.99 -0.6 2.98v0.99h3.28v1.99h-3.28v14.92zm17.4 0l0 -22.87h8.55C737.54 2009.57 738.73 2009.57 739.53 2009.57c1.09 0 2.09 0.99 2.78 0.99c0.8 0.99 1.39 0.99 1.89 1.99c0.4 0.99 0.7 1.99 0.7 2.98c0 1.99 -0.7 3.98 -1.89 4.97c-1.19 1.99 -3.48 1.99 -6.66 1.99h-5.87v9.94zM730.48 2020.51L736.34 2020.51c1.99 0 3.38 -0.99 4.18 -0.99c0.8 -0.99 1.19 -1.99 1.19 -3.98c0 0 -0.2 -0.99 -1.15 -1.99c-0.04 -0.99 -0.64 -0.99 -1.43 -0.99c-0.5 0 -1.49 -0.99 -2.78 -0.99h-5.87zm17.9 11.93L748.38 2015.54h2.49v2.98c0.6 -1.99 1.19 -1.99 1.79 -2.98C753.15 2015.54 753.75 2015.54 754.44 2015.54c0.9 0 1.89 0 2.88 0.99l-0.99 1.99c-0.7 0 -1.39 0 -2.09 0c-0.6 0 -1.09 0 -1.59 0c-0.5 0.99 -0.9 0.99 -1.09 1.99c-0.3 0.99 -0.4 1.99 -0.4 2.98v8.95zM759.02 2012.56l0 -2.98h2.78v2.98zm0 19.89L759.02 2015.54L761.8 2015.54v16.91zm7.06 0v-16.91l2.49 0v1.99C769.76 2016.53 771.55 2015.54 773.84 2015.54c0.99 0 1.89 0 2.78 0c0.8 0.99 1.39 0.99 1.89 1.99c0.4 0 0.7 0.99 0.8 1.99c0.1 0 0.2 0.99 0.2 1.99v10.94h-2.78v-9.94c0 -1.99 -0.1 -1.99 -0.4 -2.98c-0.2 -0.99 -0.6 -0.99 -1.09 -1.33c-0.6 -0.66 -1.19 -0.66 -1.99 -0.66c-1.19 0 -2.19 0.99 -3.08 0.99C769.26 2019.52 768.86 2020.51 768.86 2023.49L768.86 2032.44zm23.87 -2.98l0.4 2.98c-0.8 0 -1.49 0 -2.19 0c-0.99 0 -1.79 0 -2.29 -0.99c-0.6 0 -0.99 0 -1.19 -0.99c-0.3 0 -0.4 -1.99 -0.4 -2.98v-9.94h-1.99v-1.99h1.99v-3.98l2.78 -1.99v5.97L789.95 2015.54v1.99h-2.88v9.94c0 0.99 0.1 0.99 0.64 1.99c-0.34 0 -0.24 0 0.26 0c0 0 0.3 0 0.69 0c0.3 0 0.7 0 1.29 0zm16.61 0v2.98h-15.12C791.44 2031.45 791.54 2030.46 791.83 2030.46c0.4 -0.99 0.99 -1.99 1.79 -2.98c0.9 -0.99 2.09 -1.99 3.68 -3.98c2.49 -1.99 4.18 -2.98 5.07 -4.97c0.8 -0.99 1.29 -1.99 1.29 -2.98c0 -0.99 -0.4 -1.99 -1.19 -2.98c-0.8 -0.99 -1.89 -0.99 -3.08 -0.99c-1.39 0 -2.49 0 -3.28 0.99c-0.8 0.99 -1.19 1.99 -1.19 3.98l-2.88 -0.99C792.23 2013.55 792.93 2011.56 794.22 2010.57c1.29 -0.99 2.98 -0.99 5.17 -0.99c2.19 0 3.88 0 5.17 0.99c1.29 1.99 1.99 2.98 1.99 4.97c0 0.99 -0.2 1.99 -0.6 2.98c-0.4 0.99 -0.99 1.99 -1.89 3.23c-0.8 -0.25 -2.29 1.74 -4.28 3.73c-1.69 0.99 -2.78 1.99 -3.28 1.99c-0.4 0.99 -0.8 0.99 -1.09 1.99zm4.28 2.98v-22.87h15.41v1.99L813.81 2011.56v7.96h10.74v1.99h-10.74l-0.29 10.94zm18.89 0v-22.87h2.78v22.87zm17.9 -1.99C846.63 2030.46 845.63 2031.45 844.64 2031.45c-0.99 0.99 -1.99 0.99 -3.08 0.99C839.77 2032.44 838.38 2032.44 837.39 2031.45c-1 -0.99 -1.5 -1.99 -1.5 -3.98c0 -0.99 0.2 -0.99 0.6 -1.99c0.4 -0.99 0.8 -0.99 1.39 -1.99C838.47 2023.49 839.17 2023.49 839.97 2023.49c0.5 -0.99 1.29 -0.99 2.49 -0.99c2.19 0 3.88 0 4.97 -0.99c0 0 0 -0.99 0 -0.99c0 -0.99 -0.3 -1.99 -0.8 -1.99c-0.7 -0.99 -1.79 -0.99 -3.18 -0.99c-1.29 0 -2.29 0 -2.88 0.99c-0.7 0 -1.09 0.99 -1.39 1.99h-2.78c0.3 -0.99 0.7 -1.99 1.29 -2.98c0.5 -0.99 1.39 -0.99 2.39 -1.99c1.09 0 2.39 0 3.78 0c1.39 0 2.59 0 3.48 0c0.8 0.99 1.49 0.99 1.89 0.99c0.4 0.99 0.7 1.99 0.9 1.99c0.1 0.99 0.1 1.99 0.1 2.98v3.98c0 1.99 0.1 3.98 0.2 4.97c0.1 0 0.4 0.99 0.7 1.99h-2.88c-0.3 -0.99 -0.5 -1.99 -0.6 -1.99zm-0.2 -6.96c-0.99 0.99 -2.59 0.99 -4.57 0.99c-1.19 0.99 -1.99 0.99 -2.49 0.99c-0.4 0 -0.8 0 -1.09 0.99c-0.2 0 -0.4 0.99 -0.4 1.12c0 0.87 0.3 1.86 0.9 1.86c0.6 0.99 1.39 0.99 2.49 0.99c1.09 0 1.99 0 2.88 -0.99c0.8 0 1.39 -0.99 1.79 -1.99c0.3 0 0.5 -0.99 0.5 -2.98zm6.07 3.98L856.28 2026.48c0.1 0.99 0.5 1.99 1.29 2.98c0.7 0 1.69 0.99 2.98 0.99c1.19 0 2.19 -0.99 2.78 -0.99c0.6 -0.99 0.99 -0.99 0.99 -1.99c0 -0.99 -0.3 -0.99 -0.9 -0.99C863.04 2025.48 862.14 2025.48 860.65 2025.48c-2.09 -0.99 -3.48 -0.99 -4.28 -1.99c-0.8 0 -1.39 -0.99 -1.79 -0.99c-0.5 -0.99 -0.7 -1.99 -0.7 -2.98c0 0 0.2 -0.99 0.5 -1.99c0.4 0 0.8 -0.99 1.39 -0.99c0.5 0 1.09 -0.99 1.79 -0.99c0.8 0 1.59 0 2.49 0c1.29 0 2.39 0 3.38 0c0.99 0.99 1.69 0.99 2.19 1.99c0.4 0 0.8 0.99 0.54 1.99l-2.33 0.99c-0.1 -0.99 -0.5 -1.99 -1.09 -1.99c-0.6 -0.99 -1.49 -0.99 -2.49 -0.99c-1.29 0 -2.29 0 -2.78 0.8C856.87 2018.52 856.67 2019.52 856.67 2019.52c0 0.99 0.1 0.99 0.3 0.99C857.17 2020.51 857.57 2021.51 858.07 2021.51c0.3 0 1.09 0 2.49 0.99c1.99 0 3.28 0.99 4.08 0.99c0.8 0 1.39 0.99 1.89 0.99c0.4 0.99 0.7 1.99 0.7 2.98c0 0.99 -0.3 1.99 -0.9 1.99c-0.5 0.99 -1.29 1.99 -2.29 1.99c-1.09 0.99 -2.19 0.99 -3.48 0.99c-2.19 0 -3.78 0 -4.97 -0.99c-1.09 -0.99 -1.79 -2.98 -2.09 -3.98zm17.01 4.97v-22.87h2.78v7.96C874.57 2015.54 876.26 2015.54 878.25 2015.54C879.45 2015.54 880.54 2015.54 881.43 2015.54c0.9 0.99 1.49 1.99 1.89 1.99c0.4 0.99 0.6 2.98 0.6 3.98L883.92 2032.44h-2.78v-10.94c0 -0.99 -0.3 -1.99 -0.9 -2.98c-0.6 -0.99 -1.49 -0.99 -2.59 -0.99c-0.8 0 -1.59 0 -2.39 0.99c-0.7 0 -1.19 0.99 -1.49 1.99C873.48 2020.51 873.28 2021.51 873.28 2023.49v8.95zm18.5 0v-3.98l3.18 0l0 3.98zm23.77 0l-8.85 -22.87h3.28l5.87 15.91c0.5 1.99 0.9 2.98 1.19 3.98c0.4 -0.99 0.8 -1.99 1.29 -3.98l6.17 -15.91h2.98l-8.85 22.87zm14.42 -19.89v-2.98L929.96 2009.57v2.98zm0 19.89v-16.91h2.78v16.91zm5.87 -4.97l2.78 -0.99c0.2 0.99 0.6 1.99 1.29 2.98C937.82 2029.46 938.81 2030.46 940.11 2030.46C941.4 2030.46 942.39 2029.46 942.99 2029.46c0.6 -0.99 0.9 -0.99 0.9 -1.99c0 -0.99 -0.3 -0.99 -0.8 -0.99c-0.4 -0.99 -1.29 -0.99 -2.88 -0.99c-1.99 -0.99 -3.48 -0.99 -4.28 -1.99c-0.8 0 -1.39 -0.99 -1.79 -0.99c-0.4 -0.99 -0.6 -1.99 -0.6 -2.98c0 0 0.2 -0.99 0.5 -1.99c0.3 0 0.8 -0.99 1.39 -0.99c0.4 0 0.99 -0.99 1.79 -0.99c0.7 0 1.49 0 2.39 0c1.29 0 2.49 0 3.38 0c0.99 0.99 1.79 0.99 2.19 1.99c0.5 0 0.8 0.99 0.99 1.99l-2.78 0.99c-0.1 -0.99 -0.4 -1.99 -0.99 -1.99c-0.6 -0.99 -1.49 -0.99 -2.59 -0.99c-1.29 0 -2.19 0 -2.68 0.99c-0.6 0 -0.9 0.99 -0.9 0.99c0 0.99 0.1 0.99 0.4 0.99c0.2 0 0.6 0.99 0.99 0.99c0.3 0 1.19 0 2.49 0.99c1.99 0 3.38 0.99 4.18 0.99c0.8 0 1.39 0.99 1.79 0.99c0.5 0.99 0.7 1.99 0.7 2.98c0 0.99 -0.3 1.99 -0.8 1.99c-0.6 0.99 -1.29 1.99 -2.39 1.99c-0.99 0.99 -2.19 0.99 -3.48 0.99c-2.09 0 -3.78 0 -4.87 -0.99c-1.09 -0.99 -1.89 -2.98 -2.19 -3.98zm17.1 -14.92v-2.98L952.94 2009.57v2.98zm0 19.89v-16.91L952.94 2015.54v16.91zm13.13 -2.98L963.68 2032.44c-0.8 0 -1.49 0 -2.09 0c-0.99 0 -1.79 0 -2.39 -0.99c-0.5 0 -0.9 0 -1.19 -0.99c-0.2 0 -0.3 -1.99 -0.3 -2.98v-9.94L955.62 2017.53v-1.99h2.09v-3.98l2.78 -1.99v5.97h2.78v1.99h-2.78v9.94c0 0.99 0 0.99 0.1 1.99c0.1 0 0.3 0 0.5 0c0.3 0 0.6 0 0.99 0.32C962.38 2029.46 962.78 2029.46 963.28 2029.46zm14.62 3.11l-5.07 -16.91h2.88l2.68 9.94l0.99 2.98c0 0 0.3 -0.99 0.8 -2.98l2.68 -9.94h2.78l2.49 9.94l0.9 2.98l0.9 -2.98l2.88 -9.94h2.68l-5.17 16.91h-2.88l-2.68 -9.94l-0.6 -2.98L980.78 2032.44zm22.97 0l-5.07 -16.91h2.98l2.6 9.94L1002.36 2028.47c0 0 0.3 -0.99 0.8 -2.98l2.68 -9.94h2.88l2.49 9.94l0.8 2.98l0.9 -2.98l2.88 -9.94h2.68l-5.17 16.91h-2.88l-2.59 -9.94l-0.7 -2.98l-3.39 12.93zm22.97 0l-4.97 -16.91h2.88l2.59 9.94l0.99 2.98c0 0 0.3 -0.99 0.9 -2.98L1028.81 2015.54h2.88l2.49 9.94l0.8 2.98l0.99 -2.98l2.78 -9.94l2.68 0l-5.17 16.91h-2.88l-2.59 -9.94l-0.7 -2.98l-3.28 12.93zm20.78 0v-3.98h3.18v3.98zm8.06 5.97v-22.87h2.49v1.65c0.7 -0.65 1.29 -0.65 2.09 -1.65c0.8 0 1.69 0 2.78 0c1.39 0 2.59 0 3.68 0.99c1.09 0.99 1.89 1.99 2.49 2.98c0.5 0.99 0.8 2.98 0.8 3.98c0 1.99 -0.3 2.98 -0.9 4.97c-0.6 0.99 -1.49 1.99 -2.69 2.98c-1.09 0.99 -2.39 0.99 -3.58 0.99c-0.99 0 -1.79 0 -2.59 -0.99c-0.7 0 -1.29 0 -1.79 -0.99v7.96zm2.49 -14.92c0 2.98 0.5 3.98 1.29 4.97C1057.35 2029.46 1058.35 2030.46 1059.64 2030.46c1.19 0 2.29 -0.99 3.18 -1.99c0.9 -0.99 1.29 -2.98 1.29 -4.97c0 -1.99 -0.4 -2.98 -1.29 -4.97c-0.9 -0.99 -1.89 -0.99 -3.08 -0.99c-1.19 0 -2.29 0 -3.18 1.99c-0.9 0.99 -1.39 1.99 -1.39 3.98zm15.22 8.95v-16.91h2.49v2.98C1073.46 2016.53 1074.06 2016.53 1074.66 2015.54c0.5 0 1.09 0 1.39 0c0.99 0 1.99 0 2.98 0.99l-0.99 1.99c0 0 -0.99 0 -1.99 0c-0.4 0 -0.9 0 -1.39 0c-0.5 0.99 -0.8 0.99 -1.09 1.99c-0.3 0.99 -0.4 1.99 -0.4 2.98v8.95zm10.64 -19.89L1081.02 2009.57h2.98v2.98zm0 19.89v-16.91h2.98v16.91zm6.96 0v-16.91h2.98v1.99c0.99 -0.99 2.98 -1.99 4.97 -1.99c0.99 0 1.99 0 2.98 0c0.99 0.99 0.99 0.99 1.99 1.99c0 0 0 0.99 0 1.99c0.99 0 0.99 0.99 0.99 1.99v10.94h-2.98v-9.94c0 -1.99 0 -1.99 -0.99 -2.98c0 -0.99 0 -0.99 -0.99 -0.99c0 -0.99 -0.99 -0.99 -1.99 -0.99c-0.99 0 -1.99 0.99 -2.98 0.99c-0.99 0.99 -0.99 1.99 -0.99 4.97v8.95zm23.87 -2.98v2.98c0 0 -0.99 0 -1.99 0C1108.86 2032.44 1108.86 2032.44 1107.87 2031.45c-0.99 0 -0.99 0 -0.99 -0.99c0 0 -0.99 -1.99 -0.99 -2.98v-9.94h-1.99l0 -1.99h1.99v-3.98l2.98 -1.99v5.97h2.98L1111.85 2017.53h-2.98v9.94c0 0.99 0 0.99 0 1.99c0 0 0.99 0 0.99 0c0 0 0 0 0.99 0c0 0 0.99 0 0.99 0zm16.91 0v2.98h-14.92c0 -0.99 0 -1.99 0 -1.99c0 -0.99 0.99 -1.99 1.99 -2.98c0.99 -0.99 1.99 -1.99 3.98 -4.24c1.99 -1.73 3.98 -2.72 4.97 -4.71c0 -0.99 0.99 -1.99 0.99 -2.98c0 -0.99 -0.99 -1.99 -0.99 -2.98c-0.99 -0.99 -1.99 -0.99 -2.98 -0.99c-1.99 0 -2.98 0 -3.98 0.99c-0.99 0.99 -0.99 1.99 -0.99 3.98l-2.98 -0.99c0 -1.99 0.99 -3.98 1.99 -4.97C1117.81 2009.57 1118.81 2009.57 1121.79 2009.57c1.99 0 3.98 0 4.97 0.99c0.99 1.99 1.99 2.98 1.99 4.97c0 0.99 0 1.99 -0.99 2.98c0 0.99 -0.99 1.99 -1.99 2.98c-0.99 0 -1.99 1.99 -3.98 3.98c-1.99 0.99 -2.98 1.99 -2.98 1.99c-0.99 0.99 -0.99 0.99 -0.99 1.99zm3.98 2.98v-14.92h-1.99L1130.74 2015.54L1132.73 2015.54l0 -1.99c0 -0.99 0 -1.99 0.99 -1.99c0 -0.99 0 -1.99 0.99 -1.99c0.99 0 1.99 -0.99 2.98 -0.99c0.99 0 1.99 0 2.98 0.99l-0.99 1.99c-0.99 0 -0.99 0 -1.99 0c0 0 -0.99 0 -0.99 0c-0.99 0.99 -0.99 1.99 -0.99 2.98v0.99h2.98l0 1.99l-2.98 0l0 14.92zm7.96 0v-22.87h2.98v22.87zm17.9 -1.99c-0.99 0 -1.99 0.99 -2.98 0.99c-0.99 0.99 -1.99 0.99 -2.98 0.99c-0.99 0 -2.98 0 -3.98 -0.99c-0.99 -0.99 -0.99 -1.99 -0.99 -3.98c0 -0.99 0 -0.99 0 -1.99c0.99 -0.99 0.99 -0.99 1.99 -1.99c0 0 0.99 0 1.99 0c0 -0.99 0.99 -0.99 1.99 -0.99c1.99 0 3.98 0 4.97 -0.99c0 0 0 -0.99 0 -0.99c0 -0.99 0 -1.99 -0.99 -1.99c0 -0.99 -0.99 -0.99 -2.98 -0.99c-0.99 0 -1.99 0 -2.98 0.99c0 0 -0.99 0.99 -0.99 1.84l-2.98 0.15c0 -0.99 0.99 -1.99 0.99 -2.98c0.99 -0.99 1.99 -0.99 2.98 -1.99c0.99 0 1.99 0 3.98 0c0.99 0 1.99 0 2.98 0c0.99 0.99 1.99 0.99 1.99 0.99c0 0.99 0.99 1.99 0.99 1.99c0 0.99 0 1.99 0 2.98v3.98c0 1.99 0 3.98 0 4.97c0 0 0.99 0.99 0.99 1.99l-2.98 -0.1c0 -0.89 0 -1.89 -0.99 -1.89zm0 -6.96c-0.99 0.99 -1.99 0.99 -3.98 0.99c-1.99 0.99 -1.99 0.99 -2.98 0.99c0 0 -0.99 0 -0.99 0.99c0 0 0 0.99 0 0.99c0 0.99 0 1.99 0.99 1.99c0 0.99 0.99 0.99 1.99 0.99C1154.61 2030.46 1155.6 2030.46 1156.6 2029.46c0.99 0 0.99 -0.99 1.99 -1.99c0 0 0 -0.99 0 -2.98zm5.97 3.98l2.98 -0.99c0 0.99 0.99 1.99 0.99 2.98c0.99 0 1.99 0.99 2.98 0.99c1.99 0 2.98 -0.99 2.98 -0.99c0.99 -0.99 0.99 -0.99 0.99 -1.99c0 -0.99 0 -0.99 -0.99 -0.99C1174.5 2025.48 1173.5 2025.48 1171.52 2025.48c-1.99 -0.99 -2.98 -0.99 -3.98 -1.99c-0.99 0 -0.99 -0.99 -1.99 -0.99c0 -0.99 0 -1.99 0 -2.98c0 0 0 -0.99 0 -1.99c0.99 0 0.99 -0.99 1.99 -0.99c0 0 0.99 -0.99 0.99 -0.99c0.99 0 1.99 0 2.98 0c0.99 0 1.99 0 2.98 0c0.99 0.99 1.99 0.99 1.99 1.99c0.99 0 0.99 0.99 0.99 1.99l-1.99 0.99c0 -0.99 -0.99 -1.99 -0.99 -1.99c-0.99 -0.99 -1.99 -0.99 -2.98 -0.99c-0.99 0 -1.99 0 -2.98 0.99c0 0 -0.99 0.99 -0.99 0.99c0 0.99 0.99 0.99 0.99 0.99C1168.53 2020.51 1168.53 2021.51 1169.53 2021.51c0 0 0.99 0 1.99 0.99c1.99 0 3.98 0.99 4.97 0.99c0 0 0.99 0.99 0.99 0.99C1178.48 2025.48 1178.48 2026.48 1178.48 2027.47c0 0.99 0 1.99 -0.99 1.99c0 0.99 -0.99 1.99 -1.99 1.99C1174.5 2032.44 1173.5 2032.44 1171.52 2032.44C1169.53 2032.44 1168.53 2032.44 1166.54 2031.45c-0.99 -0.99 -0.99 -2.98 -1.99 -3.98zm17.21 4.97l-0.3 -22.87h2.98v7.96c1.99 -1.99 2.98 -1.99 4.97 -1.99c0.99 0 1.99 0 2.98 0c0.99 0.99 1.99 1.99 1.99 1.99c0.99 0.99 0.99 2.98 0.99 3.98v10.94h-2.98v-10.94c0 -0.99 0 -1.99 -0.99 -2.98c0 -0.99 -0.99 -0.99 -1.99 -0.99c-0.99 0 -1.99 0 -2.98 0.99c0 0 -0.99 0.99 -0.99 1.99c-0.99 0 -0.99 0.99 -0.99 2.98l0 8.95zm18.89 0v-3.98L1203.34 2028.47v3.98zm18.89 -5.97h2.98c-0.99 1.99 -0.99 2.98 -2.98 3.98C1218.25 2031.45 1217.26 2032.44 1215.27 2032.44c-1.99 0 -3.98 -0.99 -5.97 -1.99c-0.99 -1.99 -1.99 -3.98 -1.99 -6.96c0 -0.99 0.99 -2.98 0.99 -3.98c0.99 -1.99 1.99 -2.98 2.98 -2.98c0.99 -0.99 1.99 -0.99 3.98 -0.99C1217.26 2015.54 1218.25 2015.54 1219.25 2016.63c0.99 0.9 1.99 1.89 1.99 3.88h-1.99c-0.99 -0.99 -0.99 -1.99 -1.99 -1.99c0 -0.99 -0.99 -0.99 -1.99 -0.99c-0.99 0 -2.98 0.99 -4.25 1.99c0.27 0.99 -0.72 1.99 -0.72 3.98c0 2.98 0.99 3.98 0.99 4.97c0.99 0.99 1.99 1.99 3.98 1.99c0.99 0 1.99 -0.99 2.98 -0.99c0 -0.99 0.99 -1.99 0.99 -2.98zm3.98 -2.98c0 -2.98 0.99 -4.97 2.98 -5.97c0.99 -1.99 2.98 -1.99 4.97 -1.99c1.99 0 3.98 0 4.97 1.99c1.99 0.99 2.98 2.98 2.98 5.97c0 1.99 -0.99 3.98 -0.99 4.97c-0.99 0.99 -1.99 1.99 -2.98 2.98c-0.99 0.99 -2.98 0.99 -3.98 0.99c-1.99 0 -3.98 -0.99 -5.97 -1.99c-0.99 -1.99 -1.99 -3.98 -1.99 -6.96z"/><path fill="none" stroke="#1F1E1C" d="M1226.21 2023.49c0 1.99 0 3.98 0.99 4.97c0.99 0.99 1.99 1.99 3.98 1.99c0.99 0 1.99 -0.99 2.98 -1.99c0.99 -0.99 1.99 -2.98 1.99 -4.97c0 -1.99 -0.99 -2.98 -1.99 -3.98c-0.99 -0.99 -1.99 -1.99 -2.98 -1.99c-1.99 0 -2.98 0.99 -3.98 1.99c-0.99 0.99 -0.99 1.99 -0.99 3.98zm15.91 8.95v-16.91l1.99 0v1.99c0.99 0 1.99 -0.99 2.98 -1.99c0 0 0.99 0 1.99 0c1.99 0 2.98 0 2.98 0c0.99 0.99 1.99 1.99 1.99 2.98c0.99 -1.99 2.98 -2.98 4.97 -2.98c1.99 0 2.98 0 3.98 0.99c0.99 0.99 0.99 1.99 0.99 3.98v11.93l-1.99 0v-10.94c0 -0.99 0 -1.99 -0.99 -1.99c0 -0.99 0 -0.99 -0.99 -0.99c0 -0.99 -0.99 -0.99 -0.99 -0.99C1257.04 2017.53 1257.04 2018.52 1256.04 2018.52c-0.99 0.99 -0.99 1.99 -0.99 3.98v9.94h-2.98L1252.07 2021.51c0 -0.99 0 -1.99 -0.99 -2.98c0 -0.99 -0.99 -0.99 -1.99 -0.99c-0.99 0 -1.99 0 -1.99 0.99c-0.99 0 -1.99 0.99 -1.99 1.99c0 0 0 1.99 0 2.98v8.95zm35.8 0L1277.92 2017.53h-1.99L1275.93 2015.54h1.99L1277.92 2013.55c0 -0.99 0 -1.99 0 -1.99c0.99 -0.99 0.99 -1.99 1.99 -1.99c0.99 0 1.99 -0.99 2.98 -0.99C1283.89 2008.58 1283.89 2008.58 1284.88 2009.57l0 1.99c-0.99 0 -0.99 0 -1.99 0c-0.99 0 -0.99 0 -1.99 0c0 0.99 0 1.99 0 2.98v0.99L1283.89 2015.54L1283.89 2017.53h-2.98v14.92zM1284.88 2023.49c0 -2.98 0.99 -4.97 2.98 -5.97c0.99 -1.99 2.98 -1.99 4.97 -1.99c1.99 0 3.98 0 5.97 1.99c0.99 0.99 1.99 2.98 1.99 5.97c0 1.99 0 3.98 -0.99 4.97c-0.99 0.99 -1.99 1.99 -2.98 2.98c-0.99 0.99 -1.99 0.99 -3.98 0.99c-1.99 0 -3.98 -0.99 -5.97 -1.99c-0.99 -1.99 -1.99 -3.98 -1.99 -6.96zm2.66 0c0.33 1.99 1.32 3.98 2.32 4.97c0.99 0.99 1.99 1.99 2.98 1.99c0.99 0 2.98 -0.99 3.98 -1.99c0.99 -0.99 0.99 -2.98 0.99 -4.97c0 -1.99 0 -2.98 -0.99 -3.98c-0.99 -0.99 -2.98 -1.99 -3.98 -1.99c-0.99 0 -1.99 0.99 -2.98 1.99c-0.99 0.99 -1.99 1.99 -1.99 3.98zM1303.78 2032.44L1303.78 2015.54L1306.76 2015.54v2.98c0 -1.99 0.99 -1.99 0.99 -2.98c0.99 0 1.99 0 1.99 0c0.99 0 1.99 0 2.98 0.99l-0.99 1.99c-0.99 0 -0.99 0 -1.99 0c0 0 -0.99 0 -2.3 0c0.31 0.99 0.31 0.99 -0.69 1.99c0 0.99 0 1.99 0 2.98v8.95zm19.89 0L1323.67 2015.54l1.99 0.03l-0.18 1.96c1.17 0 1.17 -0.99 2.17 -1.99C1328.64 2015.54 1329.63 2015.54 1330.63 2015.54c1.99 0 2.98 0 2.98 0c0.99 0.99 1.99 1.99 1.99 2.73c0.99 -1.73 2.98 -2.73 4.97 -2.73c1.99 0 2.98 0 3.98 0.99c0.99 0.99 0.99 1.99 0.99 3.98l0 11.52l-2.98 0.41v-10.94C1342.56 2020.51 1342.56 2019.52 1342.62 2019.52c-0.06 -0.99 -0.06 -0.99 -1.05 -0.99c0 -0.99 -0.99 -0.99 -1.99 -0.99c-0.99 0 -1.99 0.99 -1.99 0.99c-0.99 0.99 -1.99 1.99 -1.99 3.98v9.94h-1.99v-10.94c0 -0.99 -0.99 -1.99 -0.99 -2.98c-0.99 -0.99 -0.99 -0.99 -1.99 -0.99c-0.99 0 -1.99 0 -2.98 0.99c0 0 -0.99 0.99 -0.99 1.99c0 0 0 1.99 0 2.98v8.95zM1348.53 2023.49c0 -2.98 0.99 -4.97 2.98 -5.97c0.99 -1.99 2.98 -1.99 4.97 -1.99C1358.47 2015.54 1360.46 2015.54 1362.45 2017.53c0.99 0.99 1.99 2.98 1.99 5.97c0 1.99 0 3.98 -0.99 4.97c-0.99 0.99 -1.99 1.99 -2.98 2.98c-0.99 0.99 -1.99 0.99 -3.98 0.99c-1.99 0 -3.98 -0.99 -4.97 -1.99c-1.99 -1.99 -2.98 -3.98 -2.98 -6.96zm2.98 0c0 1.99 0.99 3.98 1.99 4.97c0.99 0.99 1.99 1.99 2.98 1.99c1.99 0 2.98 -0.99 3.98 -1.99c0.99 -0.99 0.99 -2.98 0.99 -4.97c0 -1.99 0 -2.98 -0.99 -3.98c-0.99 -0.99 -1.99 -1.99 -3.98 -1.99c-0.99 0 -1.99 0.99 -2.98 1.99c-0.99 0.99 -1.99 1.99 -1.99 3.98zm15.91 8.95v-16.91L1370.41 2015.54v2.98c0 -1.99 0.99 -1.99 1.99 -2.98c0 0 0.99 0 0.99 0c0.99 0 1.99 0 2.98 0.99l-0.99 1.99c0 0 -0.99 0 -1.99 0c0 0 -0.99 0 -0.99 0c-0.99 0.99 -0.99 0.99 -1.99 1.99c0 0.99 0 1.99 0 2.98v8.95zm21.88 -5.97l2.98 0.99c0 0.99 -0.99 2.98 -1.99 3.98c-1.99 0.99 -2.98 0.99 -4.97 0.99c-2.98 0 -3.98 -0.99 -5.97 -1.99c-0.99 -1.99 -1.99 -3.98 -1.99 -5.97c0 -2.98 0.99 -4.97 1.99 -6.96c1.99 -1.99 2.98 -1.99 5.97 -1.99c1.99 0 3.98 0 4.97 1.99c1.99 0.99 1.99 3.98 1.99 5.97c0 0 0 0.99 0 0.99h-11.93c0 1.99 0.99 2.98 0.99 3.98c0.99 0.99 2.98 1.99 3.98 1.99c0.99 0 1.99 -0.99 2.98 -0.99c0 -0.99 0.99 -0.99 0.99 -2.98zm-8.95 -3.98h8.95C1389.3 2020.51 1389.3 2019.52 1388.3 2019.52c-0.99 -0.99 -1.99 -1.99 -2.98 -1.99c-1.99 0 -2.98 0 -2.98 0.99C1381.34 2019.52 1380.35 2020.51 1380.35 2022.5zm24.86 -9.94v-2.98h1.99v2.98zm0 19.89v-16.91h1.99v16.91zm6.96 0v-16.91h1.99v1.99c0.99 -0.99 2.98 -1.99 5.97 -1.99c0.99 0 0.99 0 1.99 0c0.99 0.99 1.99 0.99 1.99 1.99C1425.1 2017.53 1425.1 2018.52 1425.1 2019.52c0 0 0 0.99 0 1.99v10.94h-2.98v-9.94c0 -1.99 0 -1.99 0 -2.98c0 -0.99 -0.99 -0.99 -0.99 -0.99c-0.99 -0.99 -0.99 -0.99 -1.99 -0.99c-0.99 0 -1.99 0.99 -2.98 0.99c-0.99 0.99 -0.99 1.99 -1.29 4.97l0.29 8.95zm17.86 0v-14.92h-1.99l0 -1.99h1.99v-1.99c0 -0.99 0 -1.99 0.99 -1.99c0 -0.99 0 -1.99 0.99 -1.99c0.99 0 1.99 -0.99 2.98 -0.99c0.99 0 0.99 0 1.99 0.99v1.99c-0.99 0 -0.99 0 -1.99 0c0 0 -0.99 0 -0.99 0C1433.06 2012.56 1433.06 2013.55 1433.06 2014.54v0.99h2.98v1.99h-2.98v14.92zm6.96 -8.95c0 -2.98 0.99 -4.97 2.98 -5.97c0.99 -1.99 2.98 -1.99 4.97 -1.99c1.99 0 3.98 0 5.97 1.99c0.99 0.99 1.99 2.98 1.99 5.97c0 1.99 0 3.98 -0.99 4.97c-0.99 0.99 -1.99 1.99 -2.98 2.98c-0.99 0.99 -1.99 0.99 -3.98 0.99c-1.99 0 -3.98 -0.99 -4.97 -1.99c-1.99 -1.99 -2.98 -3.98 -2.98 -6.96zM1440.02 2023.49c0 1.99 0.99 3.98 1.99 4.97c0.99 0.99 1.99 1.99 2.98 1.99c1.99 0 2.98 -0.99 3.98 -1.99c0.99 -0.99 0.99 -2.98 0.99 -4.97c0 -1.99 0 -2.98 -0.99 -3.98C1447.97 2018.52 1446.98 2017.53 1444.99 2017.53c-0.99 0 -1.99 0.99 -2.98 1.99c-0.99 0.99 -1.99 1.99 -1.99 3.98zm15.91 8.95v-16.91h2.98v2.98c0 -1.99 0.99 -1.99 1.99 -2.98c0 0 0.99 0 0.99 0c0.99 0 1.99 0 2.98 0.97l-0.99 2.01c0 0 -0.99 0 -1.99 0c0 0 -0.99 0 -0.99 0C1459.91 2019.52 1459.91 2019.52 1458.91 2020.51c0 0.99 0 1.99 0 2.98v8.95zm10.94 0v-16.91l1.99 0v1.99c0.99 0 1.99 -0.99 2.98 -1.99c0 0 0.99 0 1.99 0c1.99 0 2.98 0 2.98 0c0.99 0.99 1.99 1.99 1.99 2.98c0.99 -1.99 2.98 -2.98 4.97 -2.98c1.99 0 2.98 0 3.98 0.99c0.99 0.99 0.99 1.99 0.99 3.98v11.93L1486.76 2032.44L1486.76 2021.51c0 -0.99 0 -1.99 -0.99 -1.99c0 -0.99 0 -0.99 -0.99 -0.99c0 -0.99 -0.99 -0.99 -0.99 -0.99C1481.78 2017.53 1481.78 2018.52 1480.79 2018.52c-0.99 0.99 -0.99 1.99 -0.99 3.98v9.94h-2.98l0 -10.94c0 -0.99 0 -1.99 -0.99 -2.98c0 -0.99 -0.99 -0.99 -1.99 -1.44c-0.99 0.45 -1.99 0.45 -1.99 1.44C1470.84 2018.52 1469.85 2019.52 1469.85 2020.51c0 0 0 1.99 0 2.64v9.3zm36.79 -1.99c-0.99 0 -1.99 0.99 -2.98 0.99C1499.68 2032.44 1498.69 2032.44 1497.69 2032.44c-0.99 0 -2.98 0 -3.98 -0.99C1492.72 2030.46 1492.72 2029.46 1492.72 2027.47c0 -0.99 0 -0.99 0 -1.99c0.99 -0.99 0.99 -0.99 1.99 -1.99c0 0 0.99 0 1.99 0c0 -0.99 0.99 -0.99 1.99 -0.99c1.99 0 3.98 0 4.77 -0.99c0.2 0 0.2 -0.99 0.2 -0.99c0 -0.99 0 -1.99 -0.99 -1.99c0 -0.99 -0.99 -0.99 -2.98 -0.99c-0.99 0 -1.99 0 -2.98 0.99c0 0 -0.99 0.99 -0.99 1.99l-2.98 0c0 -0.99 0.99 -1.99 0.99 -2.98c0.99 -0.99 1.99 -0.99 2.98 -1.99c0.99 0 1.99 0 3.98 0c0.99 0 1.99 0 2.98 0c0.99 0.99 1.99 0.99 1.99 0.99C1505.65 2017.53 1506.64 2018.52 1506.64 2018.52c0 0.99 0 1.99 0 2.98v3.98c0 1.99 0 3.98 0 4.97c0 0 0.99 0.99 0.99 1.99h-2.79c-0.19 -0.99 -0.19 -1.99 -1.19 -1.99zm0 -6.96c-0.99 0.99 -1.99 0.99 -3.98 0.99c-1.99 0.99 -1.99 0.99 -2.98 0.99c0 0 -0.99 0 -0.99 0.99c0 0 0 0.99 0 0.99c0 0.99 0 1.99 0.99 1.99c0 0.99 0.99 0.99 1.99 0.99c0.99 0 1.99 0 2.98 -0.99c0.99 0 0.99 -0.99 1.99 -1.99c0 0 0 -0.99 0 -2.98zm13.92 5.97L1517.58 2032.44C1516.59 2032.44 1515.59 2032.44 1515.59 2032.44c-0.99 0 -1.99 0 -2.98 -0.99c0 0 0 0 -0.99 -0.99c0 0 0 -1.99 0 -2.98l0 -9.94h-1.99v-1.99h1.99L1511.62 2011.56l2.98 -1.99v5.97h2.98L1517.58 2017.53h-2.98l0 9.94c0 0.99 0 0.99 0 1.99c0 0 0 0 0 0c0.99 0 0.99 0 0.99 0c0.99 0 0.99 0 1.99 0zM1519.57 2012.56l0 -2.98h2.98v2.98zm0 19.89v-16.91h2.98v16.91zm5.97 -8.95c0 -2.98 0.99 -4.97 2.98 -5.97c0.99 -1.99 2.98 -1.99 4.97 -1.99c1.99 0 3.98 0 5.97 1.99c0.99 0.99 1.99 2.98 1.99 5.97c0 1.99 0 3.98 -0.99 4.97c-0.99 0.99 -1.99 1.99 -2.98 2.98c-0.99 0.99 -1.99 0.99 -3.98 0.99c-1.99 0 -3.98 -0.99 -4.97 -1.99c-1.99 -1.99 -2.98 -3.98 -2.98 -6.96zm2.98 0c0 1.99 0.99 3.98 1.99 4.97c0.99 0.99 1.99 1.99 2.98 1.99c1.99 0 2.98 -0.99 3.98 -1.99c0.99 -0.99 0.99 -2.98 0.99 -4.97c0 -1.99 0 -2.98 -0.99 -3.98c-0.99 -0.99 -1.99 -1.99 -3.98 -1.99c-0.99 0 -1.99 0.99 -2.98 1.99c-0.99 0.99 -1.99 1.99 -1.99 3.98zm15.91 8.95v-16.91h2.98v1.99c0.99 -0.99 2.98 -1.99 4.97 -1.99c0.99 0 1.99 0 2.98 0c0.99 0.99 0.99 0.99 1.99 1.99c0 0 0 0.99 0.99 1.99c0 0 0 0.99 0 1.99v11.25l-2.98 -0.31v-9.94c0 -1.99 0 -1.99 0 -2.98c-0.99 -0.99 -0.99 -0.99 -1.99 -0.99C1553.38 2017.53 1552.39 2017.53 1551.39 2017.53c-0.99 0 -1.99 0.99 -2.98 0.99c-0.99 0.99 -0.99 1.99 -0.99 4.97v8.95z"/></g></svg>
