<?xml version="1.0" encoding="utf-8"?>
<svg xmlns="http://www.w3.org/2000/svg" xmlns:xlink="http://www.w3.org/1999/xlink" version="1.1" width="1632" height="2112" viewBox="0 0 1632 2112" xml:space="preserve" PageMode="4" layout="0"><defs><style type="text/css"><![CDATA[tspan{white-space:pre}
]]></style></defs><g id="content" view="2"><image x="46" y="0" width="1540" height="2112" xlink:href="img71.jpg"/><path fill="#FFFEFE" d="M71 2004h1499v45h-1499z"/><path fill="none" stroke="#3C3F3C" d="M89.11 2032.44v-20.88l-7.51 0.26v-2.24h18.06v1.99h-7.54v20.88zm13.3 0v-22.87L105.2 2009.57v7.96c1.31 -1.99 2.95 -1.99 4.94 -1.99c1.22 0 2.29 0 3.19 0c0.9 0.99 1.54 1.99 1.93 1.99c0.39 0.99 0.59 2.98 0.85 3.98l-0.26 10.94h-2.79L113.05 2021.51c0 -0.99 -0.31 -1.99 -0.91 -2.98C111.53 2017.53 110.68 2017.53 110.05 2017.53c-1.31 0 -2.09 0 -2.83 0.99c-0.73 0 -1.24 0.99 -1.56 1.99c-0.31 0 -0.47 0.99 -0.47 2.98v8.95zm17.73 -19.89v-2.98h2.79v2.98zm0 19.89v-16.91h2.79v16.91zm5.95 -4.97l2.77 -0.99c0.15 0.99 0.59 1.99 1.29 2.98C130.86 2029.46 131.85 2030.46 133.12 2030.46c1.28 0 2.24 -0.99 2.86 -0.99C136.6 2028.47 136.91 2028.47 136.92 2027.47C136.92 2026.48 136.64 2026.48 136.1 2026.48c-0.39 -0.99 -1.34 -0.99 -2.86 -0.99C131.18 2024.49 129.76 2024.49 128.97 2023.49c-0.79 0 -1.39 -0.99 -1.8 -0.99c-0.41 -0.99 -0.62 -1.99 -0.62 -2.98c0 0 0.17 -0.99 0.51 -1.99c0.34 0 0.8 -0.99 1.37 -0.99c0.44 0 1.03 -0.99 1.78 -0.99C130.96 2015.54 131.77 2015.54 132.63 2015.54c1.29 0 2.44 0 3.41 0c0.98 0.99 1.7 0.99 2.17 1.99c0.47 0 0.79 0.99 0.96 1.99l-2.73 0.99c-0.12 -0.99 -0.49 -1.99 -1.08 -1.99c-0.59 -0.99 -1.43 -0.99 -2.52 -0.99c-1.29 0 -2.21 0 -2.75 0.99C129.53 2018.52 129.25 2019.52 129.25 2019.52c0 0.99 0.12 0.99 0.35 0.99c0.22 0 0.58 0.99 1.06 0.99c0.28 0 1.1 0 2.48 0.99c1.98 0 3.36 0.99 4.14 0.99c0.79 0 1.4 0.99 1.84 0.99c0.45 0.99 0.68 1.99 0.68 2.98c0 0.99 -0.28 1.99 -0.82 1.99c-0.55 0.99 -1.33 1.99 -2.36 1.99c-1.02 0.99 -2.19 0.99 -3.47 0.99c-2.16 0 -3.79 0 -4.91 -0.99c-1.12 -0.99 -1.84 -2.98 -2.16 -3.98zm36.57 4.97v-1.99c-1.04 0.99 -2.59 1.99 -4.61 1.99c-1.31 0 -2.53 0 -3.16 -0.99c-1.57 -0.99 -2.43 -1.99 -3.03 -2.98c-0.61 -0.99 -0.9 -2.98 -0.9 -4.97c0 -0.99 0.27 -2.98 0.83 -3.98c0.54 -0.99 1.37 -2.98 2.46 -2.98c1.1 -0.99 2.33 -0.99 3.68 -0.99c0.99 0 1.88 0 2.67 0c0.78 0.99 1.4 0.99 1.89 1.99v-7.96L165.24 2009.57v22.87zM153.81 2023.49c0 2.98 0.45 3.98 1.33 4.97c0.9 0.99 1.95 1.99 3.16 1.99c1.21 0 2.26 -0.99 3.11 -1.99c0.86 -0.99 1.28 -1.99 1.28 -3.98c0 -2.98 -0.44 -3.98 -1.31 -4.97c-0.87 -0.99 -1.94 -1.99 -3.21 -1.99c-1.24 0 -2.28 0.99 -3.11 1.99c-0.84 0.99 -1.25 1.99 -1.25 3.98zm14.81 0c0 -2.98 0.85 -4.97 2.55 -5.97c1.42 -1.99 3.15 -1.99 5.19 -1.99c2.27 0 4.13 0 5.59 1.99c1.39 0.99 2.09 2.98 2.09 5.97c0 1.99 -0.3 3.98 -0.9 4.97c-0.7 0.99 -1.59 1.99 -2.79 2.98c-1.21 0.99 -2.55 0.99 -3.99 0.99c-2.31 0 -4.18 -0.99 -5.6 -1.99c-1.42 -1.99 -2.14 -3.98 -2.14 -6.96zm2.87 0c0 1.99 0.46 3.98 1.38 4.97c0.92 0.99 2.08 1.99 3.48 1.99c1.39 0 2.55 -0.99 3.47 -1.99c0.91 -0.99 1.42 -2.98 1.42 -4.97C181.24 2021.51 180.74 2020.51 179.81 2019.52C178.89 2018.52 177.73 2017.53 176.35 2017.53c-1.4 0 -2.56 0.99 -3.48 1.99c-0.92 0.99 -1.38 1.99 -1.38 3.98zm26.66 2.98h2.78c-0.3 1.99 -1.09 2.98 -2.39 3.98c-1.19 0.99 -2.69 1.99 -4.57 1.99c-2.19 0 -3.98 -0.99 -5.37 -1.99c-1.39 -1.99 -2.09 -3.98 -2.09 -6.96c0 -0.99 0.3 -2.98 0.9 -3.98c0.6 -1.99 1.49 -2.98 2.68 -2.98C191.29 2015.54 192.58 2015.54 194.07 2015.54c1.79 0 3.18 0 4.38 0.99c1.09 0.99 1.89 1.99 2.19 3.98h-2.69c-0.3 -0.99 -0.8 -1.99 -1.39 -2.14c-0.7 -0.85 -1.49 -0.85 -2.39 -0.85c-1.39 0 -2.59 0.99 -3.48 1.99C189.8 2020.51 189.4 2021.51 189.4 2023.49c0 2.98 0.4 3.98 1.29 4.97c0.8 0.99 1.89 1.99 3.28 1.99c1.09 0 1.99 -0.99 2.78 -0.99c0.7 -0.99 1.19 -1.99 1.39 -2.98zm15.91 5.97v-2.98c-1.29 1.99 -2.98 2.98 -5.17 2.98c-0.99 0 -1.89 0 -2.78 -0.99c-0.8 0 -1.49 0 -1.89 -0.99c-0.4 -0.99 -0.7 -0.99 -0.8 -1.99c-0.1 -0.99 -0.2 -0.99 -0.2 -2.98v-9.94h2.78v8.95c0 1.99 0.1 2.98 0.2 2.98c0.2 0.99 0.5 1.99 1.09 1.99c0.6 0 1.29 0.99 2.37 0.99c0.61 0 1.4 -0.99 2.1 -0.99c0.7 0 1.29 -0.99 1.59 -1.99c0.3 -0.99 0.4 -1.99 0.4 -2.98L213.76 2015.54h2.88v16.91zM221.02 2032.44v-16.91h2.49v1.99c0.5 0 1.19 -0.99 2.09 -1.99c0.8 0 1.79 0 2.88 0c1.19 0 2.29 0 2.98 0c0.8 0.99 1.39 1.99 1.69 2.98c1.29 -1.99 2.98 -2.98 4.66 -2.98c2.1 0 3.3 0 4.19 0.99c0.9 0.99 1.39 1.99 1.39 3.98L243.4 2032.44h-2.78v-10.94c0 -0.99 -0.1 -1.99 -0.3 -1.99c-0.2 -0.99 -0.5 -0.99 -0.99 -0.99c-0.5 -0.99 -0.99 -0.99 -1.69 -0.99c-1.19 0 -2.09 0.99 -2.88 0.99c-0.8 0.99 -1.19 1.99 -1.19 3.98v9.94l-2.78 0v-10.94c0 -0.99 -0.2 -1.99 -0.7 -2.98C229.67 2017.53 228.88 2017.53 227.88 2017.53c-0.8 0 -1.49 0 -2.19 0.99c-0.7 0 -1.19 0.99 -1.49 1.99c-0.3 0 -0.4 1.99 -0.4 2.98v8.95zm37.65 -5.97l2.88 0.99c-0.4 0.99 -1.29 2.98 -2.49 3.98c-1.29 0.99 -2.78 0.99 -4.77 0.99c-2.39 0 -4.28 -0.99 -5.67 -1.99c-1.49 -1.99 -2.19 -3.98 -2.19 -5.97c0 -2.98 0.7 -4.97 2.19 -6.96c1.39 -1.99 3.28 -1.99 5.57 -1.99c2.19 0 3.98 0 5.37 1.99c1.39 0.99 2.09 3.98 2.52 5.97c-0.43 0 -0.43 0.99 -0.43 0.99h-12.33c0.1 1.99 0.6 2.98 1.59 3.98c0.9 0.99 2.09 1.99 3.38 1.99c1.09 0 1.99 -0.99 2.69 -0.99C257.82 2028.47 258.41 2028.47 258.81 2026.48zm-9.15 -3.98L258.91 2022.5C258.71 2020.51 258.41 2019.52 257.82 2019.52c-0.89 -0.99 -2.09 -1.99 -3.48 -1.99c-1.29 0 -2.39 0 -3.28 0.99c-0.8 0.99 -1.29 1.99 -1.39 4.43zm15.61 9.94v-16.91h2.49v1.99c1.19 -0.99 2.98 -1.99 5.27 -1.99c0.99 0 1.89 0 2.68 0c0.9 0.99 1.49 0.99 1.89 1.99c0.4 0 0.7 0.99 0.89 1.99c0.1 0 0.2 0.99 0.2 1.99l0 10.94h-2.88v-9.94c0 -1.99 -0.1 -1.99 -0.3 -2.98c-0.2 -0.99 -0.6 -0.99 -1.09 -0.99c-0.6 -0.99 -1.29 -0.99 -1.99 -0.62c-1.19 -0.37 -2.19 0.62 -3.08 0.62c-0.89 0.99 -1.29 1.99 -1.29 4.97v8.95zm23.77 -2.98l0.4 2.98c-0.8 0 -1.49 0 -2.09 0c-0.99 0 -1.79 0 -2.39 -0.99c-0.5 0 -0.89 0 -1.19 -0.99c-0.2 0 -0.3 -1.99 -0.3 -2.98v-9.94l-2.09 -0.45v-1.54h2.09v-3.98l2.78 -1.99v5.97l2.78 0L289.04 2017.53L286.26 2017.53l0 9.94c0 0.99 0 0.99 0.1 1.99c0.1 0 0.3 0 0.5 0c0.3 0 0.6 0 0.99 0c0.3 0 0.7 0 1.19 0zm11.64 -16.91v-2.98h2.78v2.98zm0.18 19.89v-16.91h2.78v16.91z"/><path fill="none" stroke="#3C3F3C" d="M306.54 2027.47l2.78 -0.99c0.2 0.99 0.6 1.99 1.29 2.98c0.7 0 1.69 0.99 2.98 0.99C314.9 2030.46 315.89 2029.46 316.49 2029.46c0.6 -0.99 0.89 -0.99 0.89 -1.99c0 -0.99 -0.3 -0.99 -0.8 -0.99c-0.4 -0.99 -1.29 -0.99 -2.96 -0.99c-1.91 -0.99 -3.4 -0.99 -4.2 -1.99c-0.8 0 -1.39 -0.99 -1.79 -0.99C307.24 2021.5 307.04 2020.51 307.04 2019.52C307.04 2019.52 307.24 2018.52 307.54 2017.53c0.3 0 0.8 -0.99 1.39 -0.99c0.4 0 0.99 -0.99 1.79 -0.99c0.7 0 1.49 0 2.39 0c1.29 0 2.49 0 3.38 0C317.48 2016.53 318.28 2016.53 318.68 2017.53c0.5 0 0.8 0.99 0.99 1.99l-2.78 0.99c-0.1 -0.99 -0.4 -1.99 -0.99 -1.99c-0.6 -0.99 -1.49 -0.99 -2.59 -0.99c-1.29 0 -2.19 0 -2.68 0.99C310.02 2018.52 309.73 2019.52 309.73 2019.52c0 0.99 0.1 0.99 0.4 0.99c0.2 0 0.6 0.99 0.99 0.99c0.3 0 1.19 0 2.49 0.99c1.99 0 3.38 0.99 4.18 0.99c0.8 0 1.39 0.99 1.79 0.99c0.5 0.99 0.7 1.99 0.7 2.98c0 0.99 -0.3 1.99 -0.8 1.99c-0.6 0.99 -1.29 1.99 -2.39 1.99c-0.99 0.99 -2.19 0.99 -3.48 0.99c-2.09 0 -3.78 0 -4.87 -0.99c-1.09 -0.99 -1.89 -2.98 -2.19 -3.98z"/><path fill="none" stroke="#3C3F3C" d="M332.4 2038.41v-22.87h2.59v1.99c0.6 -0.99 1.29 -0.99 1.99 -1.99c0.8 0 1.69 0 2.78 0c1.39 0 2.68 0 3.78 0.99c0.99 0.99 1.89 1.99 2.39 2.98c0.6 0.99 0.8 2.98 0.8 3.98C346.72 2025.48 346.42 2026.48 345.82 2028.47c-0.6 0.99 -1.49 1.99 -2.59 2.98C342.05 2032.44 340.85 2032.44 339.56 2032.44c-0.89 0 -1.79 0 -2.49 -0.99c-0.8 0 -1.39 0 -1.89 -0.99v7.96zm2.59 -14.92c0 2.98 0.4 3.98 1.29 4.97c0.8 0.99 1.89 1.99 3.08 1.99c1.29 0 2.29 -0.99 3.18 -1.99c0.89 -0.99 1.39 -2.98 1.39 -4.97c0 -1.99 -0.5 -2.98 -1.29 -4.97c-0.89 -0.99 -1.89 -0.99 -3.18 -0.99c-1.19 0 -2.19 0 -3.08 1.99c-0.99 0.99 -1.39 1.99 -1.39 3.98zm15.12 8.95v-16.91h2.49v2.98C353.28 2016.53 353.88 2016.53 354.38 2015.54c0.6 0 1.19 0 1.79 0c0.99 0 1.99 0 2.88 0.99l-0.89 1.99c-0.7 0 -1.39 0 -2.09 0c-0.6 0 -1.19 0 -1.69 0c-0.4 0.99 -0.8 0.99 -0.99 1.99c-0.3 0.99 -0.5 1.99 -0.5 2.98v8.95zm9.65 -8.95c0 -2.98 0.8 -4.97 2.59 -5.97c1.39 -1.99 3.08 -1.99 5.17 -1.83c2.19 -0.15 4.08 -0.15 5.57 1.83c1.39 0.99 2.09 2.98 2.09 5.97c0 1.99 -0.3 3.98 -0.89 4.97c-0.7 0.99 -1.59 1.99 -2.78 2.98c-1.19 0.99 -2.59 0.99 -3.98 0.99C365.12 2032.44 363.33 2031.45 361.84 2030.46c-1.39 -1.99 -2.09 -3.98 -2.09 -6.96zm2.88 0C362.63 2025.48 363.03 2027.47 364.02 2028.47C364.92 2029.46 366.11 2030.46 367.5 2030.46c1.39 0 2.49 -0.99 3.48 -1.99c0.89 -0.99 1.29 -2.98 1.29 -4.97c0 -1.99 -0.4 -2.98 -1.39 -3.98c-0.89 -0.99 -1.99 -1.99 -3.38 -1.99c-1.39 0 -2.59 0.99 -3.48 1.99c-0.99 0.99 -1.39 1.99 -1.39 3.98zm26.55 8.95v-1.99c-0.99 0.99 -2.59 1.99 -4.57 1.99c-1.39 0 -2.59 0 -3.68 -0.99c-1.09 -0.99 -1.89 -1.99 -2.59 -2.98c-0.6 -0.99 -0.89 -2.98 -0.89 -4.97c0 -0.99 0.3 -2.98 0.89 -3.98c0.5 -0.99 1.29 -2.98 2.39 -2.51C381.82 2015.54 383.12 2015.54 384.41 2015.54c0.99 0 1.89 0 2.68 0c0.8 0.99 1.39 0.99 1.89 1.99v-7.96h2.78l0 22.87zm-8.85 -8.95c0 2.98 0.5 3.98 1.39 4.97c0.89 0.99 1.89 1.99 3.08 1.99c1.29 0 2.29 -0.99 3.18 -1.99c0.8 -0.99 1.29 -1.99 1.29 -3.98c0 -2.98 -0.5 -3.98 -1.39 -4.97c-0.8 -0.99 -1.89 -1.99 -3.18 -1.99c-1.19 0 -2.29 0.99 -3.08 1.99c-0.89 0.99 -1.29 1.99 -1.29 3.98zm26.65 8.95v-2.98c-1.29 1.99 -2.98 2.98 -5.17 2.98c-0.99 0 -1.89 0 -2.78 -0.99c-0.8 0 -1.49 0 -1.89 -0.99c-0.4 -0.99 -0.7 -0.99 -0.8 -1.99c-0.1 -0.99 -0.2 -0.99 -0.2 -2.98v-9.94h2.78v8.95c0 1.99 0.1 2.98 0.2 2.98c0.2 0.99 0.5 1.99 1.09 1.99c0.6 0 1.29 0.99 2.09 0.99c0.89 0 1.69 -0.99 2.39 -0.99c0.7 0 1.29 -0.99 1.59 -1.99c0.3 -0.99 0.4 -1.99 0.4 -2.98v-8.95l2.88 0v16.91zm17.7 -5.97h2.78c-0.3 1.99 -1.09 2.98 -2.39 3.98c-1.19 0.99 -2.68 1.99 -4.48 1.99c-2.29 0 -4.08 -0.99 -5.47 -1.99c-1.39 -1.99 -2.09 -3.98 -2.09 -6.96c0 -0.99 0.3 -2.98 0.89 -3.98c0.6 -1.99 1.49 -2.98 2.68 -2.98c1.19 -0.99 2.49 -0.99 3.98 -0.99c1.79 0 3.28 0 4.38 0.99c1.09 0.99 1.89 1.99 2.19 3.98h-2.68c-0.3 -0.99 -0.8 -1.99 -1.39 -1.99c-0.7 -0.99 -1.49 -0.99 -2.39 -0.99c-1.39 0 -2.59 0.99 -3.48 1.99c-0.89 0.99 -1.29 1.99 -1.29 3.98c0 2.98 0.4 3.98 1.29 4.97C418.02 2029.46 419.22 2030.46 420.51 2030.46c1.09 0 2.09 -0.99 2.78 -0.99c0.7 -0.99 1.19 -1.99 1.39 -2.98zm16.41 0l2.88 0.99c-0.4 0.99 -1.29 2.98 -2.49 3.98c-1.19 0.99 -2.78 0.99 -4.77 0.99c-2.39 0 -4.28 -0.99 -5.67 -1.99c-1.49 -1.99 -2.19 -3.98 -2.19 -5.97c0 -2.98 0.8 -4.97 2.19 -6.96c1.39 -1.99 3.28 -1.99 5.57 -1.99c2.19 0 3.98 0 5.37 1.99c1.39 0.99 2.09 3.98 2.09 5.97c0 0 0 0.99 0 0.99h-12.33c0.1 1.99 0.7 2.98 1.59 3.98c0.89 0.99 2.09 1.99 3.48 1.99c0.99 0 1.89 -0.99 2.59 -0.99c0.7 -0.99 1.29 -0.99 1.69 -2.98zm-9.15 -3.98h9.25c-0.2 -1.99 -0.5 -2.98 -1.09 -2.98c-0.89 -0.99 -2.09 -1.99 -3.48 -1.99c-1.29 0 -2.39 0 -3.18 0.99c-0.89 0.99 -1.39 1.99 -1.49 3.98zM458.3 2032.44v-1.99c-1.09 0.99 -2.59 1.99 -4.67 1.99c-1.29 0 -2.49 0 -3.58 -0.99c-1.09 -0.99 -1.99 -1.99 -2.59 -2.98c-0.6 -0.99 -0.89 -2.98 -0.89 -4.97c0 -0.99 0.2 -2.98 0.8 -3.98c0.5 -0.99 1.39 -2.98 2.56 -2.98c1.02 -0.99 2.21 -0.99 3.61 -0.99c0.99 0 1.89 0 2.68 0c0.7 0.99 1.39 0.99 1.89 1.99v-7.96h2.78v22.87zm-8.85 -8.95c0 2.98 0.4 3.98 1.29 4.97c0.89 0.99 1.99 1.99 3.18 1.99c1.19 0 2.19 -0.99 3.08 -1.99c0.89 -0.99 1.29 -1.99 1.29 -3.98c0 -2.98 -0.4 -3.98 -1.29 -4.97c-0.89 -0.99 -1.99 -1.99 -3.18 -1.99c-1.29 0 -2.29 0.99 -3.18 1.99c-0.8 0.99 -1.19 1.99 -1.19 3.98zm27.25 8.52l-2.59 0.43v-22.87h2.78v7.96c1.19 -1.99 2.68 -1.99 4.48 -1.99c0.99 0 1.99 0 2.88 0c0.89 0.99 1.69 0.99 2.29 1.99c0.6 0.99 0.99 1.99 1.29 2.98C488.23 2021.51 488.33 2022.5 488.33 2023.49c0 2.98 -0.7 4.97 -2.09 6.96c-1.39 0.99 -3.08 1.99 -4.97 1.99c-1.99 0 -3.48 -0.99 -4.57 -1.99zm0.28 -8.95c0 1.99 0.3 3.98 0.8 4.97c0.89 0.99 2.09 1.99 3.58 1.99c1.29 0 2.29 -0.99 3.18 -1.99c0.89 -0.99 1.39 -2.98 1.39 -4.97c0 -1.99 -0.5 -2.98 -1.29 -3.98c-0.89 -0.99 -1.89 -1.99 -3.08 -1.99c-1.29 0 -2.29 0.99 -3.18 1.99c-0.89 0.99 -1.39 1.99 -1.39 3.98zm15.12 14.92l-0.4 -2.98c0.7 0.99 1.19 0.99 1.69 0.99c0.6 0 1.09 0 1.49 -0.99c0.3 0 0.6 0 0.89 -0.99C495.59 2034.43 495.79 2033.44 496.19 2032.44C496.28 2032.44 496.38 2032.44 496.6 2032.44l-6.38 -16.91h2.98l3.48 9.94c0.4 0.99 0.8 1.99 1.19 4.48c0.3 -2.49 0.7 -3.48 1.09 -4.48l3.58 -9.94h2.78l-6.27 16.91c-0.7 1.99 -1.19 2.98 -1.59 3.98C496.98 2037.42 496.38 2037.42 495.79 2038.41c-0.7 0 -1.39 0 -2.29 0c-0.6 0 -1.19 0 -1.79 0zm25.46 -5.97v-14.92h-2.49v-1.99h2.49l0 -1.99c0 -0.99 0.1 -1.99 0.3 -1.99c0.3 -0.99 0.8 -1.99 1.49 -1.99c0.6 0 1.59 -0.99 2.78 -0.99c0.8 0 1.69 0 2.68 0.99l-0.5 1.99c-0.6 0 -1.09 0 -1.59 0C521.44 2011.56 520.85 2011.56 520.55 2011.56C520.15 2012.56 519.95 2013.55 519.95 2014.54v1.28l3.28 -0.29v1.99h-3.28l0 14.92zm8.15 0v-16.91h2.49v3.27c0.7 -2.27 1.29 -2.27 1.63 -3.27c0.76 0 1.36 0 1.95 0c0.99 0 1.89 0 2.88 0.99l-0.89 1.99c-0.7 0 -1.39 0 -2.09 0c-0.6 0 -1.19 0 -1.69 0c-0.5 0.99 -0.8 0.99 -0.99 1.99c-0.3 0.99 -0.5 1.99 -0.5 2.98v8.95zm21.98 -5.97l2.88 0.99c-0.5 0.99 -1.29 2.98 -2.59 3.98C546.41 2032.44 544.81 2032.44 542.92 2032.44c-2.39 0 -4.38 -0.99 -5.77 -1.99c-1.39 -1.99 -2.09 -3.98 -2 -5.97c-0.09 -2.98 0.61 -4.97 2 -6.96c1.49 -1.99 3.28 -1.99 5.57 -1.99c2.29 0 4.08 0 5.47 1.99c1.39 0.99 2.09 3.98 2.09 5.97C550.28 2023.49 550.28 2024.49 550.28 2024.49h-12.33C538.05 2026.48 538.55 2027.47 539.44 2028.47c0.99 0.99 2.09 1.99 3.48 1.99c0.99 0 1.89 -0.99 2.59 -0.99c0.8 -0.99 1.39 -0.99 1.79 -2.98zm-9.25 -3.98h9.25c-0.1 -1.99 -0.5 -2.98 -0.99 -2.98c-0.9 -0.99 -2.09 -1.99 -3.48 -1.99c-1.29 0 -2.39 0 -3.28 0.99C538.65 2019.52 538.15 2020.51 538.05 2022.5zm26.95 3.98l2.88 0.99c-0.5 0.99 -1.29 2.98 -2.49 3.98c-1.29 0.99 -2.88 0.99 -4.77 0.99c-2.39 0 -4.28 -0.99 -5.77 -1.99c-1.39 -1.99 -2.09 -3.98 -2.09 -5.97c0 -2.98 0.7 -4.97 2.19 -6.96c1.39 -1.99 3.28 -1.99 5.47 -1.99C562.71 2015.54 564.5 2015.54 565.9 2017.53c1.39 0.99 2.09 3.98 2.09 5.97c0 0 0 0.99 0 0.99h-12.33c0.1 1.99 0.6 2.98 1.59 3.98c0.9 0.99 1.99 1.99 3.38 1.99C561.62 2030.46 562.52 2029.46 562.93 2029.46C564.01 2028.47 564.6 2028.47 565 2026.48zm-9.15 -3.98L565 2022.5c-0.1 -1.99 -0.5 -2.98 -0.99 -2.98C563.11 2018.52 561.92 2017.53 560.53 2017.53c-1.29 0 -2.39 0 -3.28 0.99c-0.9 0.99 -1.29 1.99 -1.39 3.98zm28.94 9.94l-6.27 -16.91h2.98l3.58 9.94c0.3 0.99 0.7 1.99 0.99 2.98c0.3 -0.99 0.6 -1.99 1.09 -2.98l3.58 -9.94h2.88L587.48 2032.44zM607.46 2026.46l2.88 1.01c-0.5 0.99 -1.29 2.98 -2.59 3.98c-1.19 0.99 -2.78 0.99 -4.67 0.99c-2.39 0 -4.38 -0.99 -5.77 -1.99c-1.39 -1.99 -2.09 -3.98 -2.09 -5.97c0 -2.98 0.7 -4.97 2.09 -6.96c1.49 -1.99 3.28 -1.99 5.57 -1.99c2.29 0 4.08 0 5.47 1.99c1.39 0.99 2.09 3.98 2.09 5.97c0 0 0 0.99 -0.3 0.99L598.12 2024.49c0.1 1.99 0.6 2.98 1.49 3.98c0.99 0.99 2.09 1.99 3.48 1.99c0.99 0 1.89 -0.99 2.59 -0.99c0.8 -0.99 1.39 -0.99 1.79 -2.98zm-9.25 -3.98h9.25c-0.1 -1.99 -0.5 -2.98 -0.99 -2.98c-0.9 -0.99 -2.09 -1.99 -3.48 -1.99c-1.29 0 -2.39 0 -3.28 0.99c-0.9 0.99 -1.39 1.99 -1.49 3.98zm15.61 9.94v-16.91h2.49v2.98c0.7 -1.99 1.29 -1.99 1.79 -2.98c0.6 0 1.19 0 1.79 0c0.99 0 1.89 0 2.88 0.99l-0.9 1.99c-0.7 0 -1.39 0 -2.09 0c-0.6 0 -1.19 0 -1.69 0c-0.5 0.99 -0.8 0.99 -0.99 1.99c-0.3 0.99 -0.5 1.99 -0.5 2.98v8.95zm9.55 -4.97l2.78 -0.99c0.1 0.99 0.6 1.99 1.29 2.98c0.7 0 1.69 0.99 2.98 1.48c1.29 -0.49 2.19 -1.48 2.88 -1.48c0.6 -0.99 0.9 -0.99 0.9 -1.99c0 -0.99 -0.3 -0.99 -0.71 -0.99c-0.48 -0.99 -1.48 -0.99 -2.97 -0.99c-2.09 -0.99 -3.48 -0.99 -4.28 -1.99c-0.8 0 -1.39 -0.99 -1.79 -0.99c-0.4 -0.99 -0.6 -1.99 -0.6 -2.98c0 0 0.1 -0.99 0.5 -1.99c0.3 0 0.8 -0.99 1.39 -0.99c0.4 0 0.99 -0.99 1.69 -0.99c0.8 0 1.59 0 2.49 0c1.29 0 2.39 0 3.38 0c0.99 0.99 1.69 0.99 2.19 1.99c0.5 0 0.8 0.99 0.99 1.99l-2.78 0.99c-0.1 -0.99 -0.5 -1.99 -1.09 -1.99C632.03 2017.53 631.23 2017.53 630.14 2017.53c-1.29 0 -2.19 0 -2.78 0.99c-0.5 0 -0.8 0.99 -0.8 0.99c0 0.99 0.1 0.99 0.3 0.99C627.15 2020.51 627.45 2021.51 627.95 2021.51c0.3 0 1.09 0 2.37 0.99c2.11 0 3.5 0.99 4.3 0.99c0.7 0 1.39 0.99 1.79 0.99c0.5 0.99 0.7 1.99 0.7 2.98c0 0.99 -0.3 1.99 -0.8 1.99c-0.6 0.99 -1.39 1.99 -2.39 1.99C632.92 2032.44 631.73 2032.44 630.44 2032.44c-2.19 0 -3.78 0 -4.87 -0.99c-1.19 -0.99 -1.89 -2.98 -2.19 -3.98zm17.01 -14.92v-2.98h2.88v2.98zm0 19.89v-16.91h2.88v16.91zm6.07 -8.95c0 -2.98 0.9 -4.97 2.59 -6.44C650.42 2015.54 652.11 2015.54 654.2 2015.54c2.29 0 4.08 0 5.57 1.99c1.39 0.99 2.09 2.98 2.09 5.97c0 1.99 -0.3 3.98 -0.9 4.97c-0.7 0.99 -1.59 1.99 -2.78 2.98c-1.19 0.99 -2.59 0.99 -3.98 0.99c-2.29 0 -4.18 -0.99 -5.67 -1.99c-1.39 -1.99 -2.09 -3.98 -2.09 -6.96zm2.88 0c0 1.99 0.5 3.98 1.39 4.97c0.9 0.99 2.09 1.99 3.48 1.99C655.6 2030.46 656.69 2029.46 657.68 2028.47c0.9 -0.99 1.39 -2.98 1.39 -4.97c0 -1.99 -0.5 -2.98 -1.39 -3.98c-0.99 -0.99 -2.09 -1.99 -3.48 -1.99c-1.39 0 -2.59 0.99 -3.48 1.99c-0.9 0.99 -1.39 1.99 -1.39 3.98zm15.91 8.95v-16.77l2.49 -0.13v1.99c1.19 -0.99 2.98 -1.99 5.27 -1.99c0.99 0 1.89 0 2.68 0c0.9 0.99 1.49 0.99 1.89 1.99c0.4 0 0.7 0.99 0.9 1.99c0.1 0 0.1 0.99 0.1 1.99v10.94h-2.78v-9.94c0 -1.99 -0.1 -1.99 -0.3 -2.98c-0.2 -0.99 -0.6 -0.99 -1.19 -0.99c-0.5 -0.99 -1.19 -0.99 -1.89 -0.99c-1.19 0 -2.29 0.99 -3.08 0.99c-0.9 0.99 -1.29 1.99 -1.29 4.97l0 8.95zm25.46 -8.95c0 -2.98 0.9 -4.97 2.59 -5.97c1.39 -1.99 3.08 -1.99 5.17 -1.99c2.29 0 4.08 0 5.57 1.99c1.39 0.99 2.09 2.98 2.09 5.97c0 1.99 -0.3 3.98 -0.9 4.97c-0.7 0.99 -1.59 1.99 -2.78 2.98c-1.19 0.99 -2.59 0.99 -3.98 0.99c-2.29 0 -4.18 -0.99 -5.67 -1.99c-1.39 -1.99 -2.09 -3.98 -2.09 -6.96zM693.58 2023.49c0 1.99 0.5 3.98 1.39 4.97c0.9 0.99 2.09 1.99 3.48 1.99C699.85 2030.46 700.94 2029.46 701.94 2028.47c0.9 -0.99 1.39 -2.98 1.39 -4.97c0 -1.99 -0.5 -2.98 -1.39 -3.98c-0.99 -0.99 -2.09 -1.99 -3.48 -1.99C697.06 2017.53 695.87 2018.52 694.98 2019.52c-0.9 0.99 -1.39 1.99 -1.39 3.98zm16.51 8.95v-14.92h-2.49v-1.99h2.49v-1.99C710.09 2012.56 710.19 2011.56 710.39 2011.56c0.3 -0.99 0.8 -1.99 1.49 -1.99c0.6 0 1.59 -0.99 2.78 -0.99c0.8 0 1.69 0 2.68 0.99l-0.5 1.99c-0.6 0 -1.09 0 -1.59 0c-0.9 0 -1.49 0 -1.79 0c-0.4 0.99 -0.6 1.99 -0.6 2.98v0.99h3.28v1.99h-3.28v14.92zm17.4 0v-22.87h8.85c1.19 0 2.38 0 3.18 0c1.09 0 2.09 0.99 2.78 0.99c0.8 0.99 1.39 0.99 1.89 1.99c0.4 0.99 0.7 1.99 0.7 2.98c0 1.99 -0.7 3.98 -1.89 4.97c-1.19 1.99 -3.48 1.99 -6.66 1.99l-5.87 -0.02v9.97zm2.98 -11.93l5.87 0.19c1.99 -0.19 3.38 -1.19 4.18 -1.19c0.8 -0.99 1.19 -1.99 1.19 -3.98c0 0 -0.2 -0.99 -0.7 -1.99c-0.5 -0.99 -1.09 -0.99 -1.89 -0.99c-0.5 0 -1.49 -0.99 -2.78 -0.99h-5.87zm17.9 11.93l0 -16.91h2.49v2.98c0.6 -1.99 1.19 -1.99 1.79 -2.98c0.5 0 1.09 0 1.79 0c0.9 0 1.89 0 2.88 0.99l-0.99 1.99c-0.7 0 -1.39 0 -2.09 0c-0.6 0 -1.09 0 -1.59 0C752.16 2019.52 751.76 2019.52 751.56 2020.51c-0.3 0.99 -0.4 1.99 -0.4 2.98v8.95zm10.64 -19.89v-2.98h2.78v2.98zm0 19.89v-16.91h2.78v16.91zm7.06 0v-16.91h2.49v1.99c1.19 -0.99 2.98 -1.99 5.27 -1.99c0.99 0 1.89 0 2.78 0c0.8 0.99 1.39 0.99 1.89 1.99c0.4 0 0.7 0.99 0.8 1.99c0.1 0 0.2 0.99 0.2 1.99v10.94h-2.78v-9.94c0 -1.99 -0.1 -1.99 -0.4 -2.98c-0.2 -0.99 -0.6 -0.99 -1.09 -0.99c-0.6 -0.99 -1.19 -0.99 -1.99 -0.99c-1.19 0 -2.19 0.99 -3.08 0.99C769.26 2019.52 768.86 2020.51 768.86 2023.49v8.95zm23.87 -2.98L790.34 2032.44c-0.8 0 -1.49 0 -2.19 0c-0.99 0 -1.79 0 -2.29 -0.99c-0.6 0 -0.99 0 -1.19 -0.99c-0.3 0 -0.4 -1.99 -0.4 -2.98L784.28 2017.53h-1.99v-1.99h1.99v-3.98l2.78 -1.99L787.06 2015.54h2.88v1.99L787.06 2017.53v9.94c0 0.99 0.1 0.99 0.2 1.99c0.1 0 0.2 0 0.5 0c0.2 0 0.5 0 0.9 0C788.95 2029.46 789.35 2029.46 789.95 2029.46zm16.61 0v2.98h-15.12c0 -0.99 0.1 -1.99 0.4 -1.99c0.4 -0.99 0.99 -1.99 2.08 -2.98c0.61 -0.99 1.8 -1.99 3.39 -3.98c2.49 -1.99 4.18 -2.98 5.07 -4.97c0.8 -0.99 1.29 -1.99 1.29 -2.98c0 -0.99 -0.4 -1.99 -1.19 -2.98c-0.8 -0.99 -1.89 -0.99 -3.08 -0.99c-1.39 0 -2.49 0 -3.56 0.99c-0.51 0.99 -0.91 1.99 -0.91 3.98l-2.88 -0.99c0.2 -1.99 0.9 -3.98 2.19 -4.97C795.51 2009.57 797.2 2009.57 799.39 2009.57c2.19 0 3.88 0 5.17 0.99c1.29 1.99 1.99 2.98 1.99 4.97c0 0.99 -0.2 1.99 -0.6 2.98c-0.4 0.99 -0.99 1.99 -1.89 2.98c-0.8 0 -2.29 1.99 -4.28 3.98c-1.69 0.99 -2.78 1.99 -3.28 1.99c-0.4 0.99 -0.8 0.99 -1.09 1.99zm4.28 2.98l0.03 -22.87h15.38v1.99h-12.43L813.81 2019.52h10.74v1.99L813.81 2021.51L813.81 2032.44zm18.89 0v-22.87h2.78v22.87zm17.9 -1.99c-0.99 0 -1.99 0.99 -2.98 0.99c-0.99 0.99 -1.99 0.99 -3.08 0.99c-1.79 0 -3.18 0 -4.18 -0.99c-0.99 -0.99 -1.49 -1.99 -1.49 -3.98c0 -0.99 0.2 -0.99 0.6 -1.99c0.4 -0.99 0.8 -0.99 1.39 -1.99c0.6 0 1.29 0 2.09 0c0.5 -0.99 1.29 -0.99 2.49 -0.99c2.19 0 3.88 0 4.97 -0.99c0 0 0 -0.99 0 -0.99c0 -0.99 -0.3 -1.99 -0.8 -1.99c-0.7 -0.99 -1.79 -0.99 -3.18 -0.99c-1.29 0 -2.29 0 -2.88 0.99c-0.7 0 -1.09 0.99 -1.39 1.99h-2.78c0.3 -0.99 0.7 -1.99 1.29 -2.98c0.5 -0.99 1.39 -0.99 2.39 -1.99c1.09 0 2.39 0 3.78 0c1.39 0 2.59 0 3.48 0c0.8 0.99 1.49 0.99 1.89 0.99c0.4 0.99 0.7 1.99 0.9 1.99c0.1 0.99 0.1 1.99 0.1 2.98v3.98c0 1.99 0.1 3.98 0.2 4.97c0.1 0 0.4 0.99 0.7 1.99h-2.88c-0.3 -0.99 -0.5 -1.99 -0.6 -1.99zm-0.2 -6.96c-0.99 0.99 -2.59 0.99 -4.57 0.99c-1.19 0.99 -1.99 0.99 -2.49 0.99c-0.4 0 -0.8 0 -1.09 0.99c-0.2 0 -0.4 0.99 -0.4 0.99c0 0.99 0.3 1.99 0.9 1.99c0.6 0.99 1.39 0.99 2.49 0.99c1.09 0 1.99 0 2.88 -0.99c0.8 0 1.39 -0.99 1.79 -1.99c0.3 0 0.5 -0.99 0.5 -2.98zm6.07 3.98l2.41 -0.99c0.48 0.99 0.88 1.99 1.67 2.98c0.7 0 1.69 0.99 2.98 0.99C861.74 2030.46 862.74 2029.46 863.34 2029.46c0.6 -0.99 0.99 -0.99 0.99 -1.99c0 -0.99 -0.3 -0.99 -0.9 -0.99c-0.4 -0.99 -1.29 -0.99 -2.78 -0.99c-2.09 -0.99 -3.48 -0.99 -4.28 -1.99c-0.8 0 -1.39 -0.99 -1.79 -1.29c-0.5 -0.7 -0.7 -1.69 -0.7 -2.69c0 0 0.2 -0.99 0.5 -1.99c0.4 0 0.8 -0.99 1.39 -0.99c0.5 0 1.09 -0.99 1.79 -0.99c0.8 0 1.59 0 2.49 0C861.35 2015.54 862.44 2015.54 863.44 2015.54c0.99 0.99 1.69 0.99 2.19 1.99c0.4 0 0.8 0.99 0.9 1.99l-2.68 0.99c-0.1 -0.99 -0.5 -1.99 -1.09 -1.99c-0.6 -0.99 -1.49 -0.99 -2.49 -0.99c-1.29 0 -2.29 0 -2.78 0.99c-0.6 0 -0.8 0.99 -0.8 0.99c0 0.99 0.1 0.99 0.3 0.99c0.2 0 0.6 0.99 1.09 0.99c0.3 0 1.09 0 2.49 0.99C862.54 2022.5 863.83 2023.49 864.72 2023.49c0.7 0 1.3 0.99 1.8 0.99c0.4 0.99 0.7 1.99 0.7 2.98c0 0.99 -0.3 1.99 -0.9 1.99c-0.5 0.99 -1.29 1.99 -2.29 1.99C862.94 2032.44 861.84 2032.44 860.55 2032.44C858.36 2032.44 856.77 2032.44 855.58 2031.45c-1.09 -0.99 -1.79 -2.98 -2.09 -3.98zm17.01 4.97v-22.87h2.78v7.96c1.29 -1.99 2.98 -1.99 4.97 -1.99c1.19 0 2.29 0 3.18 0c0.9 0.99 1.49 1.99 1.89 1.99c0.4 0.99 0.6 2.98 0.6 3.98v10.94h-2.78v-10.94c0 -0.99 -0.3 -1.99 -0.9 -2.98c-0.6 -0.99 -1.49 -0.99 -2.59 -0.99c-0.8 0 -1.59 0 -2.39 0.99c-0.7 0 -1.19 0.99 -1.49 1.99c-0.3 0 -0.5 0.99 -0.5 2.98v8.95zm18.5 0l0.31 -3.98h2.88v3.98zm23.77 0L903.91 2009.57h3.28l5.87 15.91c0.5 1.99 0.9 2.98 1.19 3.98c0.4 -0.99 0.8 -1.99 1.29 -3.98L921.71 2009.57L924.69 2009.57l-8.85 22.87zm14.42 -19.89v-2.98h2.78L929.96 2012.56zm0 19.89v-16.91h2.78v16.91zm5.87 -4.97l2.78 -0.99c0.2 0.99 0.6 1.99 1.29 2.98c0.7 0 1.69 0.99 2.98 0.99C941.4 2030.46 942.39 2029.46 942.99 2029.46c0.6 -0.99 0.9 -0.99 0.9 -1.99C943.89 2026.48 943.59 2026.48 943.09 2026.48c-0.4 -0.99 -1.29 -0.99 -2.88 -0.99c-1.99 -0.99 -3.48 -0.99 -4.28 -1.99c-0.8 0 -1.39 -0.99 -1.79 -0.99c-0.4 -0.99 -0.6 -1.99 -0.6 -2.98c0 0 0.2 -0.99 0.5 -1.99C934.34 2017.53 934.84 2016.53 935.43 2016.53c0.4 0 0.99 -0.99 1.79 -0.99c0.7 0 1.49 0 2.39 0c1.29 0 2.49 0 3.38 0c0.99 0.99 1.79 0.99 2.19 1.99c0.5 0 0.8 0.99 0.99 1.99L943.39 2020.51c-0.1 -0.99 -0.4 -1.99 -0.99 -1.99c-0.6 -0.99 -1.49 -0.99 -2.59 -0.99c-1.29 0 -2.19 0 -2.68 0.99c-0.6 0 -0.9 0.99 -0.9 0.99c0 0.99 0.1 0.99 0.4 0.99c0.2 0 0.6 0.99 0.99 0.99C937.92 2021.51 938.81 2021.51 940.11 2022.5c1.99 0 3.38 0.99 4.18 0.99c0.8 0 1.39 0.99 1.79 0.99c0.5 0.99 0.7 1.99 0.7 2.98c0 0.99 -0.3 1.99 -0.8 1.99c-0.6 0.99 -1.29 1.99 -2.39 1.99c-0.99 0.99 -2.19 0.99 -3.48 0.99c-2.09 0 -3.78 0 -4.87 -0.99c-1.09 -0.99 -1.89 -2.98 -2.19 -3.98zm17.1 -14.92v-2.98h2.78v2.98zm0 19.89v-16.91h2.78l0 16.91zM963.28 2029.46L963.68 2032.44c-0.8 0 -1.49 0 -2.09 0c-0.99 0 -1.79 0 -2.39 -0.99c-0.5 0 -0.9 0 -1.19 -0.99c-0.2 0 -0.3 -1.99 -0.3 -2.98L957.71 2017.53h-2.09L955.62 2015.54h2.09l0 -4.37l2.78 -1.6v5.97h2.78l0 1.99h-2.78v9.94c0 0.99 0 0.99 0.1 1.99c0.1 0 0.3 0 0.5 0c0.3 0 0.6 0 0.99 0c0.3 0 0.7 0 1.19 0zM977.9 2032.77L972.82 2015.54h2.88l2.68 9.94l0.99 2.98c0 0 0.3 -0.99 0.8 -2.98l2.68 -9.94h2.78l2.49 9.94l0.9 2.98L989.93 2025.48l2.88 -9.94h2.68l-5.17 16.91h-2.88l-2.68 -9.94l-0.6 -2.98L980.78 2032.44zm22.97 0l-5.07 -16.91h2.98l2.59 9.94L1002.36 2028.47c0 0 0.3 -0.99 0.8 -2.98l2.68 -9.94h2.88l2.49 9.94l0.8 2.98l0.9 -2.98l2.88 -9.94h2.68l-5.17 16.91L1010.41 2032.44l-2.59 -9.94l-0.7 -2.98l-3.28 12.93zm22.97 0l-4.97 -16.91h2.88l2.59 9.94l0.99 2.98C1025.33 2028.47 1025.63 2027.47 1026.23 2025.48l2.59 -9.94h2.88l2.49 9.94l0.8 2.98L1035.97 2025.48l2.78 -9.94h2.68l-5.17 16.91L1033.39 2032.44l-2.59 -9.94l-0.7 -2.98l-3.28 12.93zm20.78 0v-3.98h3.18v3.98zm8.06 5.97v-22.87h2.49L1055.16 2017.53c0.7 -0.99 1.29 -0.99 2.09 -1.99c0.8 0 1.69 0 2.78 0c1.39 0 2.59 0 3.68 0.99c1.09 0.99 1.89 1.99 2.49 2.98c0.5 0.99 0.8 2.98 0.8 3.98C1067 2025.48 1066.7 2026.48 1066.1 2028.47c-0.6 0.99 -1.49 1.99 -2.69 2.98C1062.32 2032.44 1061.03 2032.44 1059.84 2032.44c-0.99 0 -1.79 0 -2.59 -0.99c-0.7 0 -1.29 0 -1.79 -0.99v7.96zm2.49 -14.92c0 2.98 0.5 3.98 1.29 4.97c0.9 0.99 1.89 1.99 3.18 1.99c1.19 0 2.29 -0.99 3.18 -1.99C1063.72 2027.47 1064.11 2025.48 1064.11 2023.49c0 -1.99 -0.4 -2.98 -1.29 -4.97c-0.9 -0.99 -1.89 -0.99 -3.08 -0.99c-1.19 0 -2.29 0 -3.66 1.99c-0.42 0.99 -0.92 1.99 -0.92 3.98zm15.22 8.95v-16.91h2.49v2.98c0.6 -1.99 1.19 -1.99 1.79 -2.98c0.5 0 1.09 0 1.39 0C1077.04 2015.54 1078.04 2015.54 1079.03 2016.53l-0.99 1.99c0 0 -0.99 0 -1.99 0c-0.4 0 -0.9 0 -1.39 0c-0.5 0.99 -0.8 0.99 -1.09 1.99c-0.3 0.99 -0.4 1.99 -0.4 2.98v8.95z"/><path fill="none" stroke="#3C3F3C" d="M1081.02 2012.56v-2.98h2.98v2.98zm0 19.89v-16.91h2.98v16.91z"/><path fill="none" stroke="#3C3F3C" d="M1087.98 2032.44v-16.91h2.98v1.99c0.99 -0.99 2.98 -1.99 4.97 -1.99c0.99 0 1.99 0 2.98 0c0.99 0.99 0.99 0.99 1.99 1.99c0 0 0 0.99 0 1.99c0.99 0 0.99 0.99 0.99 1.99v10.94l-2.98 0.35v-10.29C1098.92 2020.51 1098.92 2020.51 1097.93 2019.52c0 -0.99 0 -0.99 -0.97 -0.99c-0.03 -0.99 -1.02 -0.99 -2.02 -0.99c-0.99 0 -1.99 0.99 -2.98 0.99c-0.99 0.99 -0.99 1.99 -0.99 4.97v8.95zm23.87 -2.98l0 2.98c0 0 -0.99 0 -1.99 0c-0.99 0 -0.99 0 -1.99 -0.99c-0.99 0 -0.99 0 -0.99 -0.99c0 0 -0.99 -1.99 -0.99 -2.98v-9.94h-1.99v-1.99h1.99v-3.98l2.98 -1.99v5.97h2.98v2.25l-2.98 -0.26v9.94c0 0.99 0 0.99 0 1.99c0 0 0.99 0 0.99 0C1109.86 2029.46 1109.86 2029.46 1110.85 2029.46c0 0 0.99 0 0.99 0zm16.91 0v2.98h-14.92c0 -0.99 0 -1.99 0 -1.99c0 -0.99 0.99 -1.99 1.99 -2.98c0.99 -0.99 1.99 -1.99 3.98 -3.98c1.99 -1.99 3.98 -2.98 4.97 -4.97C1124.78 2017.53 1125.77 2016.53 1125.77 2015.54c0 -0.99 -0.99 -1.99 -0.99 -2.98c-0.99 -0.99 -1.99 -0.99 -2.98 -0.99c-1.99 0 -2.98 0 -3.98 0.99c-0.99 0.99 -0.99 1.99 -0.99 3.98L1113.84 2015.54c0 -1.99 0.99 -3.98 1.99 -4.97c1.99 -0.99 2.98 -0.99 5.97 -0.99c1.99 0 3.98 0 4.97 0.99c0.99 1.99 1.99 2.98 1.99 4.97c0 0.99 0 1.99 -0.99 2.98C1127.76 2019.52 1126.76 2020.51 1125.77 2021.51c-0.99 0 -1.99 1.99 -3.98 3.98C1119.8 2026.48 1118.81 2027.47 1118.81 2027.47c-0.99 0.99 -0.99 0.99 -0.99 1.99zm3.98 2.98v-14.92L1130.74 2017.53v-1.99h1.99v-1.99c0 -0.99 0 -1.99 0.99 -1.99c0 -0.99 0 -1.99 0.99 -1.99c0.99 0 1.99 -0.99 2.98 -0.99c0.99 0 1.99 0 2.98 0.99l-0.99 1.99c-0.99 0 -0.99 0 -1.99 0c0 0 -0.99 0 -0.99 0C1135.72 2012.56 1135.72 2013.55 1135.64 2014.54l0.07 0.99h2.98v1.99h-2.98v14.92zm7.96 0v-22.87h2.98v22.87zm17.9 -1.99c-0.99 0 -1.99 0.99 -2.98 0.99c-0.99 0.99 -1.99 0.99 -2.98 0.99c-0.99 0 -2.98 0 -3.98 -0.99c-0.99 -0.99 -0.99 -1.99 -0.99 -3.98c0 -0.99 0 -0.99 0 -1.99c0.99 -0.99 0.99 -0.99 1.99 -1.99c0 0 0.99 0 1.99 0c0 -0.99 0.99 -0.99 1.99 -0.99c1.99 0 3.98 0 4.97 -0.99c0 0 0 -0.99 0 -0.99c0 -0.99 0 -1.99 -0.99 -1.99c0 -0.99 -0.99 -0.99 -2.98 -0.99c-0.99 0 -1.99 0 -2.5 0.99c-0.48 0 -1.48 0.99 -1.48 1.99h-2.98C1147.65 2019.52 1148.64 2018.52 1148.64 2017.53c0.99 -0.99 1.99 -0.99 2.98 -1.99c0.99 0 1.99 0 3.98 0c0.99 0 1.99 0 2.98 0C1159.58 2016.53 1160.58 2016.53 1160.58 2016.53c0 0.99 0.99 1.99 0.99 1.99c0 0.99 0 1.99 0 2.98l0 3.98c0 1.99 0 3.98 0 4.97c0 0 0.99 0.99 0.99 1.99L1159.58 2032.44c0 -0.99 0 -1.99 -0.99 -1.99zM1158.59 2023.49c-0.99 0.99 -1.99 0.99 -3.98 0.99c-1.99 0.99 -1.99 0.99 -2.98 0.99c0 0 -0.99 0 -0.99 0.99C1150.63 2026.48 1150.63 2027.47 1150.63 2027.47c0 0.99 0 1.99 0.99 1.99c0 0.99 0.99 0.99 1.99 0.99c0.99 0 1.99 0 2.98 -0.99c0.99 0 0.99 -0.99 1.99 -1.99c0 0 0 -0.99 0 -2.98zm5.97 3.98l2.98 -0.99c0 0.99 0.99 1.99 0.99 2.98c0.99 0 1.99 0.99 2.98 0.99c1.99 0 2.98 -0.99 2.98 -0.99c0.99 -0.99 0.99 -0.99 0.99 -1.99C1175.49 2026.48 1175.49 2026.48 1174.5 2026.48c0 -0.99 -0.99 -0.99 -2.98 -0.99C1169.53 2024.49 1168.53 2024.49 1167.54 2023.49c-0.99 0 -0.99 -0.99 -1.99 -0.99C1165.55 2021.5 1165.55 2020.51 1165.55 2019.52C1165.55 2019.52 1165.55 2018.52 1165.55 2017.53c0.99 0 0.99 -0.99 1.99 -0.99c0 0 0.99 -0.99 0.99 -0.99C1169.53 2015.54 1170.52 2015.54 1171.52 2016.01c0.99 -0.47 1.99 -0.47 2.98 -0.47c0.99 0.99 1.99 0.99 1.99 1.99c0.99 0 0.99 0.99 0.99 1.99L1175.49 2020.51c0 -0.99 -0.99 -1.99 -0.99 -1.99c-0.99 -0.99 -1.99 -0.99 -2.98 -0.99c-0.99 0 -1.99 0 -2.98 0.99c0 0 -0.99 0.99 -0.99 0.99c0 0.99 0.99 0.99 0.99 0.99c0 0 0 0.99 0.99 0.99c0 0 0.99 0 1.99 0.99C1173.5 2022.5 1175.49 2023.49 1176.49 2023.49c0 0 0.99 0.99 0.99 0.99c0.99 0.99 0.99 1.99 0.99 2.98c0 0.99 0 1.99 -0.99 1.99C1177.48 2030.46 1176.49 2031.45 1175.49 2031.45c-0.99 0.99 -1.99 0.99 -3.98 0.99c-1.99 0 -2.98 0 -4.97 -0.99c-0.99 -0.99 -0.99 -2.98 -1.99 -3.98zm16.91 4.97v-22.87h2.98v7.96c1.99 -1.99 2.98 -1.99 4.97 -1.99c0.99 0 1.99 0 2.98 0c0.99 0.99 1.99 1.99 1.99 1.99c0.99 0.99 0.99 2.98 0.99 3.98l-0.18 10.94L1192.4 2032.44v-10.94c0 -0.99 0 -1.99 -0.99 -2.98C1191.4 2017.53 1190.41 2017.53 1189.42 2017.53c-0.99 0 -1.99 0 -2.98 0.99C1186.43 2018.52 1185.44 2019.52 1185.44 2020.51c-0.99 0 -0.99 0.99 -0.99 2.98v8.95zM1200.35 2032.44v-3.98l2.98 0v3.98zm18.89 -5.97l2.98 0c-0.99 1.99 -0.99 2.98 -2.98 3.98c-0.99 0.99 -1.99 1.99 -3.98 1.99c-1.99 0 -3.98 -0.99 -5.95 -1.99c-1.01 -1.99 -2.01 -3.98 -2.01 -6.96c0 -0.99 0.99 -2.98 0.99 -3.98c0.99 -1.99 1.99 -2.98 2.98 -2.98c0.99 -0.99 1.99 -0.99 3.98 -0.99c1.99 0 2.98 0 3.98 0.99c0.99 0.99 1.99 1.99 1.99 3.98h-1.99c-0.99 -0.99 -0.99 -1.99 -1.99 -1.99c0 -0.99 -0.99 -0.99 -1.99 -0.99c-0.99 0 -2.98 0.99 -3.98 1.99c0 0.99 -0.99 1.99 -0.99 3.98C1210.3 2026.48 1211.29 2027.47 1211.29 2028.47c0.99 0.99 1.99 1.99 3.98 1.99c0.99 0 1.99 -0.99 2.98 -0.51c0 -1.48 0.99 -2.47 0.99 -3.47zm3.98 -2.98c0 -2.98 0.99 -4.97 2.98 -5.97c0.99 -1.99 2.98 -1.99 4.97 -1.99c1.99 0 3.98 0 4.97 1.99c1.99 0.99 2.98 2.98 2.98 5.97c0 1.99 -0.99 3.98 -0.99 4.97c-0.99 0.99 -1.99 1.99 -2.98 2.98c-0.99 0.99 -2.98 0.99 -3.98 0.99c-1.99 0 -3.98 -0.99 -5.97 -1.99c-0.99 -1.99 -1.99 -3.98 -1.99 -6.96zm2.98 0c0 1.99 0 3.98 0.99 4.97c0.99 0.99 1.99 1.99 3.98 1.99c0.99 0 1.99 -0.99 2.98 -1.99c0.99 -0.99 1.99 -2.98 1.99 -4.97c0 -1.99 -0.99 -2.98 -1.99 -3.98c-0.99 -0.99 -1.99 -1.99 -2.98 -1.99c-1.99 0 -2.98 0.99 -3.98 1.99c-0.99 0.99 -0.99 1.99 -0.99 3.98zm15.91 8.95v-16.91h1.99v1.99c0.99 0 1.99 -0.99 2.98 -1.99c0 0 0.99 0 1.99 0c1.99 0 2.98 0 2.98 0C1253.06 2016.53 1254.05 2017.53 1254.05 2018.52c0.99 -1.99 2.98 -2.98 4.97 -2.98c1.99 0 2.98 0 3.98 0.99c0.99 0.99 0.99 1.99 0.99 3.98v11.93h-1.99v-10.94c0 -0.99 0 -1.99 -0.99 -1.99c0 -0.99 0 -0.99 -0.99 -0.99c0 -0.99 -0.99 -0.99 -0.99 -0.99c-1.99 0 -1.99 0.99 -2.98 0.99c-0.99 0.99 -0.99 1.99 -0.99 3.98v9.94h-2.98v-10.94c0 -0.99 0 -1.99 -0.99 -2.98c0 -0.99 -0.99 -0.99 -1.99 -0.99c-0.99 0 -1.99 0 -1.99 0.99c-0.99 0 -1.99 0.99 -1.99 1.99c0 0 0 1.99 0 2.98v8.95zm35.8 0L1277.92 2017.53h-1.99v-1.99h1.99v-2.32c0 -0.67 0 -1.66 0 -1.66c0.99 -0.99 0.99 -1.99 1.99 -1.99c0.99 0 1.99 -0.99 2.98 -0.99c0.99 0 0.99 0 1.99 0.62v2.36c-0.99 0 -0.99 0 -1.99 0c-0.99 0 -0.99 0 -1.99 0c0 0.99 0 1.99 0 2.98v0.99h2.98v1.99h-2.98v14.92zm6.96 -8.95c0 -2.98 0.99 -4.97 2.98 -5.97c0.99 -1.99 2.98 -1.99 4.97 -1.99c1.99 0 3.98 0 5.97 1.99c0.99 0.99 1.99 2.98 1.99 5.97c0 1.99 0 3.98 -0.99 4.97c-0.99 0.99 -1.99 1.99 -2.98 2.98c-0.99 0.99 -1.99 0.99 -3.98 0.99c-1.99 0 -3.98 -0.99 -5.97 -1.99c-0.99 -1.99 -1.99 -3.98 -1.99 -6.96zM1287.87 2023.49c0 1.99 0.99 3.98 1.99 4.97c0.99 0.99 1.99 1.99 2.98 1.99c0.99 0 2.98 -0.99 3.98 -1.99c0.99 -0.99 0.99 -2.98 0.99 -4.97c0 -1.99 0 -2.98 -0.99 -3.98c-0.99 -0.99 -2.98 -1.99 -3.98 -1.99c-0.99 0 -1.99 0.99 -2.98 2.26c-0.99 0.72 -1.99 1.72 -1.99 3.71zm15.91 8.95v-16.91h2.98v2.98c0 -1.99 0.99 -1.99 0.99 -2.98c0.99 0 1.99 0 1.99 -0.21c0.99 0.21 1.99 0.21 2.98 1.2l-0.99 1.99c-0.99 0 -0.99 0 -1.99 0c0 0 -0.99 0 -1.99 0c0 0.99 0 0.99 -0.99 1.99C1306.76 2021.51 1306.76 2022.5 1306.76 2023.49L1306.76 2032.44zm19.89 0v-16.91h1.99v1.99c0.99 0 0.99 -0.99 1.99 -1.99C1328.64 2015.54 1329.63 2015.54 1330.63 2015.54c1.99 0 2.98 0 2.98 0c0.99 0.99 1.99 1.99 1.99 2.98c0.99 -1.99 2.98 -2.98 4.97 -2.98c1.99 0 2.98 0 3.98 0.99c0.99 0.99 0.99 1.99 0.99 3.98v11.93h-2.98v-10.94c0 -0.99 0 -1.99 0 -1.99c0 -0.99 0 -0.99 -0.99 -0.99c0 -0.99 -0.99 -0.99 -1.99 -0.99c-0.99 0 -1.99 0.99 -1.99 0.99c-0.99 0.99 -1.99 1.99 -1.99 3.98v9.94l-1.99 0v-10.94c0 -0.99 -0.99 -1.99 -0.99 -2.98C1331.62 2017.53 1331.62 2017.53 1330.63 2017.53c-0.99 0 -1.99 0 -2.98 1.15c0 -0.16 -0.99 0.84 -0.99 1.83c0 0 0 1.99 0 2.98v8.95zm24.86 -8.95c0 -2.98 0.99 -4.97 2.98 -5.97c0.99 -1.99 2.98 -1.99 4.97 -1.99c1.99 0 3.98 0 5.97 1.99c0.99 0.99 1.99 2.98 1.99 5.97c0 1.99 0 3.98 -0.99 4.97c-0.99 0.99 -1.99 1.99 -2.98 2.98c-0.99 0.99 -1.99 0.99 -3.98 0.99c-1.99 0 -3.98 -0.99 -4.97 -1.99c-1.99 -1.99 -2.98 -3.98 -2.98 -6.96zm2.98 0c0 1.99 0.99 3.98 1.99 4.97c0.99 0.99 1.99 1.99 2.98 1.99c1.99 0 2.98 -0.99 3.98 -1.99c0.99 -0.99 0.99 -2.98 0.99 -4.97c0 -1.99 0 -2.98 -0.99 -3.98c-0.99 -0.99 -1.99 -1.99 -3.98 -1.99c-0.99 0 -1.99 0.99 -3.17 1.99c-0.8 0.99 -1.8 1.99 -1.8 3.98zm15.91 8.95L1367.42 2015.52l2.98 0.02v2.98C1370.41 2016.53 1371.4 2016.53 1372.39 2015.54c0 0 0.99 0 0.99 0c0.99 0 1.99 0 2.98 0.99l-0.99 1.99c0 0 -0.99 0 -1.99 0c0 0 -0.99 0 -0.99 0c-0.99 0.99 -0.99 0.99 -1.99 1.99c0 0.99 0 1.99 0 2.98v8.95zm21.88 -5.97l2.98 0.99c0 0.99 -0.99 2.98 -1.99 3.98c-1.99 0.99 -2.98 0.99 -4.97 0.99C1382.34 2032.44 1381.34 2031.45 1379.35 2030.46C1378.36 2028.47 1377.37 2026.48 1377.37 2024.49c0 -2.98 0.99 -4.97 1.99 -6.96c1.99 -1.99 2.98 -1.99 5.97 -1.99c1.99 0 3.98 0 4.97 1.99C1392.28 2018.52 1392.28 2021.51 1392.28 2023.49c0 0 0 0.99 0 0.99l-11.93 -0.23c0 2.22 0.99 3.21 0.99 4.21c0.99 0.99 2.98 1.99 3.98 1.99c0.99 0 1.99 -0.99 2.5 -0.99c0.48 -0.99 1.47 -0.99 1.47 -2.98zm-8.95 -3.98h8.95c0 -1.99 0 -2.98 -0.99 -2.98c-0.99 -0.99 -1.99 -1.99 -2.98 -1.99c-1.99 0 -2.98 0 -2.98 0.99c-0.99 0.99 -1.99 1.99 -1.99 3.98zm24.86 -9.94v-2.98L1407.2 2009.57v2.98zm0 19.89l0 -16.91h1.99v16.91zm6.96 0v-16.91h1.99l0 1.99c0.99 -0.99 2.98 -1.99 5.97 -1.99C1421.12 2015.54 1421.12 2015.54 1422.12 2015.54c0.99 0.99 1.99 0.99 1.99 1.99c0.99 0 0.99 0.99 0.99 1.99c0 0 0 0.99 0 1.99v10.94h-2.98v-9.94c0 -1.99 0 -1.99 0 -2.98C1422.12 2018.52 1421.12 2018.52 1421.12 2018.52c-0.99 -0.99 -0.99 -0.99 -1.99 -0.99c-0.99 0 -1.99 0.99 -2.98 0.99c-0.99 0.99 -0.99 1.99 -0.99 4.97v8.95zm17.9 0v-14.92h-1.99v-1.99h1.99v-1.99c0 -0.99 0 -1.99 0.99 -1.99c0 -0.99 0 -1.99 0.99 -1.99c0.99 0 1.99 -0.99 2.98 -0.99c0.99 0 0.99 0 1.99 0.99L1437.03 2011.56c-0.99 0 -0.99 0 -1.99 0C1435.04 2011.56 1434.05 2011.56 1434.05 2011.56c-0.99 0.99 -0.99 1.99 -0.99 2.98l0 0.99h2.98l0 1.99h-2.98v14.92zm6.96 -8.95c0 -2.98 0.99 -4.97 2.98 -5.97c0.99 -1.99 2.98 -1.99 4.97 -1.99c1.99 0 3.98 0 5.97 1.99C1451.95 2018.52 1452.94 2020.51 1452.94 2023.49c0 1.99 0 3.98 -0.99 4.97c-0.99 0.99 -1.99 1.99 -2.98 2.98c-0.99 0.99 -1.99 0.99 -3.98 0.99c-1.99 0 -3.98 -0.99 -4.97 -1.99C1438.03 2028.47 1437.03 2026.48 1437.03 2023.49zm2.98 0c0 1.99 0.99 3.98 1.99 4.97c0.99 0.99 1.99 1.99 2.98 1.99c1.99 0 2.98 -0.99 3.98 -1.99c0.99 -0.99 0.99 -2.98 0.99 -4.97C1449.96 2021.51 1449.96 2020.51 1448.97 2019.52c-0.99 -0.99 -1.99 -1.99 -3.98 -1.99c-0.99 0 -1.99 0.99 -2.98 1.99C1441.01 2020.51 1440.02 2021.51 1439.86 2023.49zm15.91 8.95v-16.91h2.98v2.98c0 -1.99 0.99 -1.99 1.77 -2.98c0.21 0 1.21 0 1.21 0c0.99 0 1.99 0 2.98 0.99l-0.99 1.99c0 0 -0.99 0 -1.99 0c0 0 -0.99 0 -0.99 0c-0.99 0.99 -0.99 0.99 -1.99 1.99c0 0.99 0 1.99 0 2.98v8.95zm10.94 0v-16.91h1.99v1.99c0.99 0 1.99 -0.99 2.98 -1.99c0 0 0.99 0 1.99 0c1.99 0 2.98 0 2.98 0c0.99 0.99 1.99 1.99 1.99 2.98c0.99 -1.99 2.98 -2.98 4.97 -3.44c1.99 0.46 2.98 0.46 3.98 1.45c0.99 0.99 0.99 1.99 0.99 3.98v11.93h-1.99l0 -10.94c0 -0.99 0 -1.99 -0.99 -1.99c0 -0.99 0 -0.99 -0.99 -0.99c0 -0.99 -0.99 -0.99 -0.99 -0.99c-1.99 0 -1.99 0.99 -2.98 0.99c-0.99 0.99 -0.99 1.99 -0.99 3.98v9.94L1476.81 2032.44L1476.81 2021.51c0 -0.99 0 -1.99 -0.99 -2.98c0 -0.99 -0.99 -0.99 -1.99 -0.99c-0.99 0 -1.99 0 -1.49 0.99c-1.49 0 -2.49 0.99 -2.49 1.99c0 0 0 1.99 0 2.98v8.95zm36.79 -1.99c-0.99 0 -1.99 0.99 -2.98 0.99c-0.99 0.99 -1.99 0.99 -2.98 0.99c-0.99 0 -2.98 0 -3.98 -0.99c-0.99 -0.99 -0.99 -1.99 -0.99 -3.98c0 -0.99 0 -0.99 0 -1.99c0.99 -0.99 0.99 -0.99 1.99 -1.99c0 0 0.99 0 1.99 0c0 -0.99 0.99 -0.99 1.99 -0.99c1.99 0 3.98 0 4.97 -0.99c0 0 0 -0.99 0 -0.99c0 -0.99 0 -1.99 -0.99 -1.99c0 -0.99 -0.99 -0.99 -2.98 -0.99c-0.99 0 -1.99 0 -2.98 0.99c0 0 -0.99 0.99 -0.99 1.99h-2.98c0 -0.99 0.99 -1.99 0.99 -2.98c0.99 -0.99 1.99 -0.99 2.98 -1.99c0.99 0 1.99 0 3.98 0c0.99 0 1.99 0 2.98 0c0.99 0.99 1.99 0.99 1.99 0.99c0 0.99 0.99 1.99 0.99 1.99c0 0.99 0 1.99 0 2.98v3.76c0 2.2 0 4.19 0 5.19c0 0 0.99 0.99 0.99 1.99h-2.98c0 -0.99 0 -1.99 -0.99 -1.99zm0 -6.96c-0.99 0.99 -1.99 0.99 -3.98 0.99c-1.99 0.99 -1.99 0.99 -2.98 0.99C1496.7 2025.48 1495.71 2025.48 1495.71 2026.48c0 0 0 0.99 0 0.99C1495.71 2028.47 1495.71 2029.46 1496.7 2029.46c0 0.99 0.99 0.99 1.99 0.99c0.99 0 1.99 0 2.98 -0.99c0.99 0 0.99 -0.99 1.99 -1.99c0 0 0 -0.99 0 -2.98zm13.48 5.97l0.44 2.98c-0.99 0 -1.99 0 -1.99 0c-0.99 0 -1.99 0 -2.98 -0.99c0 0 0 0 -0.99 -0.99c0 0 0 -1.99 0 -2.98v-9.94h-1.99v-1.99L1511.62 2015.54l0 -3.98L1514.6 2009.57L1514.6 2015.54h2.98v1.99h-2.98v9.94c0 0.99 0 0.99 0 1.99c0 0 0 0 0 0c0.99 0 0.99 0 0.99 0c0.99 0 0.99 0 1.99 -0.49zm1.99 -16.91v-2.98h2.98v2.98zm0 19.89v-16.91h2.98v16.91zm5.97 -8.95c0 -2.98 0.99 -4.97 2.98 -5.97C1529.52 2015.54 1531.51 2015.54 1533.49 2015.54c1.99 0 3.98 0 5.97 1.99c0.99 0.99 1.99 2.98 1.99 5.97c0 1.99 0 3.98 -0.99 4.97c-0.99 0.99 -1.99 1.99 -2.98 2.98c-0.99 0.99 -1.99 0.99 -3.98 0.99c-1.99 0 -3.98 -0.99 -4.97 -1.99c-1.99 -1.99 -2.98 -3.98 -2.98 -6.96zm2.98 0c0 1.99 0.99 3.98 1.99 4.97c0.99 0.99 1.99 1.99 2.98 1.99c1.99 0 2.98 -0.99 3.98 -1.99c0.99 -0.99 0.99 -2.98 0.99 -4.97c0 -1.99 0 -2.98 -0.99 -3.98c-0.99 -0.99 -1.99 -1.99 -3.98 -1.99c-0.99 0 -1.99 0.99 -2.98 1.99c-0.99 0.99 -1.99 1.99 -1.99 3.98zm15.91 8.95l0 -16.91l2.98 0v1.99C1548.41 2016.53 1550.4 2015.54 1552.39 2015.54c0.99 0 1.99 0 2.98 0C1556.37 2016.53 1556.37 2016.53 1557.36 2017.53c0 0 0 0.99 0.99 1.99c0 0 0 0.99 0 1.99v10.94h-2.98v-9.94c0 -1.99 0 -1.99 0 -2.98c-0.99 -0.99 -0.99 -0.99 -1.99 -0.99c0 -0.99 -0.99 -0.99 -1.99 -0.99c-0.99 0 -1.99 0.99 -2.98 0.99c-0.99 0.99 -0.99 1.99 -0.99 4.97v8.95z"/></g></svg>
