<?xml version="1.0" encoding="utf-8"?>
<svg xmlns="http://www.w3.org/2000/svg" xmlns:xlink="http://www.w3.org/1999/xlink" version="1.1" width="1632" height="2112" viewBox="0 0 1632 2112" xml:space="preserve" PageMode="4" layout="0"><defs><style type="text/css"><![CDATA[tspan{white-space:pre}
]]></style></defs><g id="content" view="2"><image x="46" y="0" width="1540" height="2112" xlink:href="img89.jpg"/><path fill="#F9F8FB" d="M68 2002h1503v44h-1503z"/><path fill="none" stroke="#18111B" d="M89.11 2032.44v-20.88h-7.51v-1.99h18.06v1.99h-7.54L92.12 2032.44zm13.3 0v-22.87l2.79 0.35v7.61c1.31 -1.99 2.95 -1.99 4.94 -1.99c1.22 0 2.29 0 3.19 0c0.9 0.99 1.54 1.99 2.01 1.99c0.3 0.99 0.5 2.98 0.5 3.98v10.94h-2.79v-10.94c0 -0.99 -0.31 -1.99 -0.91 -2.98c-0.61 -0.99 -1.46 -0.99 -2.57 -0.99c-0.84 0 -1.61 0 -2.35 0.99c-0.73 0 -1.24 0.99 -1.56 1.99c-0.31 0 -0.47 0.99 -0.47 2.98v8.95zm17.73 -19.89v-2.98h2.79v2.98zm0 19.89v-16.91h2.79v16.91zm5.95 -4.97l2.77 -0.99c0.15 0.99 0.59 1.99 1.29 2.98c0.71 0 1.7 0.99 2.97 0.99c1.28 0 2.24 -0.99 2.86 -0.99c0.62 -0.99 0.92 -0.99 0.93 -1.99c0 -0.99 -0.28 -0.99 -0.83 -0.99c-0.39 -0.99 -1.34 -0.99 -2.86 -0.99c-2.05 -0.99 -3.47 -0.99 -4.27 -1.99c-0.79 0 -1.39 -0.99 -1.8 -0.99c-0.41 -0.99 -0.62 -1.99 -0.62 -2.98c0 0 0.17 -0.99 0.51 -1.99c0.34 0 0.8 -0.99 1.37 -0.99c0.44 0 1.03 -0.99 1.78 -0.99c0.76 0 1.56 0 2.42 0c1.29 0 2.44 0 3.41 0c0.98 0.99 1.7 0.99 2.17 1.99c0.47 0 0.79 0.99 0.96 1.99l-2.73 0.99C136.31 2019.52 135.95 2018.52 135.35 2018.52c-0.59 -0.99 -1.43 -0.99 -2.52 -0.99c-1.29 0 -2.21 0 -2.75 0.99c-0.55 0 -0.83 0.99 -0.83 0.99c0 0.99 0.12 0.99 0.35 0.99c0.22 0 0.58 0.99 1.06 0.99C130.94 2021.51 131.77 2021.51 133.14 2022.5c1.98 0 3.36 0.99 4.14 0.99c0.79 0 1.4 0.99 1.84 0.99c0.45 0.99 0.68 1.99 0.68 2.98c0 0.99 -0.28 1.99 -0.82 1.99c-0.55 0.99 -1.33 1.99 -2.36 1.99c-1.02 0.99 -2.19 0.99 -3.48 1.08c-2.15 -0.08 -3.78 -0.08 -4.9 -1.08c-1.12 -0.99 -1.84 -2.98 -2.16 -3.98zM162.65 2032.44v-1.99c-1.04 0.99 -2.59 1.99 -4.61 1.99c-1.31 0 -2.53 0 -3.63 -0.99c-1.1 -0.99 -1.96 -1.99 -2.57 -2.98c-0.61 -0.99 -0.9 -2.98 -0.9 -4.97c0 -0.99 0.27 -2.98 0.83 -3.98c0.55 -0.99 1.37 -2.98 2.47 -2.98c1.1 -0.99 2.33 -0.99 3.68 -0.99c0.99 0 1.88 0 3.11 0c0.33 0.99 0.96 0.99 1.44 1.99v-7.96L165.24 2009.57v22.87zm-8.84 -8.95c0 2.98 0.45 3.98 1.33 4.97c0.9 0.99 1.95 1.99 3.16 2.26c1.21 -0.27 2.26 -1.27 3.11 -2.26c0.86 -0.99 1.28 -1.99 1.28 -3.98c0 -2.98 -0.44 -3.98 -1.31 -4.97c-0.87 -0.99 -1.94 -1.99 -3.21 -1.99c-1.24 0 -2.28 0.99 -3.11 1.99c-0.84 0.99 -1.25 1.99 -1.25 3.98zm14.81 0C168.61 2020.51 169.46 2018.52 171.16 2017.53c1.42 -1.99 3.15 -1.99 5.19 -1.99c2.27 0 4.13 0 5.59 1.99C183.33 2018.52 184.03 2020.51 184.03 2023.49c0 1.99 -0.3 3.98 -0.9 4.97c-0.7 0.99 -1.59 1.99 -2.79 2.98c-1.21 0.99 -2.55 0.99 -3.99 0.99c-2.31 0 -4.18 -0.99 -5.6 -1.99c-1.42 -1.99 -2.14 -3.98 -2.14 -6.96z"/><path fill="none" stroke="#18111B" d="M171.49 2023.49c0 1.99 0.46 3.98 1.38 4.97c0.92 0.99 2.08 1.99 3.48 1.99c1.39 0 2.55 -0.99 3.47 -1.99c0.91 -0.99 1.42 -2.98 1.42 -4.97c0 -1.99 -0.51 -2.98 -1.43 -3.98c-0.92 -0.99 -2.08 -1.99 -3.46 -1.99C174.95 2017.53 173.8 2018.52 172.87 2019.52c-0.92 0.99 -1.38 1.99 -1.38 3.98zm26.66 2.98h2.78c-0.3 1.99 -1.09 2.98 -2.39 3.98c-1.19 0.99 -2.69 1.99 -4.57 1.99c-2.19 0 -3.98 -0.99 -5.37 -1.99c-1.39 -1.99 -2.09 -3.98 -2.09 -6.96c0 -0.99 0.3 -2.98 0.9 -3.98C188.01 2017.53 188.9 2016.53 190.09 2016.53c1.19 -0.99 2.49 -0.99 3.98 -0.99c1.79 0 3.18 0 4.38 0.99c1.09 0.99 1.89 1.99 2.19 3.98h-2.69c-0.3 -0.99 -0.8 -1.99 -1.39 -1.99C195.86 2017.53 195.07 2017.53 194.17 2017.53c-1.39 0 -2.59 0.99 -3.48 1.99c-0.9 0.99 -1.29 1.99 -1.29 3.98c0 2.98 0.4 3.98 1.18 4.97c0.91 0.99 2 1.99 3.39 1.99c1.09 0 1.99 -0.99 2.78 -0.99c0.7 -0.99 1.19 -1.99 1.39 -2.98zm15.91 5.97v-2.98c-1.29 1.99 -2.98 2.98 -5.17 2.98c-0.99 0 -1.89 0 -2.78 -0.99c-0.8 0 -1.49 0 -1.89 -0.99c-0.4 -0.99 -0.7 -0.99 -0.8 -1.99c-0.1 -0.99 -0.2 -0.99 -0.2 -2.98v-9.94h2.78l0 8.95c0 1.99 0.1 2.98 0.2 2.98c0.2 0.99 0.5 1.99 1.09 1.99c0.6 0 1.29 0.99 2.09 0.99c0.9 0 1.69 -0.99 2.39 -0.99c0.7 0 1.29 -0.99 1.59 -1.99c0.3 -0.99 0.4 -1.99 0.4 -2.98l-0.13 -8.95h3.02l0 16.91zm6.96 0.03v-16.91h2.49v1.99c0.5 0 1.19 -0.99 2.09 -1.99c0.8 0 1.79 0 2.88 0c1.19 0 2.29 0 2.98 0c0.8 0.99 1.39 1.99 1.69 2.98c1.29 -1.99 2.98 -2.98 5.07 -2.98c1.69 0 2.88 0 3.78 0.99c0.9 0.99 1.39 1.99 1.39 3.98v11.93l-2.78 0l0 -10.94c0 -0.99 -0.1 -1.99 -0.3 -1.99c-0.2 -0.99 -0.5 -0.99 -0.99 -0.99c-0.5 -0.99 -0.99 -0.99 -1.69 -0.99c-1.19 0 -2.09 0.99 -2.88 0.99c-0.8 0.99 -1.19 1.99 -1.19 3.98l0 9.94h-2.78v-10.94c0 -0.99 -0.2 -1.99 -0.7 -2.98c-0.4 -0.99 -1.19 -0.99 -2.19 -0.99c-0.8 0 -1.49 0 -2.19 0.99C225 2018.52 224.5 2019.52 224.2 2020.51c-0.3 0 -0.4 1.99 -0.4 2.98v8.95zm37.79 -5.97l2.88 0.99c-0.4 0.99 -1.29 2.98 -2.49 3.98c-1.29 0.99 -2.78 0.99 -4.77 0.99c-2.39 0 -4.28 -0.99 -5.67 -2.46c-1.49 -1.52 -2.19 -3.51 -2.19 -5.5c0 -2.98 0.7 -4.97 2.19 -6.96c1.39 -1.99 3.28 -1.99 5.57 -1.99c2.19 0 3.98 0 5.37 1.99c1.39 0.99 2.09 3.98 2.09 5.97C261.79 2023.49 261.79 2024.49 261.79 2024.49h-12.33c0.1 1.99 0.6 2.98 1.59 3.98C251.95 2029.46 253.14 2030.46 254.44 2030.46c1.09 0 1.99 -0.99 2.69 -0.99c0.7 -0.99 1.29 -0.99 1.69 -2.98zm-9.15 -3.98h9.25c-0.2 -1.99 -0.5 -2.98 -1.09 -3.34c-0.89 -0.63 -2.09 -1.63 -3.48 -1.63c-1.29 0 -2.39 0 -3.28 0.99c-0.8 0.99 -1.29 1.99 -1.39 3.98zm15.61 9.94v-16.91h2.49L267.28 2017.53c1.67 -0.99 3.46 -1.99 5.75 -1.99c0.99 0 1.89 0 2.68 0c0.9 0.99 1.49 0.99 1.89 1.5c0.4 0.49 0.7 1.49 0.89 2.48c0.1 0 0.2 0.99 0.2 1.99v10.94h-2.88v-9.94c0 -1.99 -0.1 -1.99 -0.3 -2.98c-0.2 -0.99 -0.6 -0.99 -1.09 -0.99c-0.6 -0.99 -1.29 -0.99 -1.99 -0.99C271.24 2017.53 270.25 2018.52 269.35 2018.52c-0.89 0.99 -1.29 1.99 -1.29 4.97v8.95zm23.77 -2.98l0.4 2.98c-0.8 0 -1.49 0 -2.09 0c-0.99 0 -1.79 0 -2.39 -0.99c-0.5 0 -0.89 0 -1.19 -0.99c-0.2 0 -0.3 -1.99 -0.3 -2.98v-9.94h-2.09l0 -1.99h2.09L283.47 2011.56l2.58 -1.99l0.21 5.97h2.78v1.99h-2.78L286.26 2027.47c0 0.99 0 0.99 0.1 1.99c0.1 0 0.3 0 0.5 0c0.3 0 0.6 0 0.99 0C288.15 2029.46 288.54 2029.46 289.04 2029.46zm11.64 -16.91v-2.98l2.78 0v2.98zM300.68 2032.44L300.68 2015.54l2.78 0.14v16.28zm5.76 -4.97l2.78 -0.99c0.2 0.99 0.6 1.99 1.29 2.98c0.7 0 1.69 0.99 2.98 0.99c1.29 0 2.29 -0.99 2.88 -0.99c0.6 -0.99 0.89 -0.99 0.89 -1.99c0 -0.99 -0.3 -0.99 -0.64 -0.99c-0.55 -0.99 -1.45 -0.99 -3.04 -0.62c-1.99 -1.37 -3.48 -1.37 -4.28 -2.36c-0.8 0 -1.39 -0.99 -1.79 -0.99c-0.4 -0.99 -0.6 -1.99 -0.6 -2.98c0 0 0.2 -0.99 0.5 -1.99c0.3 0 0.8 -0.99 1.39 -0.99C309.33 2016.53 309.93 2015.54 310.72 2015.54c0.7 0 1.49 0 2.39 0C314.4 2015.54 315.59 2015.54 316.49 2015.54c0.99 0.99 1.79 0.99 2.19 1.99c0.5 0 0.8 0.99 0.99 1.99l-2.78 0.99c-0.1 -0.99 -0.4 -1.99 -0.99 -1.99c-0.6 -0.99 -1.49 -0.99 -2.59 -0.99c-1.29 0 -2.19 0 -2.68 0.99c-0.6 0 -0.9 0.99 -0.9 0.99c0 0.99 0.1 0.99 0.4 0.99c0.2 0 0.6 0.99 0.99 0.99c0.3 0 1.19 0 2.49 0.99c1.99 0 3.38 0.99 4.18 0.99c0.8 0 1.39 0.99 1.79 0.99c0.5 0.99 0.7 1.99 0.7 2.98c0 0.99 -0.3 1.99 -0.8 1.99c-0.6 0.99 -1.29 1.99 -2.39 1.99c-0.99 0.99 -2.19 0.99 -3.48 0.99c-2.09 0 -3.78 0 -4.87 -0.99c-1.09 -0.99 -1.89 -2.98 -2.19 -3.98zm25.86 10.94v-22.87h2.59v1.99c0.6 -0.99 1.29 -0.99 1.99 -1.99c0.8 0 1.69 0 2.78 0c1.39 0 2.68 0 3.78 0.99c0.99 0.99 1.89 1.99 2.39 2.98c0.6 0.99 0.8 2.98 0.8 3.98C346.72 2025.48 346.42 2026.48 345.82 2028.47c-0.6 0.99 -1.49 1.99 -2.59 2.98c-1.19 0.99 -2.39 0.99 -3.68 0.99c-0.89 0 -1.79 0 -2.49 -0.99c-0.8 0 -1.39 0 -1.89 -0.99v7.96zm2.59 -14.92c0 2.98 0.4 3.98 1.29 4.97c0.8 0.99 1.89 1.99 3.08 1.99c1.29 0 2.29 -0.99 3.49 -1.99c0.58 -0.99 1.08 -2.98 1.08 -4.97c0 -1.99 -0.5 -2.98 -1.29 -4.97c-0.89 -0.99 -1.89 -0.99 -3.18 -0.99c-1.19 0 -2.19 0 -3.08 1.99c-0.99 0.99 -1.39 1.99 -1.39 3.98zM350.1 2032.44L350.1 2015.54l2.49 0.17v2.81c0.7 -1.99 1.29 -1.99 1.79 -2.98c0.6 0 1.19 0 1.79 0c0.99 0 1.99 0 2.88 0.99l-0.89 1.99c-0.7 0 -1.39 0 -2.09 0c-0.6 0 -1.19 0 -1.69 0c-0.4 0.99 -0.8 0.99 -0.99 1.99c-0.3 0.99 -0.5 1.99 -0.5 2.98v8.95z"/><path fill="none" stroke="#18111B" d="M359.75 2023.49c0 -2.98 0.8 -4.97 2.59 -5.97c1.39 -1.99 3.08 -1.99 5.17 -1.99c2.19 0 4.08 0 5.57 1.99c1.39 0.99 2.09 2.98 2.09 5.97c0 1.99 -0.3 3.98 -0.89 4.97c-0.7 0.99 -1.59 1.99 -2.78 2.98C370.29 2032.44 368.9 2032.44 367.5 2032.44c-2.39 0 -4.18 -0.99 -5.67 -1.99c-1.39 -1.99 -2.09 -3.98 -2.09 -6.96zm2.88 0C362.63 2025.48 363.03 2027.47 364.02 2028.47c0.89 0.99 2.09 1.99 3.48 1.99c1.39 0 2.49 -0.99 3.48 -1.99c0.89 -0.99 1.29 -2.98 1.29 -5.45c0 -1.52 -0.4 -2.51 -1.39 -3.5c-0.89 -0.99 -1.99 -1.99 -3.38 -1.99c-1.39 0 -2.59 0.99 -3.48 1.99c-0.99 0.99 -1.39 1.99 -1.39 3.98zm26.55 8.95v-1.99c-0.99 0.99 -2.59 1.99 -4.57 1.99c-1.39 0 -2.59 0 -3.68 -0.99c-1.09 -0.99 -1.89 -1.99 -2.59 -2.98c-0.6 -0.99 -0.89 -2.98 -0.89 -4.97c0 -0.99 0.3 -2.98 0.89 -3.98c0.5 -0.99 1.29 -2.98 2.39 -2.73c1.09 -1.25 2.39 -1.25 3.68 -1.25c0.99 0 1.89 0 2.68 0c0.8 0.99 1.39 0.99 1.89 1.99L388.98 2009.57l2.78 0v22.87zm-8.85 -8.95c0 2.98 0.5 3.98 1.39 4.97C382.62 2029.46 383.61 2030.46 384.81 2030.46c1.29 0 2.29 -0.99 3.18 -1.99c0.8 -0.99 1.29 -1.99 1.29 -3.98c0 -2.98 -0.5 -3.98 -1.39 -4.97c-0.8 -0.99 -1.89 -1.99 -3.18 -1.99c-1.19 0 -2.29 0.99 -3.08 1.99c-0.89 0.99 -1.29 1.99 -1.29 3.98zm26.65 8.95v-2.98c-1.29 1.99 -2.98 2.98 -5.17 2.98c-0.99 0 -1.89 0 -2.78 -0.99c-0.8 0 -1.49 0 -1.89 -0.99c-0.4 -0.99 -0.7 -0.99 -0.8 -1.99c-0.1 -0.99 -0.2 -0.99 -0.2 -2.98v-9.94h2.78l0 8.95c0 1.99 0.1 2.98 0.2 2.98c0.2 0.99 0.5 1.99 1.09 1.99c0.6 0 1.29 0.99 2.09 0.99c0.89 0 1.69 -0.99 2.39 -0.99c0.7 0 1.29 -0.99 1.59 -1.99c0.3 -0.99 0.4 -1.99 -0.04 -2.98l0.44 -8.95h2.88L409.57 2032.44zm17.7 -5.97h2.78C427.17 2028.47 426.38 2029.46 425.08 2030.46c-1.19 0.99 -2.68 1.99 -4.48 1.99c-2.29 0 -4.08 -0.99 -5.47 -1.99c-1.39 -1.99 -2.09 -3.98 -2.09 -6.96c0 -0.99 0.3 -2.98 0.89 -3.98c0.6 -1.99 1.49 -2.98 2.68 -2.98c1.19 -0.99 2.49 -0.99 3.98 -0.99c1.79 0 3.28 0 4.38 0.99C426.08 2017.53 426.87 2018.52 427.17 2020.51h-2.68c-0.3 -0.99 -0.8 -1.99 -1.39 -1.99c-0.7 -0.99 -1.49 -0.99 -2.39 -0.99C419.31 2017.53 418.12 2018.52 417.23 2019.52c-0.89 0.99 -1.29 1.99 -1.29 3.98c0 2.98 0.4 3.98 1.29 4.97c0.8 0.99 1.99 1.99 3.28 1.99C421.6 2030.46 422.6 2029.46 423.29 2029.46c0.7 -0.99 1.19 -1.99 1.39 -2.98zM441.09 2026.48l2.88 0.99c-0.4 0.99 -1.29 2.98 -2.49 3.98c-1.19 0.99 -2.78 0.99 -4.77 0.99c-2.39 0 -4.28 -0.99 -5.67 -1.99c-1.49 -1.99 -2.19 -3.98 -2.19 -5.97c0 -2.98 0.8 -4.97 2.19 -6.96c1.39 -1.99 3.28 -1.99 5.57 -1.99c2.19 0 3.98 0 5.37 1.99c1.39 0.99 2.09 3.98 2.09 5.97c0 0 0 0.99 0 0.99h-12.33c0.1 1.99 0.7 2.98 1.59 3.98c0.89 0.99 2.09 1.99 3.48 1.99c0.99 0 1.89 -0.99 2.59 -0.99c0.7 -0.99 1.29 -0.99 1.69 -2.98zm-9.15 -3.98h9.25c-0.2 -1.99 -0.5 -2.98 -1.09 -2.98c-0.89 -0.99 -2.09 -1.99 -3.48 -1.99C435.33 2017.53 434.23 2017.53 433.44 2018.52c-0.89 0.99 -1.39 1.99 -1.49 3.98zm26.35 9.94v-1.99c-1.09 0.99 -2.59 1.99 -4.67 1.99c-1.29 0 -2.49 0 -3.58 -0.99c-1.09 -0.99 -1.99 -1.99 -2.59 -2.98c-0.6 -0.99 -0.89 -2.98 -0.89 -4.97c0 -0.99 0.2 -2.98 0.8 -3.98c0.5 -0.99 1.39 -2.98 2.49 -2.98c1.09 -0.99 2.29 -0.99 3.68 -0.99c0.99 0 1.89 0 2.68 0C456.9 2016.53 457.6 2016.53 458.1 2017.53v-7.96h2.78l0 22.87zm-8.85 -8.95c0 2.98 0.4 3.98 1.29 4.97c0.89 0.99 1.99 1.99 3.31 1.99c1.06 0 2.06 -0.99 2.95 -1.99c0.89 -0.99 1.29 -1.99 1.29 -3.98c0 -2.98 -0.4 -3.98 -1.29 -4.97c-0.89 -0.99 -1.99 -1.99 -3.18 -1.99c-1.29 0 -2.29 0.99 -3.18 1.99c-0.8 0.99 -1.19 1.99 -1.19 3.98zm27.25 8.95h-2.59v-22.87h2.78v7.96c1.19 -1.99 2.68 -1.99 4.48 -1.99c0.99 0 1.99 0 2.88 0c0.89 0.99 1.69 0.99 2.29 1.99c0.6 0.99 0.99 1.99 1.29 2.98c0.4 0.99 0.5 1.99 0.5 2.98c0 2.98 -0.7 4.97 -2.09 6.96c-1.39 0.99 -3.08 1.99 -4.97 1.99c-1.99 0 -3.48 -0.99 -4.57 -1.99zm-0.1 -8.95C476.59 2025.48 476.89 2027.47 477.39 2028.47C478.29 2029.46 479.48 2030.46 480.97 2030.46c1.29 0 2.29 -0.99 3.18 -1.99c0.89 -0.99 1.39 -2.98 1.39 -4.97c0 -1.99 -0.5 -2.98 -1.29 -3.98c-0.89 -0.99 -1.89 -1.99 -3.08 -1.99c-1.29 0 -2.29 0.99 -3.18 1.99c-0.89 0.99 -1.39 1.99 -1.39 3.98zm15.12 14.92l-0.4 -2.98c0.7 0.99 1.19 0.99 1.69 0.99c0.6 0 1.09 0 1.49 -0.99c0.3 0 0.6 0 0.89 -0.99c0.2 0 0.4 -0.99 0.8 -1.99c0.1 0 0.2 0 0.3 0L490.22 2015.54h2.98l3.48 9.94c0.4 0.99 0.8 1.99 1.19 3.98c0.3 -1.99 0.7 -2.98 1.09 -3.98l3.58 -9.94L505.33 2015.54l-6.27 16.91c-0.7 1.99 -1.19 2.98 -1.59 3.98c-0.5 0.99 -1.09 0.99 -1.69 1.99c-0.7 0 -1.39 0 -2.29 0c-0.6 0 -1.19 0 -1.88 0zm25.46 -5.97L517.17 2017.53h-2.49L514.68 2015.54h2.49v-1.99c0 -0.99 0.1 -1.99 0.36 -1.99C517.77 2010.57 518.26 2009.57 518.96 2009.57c0.6 0 1.59 -0.99 2.78 -0.99C522.54 2008.58 523.43 2008.58 524.43 2009.57l-0.39 1.99c-0.71 0 -1.2 0 -1.7 0c-0.9 0 -1.49 0 -1.79 0c-0.4 0.99 -0.6 1.99 -0.6 2.98v0.99h3.28v1.99h-3.28v14.92zm8.15 0v-16.91h2.49v2.98c0.7 -1.99 1.29 -1.99 1.79 -2.98c0.6 0 1.19 0 1.79 0c0.99 0 1.89 0 2.88 0.99L533.38 2018.52c-0.7 0 -1.39 0 -2.09 0c-0.6 0 -1.19 0 -1.69 0c-0.5 0.99 -0.8 0.99 -0.99 1.99c-0.3 0.99 -0.5 1.99 -0.5 2.98l0 8.95z"/><path fill="none" stroke="#18111B" d="M547.3 2026.48l2.88 0.99c-0.5 0.99 -1.29 2.98 -2.59 3.98c-1.19 0.99 -2.78 0.99 -4.67 0.99c-2.39 0 -4.38 -0.99 -5.77 -1.99c-1.39 -1.99 -2.09 -3.98 -2.09 -5.97c0 -2.98 0.7 -4.97 2.09 -6.96c1.49 -1.99 3.28 -1.99 5.57 -1.99c2.29 0 4.08 0 5.47 1.99c1.39 0.99 2.09 3.98 2.09 5.97c0 0 0 0.99 0 0.99l-12.33 0c0.1 1.99 0.6 2.98 1.49 3.98c0.99 0.99 2.09 1.99 3.48 1.99C543.92 2030.46 544.81 2029.46 545.51 2029.46c0.8 -0.99 1.39 -0.99 1.79 -2.98zm-9.25 -3.98h9.25c-0.1 -1.99 -0.5 -2.98 -0.99 -2.98c-0.9 -0.99 -2.09 -1.99 -3.48 -1.99c-1.29 0 -2.39 0 -3.28 0.99c-0.9 0.99 -1.39 1.99 -1.49 3.98zm26.95 3.98l2.88 0.99c-0.5 0.99 -1.29 2.98 -2.49 3.98c-1.29 0.99 -2.88 0.99 -4.77 0.99c-2.39 0 -4.28 -0.99 -5.77 -1.99c-1.39 -1.99 -2.09 -3.98 -2.09 -5.97c0 -2.98 0.7 -4.97 2.19 -6.96c1.39 -1.99 3.28 -1.99 5.47 -1.99c2.29 0 4.08 0 5.47 1.99c1.39 0.99 2.09 3.98 2.09 5.97c0 0 0 0.99 0 0.99l-12.33 -0.25c0.1 2.24 0.6 3.24 1.59 4.23c0.9 0.99 1.99 1.99 3.38 1.99c0.99 0 1.89 -0.99 2.69 -0.99c0.7 -0.99 1.29 -0.99 1.69 -2.98zm-9.15 -3.98h9.15C564.9 2020.51 564.5 2019.52 564.01 2019.52c-0.89 -0.99 -2.09 -1.99 -3.48 -1.99c-1.29 0 -2.39 0 -3.28 0.99c-0.9 0.99 -1.29 1.99 -1.39 3.98zm28.94 9.94l-6.27 -16.91h2.98l3.93 9.94c-0.05 0.99 0.35 1.99 0.65 2.98c0.3 -0.99 0.6 -1.99 1.09 -2.98l3.58 -9.94h2.88l-6.17 16.91zm22.67 -5.97l2.88 0.99c-0.5 0.99 -1.29 2.98 -2.59 3.98c-1.19 0.99 -2.78 0.99 -4.67 0.99c-2.39 0 -4.38 -0.99 -5.77 -1.99C595.93 2028.47 595.23 2026.48 595.23 2024.49c0 -2.98 0.7 -4.97 2.09 -6.96c1.49 -1.99 3.28 -1.99 5.57 -1.99c2.29 0 4.08 0 5.47 1.99C609.75 2018.52 610.45 2021.51 610.45 2023.49c0 0 0 0.99 0 0.99h-12.33c0.1 1.99 0.6 2.98 1.49 3.98c0.99 0.99 2.09 1.99 3.48 1.99c0.99 0 1.89 -0.99 2.59 -0.99c0.8 -0.99 1.39 -0.99 1.79 -2.98zm-9.25 -3.98l9.25 0c-0.1 -1.99 -0.5 -2.98 -0.99 -2.98C605.57 2018.52 604.38 2017.53 602.99 2017.53c-1.29 0 -2.39 0 -3.28 0.99c-0.9 0.99 -1.39 1.99 -1.49 3.98zm15.61 9.94v-16.91h2.49v2.98c0.7 -1.99 1.29 -1.99 1.79 -2.98c0.6 0 1.19 0 1.79 0c0.99 0 1.89 0 2.88 0.99l-0.9 1.94c-0.7 0.05 -1.39 0.05 -2.09 0.05c-0.6 0 -1.19 0 -1.69 0c-0.5 0.99 -0.8 0.99 -0.99 1.99C616.81 2021.51 616.61 2022.5 616.61 2023.49l0 8.95zm9.55 -4.97l2.78 -0.99c0.1 0.99 0.6 1.99 1.29 2.98c0.7 0 1.69 0.99 2.98 0.99c1.29 0 2.19 -0.99 2.88 -0.99c0.6 -0.99 0.9 -0.99 0.9 -1.99c0 -0.99 -0.3 -0.99 -0.8 -0.99c-0.4 -0.99 -1.39 -0.99 -2.88 -0.99c-2.09 -0.99 -3.48 -0.99 -4.28 -1.99c-0.8 0 -1.39 -0.99 -1.79 -0.99c-0.4 -0.99 -0.6 -1.99 -0.6 -2.98c0 0 0.1 -0.99 0.5 -1.99c0.3 0 0.8 -0.99 1.39 -0.99c0.4 0 0.99 -0.99 1.69 -0.99c0.8 0 1.59 0 2.49 0C631.23 2015.54 632.33 2015.54 633.32 2015.54c0.99 0.99 1.69 0.99 2.19 1.99c0.5 0 0.8 0.99 0.99 1.99l-2.78 0.99c-0.1 -0.99 -0.5 -1.99 -1.09 -1.99c-0.6 -0.99 -1.39 -0.99 -2.49 -0.99c-1.29 0 -2.19 0 -2.78 0.99c-0.5 0 -0.8 0.99 -0.8 0.99c0 0.99 0.1 0.99 0.3 0.99c0.3 0 0.6 0.99 1.09 0.99c0.3 0 1.09 0 2.49 0.99c1.99 0 3.38 0.99 4.18 0.99c0.7 0 1.39 0.99 1.79 0.99c0.5 0.99 0.7 1.99 0.7 2.98c0 0.99 -0.3 1.99 -0.8 1.99C635.71 2030.46 634.91 2031.45 633.92 2031.45c-0.99 0.99 -2.19 0.99 -3.48 0.99c-2.19 0 -3.78 0 -4.87 -0.99c-1.19 -0.99 -1.89 -2.98 -2.19 -3.98zm17.01 -14.92v-2.98L643.26 2009.57v2.98z"/><path fill="none" stroke="#18111B" d="M640.38 2032.44v-16.91h2.88v16.91zm6.07 -8.95c0 -2.98 0.9 -4.97 2.33 -5.97c1.65 -1.99 3.34 -1.99 5.43 -1.99c2.29 0 4.08 0 5.57 1.99c1.39 0.99 2.09 2.98 2.09 5.97c0 1.99 -0.3 3.98 -0.9 4.97c-0.7 0.99 -1.59 1.99 -2.78 2.98c-1.19 0.99 -2.59 0.99 -3.98 0.99c-2.29 0 -4.18 -0.99 -5.67 -1.99c-1.39 -1.99 -2.09 -3.98 -2.09 -6.96zm2.88 0c0 1.99 0.5 3.98 1.39 4.97c0.9 0.99 2.09 1.99 3.48 1.99C655.6 2030.46 656.69 2029.46 657.68 2028.47c0.9 -0.99 1.39 -2.98 1.39 -4.97c0 -1.99 -0.5 -2.98 -1.39 -3.98c-0.99 -0.99 -2.09 -1.99 -3.48 -1.99c-1.39 0 -2.59 0.99 -3.48 1.99c-0.9 0.99 -1.39 1.99 -1.39 3.98zm15.91 8.95l0 -16.91h2.49v1.99c1.19 -0.99 2.98 -1.99 5.27 -1.99c0.99 0 1.89 0 2.68 0C676.58 2016.53 677.18 2016.53 677.57 2017.53c0.4 0 0.7 0.99 0.9 1.99c0.1 0 0.1 0.99 0.1 1.99v10.94h-2.78v-9.94c0 -1.99 -0.1 -1.99 -0.3 -2.98c-0.2 -0.99 -0.6 -0.99 -1.19 -0.99c-0.5 -0.99 -1.19 -0.99 -1.89 -0.99c-1.19 0 -2.29 0.99 -3.08 0.99c-0.9 0.99 -1.29 1.99 -1.29 4.97v8.95zm25.46 -8.95c0 -2.98 0.9 -4.97 2.59 -5.97c1.39 -1.99 3.08 -1.99 5.17 -1.99c2.29 0 4.08 0 5.57 1.99c1.39 0.99 2.09 2.98 1.77 5.97C706.11 2025.48 705.82 2027.47 705.22 2028.47c-0.7 0.99 -1.59 1.99 -2.78 2.98c-1.19 0.99 -2.59 0.99 -3.98 0.99c-2.29 0 -4.18 -0.99 -5.67 -1.99C691.4 2028.47 690.7 2026.48 690.7 2023.49zm2.88 0c0 1.99 0.5 3.98 1.39 4.97c0.9 0.99 2.09 1.99 3.48 1.99c1.39 0 2.49 -0.99 3.48 -1.99c0.9 -0.99 1.39 -2.98 1.39 -4.97C703.33 2021.51 702.83 2020.51 701.94 2019.52c-0.99 -0.99 -2.09 -1.99 -3.48 -1.99c-1.39 0 -2.59 0.99 -3.48 1.99c-0.9 0.99 -1.39 1.99 -1.39 3.98zm16.51 8.95v-14.92h-2.49v-1.99h2.49v-1.99c0 -0.99 0.1 -1.99 0.3 -1.99c0.3 -0.99 0.8 -1.99 1.49 -1.99c0.6 0 1.59 -0.99 2.78 -0.99C715.46 2008.58 716.36 2008.58 717.35 2009.57l-0.5 1.99c-0.6 0 -1.09 0 -1.59 0c-0.9 0 -1.49 0 -1.79 0c-0.4 0.99 -0.6 1.99 -0.6 2.98L712.88 2015.54h3.28v1.99h-3.28v14.92zm17.4 0v-22.87l8.55 0c1.49 0 2.68 0 3.48 0c1.09 0 2.09 0.99 2.78 0.99c0.8 0.99 1.39 0.99 1.89 1.99c0.4 0.99 0.7 1.99 0.7 2.98c0 1.99 -0.7 3.98 -1.89 4.97c-1.19 1.99 -3.48 1.99 -6.66 1.99h-5.87v9.94z"/><path fill="none" stroke="#18111B" d="M730.48 2020.51h5.87c1.99 0 3.38 -0.99 4.18 -0.99c0.8 -0.99 1.19 -1.99 1.19 -3.98c0 0 -0.2 -0.99 -0.7 -1.99c-0.5 -0.99 -1.09 -0.99 -1.89 -0.99c-0.5 0 -1.49 -0.99 -2.78 -0.99h-5.87zm17.9 11.93v-16.91h2.49v2.98c0.6 -1.99 1.19 -1.99 1.79 -2.98c0.5 0 1.09 0 1.79 0c0.9 0 1.89 0 2.88 0.99l-0.99 1.99c-0.7 0 -1.39 0 -2.09 0c-0.6 0 -1.09 0 -1.59 0c-0.5 0.99 -0.9 0.99 -1.09 1.99c-0.3 0.99 -0.4 1.99 -0.4 2.98v9zm10.64 -19.89v-2.98h2.78v2.98zM759.1 2032.14l-0.08 -16.61l2.78 0L761.8 2032.44zm7.06 0l-0.25 -16.91h2.73v1.99c1.19 -0.99 2.98 -1.99 5.27 -1.99c0.99 0 1.89 0 2.78 0c0.8 0.99 1.39 0.99 1.89 1.99c0.4 0 0.7 0.99 0.8 1.99C779.4 2019.52 779.5 2020.51 779.5 2021.51v10.94l-2.78 0v-9.94C776.72 2020.51 776.62 2020.51 776.32 2019.52c-0.2 -0.99 -0.6 -0.99 -1.09 -0.99c-0.6 -0.99 -1.19 -0.99 -1.99 -0.99c-1.19 0 -2.19 0.99 -3.08 0.99c-0.9 0.99 -1.29 1.99 -1.29 4.97v8.95zm23.87 -2.98l0.4 2.98c-0.8 0 -1.49 0 -2.19 0c-0.99 0 -1.79 0 -2.29 -0.99c-0.6 0 -0.99 0 -1.19 -0.99c-0.3 0 -0.4 -1.99 -0.4 -2.98L784.28 2017.53h-1.99v-1.99h1.99v-3.98l2.78 -1.99v5.97h2.88v1.99h-2.88v9.94c0 0.99 0.1 0.99 0.2 1.99c0.1 0 0.2 0 0.5 0c0.2 0 0.5 0 0.9 0c0.3 0 0.7 0 1.29 0zm16.61 0v2.98h-15.12c0 -0.99 0.1 -1.99 0.4 -1.99c0.4 -0.99 0.99 -1.99 1.79 -2.98c0.9 -0.99 2.09 -1.99 3.68 -3.98C799.79 2021.51 801.48 2020.51 802.38 2018.52c0.8 -0.99 1.29 -1.99 1.29 -2.98c0 -0.99 -0.4 -1.99 -1.19 -2.98c-0.8 -0.99 -1.89 -0.99 -2.59 -0.99C798 2011.56 796.91 2011.56 796.11 2012.55c-0.8 0.99 -1.19 1.99 -1.19 3.98l-2.88 -0.99C792.23 2013.55 792.93 2011.56 794.22 2010.57c1.29 -0.99 2.98 -0.99 5.17 -0.99c2.19 0 3.88 0 5.17 0.99c1.29 1.99 1.99 2.98 1.99 4.97c0 0.99 -0.2 1.99 -0.6 2.98c-0.4 0.99 -0.99 1.99 -1.89 2.98c-0.8 0 -2.29 1.99 -4.28 3.98c-1.69 0.99 -2.78 1.99 -3.28 1.99c-0.4 0.99 -0.8 0.99 -1.09 1.99zm4.28 2.98l0.14 -22.87h15.27v1.99l-12.43 0v7.96L824.55 2019.52v1.99h-10.74l0 10.94zM829.72 2032.44v-22.87h2.78v22.87zm17.9 -1.99c-0.99 0 -1.99 0.99 -2.98 0.99c-0.99 0.99 -1.99 0.99 -3.08 1.01c-1.79 -0.01 -3.18 -0.01 -4.18 -1.01c-0.99 -0.99 -1.49 -1.99 -1.49 -3.98C835.89 2026.48 836.09 2026.48 836.49 2025.48c0.4 -0.99 0.8 -0.99 1.39 -1.99c0.6 0 1.29 0 2.09 0c0.5 -0.99 1.29 -0.99 2.49 -0.99c2.19 0 3.88 0 4.97 -0.99c0 0 0 -0.99 0 -0.99c0 -0.99 -0.3 -1.99 -0.8 -1.99c-0.7 -0.99 -1.79 -0.99 -3.18 -0.99c-1.29 0 -2.29 0 -2.88 0.99c-0.7 0 -1.09 0.99 -1.39 1.99h-2.78c0.3 -0.99 0.7 -1.99 1.29 -2.98c0.5 -0.99 1.39 -0.99 2.39 -1.99c1.09 0 2.39 0 3.78 0c1.39 0 2.59 0 3.48 0c0.8 0.99 1.49 0.99 1.89 0.99c0.4 0.99 0.7 1.99 0.9 1.99c0.1 0.99 0.1 1.99 0.1 2.98l0 3.98c0 1.99 0.1 3.98 0.2 4.97c0.1 0 0.4 0.99 0.7 1.99L848.22 2032.44C847.92 2031.45 847.72 2030.46 847.62 2030.46zm-0.2 -6.96C846.43 2024.49 844.84 2024.49 842.85 2024.49c-1.19 0.99 -1.99 0.99 -2.49 0.99c-0.4 0 -0.8 0 -1.09 0.99C839.07 2026.48 838.87 2027.47 838.87 2027.47c0 0.99 0.3 1.99 0.9 1.99c0.6 0.99 1.39 0.99 2.49 0.99c1.09 0 1.99 0 2.88 -0.92c0.8 -0.07 1.39 -1.07 1.79 -2.06c0.3 0 0.5 -0.99 0.5 -2.98zm6.07 3.98l2.78 -0.99c0.1 0.99 0.5 1.99 1.29 2.98c0.7 0 1.69 0.99 2.98 0.99c1.19 0 2.19 -0.99 2.78 -0.99C863.93 2028.47 864.33 2028.47 864.33 2027.47c0 -0.99 -0.3 -0.99 -0.9 -0.99c-0.4 -0.99 -1.29 -0.99 -2.78 -0.99c-2.09 -0.99 -3.48 -0.99 -4.28 -1.99C855.58 2023.49 854.98 2022.5 854.58 2022.5c-0.5 -0.99 -0.7 -1.99 -0.7 -2.98c0 0 0.2 -0.99 0.5 -1.99c0.4 0 0.8 -0.99 1.39 -0.99c0.5 0 1.09 -0.99 1.79 -0.99c0.8 0 1.59 0 2.49 0C861.35 2015.54 862.44 2015.54 863.44 2015.54c0.99 0.99 1.69 0.99 2.19 1.99C866.02 2017.53 866.42 2018.52 866.52 2019.52l-2.68 0.99c-0.1 -0.99 -0.5 -1.99 -1.09 -1.99c-0.6 -0.99 -1.49 -0.99 -2.49 -0.99c-1.29 0 -2.29 0 -2.78 0.99c-0.6 0 -0.8 0.99 -0.8 0.99c0 0.99 0.1 0.99 0.3 0.99c0.2 0 0.6 0.99 1.09 0.99c0.3 0 1.09 0 2.49 0.99C862.54 2022.5 863.83 2023.49 864.63 2023.49C865.42 2023.49 866.02 2024.49 866.52 2024.49c0.4 0.99 0.7 1.99 0.7 2.98c0 0.99 -0.3 1.99 -1.25 1.99c-0.15 0.99 -0.94 1.99 -1.94 1.99c-1.09 0.99 -2.19 0.99 -3.48 0.99c-2.19 0 -3.78 0 -4.97 -0.99c-1.09 -0.99 -1.79 -2.98 -2.09 -3.98zm17.01 4.97v-22.87h2.78v7.96c1.29 -1.99 2.98 -1.99 4.97 -1.99c1.19 0 2.29 0 3.18 0c0.9 0.99 1.49 1.99 1.89 1.99c0.4 0.99 0.6 2.98 0.6 3.98v10.94h-2.78L881.14 2021.51c0 -0.99 -0.3 -1.99 -0.9 -2.98C879.64 2017.53 878.75 2017.53 877.66 2017.53c-0.8 0 -1.59 0 -2.39 0.99C874.57 2018.52 874.08 2019.52 873.78 2020.51c-0.3 0 -0.5 0.99 -0.5 2.98v8.95zm18.5 0v-3.98h3.18v3.98zm24.19 0l-8.85 -22.87h3.28l5.87 15.91c0.5 1.99 0.9 2.98 1.19 3.98c0.4 -0.99 0.8 -1.99 1.29 -3.98L921.71 2009.57h2.98l-8.85 22.87zm14.42 -19.89l0 -2.98h2.78v2.98zm0 19.89v-16.91h2.78l0 16.91zm5.87 -4.97l2.78 -0.99c0.2 0.99 0.6 1.99 1.29 2.98c0.7 0 1.69 0.99 2.98 0.99c1.29 0 2.29 -0.99 2.88 -0.99c0.6 -0.99 0.9 -0.99 0.9 -1.99c0 -0.99 -0.3 -0.99 -0.8 -0.99c-0.4 -0.99 -1.29 -0.99 -2.88 -0.99c-1.99 -0.99 -3.48 -0.99 -4.28 -1.99c-0.8 0 -1.39 -0.99 -1.79 -0.99c-0.4 -0.99 -0.6 -1.99 -0.6 -2.98c0 0 0.2 -0.99 0.5 -1.99c0.3 0 0.8 -0.99 1.39 -0.99c0.4 0 0.99 -0.99 1.79 -0.99c0.7 0 1.49 0 2.39 0c1.29 0 2.49 0 3.38 0c0.99 0.99 1.79 0.99 2.19 1.99c0.5 0 0.8 0.99 0.99 1.99l-2.78 0.99c-0.1 -0.99 -0.4 -1.99 -0.99 -1.99c-0.6 -0.99 -1.49 -0.99 -2.59 -0.99c-1.29 0 -2.19 0 -2.68 0.99C936.53 2018.52 936.23 2019.52 936.23 2019.52c0 0.99 0.1 0.99 0.4 0.99C936.83 2020.51 937.22 2021.51 937.62 2021.51c0.3 0 1.19 0 2.49 0.99c1.99 0 3.38 0.99 4.18 0.99c0.8 0 1.39 0.99 1.79 0.99c0.5 0.99 0.7 1.99 0.7 2.98c0 0.99 -0.3 1.99 -0.49 1.99c-0.9 0.99 -1.59 1.99 -2.69 1.99c-0.99 0.99 -2.19 0.99 -3.48 0.99c-2.09 0 -3.78 0 -4.87 -0.99c-1.09 -0.99 -1.89 -2.98 -2.19 -3.98zm17.1 -14.92v-2.92L952.94 2009.57v2.98zm0 19.89v-16.91h2.78L952.94 2032.44zM963.28 2029.46l0.4 2.98c-0.8 0 -1.49 0 -2.09 0c-0.99 0 -1.79 0 -2.39 -0.99c-0.5 0 -0.9 0 -1.19 -0.99c-0.2 0 -0.3 -1.99 -0.3 -2.98v-9.94h-2.09v-1.99h2.15l-0.06 -3.98l2.78 -1.99v5.97l2.78 0l0 1.99h-2.78v9.94C960.49 2028.47 960.49 2028.47 960.59 2029.46c0.1 0 0.3 0 0.5 0c0.3 0 0.6 0 0.99 0c0.3 0 0.7 0 1.19 0zm14.62 2.98l-5.07 -16.91h2.88l2.68 9.94l0.99 2.98c0 0 0.3 -0.99 0.8 -2.98l2.68 -9.94h2.78l2.49 9.94l0.9 2.98l0.9 -2.98l2.88 -9.94h2.68l-5.17 16.91h-2.88l-2.68 -9.94l-0.6 -2.98l-3.38 12.93zm22.97 0l-5.07 -16.91L998.78 2015.54l2.59 9.94L1002.36 2028.47c0 0 0.3 -0.99 0.8 -2.98l2.68 -9.94h2.88L1011.21 2025.48L1012.01 2028.47l0.9 -2.98l2.88 -9.94l2.68 -0.38l-5.17 17.28h-2.88l-2.59 -9.94l-0.7 -2.98l-3.28 12.93zm22.97 -0.25l-4.97 -16.91l2.88 0l2.59 9.94l0.99 2.98c0 0 0.3 -0.99 0.9 -2.98l2.59 -9.94l2.88 0.44l2.49 9.51l0.8 2.98l0.99 -2.98l2.78 -9.94L1041.78 2015.54l-5.51 16.91L1033.39 2032.44l-2.82 -9.94l-0.46 -2.98L1026.82 2032.44zm20.78 0v-3.98L1047.81 2028.47v3.98zm8.06 5.97l0 -22.87h2.49v2.11c0.7 -1.11 1.29 -1.11 2.09 -2.11c0.8 0 1.69 0 2.78 0c1.39 0 2.59 0 3.68 0.99c1.09 0.99 1.89 1.99 2.49 2.98c0.5 0.99 0.8 2.98 0.8 3.98c0 1.99 -0.3 2.98 -0.9 4.97c-0.6 0.99 -1.49 1.99 -2.69 2.98c-1.09 0.99 -2.39 0.99 -3.58 0.99c-0.99 0 -1.79 0 -2.59 -0.99c-0.7 0 -1.29 0 -1.79 -0.99L1055.46 2038.41zm2.49 -14.92c0 2.98 0.5 3.98 1.69 4.97c0.49 0.99 1.49 1.99 2.78 1.99c1.19 0 2.29 -0.99 3.18 -1.99c0.9 -0.99 1.29 -2.98 1.29 -4.97c0 -1.99 -0.4 -2.98 -1.29 -4.97c-0.9 -0.99 -1.89 -0.99 -3.08 -0.99c-1.19 0 -2.29 0 -3.18 1.99c-0.9 0.99 -1.39 1.99 -1.39 3.98zm15.22 8.95v-16.91l2.49 0l0 2.98c0.6 -1.99 1.19 -1.99 1.79 -2.98c0.5 0 1.09 0 1.39 0c0.99 0 1.99 0 2.98 0.99l-0.99 1.99c0 0 -0.99 0 -1.99 0c-0.4 0 -0.9 0 -1.39 0c-0.5 0.99 -0.8 0.99 -1.09 1.99c-0.3 0.99 -0.4 1.99 -0.4 2.98v8.95zm10.64 -20.33v-2.98h2.98v2.98zm0 19.89v-16.91h2.98L1084 2032.44zm6.96 0v-16.91h2.98l0 1.99c0.99 -0.99 2.98 -1.99 4.97 -1.99c0.99 0 1.99 0 2.98 0c0.99 0.99 0.99 0.99 1.99 1.99c0 0 0 0.99 0 1.99c0.99 0 0.99 0.99 0.99 1.99L1101.9 2032.44L1098.92 2032.44v-9.94c0 -1.99 0 -1.99 -0.99 -2.98C1097.93 2018.52 1097.93 2018.52 1096.93 2018.52c0 -0.99 -0.99 -0.99 -1.99 -0.99c-0.99 0 -1.99 0.99 -2.98 0.99c-0.99 0.99 -0.99 1.99 -0.99 4.74v9.18zm23.87 -2.98v2.98c0 0 -0.99 0 -1.99 0c-0.99 0 -0.99 0 -1.99 -0.99c-0.99 0 -0.99 0 -0.99 -0.99c0 0 -0.99 -1.99 -0.99 -2.98L1105.88 2017.53l-1.99 0v-1.99h1.99v-3.98l2.98 -1.99v5.97h2.98v1.99h-2.98l0 9.94c0 0.99 0 0.99 0 1.99C1108.86 2029.46 1109.86 2029.46 1109.86 2029.46c0 0 0 0 0.99 0c0 0 0.99 0 0.99 0zm16.91 0v2.98h-14.92c0 -0.99 0 -1.99 0 -1.99c0 -0.99 0.99 -1.99 1.99 -2.98c0.99 -0.99 1.99 -1.99 3.98 -3.98c1.99 -1.99 3.98 -2.98 4.97 -4.97c0 -0.99 0.99 -1.99 0.99 -2.98c0 -0.99 -0.99 -1.99 -0.99 -2.98c-0.99 -0.99 -1.99 -0.99 -2.98 -0.99c-1.99 0 -2.98 0 -3.98 0.99c-0.99 0.99 -0.99 1.99 -0.99 3.98l-2.98 -0.99c0 -1.99 0.99 -3.98 1.99 -4.97c1.99 -0.99 2.98 -0.99 5.97 -0.99c1.99 0 3.98 0 4.97 0.99c0.99 1.99 1.99 2.98 1.99 4.97c0 0.99 0 1.99 -0.99 2.98c0 0.99 -0.99 1.99 -1.99 2.98C1124.78 2021.51 1123.78 2023.49 1121.79 2025.48c-1.99 0.99 -2.98 1.99 -2.98 1.99C1117.81 2028.47 1117.81 2028.47 1117.81 2029.46zm3.98 2.98v-14.92h-1.99L1130.74 2015.54h1.99v-1.99c0 -0.99 0 -1.99 0.99 -1.99c0 -0.99 0 -1.99 0.99 -2.07c0.99 0.08 1.99 -0.92 2.98 -0.92c0.99 0 1.99 0 2.98 0.99l-0.99 1.99c-0.99 0 -0.99 0 -1.99 0c0 0 -0.99 0 -0.99 0c-0.99 0.99 -0.99 1.99 -0.99 2.98v0.99h2.98L1138.7 2017.53l-2.98 0v14.92zm7.96 0v-22.87h2.98L1143.67 2032.44zm17.9 -1.99c-0.99 0 -1.99 0.99 -2.98 0.99c-0.99 0.99 -1.99 0.99 -2.98 0.99c-0.99 0 -2.98 0 -3.98 -0.99c-0.99 -0.99 -0.99 -1.99 -0.99 -3.98c0 -0.99 0 -0.99 0 -1.99c0.99 -0.99 0.99 -0.99 1.99 -1.99c0 0 0.99 0 1.99 0c0 -0.99 0.99 -0.99 1.99 -0.99c1.99 0 3.98 0 4.97 -0.99c0 0 0 -0.99 0 -0.99c0 -0.99 0 -1.99 -0.99 -1.99c0 -0.99 -0.99 -0.99 -2.98 -0.99c-0.99 0 -1.99 0 -2.98 0.62c0 0.37 -0.99 1.37 -0.99 2.36h-2.98C1147.65 2019.52 1148.64 2018.52 1148.64 2017.53c0.99 -0.99 1.99 -0.99 2.98 -1.99c0.99 0 1.99 0 3.98 0c0.99 0 1.99 0 2.98 0c0.99 0.99 1.99 0.99 1.99 0.99c0 0.99 0.99 1.99 0.99 1.99c0 0.99 0 1.99 0 2.98l0 3.98c0 1.99 0 3.98 0 4.97C1161.57 2030.46 1162.57 2031.45 1162.57 2032.44h-2.98c0 -0.99 0 -1.99 -0.99 -1.99zM1158.59 2023.49c-0.99 0.99 -1.99 0.99 -3.98 0.99c-1.99 0.99 -1.99 0.99 -2.98 0.99c0 0 -0.99 0 -0.99 0.99c0 0 0 0.99 0 0.99c0 0.99 0 1.99 0.99 1.99c0 0.99 0.99 0.99 1.99 0.99c0.99 0 1.99 0 2.98 -0.99c0.99 0 0.99 -0.99 1.99 -1.99c0 0 0 -0.99 0 -2.98zm5.97 3.98L1167.54 2026.48c0 0.99 0.99 1.99 0.99 2.98c0.99 0 1.99 0.99 2.98 0.99c1.99 0 2.98 -0.99 2.98 -0.99c0.99 -0.99 0.99 -0.99 0.99 -1.99c0 -0.99 0 -0.99 -0.99 -0.99c0 -0.99 -0.99 -0.99 -2.98 -0.99c-1.99 -0.99 -2.98 -0.99 -3.98 -1.99c-0.99 0 -0.99 -0.99 -1.99 -0.99c0 -0.99 0 -1.99 0 -2.98c0 0 0 -0.99 0 -1.99c0.99 0 0.99 -0.99 1.99 -0.99c0 0 0.99 -0.99 0.99 -0.99c0.99 0 1.99 0 2.98 0c0.99 0 1.99 0 2.98 -0.28c0.99 1.27 1.99 1.27 1.99 2.27c0.99 0 0.99 0.99 0.99 1.99l-1.99 0.99c0 -0.99 -0.99 -1.99 -0.99 -1.99c-0.99 -0.99 -1.99 -0.99 -2.98 -0.99c-0.99 0 -1.99 0 -2.98 0.99C1168.53 2018.52 1167.54 2019.52 1167.54 2019.52c0 0.99 0.99 0.99 0.99 0.99C1168.53 2020.51 1168.53 2021.51 1169.53 2021.51c0 0 0.99 0 1.99 0.99c1.99 0 3.98 0.99 4.97 0.99c0 0 0.99 0.99 0.99 0.99c0.99 0.99 0.99 1.99 0.99 2.98c0 0.99 0 1.99 -0.99 1.99c0 0.99 -0.99 1.99 -1.99 1.99C1174.5 2032.44 1173.5 2032.44 1171.52 2032.44c-1.99 0 -2.98 0 -4.97 -0.99c-0.99 -0.99 -0.99 -2.98 -1.99 -3.98zm16.91 4.97v-22.87h2.98v7.96c1.99 -1.99 2.98 -1.99 4.97 -1.99c0.99 0 1.99 0 2.98 0C1193.39 2016.53 1194.39 2017.53 1194.39 2017.53c0.99 0.99 0.99 2.98 0.99 3.98v10.94h-2.98v-10.94c0 -0.99 0 -1.99 -0.99 -2.98c0 -0.99 -0.99 -0.99 -1.99 -0.99c-0.99 0 -1.99 0 -2.98 0.99c0 0 -0.99 0.99 -0.99 1.99c-0.99 0 -0.99 0.99 -0.99 2.98v8.95zm18.89 0l0 -3.98h2.98v3.98zm18.89 -5.97h2.98c-0.99 1.99 -0.99 2.98 -2.98 3.98c-0.99 0.99 -1.99 1.99 -3.98 1.99c-1.99 0 -3.98 -0.99 -5.97 -1.99c-0.99 -1.99 -1.99 -3.98 -1.99 -6.96c0 -0.99 0.99 -2.98 0.99 -3.98C1209.3 2017.53 1210.3 2016.53 1211.29 2016.53c0.99 -0.99 1.99 -0.99 3.98 -0.99C1217.26 2015.54 1218.25 2015.54 1219.25 2016.53c0.99 0.99 1.99 1.99 1.99 3.98h-1.99C1218.25 2019.52 1218.25 2018.52 1217.26 2018.52C1217.26 2017.53 1216.27 2017.53 1215.27 2017.53c-0.99 0 -2.98 0.99 -3.98 1.99c0 0.99 -0.99 1.99 -0.99 3.98c0 2.98 0.99 3.98 0.99 4.97c0.99 0.99 1.99 1.99 4.24 1.99c0.73 0 1.73 -0.99 2.72 -0.99C1218.25 2028.47 1219.25 2027.47 1219.25 2026.48zm3.98 -2.98c0 -2.98 0.99 -4.97 2.98 -5.97c0.99 -1.99 2.98 -1.99 4.97 -1.99c1.99 0 3.98 0 4.97 1.99c1.99 0.99 2.98 2.98 2.98 5.97c0 1.99 -0.99 3.98 -0.99 4.97c-0.99 0.99 -1.99 1.99 -2.98 2.98C1234.17 2032.44 1232.18 2032.44 1231.18 2032.44c-1.99 0 -3.98 -0.99 -5.97 -1.99C1224.22 2028.47 1223.23 2026.48 1223.23 2023.49zM1226.21 2023.49c0 1.99 0 3.98 0.99 4.97c0.99 0.99 1.99 1.99 3.98 1.99C1232.18 2030.46 1233.17 2029.46 1234.17 2028.47c0.99 -0.99 1.99 -2.98 1.99 -4.97c0 -1.99 -0.99 -2.98 -1.99 -4.24c-0.99 -0.73 -1.99 -1.73 -2.98 -1.73c-1.99 0 -2.98 0.99 -3.98 1.99c-0.99 0.99 -0.99 1.99 -0.99 3.98zm15.91 8.95v-16.91h1.99v1.99c0.99 0 1.99 -0.99 2.98 -1.99c0 0 0.99 0 1.99 0c1.99 0 2.98 0 2.98 0C1253.06 2016.53 1254.05 2017.53 1254.05 2018.52c0.99 -1.99 2.98 -2.98 4.97 -2.98c1.99 0 2.98 0 3.98 0.99c0.99 0.99 0.99 1.99 0.99 3.98v11.93h-1.99l-0.42 -10.94c0.42 -0.99 0.42 -1.99 -0.57 -1.99c0 -0.99 0 -0.99 -0.99 -0.99c0 -0.99 -0.99 -0.99 -0.99 -0.99c-1.99 0 -1.99 0.99 -2.98 0.99c-0.99 0.99 -0.99 1.99 -0.99 3.98v9.94h-2.98v-10.94c0 -0.99 0 -1.99 -0.99 -2.98c0 -0.99 -0.99 -0.99 -1.99 -0.99c-0.99 0 -1.99 0 -1.99 0.99c-0.99 0 -1.99 0.99 -1.99 1.99c0 0 0 1.99 0 2.98v8.95zm35.8 0v-14.92h-1.99v-1.99h1.99v-1.99c0 -0.99 0 -1.99 0 -1.99c0.99 -0.99 0.99 -1.99 1.99 -1.99c0.99 0 1.99 -0.99 2.98 -0.99c0.99 0 0.99 0 1.99 0.99l0 1.99c-0.99 0 -0.99 0 -1.99 0c-0.99 0 -0.99 0 -1.99 0c0 0.99 0 1.99 0 2.98L1280.9 2015.54h2.98L1283.89 2017.53h-2.98L1280.9 2032.44zm6.96 -8.95c0 -2.98 0.99 -4.97 2.98 -5.97c0.99 -1.99 2.98 -1.99 4.97 -1.99c1.99 0 3.98 0 5.97 1.99c0.99 0.99 1.99 2.98 1.99 5.97c0 1.99 0 3.98 -0.99 4.97c-0.99 0.99 -1.99 1.99 -2.98 2.98c-0.99 0.99 -1.99 0.99 -3.98 0.99c-1.99 0 -3.98 -0.99 -5.97 -1.99c-0.99 -1.99 -1.99 -3.98 -1.99 -6.96zm2.98 0c0 1.99 0.99 3.98 1.99 4.97c0.99 0.99 1.99 1.99 2.98 1.99c0.99 0 2.98 -0.99 3.98 -1.99c0.99 -0.99 0.99 -2.98 0.99 -4.97c0 -1.99 0 -2.98 -0.99 -3.98c-0.99 -0.99 -2.98 -1.99 -3.98 -1.99c-0.99 0 -1.99 0.99 -2.98 1.99c-0.99 0.99 -1.99 1.99 -1.99 3.98zm15.91 8.95v-16.91L1306.76 2015.54v2.98c0 -1.99 0.99 -1.99 0.99 -2.98c0.99 0 1.99 0 1.99 0c0.99 0 1.99 0 2.98 0.99l-0.99 1.99c-0.99 0 -0.99 0 -1.99 0c0 0 -0.99 0 -1.99 0c0 0.99 0 0.99 -0.99 1.99c0 0.99 0 1.99 0 2.98v8.95zm19.89 0l0 -16.91h1.99v1.99c0.99 0 0.99 -0.99 1.99 -1.99c0.99 0 1.99 0 2.98 0c1.99 0 2.98 0 2.98 0c0.99 0.99 1.99 1.99 1.99 2.98C1336.59 2016.53 1338.58 2015.54 1340.57 2015.54c1.99 0 2.98 0 3.98 0.99c0.99 0.99 0.99 1.99 0.99 3.98v11.93h-2.98v-10.94c0 -0.99 0 -1.99 0 -1.99C1342.56 2018.52 1342.56 2018.52 1341.57 2018.52c0 -0.99 -0.99 -0.99 -1.99 -0.99c-0.99 0 -1.99 0.99 -1.99 0.99c-0.99 0.99 -1.99 1.99 -1.99 3.98l0 9.94h-1.99v-10.94c0 -0.99 -0.99 -1.99 -0.99 -2.98c-0.99 -0.99 -0.99 -0.99 -1.99 -0.99c-0.99 0 -1.99 0 -2.98 0.99c0 0 -0.99 0.99 -0.99 1.99c0 0 0 1.99 0 2.98v8.95zm24.86 -8.95c0 -2.98 0.99 -4.97 2.98 -5.97c0.99 -1.99 2.98 -1.99 4.97 -1.99c1.99 0 3.98 0 5.97 1.99C1363.44 2018.52 1364.44 2020.51 1364.44 2023.49c0 1.99 0 3.98 -0.99 4.97c-0.99 0.99 -1.99 1.99 -2.98 2.98c-0.99 0.99 -1.99 0.99 -3.98 0.99C1354.49 2032.44 1352.5 2031.45 1351.51 2030.46c-1.99 -1.99 -2.98 -3.98 -2.98 -6.96zm2.98 0c0 1.99 0.99 3.98 1.99 4.97c0.99 0.99 1.99 1.99 2.98 1.99C1358.47 2030.46 1359.47 2029.46 1360.46 2028.47c0.99 -0.99 0.99 -2.98 0.99 -4.97c0 -1.99 0 -2.98 -0.99 -3.98c-0.99 -0.99 -1.99 -1.99 -3.98 -1.99c-0.99 0 -1.99 0.99 -2.98 1.99C1352.5 2020.51 1351.51 2021.51 1351.51 2023.49zm15.91 8.95v-16.91h2.98v2.98c0 -1.99 0.99 -1.99 2.27 -2.98c-0.28 0 0.71 0 0.71 0c0.99 0 1.99 0 2.98 0.99l-0.99 1.99c0 0 -0.99 0 -1.99 0c0 0 -0.99 0 -0.99 0c-0.99 0.99 -0.99 0.99 -1.99 1.99C1370.41 2021.51 1370.41 2022.5 1370.41 2023.49l0.01 8.95zm21.88 -5.97l2.98 0.99c0 0.99 -0.99 2.98 -1.65 3.98c-2.33 0.99 -3.33 0.99 -5.31 0.99c-2.98 0 -3.98 -0.99 -5.97 -1.99c-0.99 -1.99 -1.99 -3.98 -1.99 -5.97c0 -2.98 0.99 -4.97 1.99 -6.96C1381.34 2015.54 1382.34 2015.54 1385.32 2015.54c1.99 0 3.98 0 4.97 1.99c1.99 0.99 1.99 3.98 1.99 5.97c0 0 0 0.99 0 0.99h-11.93c0 1.99 0.99 2.98 0.99 3.98c0.99 0.99 2.98 1.99 3.98 1.99c0.99 0 1.99 -0.99 2.98 -0.99c0 -0.99 0.99 -0.99 0.99 -2.98zM1380.35 2022.5h8.95c0 -1.99 0 -2.98 -0.99 -2.98c-0.99 -0.99 -1.99 -1.99 -2.98 -1.99c-1.99 0 -2.98 0 -2.98 0.99c-0.99 0.99 -1.99 1.99 -1.99 3.98zm25.35 -9.94v-2.98L1407.2 2009.57v2.98zm0 19.89l0 -16.91h1.99l0.18 16.91zM1412.17 2032.44v-16.91h1.99v1.99c0.99 -0.99 2.98 -1.99 5.97 -1.99c0.99 0 0.99 0 1.99 0c0.99 0.99 1.99 0.99 1.99 1.99c0.99 0 0.99 0.99 0.99 1.99c0 0 0 0.99 0 1.99v10.94h-2.98v-9.94c0 -1.99 0 -1.99 0 -2.98c0 -0.99 -0.99 -0.99 -0.99 -0.99c-0.99 -0.99 -0.99 -0.99 -1.99 -0.99c-0.99 0 -1.99 0.99 -2.98 0.99c-0.99 0.99 -0.99 1.99 -0.99 4.97v8.95zm17.9 0v-14.92L1428.08 2017.53v-1.99l1.99 0.23v-2.22c0 -0.99 0 -1.99 0.99 -1.99C1431.07 2010.57 1431.07 2009.57 1432.06 2009.57c0.99 0 1.99 -0.99 2.98 -0.99c0.99 0 0.99 0 1.99 0.99l0 1.99c-0.99 0 -0.99 0 -1.99 0c0 0 -0.99 0 -0.99 0c-0.99 0.99 -0.99 1.99 -0.99 2.98L1433.06 2015.54h2.98l0 1.99h-2.98L1433.06 2032.44zm6.96 -8.95C1437.03 2020.51 1438.03 2018.52 1440.02 2017.53c0.99 -1.99 2.98 -1.99 4.97 -1.99c1.99 0 3.98 0 5.97 1.99c0.99 0.99 1.99 2.98 1.99 5.97c0 1.99 0 3.98 -0.99 4.97c-0.99 0.99 -1.99 1.99 -2.98 2.98c-0.99 0.99 -1.99 0.99 -3.98 0.99c-1.99 0 -3.98 -0.99 -4.97 -1.99c-1.99 -1.99 -2.98 -3.98 -2.98 -6.96zm2.98 0c0 1.99 0.99 3.98 1.99 4.97c0.99 0.99 1.99 1.99 2.98 1.99c1.99 0 2.98 -0.99 3.98 -1.99c0.99 -0.99 0.99 -2.98 0.99 -4.97c0 -1.99 0 -2.98 -0.99 -3.98c-0.99 -0.99 -1.99 -1.99 -3.98 -1.99C1443.99 2017.53 1443 2018.52 1442.01 2019.52c-0.99 0.99 -1.99 1.99 -1.99 3.98zm15.91 8.95v-16.91h2.98v2.98c0 -1.99 0.99 -1.99 1.99 -2.98c0 0 0.99 0 0.99 0c0.99 0 1.99 0 2.98 0.99l-0.99 1.99c0 0 -0.99 0 -1.99 0C1461.89 2018.52 1460.9 2018.52 1460.9 2018.52c-0.99 0.99 -0.99 0.99 -1.99 1.99C1458.91 2021.51 1458.91 2022.5 1458.91 2023.49v8.95zm10.94 0v-16.91l1.99 0l0 1.99c0.99 0 1.99 -0.99 3.43 -1.99c-0.44 0 0.55 0 1.55 0c1.99 0 2.98 0 2.98 0C1477.81 2016.53 1478.8 2017.53 1478.8 2018.52C1479.79 2016.53 1481.78 2015.54 1483.77 2015.54c1.99 0 2.98 0 3.98 0.99c0.99 0.99 0.99 1.99 0.99 3.98v11.93L1486.76 2032.44l0 -10.94c0 -0.99 0 -1.99 -0.99 -1.99C1485.76 2018.52 1485.76 2018.52 1484.77 2018.52c0 -0.99 -0.99 -0.99 -0.99 -0.99c-1.99 0 -1.99 0.99 -2.98 0.99c-0.99 0.99 -0.99 1.99 -0.99 3.98v9.94h-2.98v-11.3c0 -0.64 0 -1.63 -0.99 -2.63c0 -0.99 -0.99 -0.99 -1.99 -0.99c-0.99 0 -1.99 0 -1.99 0.99c-0.99 0 -1.99 0.99 -1.91 1.99c-0.08 0 -0.08 1.99 -0.08 2.98l0.23 8.95zm36.79 -1.99c-0.99 0 -1.99 0.99 -2.98 0.99c-0.99 0.99 -1.99 0.99 -2.98 0.99c-0.99 0 -2.98 0 -3.98 -0.99c-0.99 -0.99 -0.99 -1.99 -0.99 -3.98c0 -0.99 0 -0.99 0 -1.99c0.99 -0.99 0.99 -0.99 1.99 -1.99c0 0 0.99 0 1.99 0C1496.7 2022.5 1497.69 2022.5 1498.69 2022.5C1500.68 2022.5 1502.67 2022.5 1503.66 2021.51c0 0 0 -0.99 0 -0.99c0 -0.99 0 -1.99 -0.99 -1.99c0 -0.99 -0.99 -0.99 -2.98 -0.99c-0.99 0 -1.99 0 -2.98 0.99c0 0 -0.99 0.99 -0.99 1.99h-3.34c0.36 -0.99 1.35 -1.99 1.35 -2.98C1494.71 2016.53 1495.71 2016.53 1496.7 2015.54c0.99 0 1.99 0 3.98 0c0.99 0 1.99 0 2.98 0c0.99 0.99 1.99 0.99 1.99 0.51C1505.65 2017.53 1506.64 2018.52 1506.64 2018.52c0 0.99 0 1.99 0 2.98v3.98c0 1.99 0 3.98 0 4.97C1506.64 2030.46 1507.64 2031.45 1507.64 2032.44h-2.98c0 -0.99 0 -1.99 -0.99 -1.99zm0 -6.96C1502.67 2024.49 1501.67 2024.49 1499.68 2024.49c-1.99 0.99 -1.99 0.99 -2.98 0.99c0 0 -0.99 0 -0.99 0.99c0 0 0 0.99 0 0.99c0 0.99 0 1.99 0.99 1.99c0 0.99 0.99 0.99 1.99 0.99c0.99 0 1.99 0 2.98 -0.99c0.99 0 0.99 -0.99 1.99 -1.99c0 0 0 -0.99 0 -2.98zm13.92 5.97v2.98c-0.99 0 -1.99 0 -1.99 0c-0.99 0 -1.99 0 -2.98 -0.73C1512.61 2031.45 1512.61 2031.45 1511.62 2030.46c0 0 0 -1.99 0 -2.98v-9.94h-1.99l0 -1.99h1.99v-3.98l2.98 -1.99v5.97h2.98v1.99L1514.6 2017.8v9.67c0 0.99 0 0.99 -0.35 1.99c0.35 0 0.35 0 0.35 0c0.99 0 0.99 0 0.99 0c0.99 0 0.99 0 1.99 0zm1.99 -16.91v-2.98h2.98v2.98zm0 19.89v-16.91h2.98v16.91z"/><path fill="none" stroke="#18111B" d="M1525.54 2023.49c0 -2.98 0.99 -4.97 2.98 -5.97c0.99 -1.99 2.98 -1.99 4.97 -1.99c1.99 0 3.98 0 5.97 1.99c0.99 0.99 1.99 2.98 1.99 5.97c0 1.99 0 3.98 -0.99 4.97c-0.99 0.99 -1.99 1.99 -2.98 2.98c-0.99 0.99 -1.99 0.99 -3.98 0.99c-1.99 0 -3.98 -0.99 -4.97 -1.99c-1.99 -1.99 -2.98 -3.98 -2.98 -6.96zm2.98 0c0 1.99 0.99 3.98 1.99 4.97c0.99 0.99 1.99 1.99 2.98 1.99c1.99 0 2.98 -0.99 3.98 -1.99c0.99 -0.99 0.99 -2.98 0.99 -4.97c0 -1.99 0 -2.98 -0.99 -3.98c-0.99 -0.99 -1.99 -1.99 -3.98 -1.99c-0.99 0 -1.99 0.99 -2.98 1.99c-0.99 0.99 -1.99 1.99 -1.99 3.98zm15.91 8.95v-16.91h2.98v1.99c0.99 -0.99 2.98 -1.99 4.97 -1.99c0.99 0 1.99 0 2.98 0c0.99 0.99 0.99 0.99 1.99 1.99c0 0 0 0.99 0.99 1.99c0 0 0 0.99 0 1.99v10.94h-2.98v-9.94c0 -1.99 0 -1.99 0 -2.98c-0.99 -0.99 -0.99 -0.99 -1.99 -0.99c0 -0.99 -0.99 -0.99 -1.99 -0.99c-0.99 0 -1.99 0.99 -2.98 0.99c-0.99 0.99 -0.99 1.99 -0.99 4.97l0 8.95z"/></g></svg>
