<?xml version="1.0" encoding="utf-8"?>
<svg xmlns="http://www.w3.org/2000/svg" xmlns:xlink="http://www.w3.org/1999/xlink" version="1.1" width="1632" height="2112" viewBox="0 0 1632 2112" xml:space="preserve" PageMode="4" layout="0"><defs><style type="text/css"><![CDATA[tspan{white-space:pre}
]]></style></defs><g id="content" view="2"><image x="46" y="0" width="1540" height="2112" xlink:href="img101.jpg"/><rect x="71" y="2003" width="1504" height="42" fill="#FEFFFF"/><path fill="none" stroke="#3D4443" d="M89.11 2032.44v-20.88h-7.51v-1.99h18.06v1.99h-7.54L92.12 2032.44zm13.3 0v-22.87l2.79 0v7.96c1.31 -1.99 2.95 -1.99 4.94 -1.99c1.22 0 2.29 0 3.19 0c0.9 0.99 1.54 1.99 1.93 1.99c0.39 0.99 0.59 2.98 0.59 3.98v10.94h-2.79v-10.94c0 -0.99 -0.31 -1.99 -0.91 -2.98c-0.61 -0.99 -1.46 -0.99 -2.57 -0.99c-0.84 0 -1.61 0 -2.35 0.99c-0.73 0 -1.24 0.99 -1.56 1.99c-0.31 0 -0.47 0.99 -0.47 2.98v8.95zm17.73 -19.89v-2.98h2.79L122.93 2012.56z"/><path fill="none" stroke="#3D4443" d="M120.13 2032.44v-16.91h2.79v16.91z"/><path fill="none" stroke="#3D4443" d="M126.08 2027.47l2.77 -0.99c0.15 0.99 0.59 1.99 1.29 2.98c0.71 0 1.7 0.99 2.97 0.99c1.28 0 2.24 -0.99 2.86 -0.99c0.62 -0.99 0.92 -0.99 0.93 -1.99c0 -0.99 -0.28 -0.99 -1.09 -0.99c-0.13 -0.99 -1.08 -0.99 -2.6 -0.99c-2.05 -0.99 -3.47 -0.99 -4.27 -1.99c-0.79 0 -1.39 -0.99 -1.8 -0.99c-0.41 -0.99 -0.62 -1.99 -0.62 -2.98C126.55 2019.52 126.72 2018.52 127.06 2017.53c0.34 0 0.8 -0.99 1.37 -0.99c0.44 0 1.03 -0.99 1.78 -0.99c0.76 0 1.56 0 2.42 0c1.29 0 2.44 0 3.41 0c0.98 0.99 1.7 0.99 2.17 1.99c0.47 0 0.79 0.99 0.96 1.99l-2.73 0.99c-0.12 -0.99 -0.49 -1.99 -1.08 -1.99c-0.59 -0.99 -1.43 -0.99 -2.52 -0.99c-1.29 0 -2.21 0 -2.75 0.99c-0.55 0 -0.83 0.99 -0.83 0.99C129.25 2020.51 129.37 2020.51 129.6 2020.51c0.22 0 0.58 0.99 1.06 0.99c0.28 0 1.1 0 2.48 0.99C135.12 2022.5 136.5 2023.49 137.28 2023.49c0.79 0 1.4 0.99 1.84 0.99c0.45 0.99 0.68 1.99 0.68 2.98c0 0.99 -0.28 1.99 -0.82 1.99c-0.55 0.99 -1.33 1.99 -2.36 1.99c-1.02 0.99 -2.19 0.99 -3.48 0.99c-2.15 0 -3.78 0 -4.9 -0.99c-1.12 -0.99 -1.84 -2.98 -2.16 -3.98zm36.57 4.97v-1.99c-1.04 0.99 -2.59 1.99 -4.61 1.99C156.72 2032.44 155.51 2032.44 154.4 2031.45c-1.1 -0.99 -1.96 -1.99 -2.57 -2.98c-0.61 -0.99 -0.9 -2.98 -0.9 -4.97c0 -0.99 0.27 -2.98 0.83 -3.98c0.55 -0.99 1.37 -2.98 2.47 -2.98c1.1 -0.99 2.33 -0.99 3.68 -0.99c0.99 0 1.88 0 2.67 0c0.78 0.99 1.4 0.99 1.89 1.99v-7.96l2.78 0.29v22.58z"/><path fill="none" stroke="#3D4443" d="M153.81 2023.49c0 2.98 0.45 3.98 1.33 4.97c0.9 0.99 1.95 1.99 3.16 1.99c1.21 0 2.26 -0.99 3.11 -1.99C162.27 2027.47 162.7 2026.48 162.7 2024.49c0 -2.98 -0.44 -3.98 -1.31 -4.97c-0.87 -0.99 -1.94 -1.99 -3.21 -1.99c-1.24 0 -2.28 0.99 -3.11 1.99c-0.84 0.99 -1.25 1.99 -1.25 3.98zm14.81 0c0 -2.98 0.85 -4.97 2.55 -5.97c1.42 -1.99 3.15 -1.99 5.19 -1.99c2.27 0 4.13 0 5.59 1.99c1.39 0.99 2.09 2.98 2.09 5.97c0 1.99 -0.3 3.98 -0.9 4.97c-0.7 0.99 -1.59 1.99 -2.79 2.98c-1.21 0.99 -2.55 0.99 -3.99 0.99c-2.31 0 -4.18 -0.99 -5.6 -1.99c-1.42 -1.99 -2.14 -3.98 -2.14 -6.96zm2.87 0c0 1.99 0.46 3.98 1.38 4.97c0.92 0.99 2.08 1.99 3.48 1.99c1.39 0 2.55 -0.99 3.47 -1.99c0.91 -0.99 1.42 -2.98 1.42 -4.97C181.24 2021.51 180.74 2020.51 179.81 2019.52c-0.92 -0.99 -2.08 -1.99 -3.46 -1.99c-1.4 0 -2.56 0.99 -3.48 1.99c-0.92 0.99 -1.38 1.99 -1.38 3.98zm26.66 2.98h2.78c-0.3 1.99 -1.09 2.98 -2.39 3.98c-1.19 0.99 -2.69 1.99 -4.57 1.99c-2.19 0 -3.98 -0.99 -5.37 -1.99c-1.39 -1.99 -2.09 -3.98 -2.09 -6.96C186.51 2022.5 186.81 2020.51 187.41 2019.52c0.6 -1.99 1.49 -2.98 2.68 -2.98C191.29 2015.54 192.58 2015.54 194.07 2015.54c1.79 0 3.18 0 4.38 0.99c1.09 0.99 1.89 1.99 2.19 3.98h-2.69c-0.3 -0.99 -0.8 -1.99 -1.39 -1.99c-0.7 -0.99 -1.49 -0.99 -2.39 -0.58c-1.39 -0.42 -2.59 0.58 -3.48 1.57c-0.9 0.99 -1.29 1.99 -1.29 3.98c0 2.98 0.4 3.98 1.29 4.97c0.8 0.99 1.89 1.99 3.28 1.99C195.07 2030.46 195.96 2029.46 196.76 2029.46c0.7 -0.99 1.19 -1.99 1.39 -2.98zm15.91 5.97v-2.98c-1.29 1.99 -2.98 2.98 -5.17 2.98c-0.99 0 -1.89 0 -2.78 -0.99c-0.8 0 -1.49 0 -1.89 -0.99c-0.4 -0.99 -0.7 -0.99 -0.8 -1.99c-0.1 -0.99 -0.2 -0.99 -0.2 -2.98v-9.94h2.78v8.95c0 1.99 0.1 2.98 0.2 2.98c0.2 0.99 0.5 1.99 1.09 1.99c0.6 0 1.29 0.99 2.09 0.99c0.9 0 1.69 -0.99 2.39 -0.99c0.7 0 1.29 -0.99 1.59 -1.99c0.3 -0.99 0.4 -1.99 0.4 -2.98l0 -8.95h2.88v16.91zm6.96 0l-0.25 -16.91h2.74v1.99c0.5 0 1.19 -0.99 2.09 -1.99c0.8 0 1.79 0 2.88 0c1.19 0 2.29 0 2.98 0C232.26 2016.53 232.86 2017.53 233.15 2018.52c1.29 -1.99 2.98 -2.98 4.66 -2.98c2.1 0 3.29 0 4.19 0.99c0.9 0.99 1.39 1.99 1.39 3.98v11.93h-2.78l0 -10.94c0 -0.99 -0.1 -1.99 -0.3 -1.99c-0.2 -0.99 -0.5 -0.99 -0.99 -0.99c-0.5 -0.99 -0.99 -0.99 -1.69 -0.99c-1.19 0 -2.09 0.99 -2.88 0.99c-0.8 0.99 -1.19 1.99 -1.19 3.98v9.94h-2.78v-10.94c0 -0.99 -0.2 -1.99 -0.7 -2.98c-0.4 -0.99 -1.19 -0.99 -2.19 -0.99c-0.8 0 -1.49 0 -2.19 0.99c-0.7 0 -1.19 0.99 -1.49 1.99c-0.3 0 -0.4 1.99 -0.4 2.98L223.81 2032.44z"/><path fill="none" stroke="#3D4443" d="M258.81 2026.48l2.88 0.99c-0.4 0.99 -1.29 2.98 -2.49 3.98C257.92 2032.44 256.42 2032.44 254.44 2032.44c-2.39 0 -4.28 -0.99 -5.67 -1.99c-1.49 -1.99 -2.19 -3.98 -2.19 -5.97c0 -2.98 0.7 -4.97 2.19 -6.96c1.39 -1.99 3.28 -1.99 5.57 -1.99c2.19 0 3.98 0 5.37 1.99c1.39 0.99 2.09 3.98 2.09 5.97c0 0 0 0.99 0 0.99h-12.33C249.56 2026.48 250.06 2027.47 251.05 2028.47c0.9 0.99 2.09 1.99 3.38 1.99c1.09 0 1.99 -0.99 2.69 -0.99c0.7 -0.99 1.29 -0.99 1.69 -2.98zm-9.15 -3.98h9.25c-0.2 -1.99 -0.5 -2.98 -1.09 -2.98c-0.89 -0.99 -2.09 -1.99 -3.48 -1.99c-1.29 0 -2.39 0 -3.28 0.99C250.26 2019.52 249.76 2020.51 249.66 2022.5zm15.61 9.94L265.27 2015.54h2.49v1.99c1.19 -0.99 2.98 -1.99 5.27 -1.99c0.99 0 1.89 0 2.68 0c0.9 0.99 1.49 0.99 1.89 1.99c0.4 0 0.7 0.99 0.89 1.99c0.1 0 0.2 0.99 0.2 1.99L278.7 2032.44h-2.88l0 -9.94c0 -1.99 -0.1 -1.99 -0.3 -2.98C275.32 2018.52 274.92 2018.52 274.42 2018.52c-0.6 -0.99 -1.29 -0.99 -1.99 -0.99c-1.19 0 -2.19 0.99 -3.08 0.99c-0.89 0.99 -1.29 1.99 -1.29 4.97v8.95zm23.77 -2.98l0.4 2.98c-0.8 0 -1.49 0 -2.09 0c-0.99 0 -1.79 0 -2.39 -0.99c-0.5 0 -0.89 0 -1.19 -0.99c-0.2 0 -0.3 -1.99 -0.3 -2.98v-9.94h-2.09v-1.99h2.09v-3.98l2.78 -1.99v5.97h2.78v1.99h-2.78v9.94c0 0.99 0 0.99 0.1 1.99c0.1 0 0.3 0 0.5 0c0.3 0 0.6 0 0.99 0c0.3 0 0.7 0 1.19 0zm11.64 -16.91v-2.98h2.78v2.98zm0 19.89L300.68 2015.54h2.78v16.91zm5.87 -4.97L309.33 2026.48c0.2 0.99 0.6 1.99 1.29 2.98c0.7 0 1.69 0.99 2.98 0.99c1.29 0 2.29 -0.99 2.88 -0.99c0.6 -0.99 0.89 -0.99 0.89 -1.99c0 -0.99 -0.3 -0.99 -0.8 -0.99C316.19 2025.48 315.3 2025.48 313.7 2025.48c-1.99 -0.99 -3.48 -0.99 -4.28 -1.99c-0.8 0 -1.39 -0.99 -1.79 -0.99c-0.4 -0.99 -0.6 -1.99 -0.6 -2.98c0 0 0.2 -0.99 0.5 -1.99c0.3 0 0.8 -0.99 1.39 -0.99c0.4 0 0.99 -0.99 1.79 -0.99c0.7 0 1.49 0 2.39 0c1.29 0 2.49 0 3.38 0C317.48 2016.53 318.28 2016.53 318.68 2017.53c0.5 0 0.8 0.99 0.99 1.99l-2.78 0.99c-0.1 -0.99 -0.4 -1.99 -0.99 -1.99c-0.6 -0.99 -1.49 -0.99 -2.59 -0.99C312.01 2017.53 311.12 2017.53 310.62 2018.52c-0.6 0 -0.9 0.99 -0.9 0.99C309.73 2020.51 309.83 2020.51 310.12 2020.51C310.32 2020.51 310.72 2021.51 311.12 2021.51c0.3 0 1.19 0 2.49 0.99C315.59 2022.5 316.99 2023.49 317.78 2023.49c0.8 0 1.39 0.99 1.79 0.99c0.5 0.99 0.7 1.99 0.7 2.98c0 0.99 -0.3 1.99 -0.8 1.99c-0.6 0.99 -1.29 1.99 -2.39 1.99c-0.99 0.99 -2.19 0.99 -3.48 0.99c-2.09 0 -3.78 0 -4.87 -0.99c-1.09 -0.99 -1.89 -2.98 -2.19 -3.98zm25.86 10.94v-22.87h2.59v1.99c0.6 -0.99 1.29 -0.99 1.99 -1.99c0.8 0 1.69 0 2.78 0c1.39 0 2.68 0 3.78 0.99c0.99 0.99 1.89 1.99 2.39 2.98c0.6 0.99 0.8 2.98 0.8 3.98c0 1.99 -0.3 2.98 -0.89 4.97c-0.6 0.99 -1.49 1.99 -2.59 2.98C342.05 2032.44 340.85 2032.44 339.56 2032.44c-0.89 0 -1.79 0 -2.49 -0.99c-0.8 0 -1.39 0 -1.89 -0.99v7.96zm2.59 -14.92c0 2.98 0.4 3.98 1.29 4.97c0.8 0.99 1.89 1.99 3.08 1.99c1.29 0 2.29 -0.99 3.18 -1.99c0.89 -0.99 1.39 -2.98 1.39 -4.97c0 -1.99 -0.5 -2.98 -1.29 -4.97c-0.89 -0.99 -1.89 -0.99 -3.18 -0.99c-1.19 0 -2.19 0 -3.08 1.99c-0.99 0.99 -1.39 1.99 -1.39 3.98zm15.12 8.95l0 -16.91h2.49v2.98c0.7 -1.99 1.29 -1.99 1.79 -2.98c0.6 0 1.19 0 1.79 0c0.99 0 1.99 0 2.88 0.99l-0.89 1.99c-0.7 0 -1.39 0 -2.09 0c-0.6 0 -1.19 0 -1.69 0C353.98 2019.52 353.58 2019.52 353.38 2020.51c-0.3 0.99 -0.5 1.99 -0.5 2.98v8.95zM359.75 2023.49C359.75 2020.51 360.54 2018.52 362.33 2017.53c1.39 -1.99 3.08 -1.99 5.17 -1.99c2.19 0 4.08 0 5.57 1.99c1.39 0.99 2.09 2.98 2.09 5.97c0 1.99 -0.3 3.98 -0.89 4.97C373.57 2029.46 372.68 2030.46 371.48 2031.45c-1.19 0.99 -2.59 0.99 -3.98 0.99c-2.39 0 -4.18 -0.99 -5.67 -1.99c-1.39 -1.99 -2.09 -3.98 -2.09 -6.96zm2.88 0c0 1.99 0.4 3.98 1.39 4.97c0.89 0.99 2.09 1.99 3.48 1.99c1.39 0 2.49 -0.99 3.48 -1.99c0.89 -0.99 1.29 -2.98 1.29 -4.97c0 -1.99 -0.4 -2.98 -1.39 -3.98c-0.89 -0.99 -1.99 -1.99 -3.38 -1.99c-1.39 0 -2.59 0.99 -3.48 1.99c-0.99 0.99 -1.39 1.99 -1.39 3.98zm26.55 8.95v-1.99c-0.99 0.99 -2.59 1.99 -4.57 1.99C383.22 2032.44 382.02 2032.44 380.93 2031.45C379.84 2030.46 379.04 2029.46 378.34 2028.47c-0.6 -0.99 -0.89 -2.98 -0.89 -4.97c0 -0.99 0.3 -2.98 0.89 -3.98c0.5 -0.99 1.29 -2.98 2.39 -2.98C381.82 2015.54 383.12 2015.54 384.41 2015.54c0.99 0 1.89 0 2.68 0c0.8 0.99 1.39 0.99 1.89 1.99L388.98 2009.57h2.78v22.87zm-8.85 -8.95c0 2.98 0.5 3.98 1.39 4.97c0.89 0.99 1.89 1.99 3.08 1.99c1.29 0 2.29 -0.99 3.18 -1.99C388.79 2027.47 389.28 2026.48 389.28 2024.49c0 -2.98 -0.5 -3.98 -1.39 -4.97c-0.8 -0.99 -1.89 -1.99 -3.18 -1.99c-1.19 0 -2.29 0.99 -3.08 1.99c-0.89 0.99 -1.29 1.99 -1.29 3.98zm26.65 8.95v-2.98c-1.29 1.99 -2.98 2.98 -4.72 2.98c-1.45 0 -2.34 0 -3.24 -0.99c-0.8 0 -1.49 0 -1.89 -0.99c-0.4 -0.99 -0.7 -0.99 -0.8 -1.99c-0.1 -0.99 -0.2 -0.99 -0.2 -2.98v-9.94h2.78v8.95C398.93 2026.48 399.03 2027.47 399.13 2027.47c0.2 0.99 0.5 1.99 1.09 1.99C400.82 2029.46 401.51 2030.46 402.31 2030.46c0.89 0 1.69 -0.99 2.39 -0.99c0.7 0 1.29 -0.99 1.59 -1.99C406.59 2026.48 406.69 2025.48 406.69 2024.49v-8.95L409.57 2015.54v16.91zm17.7 -5.97h2.78c-0.3 1.99 -1.09 2.98 -2.39 3.98c-1.19 0.99 -2.68 1.99 -4.48 1.99c-2.29 0 -4.08 -0.99 -5.47 -1.99c-1.39 -1.99 -2.09 -3.98 -2.09 -6.96c0 -0.99 0.3 -2.98 0.89 -3.98c0.6 -1.99 1.49 -2.98 2.68 -2.98c1.19 -0.99 2.49 -0.99 3.98 -0.99c1.79 0 3.28 0 4.38 0.99c1.09 0.99 1.89 1.99 2.19 3.98h-2.68c-0.3 -0.99 -0.8 -1.99 -1.39 -1.99c-0.7 -0.99 -1.49 -0.99 -2.39 -0.99c-1.39 0 -2.59 0.99 -3.48 1.99C416.33 2020.51 415.93 2021.51 415.93 2023.49c0 2.98 0.4 3.98 1.29 4.97c0.8 0.99 1.99 1.99 3.28 1.99c1.09 0 2.09 -0.99 2.78 -0.99c0.7 -0.99 1.19 -1.99 1.39 -2.98zm16.41 0l2.88 0.99C443.58 2028.47 442.68 2030.46 441.49 2031.45c-1.19 0.99 -2.78 0.99 -4.77 0.99c-2.39 0 -4.28 -0.99 -5.67 -1.99c-1.49 -1.99 -2.19 -3.98 -2.19 -5.97c0 -2.98 0.8 -4.97 2.19 -6.96C432.44 2015.54 434.33 2015.54 436.62 2015.54c2.19 0 3.98 0 5.37 1.99c1.39 0.99 2.09 3.98 2.09 5.97c0 0 0 0.99 0 0.99L431.75 2024.49c0.1 1.99 0.7 2.98 1.59 3.98c0.89 0.99 2.09 1.99 3.48 1.99c0.99 0 1.89 -0.99 2.59 -0.99c0.7 -0.99 1.29 -0.99 1.69 -2.98zm-9.31 -3.98l9.4 0c-0.2 -1.99 -0.5 -2.98 -1.09 -2.98c-0.89 -0.99 -2.09 -1.99 -3.48 -1.99c-1.29 0 -2.39 0 -3.18 0.99c-0.89 0.99 -1.39 1.99 -1.49 3.98zM458.3 2032.44v-1.99c-1.09 0.99 -2.59 1.99 -4.67 1.66c-1.29 0.33 -2.49 0.33 -3.58 -0.66c-1.09 -0.99 -1.99 -1.99 -2.59 -2.98c-0.6 -0.99 -0.89 -2.98 -0.89 -4.97c0 -0.99 0.2 -2.98 0.8 -3.98c0.5 -0.99 1.39 -2.98 2.49 -2.98c1.09 -0.99 2.29 -0.99 3.68 -0.99c0.99 0 1.89 0 2.68 0c0.7 0.99 1.39 0.99 1.89 1.99v-7.96h2.78v22.87zm-8.85 -8.95c0 2.98 0.4 3.98 1.29 4.97c0.89 0.99 1.99 1.99 3.18 1.99c1.19 0 2.19 -0.99 3.08 -1.99c0.89 -0.99 1.29 -1.99 1.29 -3.98c0 -2.98 -0.4 -3.98 -1.29 -4.97c-0.89 -0.99 -1.99 -1.99 -3.18 -1.99c-1.29 0 -2.29 0.99 -3.18 1.99C449.84 2020.51 449.45 2021.51 449.45 2023.49zm27.25 8.95h-2.59v-22.44l2.78 -0.43v7.96c1.19 -1.99 2.68 -1.99 4.48 -1.99C482.36 2015.54 483.36 2015.54 484.25 2015.54c0.89 0.99 1.69 0.99 2.29 1.99c0.6 0.99 0.99 1.99 1.29 2.98c0.4 0.99 0.5 1.99 0.5 2.98c0 2.98 -0.7 4.97 -2.09 6.96C484.85 2031.45 483.16 2032.44 481.27 2032.44c-1.99 0 -3.48 -0.99 -4.57 -1.99zM476.59 2023.49c0 1.99 0.3 3.98 0.8 4.97c0.89 0.99 2.09 1.99 3.58 1.99c1.29 0 2.29 -0.99 3.18 -1.99c0.89 -0.99 1.39 -2.98 1.39 -4.97C485.54 2021.51 485.05 2020.51 484.25 2019.52c-0.89 -0.99 -1.89 -1.99 -3.08 -1.99c-1.29 0 -2.29 0.99 -3.18 1.99c-0.89 0.99 -1.39 1.99 -1.39 3.98zm15.12 14.92l-0.4 -2.98c0.7 0.99 1.19 0.99 1.69 0.99c0.6 0 1.09 0 1.49 -0.99c0.3 0 0.6 0 0.89 -0.99c0.2 0 0.4 -0.99 0.8 -2.33c0.1 0.35 0.2 0.35 0.3 0.35l-6.27 -16.91h2.98l3.62 9.94c0.26 0.99 0.66 1.99 1.06 3.98c0.3 -1.99 0.7 -2.98 1.09 -3.98L502.55 2015.54h2.78l-6.27 16.91c-0.7 1.99 -1.19 2.98 -1.59 3.98c-0.5 0.99 -1.09 0.99 -1.69 1.99c-0.7 0 -1.39 0 -2.29 0c-0.6 0 -1.19 0 -1.79 0zm25.46 -5.97v-14.92h-2.49v-1.99h2.49v-1.99c0 -0.99 0.1 -1.99 0.3 -1.99C517.77 2010.57 518.26 2009.57 518.96 2009.57c0.6 0 1.59 -0.99 2.78 -0.99c0.8 0 1.69 0 2.68 0.99l-0.5 1.99C523.33 2011.56 522.84 2011.56 522.34 2011.56c-0.9 0 -1.49 0 -1.79 0c-0.4 0.99 -0.6 1.99 -0.6 2.98v0.99l3.28 0v1.99h-3.28v14.92zm7.72 0L525.32 2015.54h2.49v2.98c0.7 -1.99 1.29 -1.99 1.79 -2.98C530.2 2015.54 530.79 2015.54 531.39 2015.54c0.99 0 1.89 0 2.88 0.99L533.38 2018.52c-0.7 0 -1.39 0 -2.09 0c-0.6 0 -1.19 0 -1.69 0c-0.5 0.99 -0.8 0.99 -0.99 1.99c-0.3 0.99 -0.5 1.99 -0.98 2.98l0.48 8.95zm21.98 -5.97l2.88 1.36C549.69 2028.47 548.89 2030.46 547.6 2031.45c-1.19 0.99 -2.78 0.99 -4.67 0.99c-2.39 0 -4.38 -0.99 -5.77 -1.99c-1.39 -1.99 -2.09 -3.98 -2.09 -5.97c0 -2.98 0.7 -4.97 2.09 -6.96c1.49 -1.99 3.28 -1.99 5.57 -1.99c2.29 0 4.08 0 5.47 1.99c1.39 0.99 2.09 3.98 2.09 5.97c0 0 0 0.99 0 0.99h-12.33c0.1 1.99 0.6 2.98 1.49 3.98c0.99 0.99 2.09 1.99 3.48 1.99c0.99 0 1.89 -0.99 2.59 -0.99c0.8 -0.99 1.39 -0.99 1.79 -2.98zm-9.25 -3.98h9.25c-0.1 -1.99 -0.5 -2.98 -0.99 -2.98c-0.9 -0.99 -2.09 -1.99 -3.48 -1.99c-1.29 0 -2.39 0 -3.28 0.99c-0.9 0.99 -1.39 1.99 -1.49 3.98zm26.95 3.98l2.88 0.99c-0.5 0.99 -1.29 2.98 -2.49 3.98c-1.29 0.99 -2.88 0.99 -4.77 0.99c-2.39 0 -4.28 -0.99 -5.77 -1.99c-1.39 -1.99 -2.09 -3.98 -2.09 -5.97c0 -2.98 0.7 -4.97 2.19 -6.96C556.35 2015.54 558.24 2015.54 560.43 2015.54c2.29 0 4.08 0 5.47 1.99C567.29 2018.52 567.98 2021.51 567.98 2023.49c0 0 0 0.99 0 0.99h-12.33c0.1 1.99 0.6 2.98 1.59 3.98c0.9 0.99 1.99 1.99 3.38 1.99c0.99 0 1.89 -0.99 2.69 -0.99C564.01 2028.47 564.6 2028.47 565 2026.48zm-9.15 -3.98h9.62c-0.57 -1.99 -0.97 -2.98 -1.47 -2.98c-0.89 -0.99 -2.09 -1.99 -3.48 -1.99c-1.29 0 -2.39 0 -3.28 0.99c-0.9 0.99 -1.29 1.99 -1.39 3.98zM584.79 2032.44l-6.27 -16.91l2.98 0l3.58 9.94C585.39 2026.48 585.79 2027.47 586.08 2028.47c0.3 -0.99 0.6 -1.99 1.09 -2.98l3.58 -9.94h2.88l-6.17 16.91zm22.93 -5.97l2.88 0.99c-0.5 0.99 -1.29 2.98 -2.59 3.98c-1.19 0.99 -2.78 0.99 -4.67 0.99c-2.39 0 -4.38 -0.99 -5.77 -1.99c-1.39 -1.99 -2.09 -3.98 -2.09 -5.97c0 -2.98 0.7 -4.97 2.09 -6.96C598.81 2015.54 600.6 2015.54 602.89 2015.54c2.29 0 4.08 0 5.47 1.99c1.39 0.99 2.09 3.98 2.09 5.97c0 0 0 0.99 0 0.99h-12.33C598.22 2026.48 598.71 2027.47 599.61 2028.47c0.99 0.99 2.09 1.99 3.48 1.99c0.99 0 1.89 -0.99 2.59 -0.99c0.8 -0.99 1.39 -0.99 1.79 -2.98zm-9.25 -3.98l9.25 0C607.36 2020.51 606.97 2019.52 606.47 2019.52c-0.9 -0.99 -2.09 -1.99 -3.48 -1.99c-1.29 0 -2.39 0 -3.28 0.99c-0.9 0.99 -1.39 1.99 -1.49 3.98zm15.61 9.94v-16.91h2.49v2.98c0.7 -1.99 1.29 -1.99 1.79 -2.98c0.6 0 1.19 0 1.79 0C620.89 2015.54 621.78 2015.54 622.78 2016.53l-0.9 1.99c-0.7 0 -1.39 0 -2.09 0c-0.6 0 -1.19 0 -1.69 0c-0.5 0.99 -0.8 0.99 -0.99 1.99c-0.3 0.99 -0.5 1.99 -0.5 2.98v8.95zm9.55 -4.97l2.78 -0.99c0.1 0.99 0.6 1.99 1.29 2.98c0.7 0 1.69 0.99 2.98 0.99c1.29 0 2.19 -0.99 2.88 -0.99c0.6 -0.99 0.9 -0.99 0.9 -1.99c0 -0.99 -0.3 -0.99 -0.8 -0.99c-0.4 -0.99 -1.39 -0.99 -2.88 -0.99c-2.09 -0.99 -3.48 -0.99 -4.28 -1.99C625.46 2023.49 624.87 2022.5 624.47 2022.5c-0.4 -0.99 -0.6 -1.99 -0.6 -2.98c0 0 0.1 -0.99 0.5 -1.99c0.3 0 0.8 -0.99 1.39 -0.99c0.4 0 0.99 -0.99 1.69 -0.99c0.8 0 1.59 0 2.49 0C631.23 2015.54 632.33 2015.54 633.32 2015.54c0.99 0.99 1.69 0.99 2.19 1.99c0.5 0 0.8 0.99 0.99 1.99l-2.78 0.99c-0.1 -0.99 -0.5 -1.99 -1.09 -1.99c-0.6 -0.99 -1.39 -0.99 -2.49 -0.99c-1.29 0 -2.19 0 -2.78 0.99c-0.5 0 -0.8 0.99 -0.8 0.99c0 0.99 0.1 0.99 0.3 0.99c0.3 0 0.6 0.99 1.09 0.99c0.3 0 1.09 0 2.49 0.99c1.99 0 3.38 0.99 4.18 0.99c0.7 0 1.39 0.99 1.79 0.99c0.5 0.99 0.7 1.99 0.7 2.98c0 0.99 -0.3 1.99 -0.8 1.99c-0.6 0.99 -1.39 1.99 -2.39 1.99c-0.99 0.99 -2.19 0.99 -3.48 0.99C628.25 2032.44 626.66 2032.44 625.56 2031.45c-1.19 -0.99 -1.89 -2.98 -2.19 -3.98zm17.01 -14.92v-2.98h2.88l-0.05 2.98zm0 19.89v-16.91h2.88L643.26 2032.44zm6.07 -8.95c0 -2.98 0.9 -4.97 2.59 -5.97c1.39 -1.99 3.08 -1.99 5.17 -1.99c2.29 0 4.08 0 5.57 1.99c1.39 0.99 2.09 2.98 2.09 5.97c0 1.99 -0.3 3.98 -0.9 4.97c-0.7 0.99 -1.59 1.99 -2.78 2.98c-1.19 0.99 -2.59 0.99 -3.98 0.99C651.92 2032.44 650.03 2031.45 648.53 2030.46C647.14 2028.47 646.45 2026.48 646.45 2023.49zm2.88 0c0 1.99 0.5 3.98 1.39 4.97c0.9 0.99 2.09 1.99 3.48 1.74c1.39 0.25 2.49 -0.74 3.48 -1.74c0.9 -0.99 1.39 -2.98 1.39 -4.97c0 -1.99 -0.5 -2.98 -1.39 -3.98C656.69 2018.52 655.6 2017.53 654.2 2017.53c-1.39 0 -2.59 0.99 -3.48 1.99c-0.9 0.99 -1.39 1.99 -1.39 3.98z"/><path fill="none" stroke="#3D4443" d="M665.24 2032.44v-17.29l2.49 0.38v1.99c1.19 -0.99 2.98 -1.99 5.27 -1.99c0.99 0 1.89 0 2.68 0c0.9 0.99 1.49 0.99 1.89 1.99c0.4 0 0.7 0.99 0.9 1.99c0.1 0 0.1 0.99 0.1 1.99v10.94h-2.78v-9.94c0 -1.99 -0.1 -1.99 -0.3 -2.98c-0.2 -0.99 -0.6 -0.99 -1.19 -0.99c-0.5 -0.99 -1.19 -0.99 -1.89 -0.99c-1.19 0 -2.29 0.99 -3.08 0.99c-0.9 0.99 -1.29 1.99 -1.29 4.97v8.95zm25.46 -8.95C690.7 2020.51 691.59 2018.52 693.29 2017.53c1.39 -1.99 3.08 -1.99 5.17 -1.99c2.29 0 4.08 0 5.57 1.99c1.39 0.99 2.09 2.98 2.09 5.97c0 1.99 -0.3 3.98 -0.9 4.97c-0.7 0.99 -1.59 1.99 -2.78 2.98c-1.19 0.99 -2.59 0.99 -3.98 0.99c-2.29 0 -4.18 -0.99 -5.67 -1.99c-1.39 -1.99 -2.09 -3.98 -2.09 -6.96zm2.88 0c0 1.99 0.5 3.98 1.39 4.97c0.9 0.99 2.09 1.99 3.48 1.99c1.39 0 2.49 -0.99 3.48 -1.99c0.9 -0.99 1.39 -2.98 1.39 -4.97c0 -1.99 -0.5 -2.98 -1.39 -4.38c-0.99 -0.59 -2.09 -1.58 -3.48 -1.58c-1.39 0 -2.59 0.99 -3.48 1.99c-0.9 0.99 -1.39 1.99 -1.39 3.98zm16.51 8.95v-14.92h-2.49v-1.99h2.49L710.09 2013.55c0 -0.99 0.1 -1.99 0.3 -1.99c0.3 -0.99 0.8 -1.99 1.49 -1.99c0.6 0 1.59 -0.99 2.78 -0.99c0.8 0 1.69 0 2.68 0.99l-0.5 1.99c-0.6 0 -1.09 0 -1.59 0c-0.9 0 -1.49 0 -1.79 0c-0.4 0.99 -0.6 1.99 -0.6 2.98L712.88 2015.54h3.28v1.99h-3.28v14.92zm17.4 0l0 -22.87h8.55c1.49 0 2.68 0 3.48 0c1.09 0 2.09 0.99 2.78 0.99c0.8 0.99 1.39 0.99 1.89 1.99c0.4 0.99 0.7 1.99 0.7 2.98c0 1.99 -0.7 3.98 -1.89 4.97C741.81 2022.5 739.53 2022.5 736.34 2022.5h-5.87v9.94zm2.98 -11.93h5.87c1.99 0 3.38 -0.99 4.18 -0.99c0.8 -0.99 1.19 -1.99 1.19 -3.98c0 0 -0.2 -0.99 -0.7 -1.99C740.52 2012.56 739.92 2012.56 739.13 2012.56c-0.5 0 -1.49 -0.99 -2.78 -0.99h-5.87zm17.9 11.93v-16.91h2.49v2.98c0.6 -1.99 1.19 -1.99 1.79 -2.98C753.15 2015.54 753.75 2015.54 754.44 2015.54c0.9 0 1.89 0 2.88 0.99l-0.99 1.99c-0.7 0 -1.39 0 -1.6 0c-1.08 0 -1.58 0 -2.08 0c-0.5 0.99 -0.9 0.99 -1.09 1.99c-0.3 0.99 -0.4 1.99 -0.4 2.98v8.95zm10.64 -19.89l0 -2.98h2.78L761.8 2012.56zm0.3 19.89v-16.91h2.78L761.8 2032.44zm7.06 0v-16.91l2.49 -0.2l0 2.19C769.76 2016.53 771.55 2015.54 773.84 2015.54C774.83 2015.54 775.72 2015.54 776.62 2015.54c0.8 0.99 1.39 0.99 1.89 1.99c0.4 0 0.7 0.99 0.8 1.99c0.1 0 0.2 0.99 0.2 1.99v10.94h-2.78v-9.94C776.72 2020.51 776.62 2020.51 776.32 2019.52C776.12 2018.52 775.72 2018.52 775.23 2018.52c-0.6 -0.99 -1.19 -0.99 -1.99 -0.99C772.05 2017.53 771.05 2018.52 770.16 2018.52c-0.9 0.99 -1.29 1.99 -1.29 4.97v8.95zM789.95 2029.46l0.4 2.98c-0.8 0 -1.49 0 -2.19 -0.27c-0.99 0.27 -1.79 0.27 -2.29 -0.73c-0.6 0 -0.99 0 -1.19 -0.99c-0.3 0 -0.4 -1.99 -0.4 -2.98v-9.94l-1.99 0v-1.99l1.99 -0.11v-3.87l2.78 -1.99v5.97h2.88v1.99l-2.88 0v9.94c0 0.99 0.1 0.99 0.2 1.99c0.1 0 0.2 0 0.5 0c0.2 0 0.5 0 0.9 0c0.3 0 0.7 0 1.29 0zm16.61 0v2.98h-15.12c0 -0.99 0.1 -1.99 0.4 -1.99c0.4 -0.99 0.99 -1.99 1.79 -2.98C794.52 2026.48 795.71 2025.48 797.3 2023.49c2.49 -1.99 4.18 -2.98 5.07 -4.97c0.8 -0.99 1.29 -1.99 1.29 -2.98c0 -0.99 -0.4 -1.99 -1.19 -2.98c-0.8 -0.99 -1.89 -0.99 -3.08 -0.99c-1.39 0 -2.49 0 -3.28 0.99c-0.8 0.99 -1.19 1.99 -1.19 3.98l-2.88 -0.99c0.2 -1.99 0.9 -3.98 2.19 -4.97c1.29 -0.99 2.98 -0.99 5.17 -0.99c2.19 0 3.88 0 5.17 0.99c1.29 1.99 1.99 2.98 1.99 4.97c0 0.99 -0.2 1.99 -0.6 2.98c-0.4 0.99 -0.99 1.99 -1.89 2.98c-0.8 0 -2.29 1.99 -4.28 3.98C798.1 2026.48 797.01 2027.47 796.51 2027.47c-0.4 0.99 -0.8 0.99 -1.09 1.99zM810.83 2032.44v-22.87h15.41v1.99h-12.43v7.96h10.74v1.99L813.81 2021.51v10.94zM829.72 2032.44v-22.87h2.45l0.33 22.87zm17.9 -2.54c-0.99 0.21 -1.99 1.21 -2.98 1.21c-0.99 0.99 -1.99 0.99 -3.08 0.99c-1.79 0 -3.18 0 -4.18 -0.99c-0.99 -0.99 -1.49 -1.99 -1.49 -3.98c0 -0.99 0.2 -0.99 0.6 -1.99c0.4 -0.99 0.8 -0.99 1.39 -1.99c0.6 0 1.29 0 2.09 0c0.5 -0.99 1.29 -0.99 2.49 -0.99c2.19 0 3.88 0 4.97 -0.99c0 0 0 -0.99 0 -0.99c0 -0.99 -0.3 -1.99 -0.8 -1.99c-0.7 -0.99 -1.79 -0.99 -3.18 -0.99c-1.29 0 -2.29 0 -2.88 0.99C839.87 2018.52 839.47 2019.52 839.17 2020.51l-2.78 0.46c0.3 -1.46 0.7 -2.45 1.29 -3.45c0.5 -0.99 1.39 -0.99 2.39 -1.99c1.09 0 2.39 0 3.78 0c1.39 0 2.59 0 3.48 0c0.8 0.99 1.49 0.99 1.89 0.99c0.4 0.99 0.7 1.99 0.9 1.99c0.1 0.99 0.1 1.99 0.1 2.98l-0.1 3.98c0.1 1.99 0.2 3.98 0.3 4.97c0.1 0 0.4 0.99 0.7 1.99h-2.88c-0.3 -0.99 -0.5 -1.99 -0.6 -2.19zm-0.2 -6.96C846.43 2024.49 844.84 2024.49 842.85 2024.46c-1.19 1.02 -1.99 1.02 -2.49 1.02c-0.4 0 -0.8 0 -1.09 0.99c-0.2 0 -0.4 0.99 -0.4 0.99c0 0.99 0.3 1.99 0.9 1.99c0.6 0.99 1.39 0.99 2.49 0.99C843.35 2030.46 844.24 2030.46 845.14 2029.46c0.8 0 1.39 -0.99 1.79 -1.99c0.3 0 0.5 -0.99 0.5 -2.98zm6.07 3.98L856.28 2026.48c0.1 0.99 0.5 1.99 1.29 2.98c0.7 0 1.69 0.99 2.98 0.99c1.19 0 2.19 -0.99 2.78 -0.99c0.6 -0.99 0.99 -0.99 0.99 -1.99c0 -0.99 -0.3 -0.99 -0.9 -0.99c-0.4 -0.99 -1.29 -0.99 -2.29 -0.99c-2.59 -0.99 -3.98 -0.99 -4.77 -1.99c-0.8 0 -1.39 -0.99 -1.79 -0.99c-0.5 -0.99 -0.7 -1.99 -0.7 -2.98c0 0 0.2 -0.99 0.5 -1.99c0.4 0 0.8 -0.99 1.39 -0.99c0.5 0 1.09 -0.99 1.79 -0.99c0.8 0 1.59 0 2.49 0c1.29 0 2.39 0 3.38 0c0.99 0.99 1.69 0.99 2.19 1.99c0.4 0 0.8 0.99 0.9 1.99L863.83 2020.51c-0.1 -0.99 -0.5 -1.99 -1.09 -1.99c-0.6 -0.99 -1.49 -0.99 -2.49 -0.99c-1.29 0 -2.29 0 -2.78 0.99c-0.6 0 -0.8 0.99 -0.8 0.99c0 0.99 0.1 0.99 0.3 0.99c0.2 0 0.6 0.99 1.09 0.99c0.3 0 1.09 0 2.49 0.99c1.99 0 3.28 0.99 4.08 0.99c0.8 0 1.39 0.99 1.89 0.99c0.4 0.99 0.7 1.99 0.39 2.98c0.31 0.99 0.01 1.99 -0.58 1.99c-0.5 0.99 -1.29 1.99 -2.29 1.99c-1.09 0.99 -2.19 0.99 -3.48 0.99c-2.19 0 -3.78 0 -4.97 -0.99c-1.09 -0.99 -1.79 -2.98 -2.09 -3.98zm17.01 4.97v-22.87L873.28 2009.57v7.96C874.57 2015.54 876.26 2015.54 878.25 2015.54c1.19 0 2.29 0 3.18 0c0.9 0.99 1.49 1.99 1.89 1.99c0.4 0.99 0.6 2.98 0.6 3.98v10.94L881.14 2032.44v-10.94c0 -0.99 -0.3 -1.99 -0.9 -2.98c-0.6 -0.99 -1.49 -0.99 -2.59 -0.99c-0.8 0 -1.59 0 -2.39 0.99c-0.7 0 -1.19 0.99 -1.49 1.99c-0.3 0 -0.5 0.99 -0.5 2.98v8.95zm18.5 0v-3.98h3.18l0 3.98zm23.77 0L903.91 2009.57h3.28l5.87 15.91c0.5 1.99 0.9 2.98 1.19 3.98c0.4 -0.99 0.8 -1.99 1.29 -3.98l6.17 -15.91l2.98 0l-8.85 22.87zm14.42 -19.89L927.18 2009.57l2.78 0v2.98zm0 19.89L927.18 2015.54h2.78v16.91zM933.05 2027.47L935.83 2026.48c0.2 0.99 0.6 1.99 1.29 2.98c0.7 0 1.69 0.99 2.98 0.99c1.29 0 2.29 -0.99 2.88 -0.99c0.6 -0.99 0.9 -0.99 0.9 -1.99c0 -0.99 -0.3 -0.99 -0.8 -0.99c-0.4 -0.99 -1.29 -0.99 -2.88 -0.99c-1.99 -0.99 -3.48 -0.99 -4.28 -1.99c-0.8 0 -1.39 -0.99 -1.79 -0.99c-0.4 -0.99 -0.6 -1.99 -0.6 -2.98C933.54 2019.52 933.74 2018.52 934.04 2017.53c0.3 0 0.8 -0.99 1.39 -0.99c0.4 0 0.99 -0.99 1.79 -0.99c0.7 0 1.49 0 2.39 0c1.29 0 2.49 0 3.38 0c0.99 0.99 1.79 0.99 2.19 1.99c0.5 0 0.8 0.99 0.99 1.99l-2.78 0.99c-0.1 -0.99 -0.4 -1.99 -0.99 -1.99C941.8 2017.53 940.9 2017.53 939.81 2017.53c-1.29 0 -2.19 0 -2.68 0.99c-0.6 0 -0.9 0.99 -0.9 0.99c0 0.99 0.1 0.99 0.4 0.99C936.83 2020.51 937.22 2021.51 937.62 2021.51c0.3 0 1.19 0 2.49 0.99c1.99 0 3.38 0.99 4.18 0.99c0.8 0 1.39 0.99 1.79 0.99c0.5 0.99 0.7 1.99 0.7 2.98c0 0.99 -0.3 1.99 -0.8 1.99c-0.6 0.99 -1.29 1.99 -2.39 1.99c-0.99 0.99 -2.19 0.99 -3.48 0.99c-2.09 0 -3.78 0 -4.87 -0.99c-1.09 -0.99 -1.89 -2.98 -2.19 -3.98z"/><path fill="none" stroke="#3D4443" d="M950.15 2012.56v-2.98h2.78v2.98zm0 19.89v-16.91l2.78 0v16.91zM963.28 2029.46l0.4 2.98c-0.8 0 -1.49 0 -2.09 0c-0.99 0 -1.79 0 -2.39 -0.99C958.7 2031.45 958.31 2031.45 958.01 2030.46c-0.2 0 -0.3 -1.99 -0.3 -2.98l-0.1 -9.94h-1.99v-1.99h2.09v-3.98l2.78 -1.99v5.97h2.78v1.99h-2.78v9.94C960.49 2028.47 960.49 2028.47 960.59 2029.46c0.1 0 0.3 0 0.5 0c0.3 0 0.6 0 0.99 0c0.3 0 0.7 0 1.19 0zm14.62 2.98l-5.07 -16.91h2.88l2.68 9.94l0.99 2.98C979.39 2028.47 979.69 2027.47 980.18 2025.48L982.87 2015.54h2.78l2.49 9.94l0.9 2.98l0.9 -2.98l2.88 -9.94h2.68l-5.17 16.91h-2.88l-2.68 -9.94l-0.6 -2.98l-3.38 12.93zm22.97 0l-5.07 -16.91h2.98l2.59 9.94l0.99 2.98c0 0 0.3 -0.99 0.8 -2.98l2.68 -9.94h2.88l2.49 9.94l0.8 2.98l0.9 -2.98l2.88 -9.94h2.68l-5.17 16.91l-2.88 0.35l-2.59 -10.29l-0.7 -2.98l-3.28 12.93zm22.97 0l-4.97 -16.91L1021.75 2015.54L1024.34 2025.48l0.99 2.98c0 0 0.3 -0.99 0.9 -2.98l2.59 -9.94h2.88l2.49 9.94L1034.98 2028.47l0.99 -2.98L1038.76 2015.54h2.68l-5.17 16.91h-2.88l-2.59 -9.94l-0.7 -2.98l-3.28 12.93zm20.78 0l0 -3.98h3.18v3.98zm8.06 5.97v-22.87L1055.16 2015.54v1.99c0.7 -0.99 1.29 -0.99 2.09 -1.99C1058.05 2015.54 1058.94 2015.54 1060.04 2015.54C1061.43 2015.54 1062.62 2015.54 1063.72 2016.53c1.09 0.99 1.89 1.99 2.49 2.98c0.5 0.99 0.8 2.98 0.39 3.98c0.4 1.99 0.1 2.98 -0.49 4.97c-0.6 0.99 -1.49 1.99 -2.69 2.98c-1.09 0.99 -2.39 0.99 -3.58 0.99C1058.84 2032.44 1058.05 2032.44 1057.25 2031.45c-0.7 0 -1.29 0 -1.79 -0.99v7.96zm2.49 -14.92C1055.16 2026.48 1055.66 2027.47 1056.46 2028.47c0.9 0.99 1.89 1.99 3.18 1.99C1060.83 2030.46 1061.93 2029.46 1062.82 2028.47c0.9 -0.99 1.29 -2.98 1.29 -4.97c0 -1.99 -0.4 -2.98 -1.29 -4.97c-0.9 -0.99 -1.89 -0.99 -3.08 -0.99C1058.55 2017.53 1057.45 2017.53 1056.56 2019.52c-0.9 0.99 -1.39 1.99 -1.39 3.98z"/><path fill="none" stroke="#3D4443" d="M1070.38 2032.44v-16.91L1072.87 2015.54v2.98c0.6 -1.99 1.19 -1.99 1.79 -2.98c0.5 0 1.09 0 1.39 0C1077.04 2015.54 1078.04 2015.54 1079.03 2016.53l-0.99 1.99c0 0 -0.99 0 -1.99 0c-0.4 0 -0.9 0 -1.39 0c-0.5 0.99 -0.8 0.99 -1.09 1.99C1073.26 2021.51 1073.16 2022.5 1073.16 2023.49v8.95zm10.64 -19.89v-2.98h2.98L1084 2012.56zm0 19.89v-16.91h2.98v16.91z"/><path fill="none" stroke="#3D4443" d="M1087.98 2032.44v-16.91h2.54l0.44 1.99c0.99 -0.99 2.98 -1.99 4.97 -1.99c0.99 0 1.99 0 2.98 0c0.99 0.99 0.99 0.99 1.99 1.99c0 0 0 0.99 0 1.99c0.99 0 0.99 0.99 0.99 1.99L1101.9 2032.44h-2.98l0 -9.94c0 -1.99 0 -1.99 -0.99 -2.98c0 -0.99 0 -0.99 -0.99 -0.99C1096.93 2017.53 1095.94 2017.53 1094.94 2017.53C1093.95 2017.53 1092.95 2018.52 1091.96 2018.52c-0.99 0.99 -0.99 1.99 -0.99 4.97v8.95zm23.87 -2.98v2.98c0 0 -0.99 0 -1.99 0c-0.99 0 -0.99 0 -1.99 -0.99c-0.99 0 -0.99 0 -0.99 -0.99c0 0 -0.99 -1.99 -0.99 -2.98L1105.88 2017.53h-1.99v-1.99h1.99l0 -3.98l2.98 -1.99l0 5.97h2.98v1.99h-2.98v9.94C1108.86 2028.47 1108.86 2028.47 1108.86 2029.46c0 0 0.99 0 0.99 0c0 0 0 0 0.99 0c0 0 0.99 0 0.99 0zm16.91 0v2.98h-14.92c0 -0.99 0 -1.99 0 -1.99c0 -0.99 0.99 -1.99 1.99 -2.98c0.99 -0.99 1.99 -1.99 3.98 -3.98c1.99 -1.99 3.98 -2.98 4.97 -4.97c0 -0.99 0.99 -1.99 0.99 -2.98c0 -0.99 -0.99 -1.99 -0.99 -2.98c-0.99 -0.99 -1.99 -0.99 -2.98 -0.99c-1.99 0 -2.98 0 -3.98 0.99c-0.99 0.99 -0.99 1.99 -0.99 3.98l-2.98 -0.99c0 -1.99 0.99 -3.98 1.99 -4.97c1.99 -0.99 2.98 -0.99 5.97 -0.99c1.99 0 3.98 0 4.97 0.99c0.99 1.99 1.99 2.98 1.99 4.97C1128.75 2016.53 1128.75 2017.53 1127.76 2018.52c0 0.99 -0.99 1.99 -1.99 2.98c-0.99 0 -1.99 1.99 -3.98 3.98c-1.99 0.99 -2.98 1.99 -2.98 1.99c-0.99 0.99 -0.99 0.99 -0.99 1.99zm3.98 2.98v-14.92h-1.99v-1.99h1.99v-1.99c0 -0.99 0 -1.99 0.99 -1.99c0 -0.99 0 -1.99 0.99 -1.99c0.99 0 1.99 -0.99 2.98 -0.99c0.99 0 1.99 0 2.98 0.99l-0.99 1.99c-0.99 0 -0.99 0 -1.99 0c0 0 -0.99 0 -0.99 0c-0.99 0.99 -0.99 1.99 -0.99 2.98v0.99h2.98v1.99h-2.98v14.92zm7.96 0v-22.87h3.01l-0.03 22.87zM1158.59 2030.46c-0.99 0 -1.99 0.99 -2.98 0.99c-0.99 0.99 -1.99 0.99 -2.98 0.99c-0.99 0 -2.98 0 -3.98 -0.99c-0.99 -0.99 -0.99 -1.99 -0.99 -3.98c0 -0.99 0 -0.99 0 -1.99c0.99 -0.99 0.99 -0.99 1.99 -1.99C1149.64 2023.49 1150.63 2023.49 1151.63 2023.49c0 -0.99 0.99 -0.99 1.99 -0.99c1.99 0 3.98 0 4.97 -0.99c0 0 0 -0.99 0 -0.99c0 -0.99 0 -1.99 -0.99 -1.99c0 -0.99 -0.99 -0.99 -2.98 -0.99c-0.99 0 -1.99 0 -2.98 0.99c0 0 -0.99 0.99 -0.99 1.99h-2.98c0 -0.99 0.99 -1.99 0.99 -2.98c0.99 -0.99 1.99 -0.99 2.98 -1.99c0.99 0 1.99 0 3.98 0c0.99 0 1.99 0 2.98 0c0.99 0.99 1.99 0.99 1.99 0.99c0 0.99 0.99 1.99 0.99 1.99c0 0.99 0 1.99 0 2.98v3.98c0 1.99 0 3.98 0 4.97c0 0 0.99 0.99 0.99 1.99h-2.63c-0.35 -0.99 -0.35 -1.99 -1.35 -1.99zM1158.59 2023.49c-0.99 0.99 -1.99 0.99 -3.98 0.99c-1.99 0.99 -1.99 0.99 -2.98 0.99c0 0 -0.99 0 -0.99 0.99c0 0 0 0.99 0 0.99c0 0.99 0 1.99 0.99 1.99c0 0.99 0.99 0.99 1.99 0.99c0.99 0 1.99 0 2.98 -0.99c0.99 0 0.99 -0.99 1.99 -1.99c0 0 0 -0.99 0 -2.98zm5.97 3.98l2.98 -0.99c0 0.99 0.99 1.99 0.99 2.98c0.99 0 1.99 0.99 2.98 0.99c1.99 0 2.98 -0.99 2.98 -0.99c0.99 -0.99 0.99 -0.99 0.99 -1.99c0 -0.99 0 -0.99 -0.99 -0.99c0 -0.99 -0.99 -0.99 -2.98 -0.99c-1.99 -0.99 -2.98 -0.99 -3.98 -1.99c-0.99 0 -0.99 -0.99 -1.99 -0.99c0 -0.99 0 -1.99 0 -2.98c0 0 0 -0.99 0 -1.99c0.99 0 0.99 -0.99 1.99 -0.99c0 0 0.99 -0.99 0.99 -0.99c0.99 0 1.99 0 2.98 0c0.99 0 1.99 0 2.98 0c0.99 0.99 1.99 0.99 1.99 1.99c0.99 0 0.99 0.99 0.99 1.99l-1.99 0.99c0 -0.99 -0.99 -1.99 -0.99 -1.99c-0.99 -0.99 -1.99 -0.99 -2.98 -0.99c-0.99 0 -1.99 0 -2.98 0.99c0 0 -0.99 0.99 -0.99 0.99c0 0.99 0.99 0.99 0.99 0.99c0 0 0 0.99 0.99 0.99c0 0 0.99 0 1.99 0.99c1.99 0 3.98 0.99 4.97 0.99c0 0 0.99 0.99 0.99 0.99c0.99 0.99 0.99 1.99 0.99 2.98c0 0.99 0 1.99 -0.99 1.99c0 0.99 -0.99 1.99 -1.99 1.99c-0.99 0.99 -1.99 0.99 -3.98 0.99c-1.99 0 -2.98 0 -4.97 -0.99c-0.99 -0.99 -0.99 -2.98 -1.99 -3.98z"/><path fill="none" stroke="#3D4443" d="M1181.46 2032.44v-22.87h2.98v7.96c1.99 -1.99 2.98 -1.99 4.97 -1.99c0.99 0 1.99 0 2.98 0c0.99 0.99 1.99 1.99 1.99 1.99C1195.38 2018.52 1195.38 2020.51 1195.38 2021.51v10.94h-2.98v-10.94c0 -0.99 0 -1.99 -0.99 -2.98c0 -0.99 -0.99 -0.99 -1.99 -0.99c-0.99 0 -1.99 0 -2.98 0.99c0 0 -0.99 0.99 -0.99 1.99c-0.99 0 -0.99 0.99 -0.54 2.98l-0.45 8.95zM1200.35 2032.44l0 -3.98h2.98v3.98zm18.89 -6.13l2.98 0.16c-0.99 1.99 -0.99 2.98 -2.98 3.98c-0.99 0.99 -1.99 1.99 -3.98 1.99c-1.99 0 -3.98 -0.99 -5.97 -1.99c-0.99 -1.99 -1.99 -3.98 -1.99 -6.96c0 -0.99 0.99 -2.98 0.99 -3.98c0.99 -1.99 1.99 -2.98 2.98 -2.98c0.99 -0.99 1.99 -0.99 3.98 -0.99c1.99 0 2.98 0 3.98 0.57c0.99 1.42 1.99 2.41 1.99 4.4L1219.25 2020.51c-0.99 -0.99 -0.99 -1.99 -2.34 -1.99C1217.26 2017.53 1216.27 2017.53 1215.27 2017.53c-0.99 0 -2.98 0.99 -3.98 1.99c0 0.99 -0.99 1.99 -0.99 3.98c0 2.98 0.99 3.98 0.99 4.97c0.99 0.99 1.99 1.99 3.98 1.99c0.99 0 1.99 -0.99 2.98 -0.99c0 -0.99 0.99 -1.99 0.99 -2.98zm3.98 -2.98c0 -2.98 0.99 -4.97 2.98 -5.9c0.99 -2.06 2.98 -2.06 4.97 -2.06c1.99 0 3.98 0 4.97 1.99c1.99 0.99 2.98 2.98 2.98 5.97c0 1.99 -0.99 3.98 -0.99 4.97c-0.99 0.99 -1.99 1.99 -2.98 2.98c-0.99 0.99 -2.98 0.99 -3.98 0.99c-1.99 0 -3.98 -0.99 -5.97 -1.99c-0.99 -1.99 -1.99 -3.98 -1.99 -6.96zm2.98 0c0 1.99 0 3.98 0.99 4.84c0.99 1.13 1.99 2.13 3.98 2.13c0.99 0 1.99 -0.99 2.98 -1.99c0.99 -0.99 1.99 -2.98 1.99 -4.97C1236.15 2021.51 1235.16 2020.51 1234.17 2019.52c-0.99 -0.99 -1.99 -1.99 -2.98 -1.99c-1.99 0 -2.98 0.99 -3.98 1.99C1226.21 2020.51 1226.21 2021.51 1226.21 2023.49zm15.91 8.95v-17.27l1.99 0.83v1.96c0.99 -0.44 1.99 -1.43 2.98 -2.43c0 0 0.99 0 1.99 0c1.99 0 2.98 0 2.98 0c0.99 0.99 1.99 1.99 1.99 2.98c0.99 -1.99 2.98 -2.98 4.97 -2.98c1.99 0 2.98 0 3.98 0.99c0.99 0.99 0.99 1.99 0.99 3.98v11.93L1262.01 2032.44v-10.94c0 -0.99 0 -1.99 -0.99 -1.99c0 -0.99 0 -0.99 -0.99 -0.99c0 -0.99 -0.99 -0.99 -0.99 -0.99c-1.99 0 -1.99 0.99 -2.98 0.99c-0.99 0.99 -0.99 1.99 -0.99 3.98v9.94h-2.98l0 -10.94c0 -0.99 0 -1.99 -0.99 -2.98c0 -0.99 -0.99 -0.99 -1.99 -0.99c-0.99 0 -1.99 0 -1.99 0.99c-0.99 0 -1.99 0.99 -1.99 1.99C1245.1 2020.51 1245.1 2022.5 1245.1 2023.49v8.95zm35.8 0v-14.92h-1.99v-1.99h1.99v-1.99c0 -0.99 0 -1.99 0 -1.99c0.99 -0.99 0.99 -1.99 1.99 -1.99c0.99 0 1.99 -0.99 2.98 -0.99c0.99 0 0.99 0 1.94 0.99l0.05 1.99c-0.99 0 -0.99 0 -1.99 0c-0.99 0 -0.99 0 -1.99 0C1280.9 2012.56 1280.9 2013.55 1280.9 2014.54v0.99l2.98 0l0 1.99h-2.98l0 14.92zm6.96 -8.95c0 -2.98 0.99 -4.97 2.98 -5.97c0.99 -1.99 2.98 -1.99 4.97 -1.99c1.99 0 3.98 0 5.97 1.99c0.99 0.99 1.99 2.98 1.99 5.97c0 1.99 0 3.98 -0.99 4.97c-0.99 0.99 -1.99 1.99 -2.98 2.98c-0.99 0.99 -1.99 0.99 -3.98 0.99c-1.99 0 -3.98 -0.99 -5.97 -2.06c-0.99 -1.92 -1.99 -3.91 -1.99 -6.89zm2.98 0c0 1.99 0.99 3.98 1.99 4.97c0.99 0.99 1.99 1.99 2.98 1.99c0.99 0 2.98 -0.99 3.98 -1.99c0.99 -0.99 0.99 -2.98 0.99 -4.97c0 -1.99 0 -2.98 -0.99 -3.98c-0.99 -0.99 -2.98 -1.99 -3.98 -1.99c-0.99 0 -1.99 0.99 -2.98 1.99c-0.99 0.99 -1.99 1.99 -1.99 3.98zm15.62 8.95v-16.91h2.98v2.98c0 -1.99 0.99 -1.99 0.99 -2.98c0.99 0 1.99 0 1.99 0c0.99 0 1.99 0 2.98 0.99l-0.99 1.99c-0.99 0 -0.99 0 -1.99 0c0 0 -0.99 0 -1.99 0c0 0.99 0 0.99 -0.99 1.99c0 0.99 0 1.99 0 2.98v8.95zm19.89 0l0 -16.91h1.99v1.99c0.99 0 0.99 -0.99 1.99 -1.99c0.99 0 1.99 0 2.98 0c1.99 0 2.98 0 2.98 0c0.99 0.99 1.99 1.99 1.99 2.98c0.99 -1.99 2.98 -2.98 4.97 -2.98C1342.56 2015.54 1343.55 2015.54 1344.55 2016.53c0.99 0.99 0.99 1.99 0.99 3.98v11.93h-2.98L1342.56 2021.51c0 -0.99 0 -1.99 0 -1.99C1342.56 2018.52 1342.56 2018.52 1341.57 2018.52C1341.57 2017.53 1340.57 2017.53 1339.58 2017.53c-0.99 0 -1.99 0.99 -1.99 0.99c-0.99 0.99 -1.99 1.99 -1.99 3.98L1335.6 2032.44h-1.99v-10.94c0 -0.99 -0.99 -1.99 -0.99 -2.98c-0.99 -0.99 -0.99 -0.99 -1.99 -0.99c-0.99 0 -1.99 0 -2.98 0.99c0 0 -0.99 0.99 -0.99 1.99c0 0 0 1.99 0 2.98v8.95zm24.86 -8.95c0 -2.98 0.99 -4.97 2.98 -5.97C1352.5 2015.54 1354.49 2015.54 1356.48 2015.54c1.99 0 3.98 0 6.1 1.99c0.86 0.99 1.86 2.98 1.86 5.97c0 1.99 0 3.98 -0.99 4.97c-0.99 0.99 -1.99 1.99 -2.98 2.98c-0.99 0.99 -1.99 0.99 -3.98 0.99c-1.99 0 -3.98 -0.99 -4.97 -1.99c-1.99 -1.99 -2.98 -3.98 -2.98 -6.96zM1351.51 2023.49c0 1.99 0.99 3.98 1.99 4.97c0.99 0.99 1.99 1.99 2.98 1.99C1358.47 2030.46 1359.47 2029.46 1360.46 2028.47c0.99 -0.99 0.99 -2.98 0.99 -4.97c0 -1.99 0 -2.98 -0.99 -3.98c-0.99 -0.99 -1.99 -1.99 -3.98 -1.99c-0.99 0 -1.99 0.99 -2.98 1.99c-0.99 0.99 -1.99 1.99 -1.99 3.98zm15.91 8.95v-16.91h2.98v2.98c0 -1.99 0.99 -1.99 1.99 -2.98c0 0 0.99 0 0.99 0c0.99 0 1.99 0 2.98 0.99l-0.99 1.99C1375.38 2018.52 1374.38 2018.52 1373.39 2018.52c0 0 -0.99 0 -0.99 0c-0.99 0.99 -0.99 0.99 -1.99 1.99C1370.41 2021.51 1370.41 2022.5 1370.41 2023.49v8.95zM1389.3 2026.48L1392.28 2027.47c0 0.99 -0.99 2.98 -1.99 3.98c-1.99 0.99 -2.98 0.99 -4.97 0.99c-2.98 0 -3.98 -0.99 -5.97 -1.99c-0.99 -1.99 -1.99 -3.98 -1.99 -5.97c0 -2.98 0.99 -4.97 1.99 -6.96c1.99 -1.99 2.98 -1.99 5.97 -1.99C1387.31 2015.54 1389.3 2015.54 1390.29 2017.53c1.99 0.99 1.99 3.98 1.99 5.97C1392.28 2023.49 1392.28 2024.49 1392.28 2024.49L1380.35 2024.49c0 1.99 0.99 2.98 0.99 3.98c0.99 0.99 2.98 1.99 3.98 1.99c0.99 0 1.99 -0.99 2.98 -0.99c0 -0.99 0.99 -0.99 0.99 -2.98zM1380.35 2022.5h8.95C1389.3 2020.51 1389.3 2019.52 1388.3 2019.52c-0.99 -0.99 -1.99 -1.99 -2.98 -1.99c-1.99 0 -2.98 0 -2.98 0.99c-0.99 0.99 -1.99 1.99 -1.99 3.98zm24.86 -9.94L1405.21 2009.57h1.99l0 2.98zm0 19.89v-16.91h1.99l0 16.91zm6.96 0v-16.91h1.99l0 1.99c0.99 -0.99 2.98 -1.99 5.97 -1.99c0.99 0 0.99 0 1.99 0C1423.11 2016.53 1424.1 2016.53 1424.1 2017.53c0.99 0 0.99 0.99 0.99 1.99c0 0 0 0.99 0 1.99v10.94h-2.98v-9.94c0 -1.99 0 -1.99 0 -2.98c0 -0.99 -0.99 -0.99 -0.99 -0.99c-0.99 -0.99 -0.99 -0.99 -1.99 -0.99C1418.14 2017.53 1417.14 2018.52 1416.15 2018.52C1415.15 2019.52 1415.15 2020.51 1415.15 2023.49v8.95zm17.9 0v-14.92h-1.99v-1.99L1430.07 2015.54v-1.99c0 -0.99 0 -1.99 0.99 -1.99c0 -0.99 0 -1.99 0.99 -1.99c0.99 0 1.99 -0.99 2.98 -0.99c0.99 0 0.99 0 1.99 0.99v1.99c-0.99 0 -0.99 0 -1.99 0c0 0 -0.99 0 -0.99 0c-0.99 0.99 -0.99 1.99 -0.99 2.98v0.99h2.98l0 1.99L1433.06 2017.53v14.92zm6.96 -8.95c0 -2.98 0.99 -4.97 2.98 -5.97c0.99 -1.99 2.98 -1.99 4.97 -1.99c1.99 0 3.98 0 5.97 1.99c0.99 0.99 1.99 2.98 1.99 5.97C1452.94 2025.48 1452.94 2027.47 1451.95 2028.47c-0.99 0.99 -1.99 1.99 -2.98 2.98c-0.99 0.99 -1.99 0.99 -3.98 0.99c-1.99 0 -3.98 -0.99 -4.97 -1.99c-1.99 -1.99 -2.98 -3.98 -2.98 -6.96zm2.98 0C1440.02 2025.48 1441.01 2027.47 1442.01 2028.47c0.99 0.99 1.99 1.99 2.98 1.99c1.99 0 2.98 -0.99 3.98 -1.99c0.99 -0.99 0.99 -2.98 0.99 -4.97c0 -1.99 0 -2.98 -0.99 -3.98c-0.99 -0.99 -1.99 -1.99 -3.98 -1.99c-0.99 0 -1.99 0.99 -2.98 1.99c-0.99 0.99 -1.99 1.99 -1.99 3.98zM1455.93 2032.44v-16.91h2.98l0 2.98c0 -1.99 0.99 -1.99 1.99 -2.98c0 0 0.99 0 0.99 0c0.99 0 1.99 0 2.98 0.99l-0.99 1.99c0 0 -0.99 0 -1.99 0c0 0 -0.99 0 -0.99 0c-0.99 0.99 -0.99 0.99 -1.99 1.99c0 0.99 0 1.99 0 2.98v8.95zm10.94 -0.1v-16.81h1.99L1468.86 2017.53c0.99 0 1.99 -0.99 2.98 -1.99c0 0 0.99 0 1.99 0c1.99 0 2.98 0 3.41 0c0.57 0.99 1.56 1.99 1.56 2.98c0.99 -1.99 2.98 -2.98 4.97 -2.98C1485.76 2015.54 1486.76 2015.54 1487.75 2016.53C1488.74 2017.53 1488.74 2018.52 1488.74 2020.51v11.93h-1.99v-10.94C1486.76 2020.51 1486.76 2019.52 1485.76 2019.52c0 -0.99 0 -0.99 -0.99 -0.99c0 -0.99 -0.99 -0.99 -0.99 -0.99c-1.99 0 -1.99 0.99 -2.98 0.99c-0.99 0.99 -0.99 1.99 -0.99 3.98v9.94l-2.98 0L1476.81 2021.51c0 -0.99 0 -1.99 -0.99 -2.98c0 -0.99 -0.99 -0.99 -1.99 -0.99c-0.99 0 -1.99 0 -1.99 0.99c-0.99 0 -1.99 0.99 -1.99 1.99c0 0 0 1.99 0 2.98v8.76zm36.79 -2.42c-0.99 0.43 -1.99 1.43 -2.98 1.43C1499.68 2032.44 1498.69 2032.44 1497.69 2032.44c-0.99 0 -2.98 0 -3.98 -0.99c-0.99 -0.99 -0.99 -1.99 -0.99 -3.98c0 -0.99 0 -0.99 0 -1.99c0.99 -0.99 0.99 -0.99 1.99 -1.99c0 0 0.99 0 1.99 0c0 -0.99 0.99 -0.99 1.99 -0.99c1.99 0 3.98 0 4.97 -0.99c0 0 0 -0.99 0 -0.99c0 -0.99 0 -1.99 -0.99 -1.99c0 -0.99 -0.99 -0.99 -2.98 -0.99c-0.99 0 -1.99 0 -2.98 0.99c0 0 -0.99 0.99 -0.99 1.99h-2.98c0 -0.99 0.99 -1.99 0.99 -2.98c0.99 -0.99 1.99 -0.99 2.98 -1.99c0.99 0 1.99 0 3.98 0c0.99 0 1.99 0 2.98 0c0.99 0.99 1.99 0.99 1.99 0.99c0 0.99 0.99 1.99 0.99 1.99c0 0.99 0 1.99 0 2.98v3.98c0 1.99 0 3.98 0 4.97C1506.64 2030.46 1507.64 2031.45 1507.64 2032.44h-2.98c0 -0.99 0 -1.99 -0.99 -1.99zM1503.66 2023.49c-0.99 0.99 -1.99 0.99 -3.98 0.99c-1.99 0.99 -1.99 0.99 -2.98 0.99c0 0 -0.99 0 -0.99 0.99c0 0 0 0.99 0 0.99c0 0.99 0 1.99 0.99 1.99c0 0.99 0.99 0.99 1.99 0.99c0.99 0 1.99 0 2.98 -0.99C1502.67 2029.46 1502.67 2028.47 1503.66 2027.47C1503.66 2027.47 1503.66 2026.48 1503.66 2024.49zm13.92 5.97v2.98c-0.99 0 -1.99 0 -1.99 0c-0.99 0 -1.99 0 -2.98 -0.99c0 0 0 0 -0.99 -0.99c0 0 0 -1.99 0 -2.98v-9.94h-1.99v-1.99h1.99v-3.98l2.98 -1.99v5.97h2.98v1.99h-2.98L1514.6 2027.47c0 0.99 0 0.99 0 1.99c0 0 0 0 0 0c0.99 0 0.99 0 0.99 0c0.99 0 0.99 0 1.99 0zm1.99 -16.91v-2.98l2.98 0v2.98zm0 19.89v-16.91h2.98v16.91zm5.97 -8.95C1525.54 2020.51 1526.53 2018.52 1528.52 2017.53c0.99 -1.99 2.98 -1.99 4.97 -1.99c1.99 0 3.98 0 5.97 1.99c0.99 0.99 1.99 2.98 1.99 5.97c0 1.99 0 3.98 -0.99 4.97c-0.99 0.99 -1.99 1.99 -2.98 2.98c-0.99 0.99 -1.99 0.99 -3.98 1.06c-1.99 -0.06 -3.98 -1.06 -4.97 -2.05c-1.99 -1.99 -2.98 -3.98 -2.98 -6.96zm2.98 0C1528.52 2025.48 1529.52 2027.47 1530.51 2028.47c0.99 0.99 1.99 1.99 2.98 1.99c1.99 0 2.98 -0.99 3.98 -1.99c0.99 -0.99 0.99 -2.98 0.99 -4.97c0 -1.99 0 -2.98 -0.99 -3.98c-0.99 -0.99 -1.99 -1.99 -3.98 -1.99C1532.5 2017.53 1531.51 2018.52 1530.51 2019.52c-0.99 0.99 -1.99 1.99 -1.99 3.98zm15.91 8.95v-16.91h2.98v1.99C1548.41 2016.53 1550.4 2015.54 1552.39 2015.54c0.99 0 1.99 0 2.98 0c0.99 0.99 0.99 0.99 1.99 1.99c0 0 0 0.99 0.99 1.99c0 0 0 0.99 -0.33 1.99l0.33 10.94h-2.98l-0.5 -9.94C1555.37 2020.51 1555.37 2020.51 1555.37 2019.52c-0.99 -0.99 -0.99 -0.99 -1.99 -0.99c0 -0.99 -0.99 -0.99 -1.99 -0.99c-0.99 0 -1.99 0.99 -2.98 0.99C1547.42 2019.52 1547.42 2020.51 1547.42 2023.49v8.95z"/></g></svg>
