<?xml version="1.0" encoding="utf-8"?>
<svg xmlns="http://www.w3.org/2000/svg" xmlns:xlink="http://www.w3.org/1999/xlink" version="1.1" width="1632" height="2112" viewBox="0 0 1632 2112" xml:space="preserve" PageMode="4" layout="0"><defs><style type="text/css"><![CDATA[tspan{white-space:pre}
]]></style></defs><g id="content" view="2"><image x="46" y="0" width="1540" height="2112" xlink:href="img7.jpg"/><path fill="#F9FAF5" d="M76 2005h1501v42h-1501z"/><path fill="none" stroke="#010700" d="M89.11 2032.44v-20.88h-7.51L81.6 2009.57l18.06 0v1.99h-7.54v20.88zm13.3 0v-22.87h2.79v7.96c1.31 -1.99 2.95 -1.99 4.94 -1.99c1.22 0 2.29 0 3.19 0c0.9 0.99 1.54 1.99 1.93 1.99c0.39 0.99 0.59 2.98 0.59 3.98v10.94h-2.79v-10.94c0 -0.99 -0.31 -1.99 -0.91 -2.98c-0.61 -0.99 -1.46 -0.99 -2.57 -0.99c-0.84 0 -1.61 0 -2.35 0.99c-0.73 0 -1.24 0.99 -1.56 1.99c-0.31 0 -0.47 0.99 -0.47 2.98v8.95zm17.73 -19.89v-2.98h2.79L122.93 2012.56zM120.13 2032.44v-16.91h2.79L122.93 2032.44zm5.95 -4.97l2.77 -0.99c0.15 0.99 0.59 1.99 1.29 2.98c0.71 0 1.7 0.99 2.97 0.99c1.28 0 2.24 -0.99 2.86 -0.99c0.62 -0.99 0.92 -0.99 0.93 -1.99c0 -0.99 -0.28 -0.99 -0.83 -0.99c-0.39 -0.99 -1.34 -0.99 -2.86 -0.99c-2.05 -0.99 -3.47 -0.99 -4.27 -1.99c-0.79 0 -1.39 -0.99 -1.8 -0.99c-0.41 -0.99 -0.62 -1.99 -0.62 -2.98C126.55 2019.52 126.72 2018.52 127.06 2017.53c0.34 0 0.8 -0.99 1.37 -0.99c0.44 0 1.03 -0.99 1.78 -0.99c0.76 0 1.56 0 2.42 0c1.29 0 2.44 0 3.41 0c0.98 0.99 1.7 0.99 2.17 1.99c0.47 0 0.79 0.99 0.96 1.99l-2.73 0.99c-0.12 -0.99 -0.49 -1.99 -1.08 -1.99c-0.59 -0.99 -1.43 -0.99 -2.52 -0.99c-1.29 0 -2.21 0 -2.75 0.99c-0.55 0 -0.83 0.99 -0.83 0.99c0 0.99 0.12 0.99 0.35 0.99c0.22 0 0.58 0.99 1.06 0.99c0.28 0 1.1 0 2.48 0.99c1.98 0 3.36 0.99 4.14 0.99c0.79 0 1.4 0.99 1.84 0.99C139.57 2025.48 139.8 2026.48 139.8 2027.47c0 0.99 -0.28 1.99 -0.82 1.99c-0.55 0.99 -1.33 1.99 -2.36 1.99c-1.02 0.99 -2.19 0.99 -3.48 0.99C130.99 2032.44 129.36 2032.44 128.24 2031.45c-1.12 -0.99 -1.84 -2.98 -2.16 -3.98z"/><path fill="none" stroke="#010700" d="M162.65 2032.44L162.65 2030.46c-1.04 0.99 -2.59 1.99 -4.61 1.99c-1.31 0 -2.53 0 -3.63 -0.99c-1.1 -0.99 -1.96 -1.99 -2.57 -2.98c-0.61 -0.99 -0.9 -2.98 -0.9 -4.97c0 -0.99 0.27 -2.98 0.83 -3.98c0.55 -0.99 1.37 -2.98 2.47 -2.98c1.1 -0.99 2.33 -0.99 3.68 -0.99c0.99 0 1.88 0 2.67 0c0.78 0.99 1.4 0.99 1.89 1.99v-7.96h2.78v22.87zm-8.84 -8.95c0 2.98 0.45 3.98 1.33 4.97c0.9 0.99 1.95 1.99 3.16 1.99c1.21 0 2.26 -0.99 3.11 -1.99c0.86 -0.99 1.28 -1.99 1.28 -3.98c0 -2.98 -0.44 -3.98 -1.31 -4.97c-0.87 -0.99 -1.94 -1.99 -3.21 -1.99c-1.24 0 -2.28 0.99 -3.11 1.99c-0.84 0.99 -1.25 1.99 -1.25 3.98zM168.61 2023.49C168.61 2020.51 169.46 2018.52 171.16 2017.53c1.42 -1.99 3.15 -1.99 5.19 -1.99c2.27 0 4.13 0 5.59 1.99c1.39 0.99 2.09 2.98 2.09 5.97c0 1.99 -0.3 3.98 -0.9 4.97c-0.7 0.99 -1.59 1.99 -2.79 2.98c-1.21 0.99 -2.55 0.99 -3.99 0.99c-2.31 0 -4.18 -0.99 -5.6 -1.99c-1.42 -1.99 -2.14 -3.98 -2.14 -6.96z"/><path fill="none" stroke="#010700" d="M171.49 2023.49c0 1.99 0.46 3.98 1.38 4.97c0.92 0.99 2.08 1.99 3.48 1.99c1.39 0 2.55 -0.99 3.47 -1.99c0.91 -0.99 1.42 -2.98 1.42 -4.97c0 -1.99 -0.51 -2.98 -1.43 -3.98c-0.92 -0.99 -2.08 -1.99 -3.46 -2.38C174.95 2017.53 173.8 2018.52 172.87 2019.52c-0.92 0.99 -1.38 1.99 -1.38 3.98zm26.66 2.98h2.78c-0.3 1.99 -1.09 2.98 -2.39 3.98c-1.19 0.99 -2.69 1.99 -4.57 1.99c-2.19 0 -3.98 -0.99 -5.37 -1.99c-1.39 -1.99 -2.09 -3.98 -2.09 -6.96c0 -0.99 0.3 -2.98 0.9 -3.98c0.6 -1.99 1.49 -2.98 2.68 -2.98c1.19 -0.99 2.49 -0.99 3.98 -0.99c1.79 0 3.18 0 4.38 0.99c1.09 0.99 1.89 1.99 2.19 3.98h-2.69c-0.3 -0.99 -0.8 -1.99 -1.39 -1.99c-0.7 -0.99 -1.49 -0.99 -2.39 -0.99c-1.39 0 -2.59 0.99 -3.48 1.99c-0.9 0.99 -1.29 1.99 -1.75 3.98c0.46 2.98 0.86 3.98 1.75 4.97c0.8 0.99 1.89 1.99 3.28 1.99c1.09 0 1.99 -0.99 2.78 -0.99c0.7 -0.99 1.19 -1.99 1.39 -2.98zm15.91 5.97v-2.98c-1.29 1.99 -2.98 2.98 -5.17 2.98c-0.99 0 -1.89 0 -2.78 -0.99c-0.8 0 -1.49 0 -1.89 -0.99c-0.4 -0.99 -0.7 -0.99 -0.8 -1.99c-0.1 -0.99 -0.2 -0.99 -0.2 -2.98v-9.94h2.78v8.95c0 1.99 0.1 2.98 0.2 2.98c0.2 0.99 0.5 1.99 1.09 1.99c0.6 0 1.29 0.99 2.09 0.99c0.9 0 1.69 -0.99 2.39 -0.99c0.7 0 1.29 -0.99 1.59 -1.99c0.3 -0.99 0.4 -1.99 0.4 -2.98v-8.95h2.88v16.91zm6.96 0.23v-17.14l2.49 0v1.99c0.5 0 1.19 -0.99 2.09 -1.99c0.8 0 1.79 0 2.88 0c1.19 0 2.29 0 2.98 0c0.8 0.99 1.39 1.99 1.69 2.98c1.29 -1.99 2.98 -2.98 5.07 -2.98c1.69 0 2.88 0 3.78 0.99c0.9 0.99 1.39 1.99 1.39 3.98l0 11.93h-2.78v-10.94c0 -0.99 -0.1 -1.99 -0.3 -1.99c-0.2 -0.99 -0.5 -0.99 -0.99 -0.99c-0.5 -0.99 -0.99 -0.99 -1.69 -0.99c-1.19 0 -2.09 0.99 -2.88 0.99c-0.8 0.99 -1.19 1.99 -1.19 3.98v9.94l-2.78 0v-10.94c0 -0.99 -0.2 -1.99 -0.7 -2.98c-0.4 -0.99 -1.19 -0.99 -2.19 -0.99c-0.8 0 -1.49 0 -2.19 0.99c-0.7 0 -1.19 0.99 -1.49 1.99c-0.3 0 -0.4 1.99 -0.4 2.98v8.95zm37.79 -5.96l2.88 0.99c-0.4 0.99 -1.29 2.98 -2.49 3.98c-1.29 0.99 -2.78 0.99 -4.77 0.99c-2.39 0 -4.28 -0.99 -5.67 -1.99c-1.49 -1.99 -2.19 -3.98 -2.19 -5.97c0 -2.98 0.7 -4.97 2.19 -6.96c1.39 -1.99 3.28 -1.99 5.57 -1.99c2.19 0 3.98 0 5.37 1.99C261.1 2018.52 261.79 2021.51 261.79 2023.49c0 0 0 0.99 0 0.99l-12.33 0c0.1 1.99 0.6 2.98 1.16 3.98c1.33 0.99 2.52 1.99 3.81 1.99c1.09 0 1.99 -0.99 2.69 -0.99c0.7 -0.99 1.29 -0.99 1.69 -2.98zm-9.15 -3.98h9.25c-0.2 -1.99 -0.5 -2.98 -1.09 -2.98c-0.89 -0.99 -2.09 -1.99 -3.48 -1.99c-1.29 0 -2.39 0 -3.28 0.99c-0.8 0.99 -1.29 1.99 -1.39 3.98zm15.61 9.94v-16.91h2.49l0 1.99c1.19 -0.99 2.98 -1.99 5.27 -2.43c0.99 0.44 1.89 0.44 2.68 0.44c0.9 0.99 1.49 0.99 1.89 1.99c0.4 0 0.7 0.99 0.89 1.99c0.1 0 0.2 0.99 0.2 1.99L278.7 2032.44h-2.88l0 -9.94c0 -1.99 -0.1 -1.99 -0.3 -2.98c-0.2 -0.99 -0.6 -0.99 -1.09 -0.99c-0.6 -0.99 -1.29 -0.99 -1.99 -0.99c-1.19 0 -2.19 0.99 -3.08 0.99c-0.89 0.99 -1.29 1.99 -1.29 4.97v8.95zm23.29 -2.98l0.88 2.98c-0.8 0 -1.49 0 -2.09 0C286.36 2032.44 285.56 2032.44 284.96 2031.45c-0.5 0 -0.89 0 -1.19 -0.99c-0.2 0 -0.3 -1.99 -0.3 -2.98v-9.94h-2.09v-1.99l2.09 0v-3.98l2.78 -1.99v5.97h2.78v1.99h-2.78v9.94c0 0.99 0 0.99 0.1 1.99c0.1 0 0.3 0 0.5 0c0.3 0 0.6 0 0.99 0c0.3 0 0.7 0 1.19 0zm11.64 -16.91v-2.98h2.78v2.98zm0 19.89v-16.91h2.78v16.91zm5.87 -4.97l2.78 -0.99c0.2 0.99 0.6 1.99 1.29 2.98c0.7 0 1.69 0.99 2.98 0.99c1.29 0 2.29 -0.99 2.88 -0.99C317.09 2028.47 317.38 2028.47 317.38 2027.47c0 -0.99 -0.3 -0.99 -0.8 -0.99C316.19 2025.48 315.3 2025.48 313.7 2025.48c-1.99 -0.99 -3.48 -0.99 -4.28 -1.99c-0.8 0 -1.39 -0.99 -1.79 -0.99c-0.4 -0.99 -0.6 -1.99 -0.6 -2.98c0 0 0.2 -0.99 0.5 -1.99c0.3 0 0.8 -0.99 1.39 -0.99c0.4 0 0.99 -0.99 1.79 -0.99c0.7 0 1.49 0 2.39 0c1.29 0 2.49 0 3.38 0c0.99 0.99 1.79 0.99 2.19 1.99c0.5 0 0.8 0.99 0.99 1.99l-2.78 0.99c-0.1 -0.99 -0.4 -1.99 -0.99 -1.99c-0.6 -0.99 -1.49 -0.99 -2.59 -0.99c-1.29 0 -2.19 0 -2.68 0.99c-0.6 0 -0.9 0.99 -0.9 0.99C309.73 2020.51 309.83 2020.51 310.12 2020.51c0.2 0 0.6 0.99 0.99 0.99c0.3 0 1.19 0 2.49 0.99c1.99 0 3.38 0.99 4.18 0.99c0.8 0 1.39 0.99 1.71 0.99c0.58 0.99 0.77 1.99 0.77 2.98c0 0.99 -0.3 1.99 -0.8 1.99C318.88 2030.46 318.18 2031.45 317.09 2031.45c-0.99 0.99 -2.19 0.99 -3.48 0.99C311.52 2032.44 309.83 2032.44 308.73 2031.45c-1.09 -0.99 -1.89 -2.98 -2.19 -3.98zm25.86 10.94l0 -22.87h2.59v1.99C335.58 2016.53 336.28 2016.53 336.97 2015.54c0.8 0 1.69 0 2.78 0c1.39 0 2.68 0 3.78 0.99c0.99 0.99 1.89 1.99 2.39 2.98c0.6 0.99 0.8 2.98 0.8 3.98C346.72 2025.48 346.42 2026.48 345.82 2028.47c-0.6 0.99 -1.49 1.99 -2.59 3.12c-1.19 0.86 -2.39 0.86 -3.68 0.86c-0.89 0 -1.79 0 -2.49 -0.99c-0.8 0 -1.39 0 -1.89 -0.99v7.96zm2.59 -14.92c0 2.98 0.4 3.98 1.29 4.81C337.07 2029.46 338.17 2030.46 339.36 2030.46C340.65 2030.46 341.65 2029.46 342.54 2028.47c0.89 -0.99 1.39 -2.98 1.39 -4.97c0 -1.99 -0.5 -2.98 -1.29 -4.97c-0.89 -0.99 -1.89 -0.99 -3.18 -0.99c-1.19 0 -2.19 0 -3.08 1.99C335.38 2020.51 334.99 2021.51 334.99 2023.49zm15.12 8.95l0 -16.91h2.49v2.98c0.7 -1.99 1.29 -1.99 1.79 -2.98c0.6 0 1.19 0 1.79 0c0.99 0 1.99 0 2.88 0.99L358.16 2018.52c-0.7 0 -1.39 0 -2.09 0c-0.6 0 -1.19 0 -1.69 0c-0.4 0.99 -0.8 0.99 -0.99 1.99C353.08 2021.51 352.89 2022.5 352.89 2023.49L352.89 2032.44zm9.65 -8.95c0 -2.98 0.8 -4.97 2.59 -5.97c1.39 -1.99 3.08 -1.99 5.17 -1.99c2.19 0 4.07 0 5.57 1.99c1.39 0.99 2.09 2.98 2.09 5.97c0 1.99 -0.3 3.98 -0.89 4.97c-0.7 0.99 -1.59 1.99 -2.78 2.98c-1.19 0.99 -2.59 0.99 -3.98 0.99C365.12 2032.44 363.33 2031.45 361.84 2030.46c-1.39 -1.99 -2.09 -3.98 -2.09 -6.96zm2.88 0c0 1.99 0.4 3.98 1.39 4.97c0.89 0.99 2.09 1.99 3.48 1.99c1.39 0 2.49 -0.99 3.48 -1.99c0.89 -0.99 1.29 -2.98 1.29 -4.97c0 -1.99 -0.4 -2.98 -1.39 -3.98c-0.89 -0.99 -1.99 -1.99 -3.38 -1.99c-1.39 0 -2.59 0.99 -3.48 1.99c-0.99 0.99 -1.39 1.99 -1.39 3.98zm26.55 8.95L389.18 2030.46c-0.99 0.99 -2.59 1.99 -4.57 1.99c-1.39 0 -2.59 0 -3.68 -0.99c-1.09 -0.99 -1.89 -1.99 -2.59 -2.98c-0.6 -0.99 -0.89 -2.98 -0.89 -4.97c0 -0.99 0.3 -2.98 0.89 -3.98c0.5 -0.99 1.29 -2.98 2.39 -2.98c1.09 -0.99 2.39 -0.99 3.62 -0.99c1.05 0 1.94 0 2.74 0C387.89 2016.53 388.49 2016.53 388.98 2017.53v-7.96L391.77 2009.94l0 22.51zm-8.85 -8.95c0 2.98 0.5 3.98 1.39 4.97C382.62 2029.46 383.61 2030.46 384.81 2030.46c1.29 0 2.29 -0.99 3.18 -1.99c0.8 -0.99 1.29 -1.99 1.29 -3.98c0 -2.98 -0.5 -3.98 -1.39 -4.97c-0.8 -0.99 -1.89 -1.99 -3.18 -1.99c-1.19 0 -2.29 0.99 -3.08 1.99c-0.89 0.99 -1.29 1.99 -1.29 3.98zm26.65 8.95v-2.98c-1.29 1.99 -2.98 2.98 -5.17 2.98C400.82 2032.44 399.92 2032.44 399.03 2031.45c-0.8 0 -1.49 0 -1.89 -0.99c-0.4 -0.99 -0.7 -0.99 -0.8 -1.99C396.24 2027.47 396.14 2027.47 396.14 2025.48v-9.94h2.78v8.95c0 1.99 0.1 2.98 0.2 2.98c0.2 0.99 0.5 1.99 1.09 1.99c0.6 0 1.29 0.99 2.09 0.99c0.89 0 1.69 -0.99 2.39 -0.99c0.7 0 1.29 -0.99 1.59 -1.99c0.3 -0.99 0.4 -1.99 0.4 -2.98v-8.95h2.88l0 16.91zm17.7 -5.97h2.78c-0.3 1.99 -1.09 2.98 -2.39 3.98C423.89 2031.45 422.4 2032.44 420.61 2032.44c-2.29 0 -4.08 -0.99 -5.47 -1.99c-1.39 -1.99 -2.09 -3.98 -2.09 -6.96c0 -0.99 0.3 -2.98 0.89 -3.98c0.6 -1.99 1.49 -2.98 2.68 -2.98C417.82 2015.54 419.12 2015.54 420.61 2015.54c1.79 0 3.28 0 4.38 0.99c1.09 0.99 1.89 1.99 2.34 3.98h-2.84c-0.3 -0.99 -0.8 -1.99 -1.39 -1.99C422.4 2017.53 421.6 2017.53 420.71 2017.53c-1.39 0 -2.59 0.99 -3.48 1.99C416.33 2020.51 415.93 2021.51 415.93 2023.49c0 2.98 0.4 3.98 1.29 4.97c0.8 0.99 1.99 1.99 3.28 1.99c1.09 0 2.09 -0.99 2.78 -0.99c0.7 -0.99 1.19 -1.99 1.39 -2.98zm16.26 0l3.03 0.99c-0.4 0.99 -1.29 2.98 -2.49 3.98c-1.19 0.99 -2.78 0.99 -4.77 0.99C434.33 2032.44 432.44 2031.45 430.72 2030.46c-1.16 -1.99 -1.85 -3.98 -1.85 -5.97C428.86 2021.51 429.66 2019.52 431.05 2017.53c1.39 -1.99 3.28 -1.99 5.57 -1.99c2.19 0 3.98 0 5.37 1.99c1.39 0.99 2.09 3.98 2.09 5.97c0 0 0 0.99 0 0.99h-12.33c0.1 1.99 0.7 2.98 1.59 3.98C434.23 2029.46 435.42 2030.46 436.82 2030.46c0.99 0 1.89 -0.99 2.59 -0.99C440.1 2028.47 440.7 2028.47 441.09 2026.48zm-9.15 -3.98l9.25 0c-0.2 -1.99 -0.5 -2.98 -1.09 -2.98c-0.89 -0.99 -2.09 -1.99 -3.48 -2.06c-1.29 0.07 -2.39 0.07 -3.18 1.06C432.54 2019.52 432.04 2020.51 431.94 2022.5zm26.35 9.94v-1.99c-1.09 0.99 -2.59 1.99 -4.67 1.99c-1.29 0 -2.49 0 -3.58 -0.99c-1.09 -0.99 -1.99 -1.99 -2.59 -2.98c-0.6 -0.99 -0.89 -2.98 -0.89 -4.97C446.56 2022.5 446.76 2020.51 447.36 2019.52c0.5 -0.99 1.39 -2.98 2.49 -2.98c1.09 -0.99 2.29 -0.99 3.68 -0.99c0.99 0 1.89 0 2.68 0c0.7 0.99 1.39 0.99 1.89 1.99v-7.96h2.78v22.87zm-8.85 -8.95c0 2.98 0.4 3.98 1.29 4.97c0.89 0.99 1.99 1.99 3.18 1.99c1.19 0 2.19 -0.99 3.08 -1.99c0.89 -0.99 1.29 -1.99 1.29 -3.98C458.3 2021.51 457.9 2020.51 457 2019.52C456.11 2018.52 455.02 2017.53 453.82 2017.53C452.53 2017.53 451.53 2018.52 450.64 2019.52C449.84 2020.51 449.45 2021.51 449.45 2023.49zm27.25 8.95h-2.59v-22.87L476.89 2009.57L476.89 2017.53c1.19 -1.99 2.68 -1.99 4.48 -1.99c0.99 0 1.99 0 2.88 0c0.89 0.99 1.69 0.99 2.29 1.99c0.6 0.99 0.99 1.99 1.29 2.98c0.4 0.99 0.5 1.99 0.5 2.98c0 2.98 -0.7 4.97 -2.09 6.96c-1.39 0.99 -3.08 1.99 -4.97 1.99c-1.99 0 -3.48 -0.99 -4.57 -1.99zm-0.1 -8.95c0 1.99 0.3 3.98 0.8 4.97c0.89 0.99 2.09 1.99 3.58 1.99C482.26 2030.46 483.26 2029.46 484.15 2028.47c0.89 -0.99 1.39 -2.98 1.39 -4.97c0 -1.99 -0.5 -2.98 -1.29 -3.98C483.36 2018.52 482.36 2017.53 481.17 2017.53c-1.29 0 -2.29 0.99 -3.18 1.99c-0.89 0.99 -1.39 1.99 -1.39 3.98zm15.12 14.92l-0.4 -2.98c0.7 0.99 1.19 0.99 1.69 0.82c0.6 0.17 1.09 0.17 1.49 -0.82c0.3 0 0.6 0 0.89 -0.99C495.59 2034.43 495.79 2033.44 496.19 2032.44c0.1 0 0.2 0 0.3 0l-6.27 -17.07l2.98 0.16l3.48 9.94c0.4 0.99 0.8 1.99 1.19 3.98c0.3 -1.99 0.7 -2.98 1.09 -3.98l3.58 -9.94l2.78 0l-6.27 16.91c-0.7 1.99 -1.19 2.98 -1.59 3.98c-0.5 0.99 -1.09 0.99 -1.69 1.99c-0.7 0 -1.39 0 -2.29 0c-0.6 0 -1.19 0 -1.79 0zm25.46 -5.97v-14.92l-2.49 0v-1.99h2.83l-0.34 -1.99c0 -0.99 0.1 -1.99 0.3 -1.99c0.3 -0.99 0.8 -1.99 1.49 -1.99c0.6 0 1.59 -0.99 2.78 -0.99c0.8 0 1.69 0 2.68 0.99l-0.5 1.99c-0.6 0 -1.09 0 -1.59 0c-0.9 0 -1.49 0 -1.79 0c-0.4 0.99 -0.6 1.99 -0.6 2.98v0.99l3.28 0v1.99h-3.28L519.95 2032.44zm8.15 0v-16.91h2.49v2.98c0.7 -1.99 1.29 -1.99 1.79 -2.98c0.6 0 1.19 0 1.79 0C532.38 2015.54 533.28 2015.54 534.27 2016.53l-0.89 1.99c-0.7 0 -1.39 0 -2.09 0c-0.6 0 -1.19 0 -1.69 0c-0.5 0.99 -0.8 0.99 -0.99 1.99c-0.3 0.99 -0.5 1.99 -0.5 3.46v8.47zm21.98 -5.97l2.88 0.99c-0.5 0.99 -1.29 2.98 -2.59 3.98c-1.19 0.99 -2.78 0.99 -4.67 0.99c-2.39 0 -4.38 -0.99 -5.77 -1.99c-1.39 -1.99 -2.09 -3.98 -2.09 -5.97c0 -2.98 0.7 -4.97 2.09 -6.96c1.49 -1.99 3.28 -1.99 5.57 -1.99c2.29 0 4.08 0 5.47 1.99c1.39 0.99 2.09 3.98 2.09 5.97c0 0 0 0.99 0 0.99h-12.33c0.1 1.99 0.6 2.98 1.49 4.15c0.99 0.82 2.09 1.82 3.48 1.82c0.99 0 1.89 -0.99 2.59 -0.99c0.8 -0.99 1.39 -0.99 1.79 -2.98zm-9.25 -3.98h9.25c-0.1 -1.99 -0.5 -2.98 -0.99 -2.98c-0.9 -0.99 -2.09 -1.99 -3.48 -1.99c-1.29 0 -2.39 0 -3.28 0.99c-0.9 0.99 -1.39 1.99 -1.49 3.98zm26.95 3.98l2.88 0.99c-0.5 0.99 -1.29 2.98 -2.49 3.98C564.11 2032.44 562.52 2032.44 560.63 2032.44c-2.39 0 -4.28 -0.99 -5.77 -1.99c-1.39 -1.99 -2.09 -3.98 -2.09 -5.97c0 -2.98 0.7 -4.97 2.19 -6.96c1.39 -1.99 3.28 -1.99 5.47 -1.99c2.29 0 4.08 0 5.47 1.99c1.39 0.99 2.09 3.98 2.09 5.97c0 0 0 0.99 0 0.99h-12.24c0 1.99 0.5 2.98 1.5 3.98c0.9 0.99 1.99 1.99 3.38 1.99c0.99 0 1.89 -0.99 2.69 -0.99c0.7 -0.99 1.29 -0.99 1.69 -2.98zm-9.15 -3.98l9.15 0c-0.1 -1.99 -0.5 -2.98 -0.99 -2.98c-0.89 -0.99 -2.09 -1.99 -3.48 -1.99C559.23 2017.53 558.14 2017.53 557.24 2018.52c-0.9 0.99 -1.29 1.99 -1.39 3.98zm28.94 9.94L578.53 2015.54l2.98 0l3.58 9.94C585.39 2026.48 585.79 2027.47 586.08 2028.47c0.3 -0.99 0.6 -1.99 1.09 -2.98l3.58 -9.94h2.88l-6.17 16.91zm22.67 -5.97l2.88 0.99c-0.5 0.99 -1.29 2.98 -2.59 3.98c-1.19 0.99 -2.78 0.99 -4.67 0.99C600.7 2032.44 598.71 2031.45 597.32 2030.46c-1.39 -1.99 -2.09 -3.98 -2.09 -5.97c0 -2.98 0.7 -4.97 2.09 -6.96c1.49 -1.99 3.28 -1.99 5.57 -1.99c2.29 0 4.08 0 5.47 1.99c1.39 0.99 2.09 3.98 2.09 5.97c0 0 0 0.99 0 0.99L598.12 2024.49c0.1 1.99 0.6 2.98 1.49 3.98c0.99 0.99 2.09 1.99 3.48 1.99c0.99 0 1.89 -0.99 2.59 -0.99c0.8 -0.99 1.39 -0.99 1.79 -2.98zm-9.25 -3.98h9.25c-0.1 -1.99 -0.5 -2.98 -0.99 -2.98C605.57 2018.52 604.38 2017.53 602.99 2017.53C601.7 2017.53 600.6 2017.53 599.71 2018.52C598.81 2019.52 598.32 2020.51 598.22 2022.5zm15.61 9.94v-16.91L616.31 2015.54L616.31 2018.37c0.7 -1.84 1.29 -1.84 1.79 -2.84c0.6 0 1.19 0 1.79 0c0.99 0 1.89 0 2.88 0.99l-0.9 1.99c-0.7 0 -1.39 0 -2.09 0c-0.6 0 -1.19 0 -1.69 0c-0.5 0.99 -0.8 0.99 -0.99 1.99c-0.3 0.99 -0.5 1.99 -0.5 2.98L616.61 2032.44zm9.55 -5.17l2.78 -0.8C626.26 2027.47 626.76 2028.47 627.45 2029.46c0.7 0 1.69 0.99 2.98 0.99c1.29 0 2.19 -0.99 2.88 -0.99c0.6 -0.99 0.9 -0.99 0.9 -1.99c0 -0.99 -0.3 -0.99 -0.8 -0.99c-0.4 -0.99 -1.39 -0.99 -2.88 -0.99c-2.09 -0.99 -3.48 -0.99 -4.28 -1.99c-0.8 0 -1.39 -0.99 -1.79 -0.99c-0.4 -0.99 -0.6 -1.99 -0.6 -2.98c0 0 0.1 -0.99 0.5 -1.99c0.3 0 0.8 -0.99 1.39 -0.99c0.4 0 0.99 -0.99 1.69 -0.99c0.8 0 1.59 0 2.49 0c1.29 0 2.39 0 3.38 0c0.99 0.99 1.69 0.99 2.19 1.99c0.5 0 0.8 0.99 0.99 1.99L633.72 2020.51c-0.1 -0.99 -0.5 -1.99 -1.09 -1.99c-0.6 -0.99 -1.39 -0.99 -2.49 -0.99c-1.29 0 -2.19 0 -2.78 0.99c-0.5 0 -0.8 0.99 -0.8 0.99c0 0.99 0.1 0.99 0.3 0.99C627.15 2020.51 627.45 2021.51 627.95 2021.51c0.3 0 1.09 0 2.49 0.99c1.99 0 3.38 0.99 4.18 0.99c0.7 0 1.39 0.99 1.79 0.99c0.5 0.99 0.7 1.99 0.7 2.98c0 0.99 -0.3 1.99 -0.8 1.99c-0.6 0.99 -1.39 1.99 -2.39 1.99C632.92 2032.44 631.73 2032.44 630.44 2032.44c-2.19 0 -3.78 0 -4.87 -0.99c-1.19 -0.99 -1.89 -2.98 -2.19 -3.98zm17.01 -14.92v-2.98h2.88v2.98zm0 19.89v-16.91h2.88v16.91zm6.07 -8.95c0 -2.98 0.9 -4.97 2.59 -5.97C650.42 2015.54 652.11 2015.54 654.2 2015.54c2.29 0 4.08 0 5.57 1.99c1.39 0.99 2.09 2.98 2.09 5.97c0 1.99 -0.3 3.98 -0.9 4.97c-0.7 0.99 -1.59 1.99 -2.78 2.98c-1.19 0.99 -2.59 0.99 -3.98 0.99c-2.29 0 -4.18 -0.99 -5.67 -1.99c-1.39 -1.99 -2.09 -3.98 -2.09 -6.96zM649.33 2023.49c0 1.99 0.5 3.98 1.39 4.97c0.9 0.99 2.09 1.99 3.48 1.99c1.39 0 2.49 -0.99 3.48 -1.99c0.9 -0.99 1.39 -2.98 1.39 -4.97c0 -1.99 -0.5 -2.98 -1.39 -3.98c-0.99 -0.99 -2.09 -1.99 -3.48 -1.99C652.81 2017.53 651.62 2018.52 650.72 2019.52c-0.9 0.99 -1.39 1.99 -1.39 3.98zm15.91 8.95v-16.91h2.49v1.99c1.19 -0.99 2.98 -1.99 5.27 -1.99c0.99 0 1.89 0 2.68 0c0.9 0.99 1.49 0.99 1.89 1.99c0.4 0 0.7 0.99 0.9 1.99c0.1 0 0.1 0.99 0.1 1.99v10.94h-2.78v-9.94c0 -1.99 -0.1 -1.99 -0.3 -2.98c-0.2 -0.99 -0.6 -0.99 -1.19 -0.99C673.79 2017.53 673.1 2017.53 672.4 2017.53c-1.19 0 -2.29 0.99 -3.08 0.99C668.42 2019.52 668.03 2020.51 668.03 2023.49v8.95z"/><path fill="none" stroke="#010700" d="M690.7 2023.49c0 -2.98 0.9 -4.97 2.59 -5.97c1.39 -1.99 3.08 -1.99 5.17 -1.99c2.29 0 4.08 0 5.57 1.99c1.39 0.99 2.09 2.98 2.09 5.97c0 1.99 -0.3 3.98 -0.9 4.97c-0.7 0.99 -1.59 1.99 -2.78 2.98c-1.19 0.99 -2.59 0.99 -3.98 0.99c-2.29 0 -4.18 -0.99 -5.67 -1.99c-1.39 -1.99 -2.09 -3.98 -2.09 -6.96zm2.88 0c0 1.99 0.5 3.98 1.39 4.97c0.9 0.99 2.09 1.99 3.48 1.99c1.39 0 2.49 -0.99 3.48 -1.99c0.9 -0.99 1.39 -2.98 1.39 -4.97c0 -1.99 -0.5 -2.98 -1.39 -3.98C700.94 2018.52 699.85 2017.53 698.46 2017.53c-1.39 0 -2.59 0.99 -3.48 1.99c-0.9 0.99 -1.39 1.99 -1.39 3.98zm16.51 8.6v-14.57h-2.49v-1.99h2.49v-1.99c0 -0.99 0.1 -1.99 0.53 -1.99c0.07 -0.99 0.56 -1.99 1.26 -1.52c0.6 -0.46 1.59 -1.46 2.78 -1.46c0.8 0 1.69 0 2.68 0.99l-0.5 1.99C716.26 2011.56 715.76 2011.56 715.26 2011.56c-0.9 0 -1.49 0 -1.79 0c-0.4 0.99 -0.6 1.99 -0.6 2.98v0.99h3.28L716.16 2017.53l-3.28 0L712.88 2032.44zm17.4 0v-22.87L736.05 2009.57c1.49 0 2.68 0 3.48 0c1.09 0 2.09 0.99 2.78 0.99c0.8 0.99 1.39 0.99 1.89 1.99c0.4 0.99 0.7 1.99 0.7 2.98c0 1.99 -0.7 3.98 -1.89 4.97c-1.19 1.99 -3.48 1.99 -6.66 1.99h-5.87v9.94zm2.89 -11.93h5.96c1.99 0 3.38 -0.99 4.18 -0.99c0.8 -0.99 1.19 -1.99 1.19 -3.98C741.71 2015.54 741.52 2014.54 741.02 2013.55c-0.5 -0.99 -1.09 -0.99 -1.89 -0.99C738.63 2012.56 737.64 2011.56 736.34 2011.56h-5.87zm17.9 11.93l0 -16.91h2.49v2.98c0.6 -1.99 1.19 -1.99 1.79 -2.98C753.15 2015.54 753.75 2015.54 754.44 2015.54c0.9 0 1.89 0 2.88 0.99l-0.99 1.99c-0.7 0 -1.39 0 -2.09 0C753.65 2018.52 753.15 2018.52 752.65 2018.52c-0.5 0.99 -0.9 0.99 -1.09 1.99c-0.3 0.99 -0.4 1.99 -0.4 2.98v8.95zm10.64 -19.89v-2.98l2.78 0v2.98zm0 19.89v-16.91h2.78v16.91zm7.06 0v-16.91l2.49 0v1.99c1.19 -0.99 2.98 -1.99 5.27 -1.99c0.99 0 1.89 0 2.78 0c0.8 0.99 1.39 0.99 1.89 1.99c0.4 0 0.7 0.99 0.8 1.99c0.1 0 0.2 0.99 0.2 1.99v10.94h-2.78v-9.94c0 -1.99 -0.1 -1.99 -0.4 -2.98C776.12 2018.52 775.72 2018.52 775.23 2018.52c-0.6 -0.99 -1.19 -0.99 -1.99 -0.99c-1.19 0 -2.19 0.99 -3.08 0.99c-0.9 0.99 -1.29 1.99 -1.29 4.97L768.86 2032.44zm23.87 -2.87L790.34 2032.94c-0.8 -0.5 -1.49 -0.5 -2.19 -0.5C787.16 2032.44 786.37 2032.44 785.87 2031.45c-0.6 0 -0.99 0 -1.19 -0.99c-0.3 0 -0.4 -1.99 -0.4 -2.98v-9.94h-1.99v-1.99h1.99v-3.98l2.78 -1.99v5.97h2.88v1.99h-2.88L787.06 2027.47c0 0.99 0.1 0.99 0.2 1.99c0.1 0 0.2 0 0.5 0c0.2 0 0.5 0 0.9 0C788.95 2029.46 789.35 2029.46 789.51 2029.46zM806.55 2029.46l0 2.98h-15.12C791.44 2031.45 791.54 2030.46 791.83 2030.46c0.4 -0.99 0.99 -1.99 1.79 -2.98C794.52 2026.48 795.71 2025.48 797.3 2023.49C799.79 2021.51 801.48 2020.51 802.38 2018.52c0.8 -0.99 1.29 -1.99 1.29 -2.98C803.67 2014.54 803.27 2013.55 802.48 2012.55c-0.8 -0.99 -1.89 -0.99 -3.08 -0.99c-1.39 0 -2.49 0 -3.28 0.99c-0.8 0.99 -1.19 1.99 -1.19 3.98l-2.88 -0.99c0.2 -1.99 0.9 -3.98 2.19 -4.97c1.29 -0.99 2.98 -0.99 5.17 -0.99c2.19 0 3.88 0 5.17 0.99C805.86 2012.55 806.55 2013.55 806.55 2015.54c0 0.99 -0.2 1.99 -0.6 2.98c-0.4 0.99 -0.99 1.99 -1.89 2.98c-0.8 0 -2.29 1.99 -4.28 3.98c-1.69 0.99 -2.78 1.99 -3.28 1.99c-0.4 0.99 -0.8 0.99 -1.09 1.99zM810.83 2032.44v-22.87h15.41v1.99h-12.43l0 7.96h10.74L824.55 2021.51l-10.74 0v10.94zm18.89 0l-0.05 -22.87h2.84L832.51 2032.44zm17.9 -1.99c-0.99 0 -1.99 0.99 -2.98 0.99c-0.99 0.99 -1.99 0.99 -3.08 0.99c-1.79 0 -3.18 0 -4.18 -0.99c-0.99 -0.99 -1.49 -1.99 -1.49 -3.98c0 -0.99 0.2 -0.99 0.6 -1.99c0.4 -0.99 0.8 -0.99 1.39 -1.99c0.6 0 1.29 0 2.09 0c0.5 -0.99 1.29 -0.99 2.49 -0.99c2.19 0 3.88 0 4.97 -0.99c0 0 0 -0.99 0 -0.99c0 -0.99 -0.3 -1.99 -0.8 -1.99C845.93 2017.53 844.84 2017.53 843.45 2017.53c-1.29 0 -2.29 0 -2.88 0.99c-0.7 0 -1.09 0.99 -1.39 1.99l-2.78 0c0.3 -0.99 0.7 -1.99 1.29 -2.98c0.5 -0.99 1.39 -0.99 2.39 -1.99c1.09 0 2.39 0 3.78 0c1.39 0 2.59 0 3.48 0c0.8 0.99 1.49 0.99 1.89 0.99C849.61 2017.53 849.91 2018.52 850.11 2018.52c0.1 0.99 0.1 1.99 0.1 2.98v3.98c0 1.99 0.1 3.98 0.2 4.97c0.1 0 0.4 0.99 0.7 1.99l-2.88 0c-0.3 -0.99 -0.5 -1.99 -0.6 -1.99zM847.42 2023.49c-0.99 0.99 -2.59 0.99 -4.57 0.99c-1.19 0.99 -1.99 0.99 -2.49 0.99c-0.4 0 -0.8 0 -1.09 0.99c-0.2 0 -0.4 0.99 -0.4 0.99c0 0.99 0.3 1.99 0.9 1.99c0.6 0.99 1.39 0.99 2.49 0.99C843.35 2030.46 844.24 2030.46 845.14 2029.46c0.8 0 1.39 -0.99 1.79 -1.99c0.3 0 0.5 -0.99 0.5 -2.98zm6.07 4.3l2.78 -1.32c0.1 0.99 0.5 1.99 1.29 2.98c0.7 0 1.69 0.99 2.98 0.99c1.19 0 2.19 -0.99 2.78 -0.99c0.6 -0.99 0.99 -0.99 0.99 -1.99c0 -0.99 -0.3 -0.99 -0.9 -0.99c-0.4 -0.99 -1.29 -0.99 -2.78 -0.99c-2.09 -0.99 -3.48 -0.99 -4.28 -1.99C855.58 2023.49 854.98 2022.5 854.58 2022.5c-0.5 -0.99 -0.7 -1.99 -0.7 -2.98c0 0 0.2 -0.99 0.5 -1.99c0.4 0 0.8 -0.99 1.39 -0.99c0.5 0 1.09 -0.99 1.79 -0.99c0.8 0 1.59 0 2.49 0c1.29 0 2.39 0 3.38 0c0.99 0.99 1.69 0.99 2.54 1.99c0.04 0 0.44 0.99 0.54 1.99l-2.68 0.99c-0.1 -0.99 -0.5 -1.99 -1.09 -1.99c-0.6 -0.99 -1.49 -0.99 -2.49 -0.99c-1.29 0 -2.29 0 -2.78 0.99c-0.6 0 -0.8 0.99 -0.8 0.99c0 0.99 0.1 0.99 0.3 0.99c0.2 0 0.6 0.99 1.09 0.99c0.3 0 1.09 0 2.49 0.99c1.99 0 3.28 0.99 4.08 0.99c0.8 0 1.39 0.99 1.89 0.99c0.4 0.99 0.7 1.99 0.7 2.98C867.21 2028.47 866.92 2029.46 866.32 2029.82C865.82 2030.46 865.03 2031.45 864.03 2031.45c-1.09 0.99 -2.19 0.99 -3.48 0.99c-2.19 0 -3.78 0 -4.97 -0.99c-1.09 -0.99 -1.79 -2.98 -2.09 -3.98zm17.01 4.97l0 -23.1l2.78 0.23v7.96c1.29 -1.99 2.98 -1.99 4.97 -1.99c1.19 0 2.29 0 3.18 0c0.9 0.99 1.49 1.99 1.89 1.99c0.4 0.99 0.6 2.98 0.6 3.98v10.94h-2.78v-10.94c0 -0.99 -0.3 -1.99 -0.9 -2.98c-0.6 -0.99 -1.49 -0.99 -2.59 -0.99C876.86 2017.53 876.06 2017.53 875.27 2018.52C874.57 2018.52 874.08 2019.52 873.78 2020.51C873.48 2020.51 873.28 2021.51 873.28 2023.49v8.95zm18.5 0v-3.98h3.18v3.98zm23.77 0l-8.85 -22.87h3.28l5.87 15.91c0.5 1.99 0.9 2.98 1.19 3.98c0.4 -0.99 0.8 -1.99 1.29 -3.78l6.17 -16.11h2.98l-8.85 22.87zm14.42 -19.89L927.18 2009.57h2.78v2.98zm0 19.89v-16.91h2.78L929.96 2032.44zM933.05 2027.47l2.78 -0.99c0.2 0.99 0.6 1.99 1.29 3.03c0.7 -0.05 1.69 0.95 2.98 0.95c1.29 0 2.29 -0.99 2.88 -0.99C943.59 2028.47 943.89 2028.47 943.89 2027.47c0 -0.99 -0.3 -0.99 -0.8 -0.99c-0.4 -0.99 -1.29 -0.99 -2.88 -0.99c-1.99 -0.99 -3.48 -0.99 -4.28 -1.99c-0.8 0 -1.39 -0.99 -1.79 -0.99c-0.4 -0.99 -0.6 -1.99 -0.6 -2.98c0 0 0.2 -0.99 0.5 -1.99c0.3 0 0.8 -0.99 1.39 -0.99c0.4 0 0.99 -0.99 1.79 -0.99C937.92 2015.54 938.72 2015.54 939.61 2015.54c1.29 0 2.49 0 3.38 0c0.99 0.99 1.79 0.99 2.19 1.99c0.5 0 0.8 0.99 0.99 1.99l-2.78 0.99c-0.1 -0.99 -0.4 -1.99 -0.99 -1.99c-0.6 -0.99 -1.49 -0.99 -2.59 -0.99c-1.29 0 -2.19 0 -2.68 0.99c-0.6 0 -0.9 0.99 -0.9 0.99c0 0.99 0.1 0.99 0.4 0.99c0.2 0 0.6 0.99 0.99 0.99c0.3 0 1.19 0 2.49 0.99c1.99 0 3.38 0.99 4.18 0.99c0.8 0 1.39 0.99 1.79 0.99c0.5 0.99 0.7 1.99 0.7 2.98C946.77 2028.47 946.47 2029.46 945.97 2029.46c-0.6 0.99 -1.29 1.99 -2.39 1.99c-0.99 0.99 -2.19 0.99 -3.48 0.99c-2.09 0 -3.78 0 -4.87 -0.99c-1.09 -0.99 -1.89 -2.98 -2.19 -3.98zm17.1 -14.92v-2.98h2.78v2.98zm0 19.89v-16.91h2.78l0 16.91zm13.13 -2.98l0.4 2.98c-0.8 0 -1.49 0 -2.09 0c-0.99 0 -1.79 0 -2.39 -0.99c-0.5 0 -0.9 0 -1.19 -0.99c-0.2 0 -0.3 -1.99 -0.3 -2.98v-9.94l-2.09 0v-1.99h2.09v-3.98l2.78 -1.99v5.97h2.78v1.99h-2.78v9.94c0 0.99 0 0.99 0.1 1.99c0.1 0 0.3 0 0.5 0c0.3 0 0.6 0 0.99 0C962.38 2029.46 962.78 2029.46 963.28 2029.46zm14.62 2.98l-5.07 -16.91l2.88 0l2.68 9.94l0.99 2.98c0 0 0.3 -0.99 0.8 -2.98l2.68 -9.94h2.78L988.14 2025.48l0.9 2.98L989.93 2025.48l2.88 -9.94h2.68L990.33 2032.44h-2.88l-2.68 -9.94l-0.6 -2.98l-3.38 12.93zm22.97 0l-5.07 -16.91h2.98l2.59 9.94l0.99 2.98c0 0 0.3 -0.99 0.8 -2.98l2.68 -9.94h2.88l2.49 9.94L1012.01 2028.47l0.9 -2.92l2.43 -10.01L1018.47 2015.54l-5.17 16.91h-2.88l-2.59 -9.94l-0.7 -2.98l-3.65 12.76zm22.97 0l-4.97 -16.91L1021.75 2015.54l2.59 9.94l0.99 2.98c0 0 0.3 -0.99 0.9 -2.98l2.59 -9.94h2.88l2.49 9.94l0.8 3.15l0.99 -3.15l2.78 -9.94h2.68l-5.17 16.91h-2.88L1030.8 2022.5l-0.7 -2.98l-3.28 12.93zM1044.62 2032.44v-3.98h3.18L1047.81 2032.44zM1052.68 2038.41v-22.87h2.49v1.99C1055.86 2016.53 1056.46 2016.53 1057.25 2015.54c0.8 0 1.69 0 2.78 0c1.39 0 2.59 0 3.97 0.99c0.8 0.99 1.6 1.99 2.19 2.98c0.5 0.99 0.8 2.98 0.93 3.98c-0.13 1.99 -0.43 2.98 -1.02 4.97c-0.6 0.99 -1.49 1.99 -2.69 2.98c-1.09 0.99 -2.39 0.99 -3.58 0.99c-0.99 0 -1.79 0 -2.59 -0.99c-0.7 0 -1.29 0 -1.79 -0.99l0 7.96zm2.49 -14.92c0 2.98 0.5 3.98 1.29 4.97c0.9 0.99 1.89 1.99 3.18 1.99c1.19 0 2.29 -0.99 3.18 -1.99c0.9 -0.99 1.29 -2.98 1.29 -4.97c0 -1.99 -0.4 -2.98 -1.29 -4.97c-0.9 -0.99 -1.89 -0.99 -3.08 -0.99c-1.19 0 -2.29 0 -3.18 2.44c-0.9 0.55 -1.39 1.54 -1.39 3.53z"/><path fill="none" stroke="#010700" d="M1070.38 2032.44v-16.91h2.49v2.98c0.6 -1.99 1.19 -1.99 1.79 -2.98c0.5 0 1.09 0 1.39 0c0.99 0 1.99 0 2.98 0.99l-0.99 1.99c0 0 -0.99 0 -1.99 0C1075.65 2018.52 1075.15 2018.52 1074.66 2018.52c-0.5 0.99 -0.8 0.99 -1.09 1.99c-0.3 0.99 -0.4 1.99 -0.4 2.98v8.95zm10.64 -19.89v-2.98h2.98v2.98zm0 19.89l0 -16.91h2.98v16.91zm6.96 0v-16.91h2.98v1.99c0.99 -0.99 2.98 -1.99 4.97 -1.99c0.99 0 1.99 0 2.98 0c0.99 0.99 0.99 0.99 1.99 1.99C1100.91 2017.53 1100.91 2018.52 1100.91 2019.52c0.99 0 0.99 0.99 0.99 1.99v10.94h-2.98v-9.94c0 -1.99 0 -1.99 -0.99 -2.98c0 -0.99 0 -0.99 -0.99 -0.99c0 -0.99 -0.99 -0.99 -1.99 -0.99C1093.95 2017.53 1092.95 2018.52 1091.96 2018.52c-0.99 0.99 -0.99 1.99 -0.99 4.97l0 8.95zm23.87 -2.98v2.98c0 0 -0.99 0 -1.99 0c-0.99 0 -0.99 0 -1.99 -0.99c-0.99 0 -0.99 0 -0.99 -0.99c0 0 -0.99 -1.99 -0.99 -2.98v-9.94h-1.99v-1.99h1.99v-3.98l2.98 -1.99v5.97h2.98v1.99h-2.98v9.94c0 0.99 0 0.99 0 1.99c0 0 0.99 0 0.99 0c0 0 0 0 0.99 0c0 0 0.99 0 0.99 0zm17.37 0.09l-0.47 2.89l-14.92 0C1113.84 2031.45 1113.84 2030.46 1113.84 2030.46c0 -0.99 0.99 -1.99 1.99 -2.98c0.99 -0.99 1.99 -1.99 3.98 -3.98C1121.79 2021.51 1123.78 2020.51 1124.78 2018.52c0 -0.99 0.99 -1.99 0.99 -2.98c0 -0.99 -0.99 -1.99 -0.99 -2.98c-0.99 -0.99 -1.99 -0.99 -2.98 -0.99c-1.99 0 -2.98 0 -3.98 0.99c-0.99 0.99 -0.99 1.99 -0.99 3.98l-2.98 -0.99c0 -1.99 0.99 -3.98 1.99 -4.97c1.99 -0.99 2.98 -0.99 5.97 -1.12c1.99 0.13 3.98 0.13 4.97 1.12c0.99 1.99 1.99 2.98 1.99 4.97c0 0.99 0 1.99 -0.99 2.98c0 0.99 -0.99 1.99 -1.99 2.98c-0.99 0 -1.99 1.99 -3.98 3.98C1119.8 2026.48 1118.81 2027.47 1118.81 2027.47c-0.99 0.99 -0.99 0.99 -0.99 1.99zm3.98 2.98v-14.92h-1.99l0 -1.99l1.99 0l0 -1.99c0 -0.99 0 -1.99 0.99 -1.99c0 -0.99 0 -1.99 0.99 -1.99c0.99 0 1.99 -0.99 2.98 -0.99c0.99 0 1.99 0 2.98 0.99L1139.69 2011.56c-0.99 0 -0.99 0 -1.99 0c0 0 -0.99 0 -0.99 0c-0.99 0.99 -0.99 1.99 -0.99 2.74v1.24l2.98 0v1.99l-2.98 0v14.92zm7.96 0v-22.87h2.98v22.87zm17.9 -2.33c-0.99 0.4 -1.99 1.39 -2.98 1.39c-0.99 0.99 -1.99 0.99 -2.98 0.99c-0.99 0 -2.98 0 -3.98 -0.99c-0.99 -0.99 -0.99 -1.99 -0.99 -3.98c0 -0.99 0 -0.99 0 -1.99c0.99 -0.99 0.99 -0.99 1.99 -1.99c0 0 0.99 0 1.99 0c0 -0.99 0.99 -0.99 1.99 -0.99c1.99 0 3.98 0 4.97 -0.99c0 0 0 -0.99 0 -0.99c0 -0.99 0 -1.99 -0.99 -1.99c0 -0.99 -0.99 -0.99 -2.98 -0.91c-0.99 -0.08 -1.99 -0.08 -2.98 0.91c0 0 -0.99 0.99 -0.99 1.99h-2.98c0 -0.99 0.99 -1.99 0.99 -2.98c0.99 -0.99 1.99 -0.99 2.98 -1.99c0.99 0 1.99 0 3.98 0c0.99 0 1.99 0 2.98 0C1159.58 2016.53 1160.58 2016.53 1160.58 2016.53c0 0.99 0.99 1.99 0.99 1.99c0 0.99 0 1.99 0 2.98v3.98c0 1.99 0 3.98 0 4.97c0 0 0.99 0.99 0.99 1.99h-2.98c0 -0.99 0 -1.99 -0.99 -1.99zM1159 2023.49c-1.41 0.99 -2.4 0.99 -4.11 0.99c-2.26 0.99 -2.26 0.99 -3.26 0.99c0 0 -0.99 0 -0.99 0.99C1150.63 2026.48 1150.63 2027.47 1150.63 2027.47c0 0.99 0 1.99 0.99 1.99c0 0.99 0.99 0.99 1.99 0.99c0.99 0 1.99 0 2.98 -0.99c0.99 0 0.99 -0.99 1.99 -1.99c0 0 0 -0.99 0 -2.98zm5.97 3.98l2.98 -0.99c0 0.99 0.99 1.99 0.99 2.98c0.99 0 1.99 0.99 2.98 0.99c1.99 0 2.98 -0.99 2.98 -0.99c0.99 -0.99 0.99 -0.99 0.99 -1.99c0 -0.99 0 -0.99 -0.99 -0.99c0 -0.99 -0.99 -0.99 -2.98 -0.99C1169.53 2024.49 1168.53 2024.49 1167.32 2023.49C1166.54 2023.49 1166.54 2022.5 1165.55 2022.5c0 -0.99 0 -1.99 0 -2.98c0 0 0 -0.99 0 -1.99c0.99 0 0.99 -0.99 1.99 -0.99c0 0 0.99 -0.99 0.99 -0.99c0.99 0 1.99 0 2.98 0c0.99 0 1.99 0 2.98 -0.32c0.99 1.31 1.99 1.31 2.28 2.31c0.71 0 0.71 0.99 0.71 1.99l-1.99 0.99c0 -0.99 -0.99 -1.99 -0.99 -1.99C1173.5 2017.53 1172.51 2017.53 1171.52 2017.53c-0.99 0 -1.99 0 -2.98 0.99c0 0 -0.99 0.99 -0.99 0.99c0 0.99 0.99 0.99 0.99 0.99c0 0 0 0.99 0.99 0.99c0 0 0.99 0 1.99 0.99c1.99 0 3.98 0.99 4.97 0.99c0 0 0.99 0.99 0.99 0.99c0.99 0.99 0.99 1.99 0.99 2.98c0 0.99 0 1.99 -0.99 1.99c0 0.99 -0.99 1.99 -1.99 2.26c-0.99 0.72 -1.99 0.72 -3.98 0.72c-1.99 0 -2.98 0 -4.97 -0.99c-0.99 -0.99 -0.99 -2.98 -1.99 -3.98zm16.91 4.97v-22.87h2.98v7.96C1186.43 2015.54 1187.43 2015.54 1189.42 2015.54c0.99 0 1.99 0 2.98 0C1193.39 2016.53 1194.39 2017.53 1194.39 2017.53c0.99 0.99 0.99 2.98 0.99 3.98v10.93L1192.4 2032.44L1192.4 2021.51c0 -0.99 0 -1.99 -0.99 -2.98c0 -0.99 -0.99 -0.99 -1.99 -0.99c-0.99 0 -1.99 0 -2.98 0.99c0 0 -0.99 0.99 -0.99 1.99c-0.99 0 -0.99 0.99 -0.99 2.98v8.95zm18.89 0v-3.98h2.98v3.98zM1219.25 2026.48h2.98c-0.99 1.99 -0.99 2.98 -2.98 3.98c-0.99 0.99 -1.99 1.99 -3.98 1.77c-1.99 0.22 -3.98 -0.78 -5.97 -1.77c-0.99 -1.99 -1.99 -3.98 -1.99 -6.96c0 -0.99 0.99 -2.98 0.61 -3.98c1.38 -1.99 2.37 -2.98 3.47 -2.98c0.9 -0.99 1.89 -0.99 3.88 -0.99c1.99 0 2.98 0 3.98 0.99c0.99 0.99 1.99 1.99 1.99 3.98l-1.99 0c-0.99 -0.99 -0.99 -1.99 -1.99 -1.99c0 -0.99 -0.99 -0.99 -1.99 -0.99C1214.28 2017.53 1212.29 2018.52 1211.29 2019.52c0 0.99 -0.99 1.99 -0.99 3.98c0 2.98 0.99 3.98 0.99 4.97c0.99 0.99 1.99 1.99 3.98 1.99c0.99 0 1.99 -0.99 2.98 -0.99c0 -0.99 0.99 -1.99 0.99 -2.98z"/><path fill="none" stroke="#010700" d="M1223.23 2023.49c0 -2.98 0.99 -4.97 2.98 -5.97c0.99 -1.99 2.98 -1.99 4.97 -1.99c1.99 0 3.98 0 4.97 1.99c1.99 0.99 2.98 2.98 2.98 5.97c0 1.99 -0.99 3.98 -0.99 4.97c-0.99 0.99 -1.99 1.99 -2.98 2.98c-0.99 0.99 -2.98 0.99 -3.98 0.99c-1.99 0 -3.98 -0.99 -5.97 -1.99c-0.99 -1.99 -1.99 -3.98 -1.99 -6.96zm2.98 0c0 1.99 0 3.98 0.99 4.97c0.99 0.99 1.99 1.99 3.98 1.99C1232.18 2030.46 1233.17 2029.46 1234.17 2028.47c0.99 -0.99 1.99 -2.98 1.99 -4.97c0 -1.99 -0.99 -2.98 -1.99 -3.98c-0.99 -0.99 -1.99 -1.99 -2.98 -1.99c-1.99 0 -2.98 0.99 -3.98 1.99c-0.99 0.99 -0.99 1.99 -0.99 3.98zm15.91 8.95v-16.91h1.99v1.99c0.99 0 1.99 -0.99 2.98 -1.99c0 0 0.99 0 1.99 0c1.99 0 2.98 0 2.98 0c0.99 0.99 1.99 1.99 1.99 2.98c0.99 -1.99 2.98 -2.98 4.97 -2.98c1.99 0 2.98 0 3.98 0.99c0.99 0.99 0.99 1.99 0.99 3.98v11.93l-1.99 0L1262.01 2021.51C1262.01 2020.51 1262.01 2019.52 1261.02 2019.52c0 -0.99 0 -0.99 -0.99 -0.99c0 -0.99 -0.99 -0.99 -0.99 -0.99c-1.99 0 -1.99 0.99 -2.98 0.99C1255.05 2019.52 1255.05 2020.51 1255.05 2022.5v9.94h-2.98v-10.94c0 -0.99 0 -1.99 -0.99 -2.98c0 -0.99 -0.99 -0.99 -1.99 -0.99c-0.99 0 -1.99 0 -1.99 0.99c-0.99 0 -1.99 0.99 -1.99 1.99c0 0 0 1.99 0 2.98v8.95zm35.8 0v-14.92h-1.99L1275.93 2015.54h1.99L1277.92 2013.55c0 -0.99 0 -1.99 0 -1.99c0.99 -0.99 0.99 -1.99 1.99 -1.99c0.99 0 1.99 -0.99 2.98 -0.99c0.99 0 0.99 0 2.42 0.99l-0.43 1.99c-0.99 0 -0.99 0 -1.99 0c-0.99 0 -0.99 0 -1.99 0c0 0.99 0 1.99 0 2.98v0.99h2.98v1.99h-2.98v14.92zm6.96 -8.95c0 -2.98 0.99 -4.97 2.98 -5.97c0.99 -1.99 2.98 -1.99 4.97 -1.99c1.99 0 3.98 0 6.2 1.99c0.76 0.99 1.76 2.98 1.76 5.97c0 1.99 0 3.98 -0.99 4.97c-0.99 0.99 -1.99 1.99 -2.98 2.98c-0.99 0.99 -1.99 0.99 -3.98 0.99c-1.99 0 -3.98 -0.99 -5.97 -1.99c-0.99 -1.99 -1.99 -3.98 -1.99 -6.96zm2.98 0c0 1.99 0.99 3.98 1.99 4.97c0.99 0.99 1.99 1.99 2.98 1.99c0.99 0 2.98 -0.99 3.98 -1.99c0.99 -0.99 0.99 -2.98 0.99 -4.97c0 -1.99 0 -2.98 -0.99 -3.98C1295.82 2018.52 1293.83 2017.53 1292.84 2017.53c-0.99 0 -1.99 0.99 -2.98 1.99c-0.99 0.99 -1.99 1.99 -1.99 3.98zm15.91 8.95L1303.78 2015.33l2.98 0.21v2.98c0 -1.99 0.99 -1.99 0.99 -2.98c0.99 0 1.99 0 1.99 0C1310.74 2015.54 1311.73 2015.54 1312.73 2016.53l-0.99 1.99C1310.74 2018.52 1310.74 2018.52 1309.74 2018.52c0 0 -0.99 0 -1.99 0c0 0.99 0 0.99 -0.99 1.99c0 0.99 0 1.99 0 2.98v8.95zm19.89 0v-16.91h1.99l0 1.99c0.99 0 0.99 -0.99 1.99 -1.99c0.99 0 1.99 0 2.98 0c1.99 0 2.98 0 2.98 0C1334.6 2016.53 1335.6 2017.53 1335.6 2018.52c0.99 -1.99 2.98 -2.98 4.97 -2.98c1.99 0 2.98 0 3.98 0.99c0.99 0.99 0.99 1.99 0.99 3.98v11.93h-2.98v-10.94c0 -0.99 0 -1.99 0 -1.99c0 -0.99 0 -0.99 -0.99 -0.99c0 -0.99 -0.99 -0.99 -1.99 -0.99c-0.99 0 -1.99 0.99 -1.99 0.99C1336.59 2019.52 1335.6 2020.51 1335.6 2022.5v9.94h-1.99v-10.94c0 -0.99 -0.99 -1.99 -0.99 -2.98c-0.99 -0.99 -0.99 -0.99 -1.99 -0.99c-0.99 0 -1.99 0 -2.98 0.99c0 0 -0.99 0.99 -0.99 1.99c0 0 0 1.99 0 2.98v8.95zm24.86 -8.95c0 -2.98 0.99 -4.97 2.98 -5.97c0.99 -1.99 2.98 -1.99 4.97 -1.99c1.99 0 3.98 0 5.97 2.24c0.99 0.75 1.99 2.74 1.99 5.72C1364.44 2025.48 1364.44 2027.47 1363.44 2028.47c-0.99 0.99 -1.99 1.99 -2.98 2.98c-0.99 0.99 -1.99 0.99 -3.98 0.99c-1.99 0 -3.98 -0.99 -4.97 -1.99c-1.99 -1.99 -2.98 -3.98 -2.98 -6.96zm2.98 0c0 1.99 0.99 3.98 1.99 4.97c0.99 0.99 1.99 1.99 2.98 1.99c1.99 0 2.98 -0.99 3.98 -1.99c0.99 -0.99 0.99 -2.98 0.99 -4.97c0 -1.99 0 -2.98 -0.99 -3.98c-0.99 -0.99 -1.99 -1.99 -3.98 -1.99c-0.99 0 -1.99 0.99 -2.98 1.99c-0.99 0.99 -1.99 1.99 -1.99 3.98z"/><path fill="none" stroke="#010700" d="M1367.42 2032.44v-16.91h2.98L1370.41 2018.52c0 -1.99 0.99 -1.99 1.99 -3.47c0 0.49 0.99 0.49 0.99 0.49c0.99 0 1.99 0 2.98 0.99L1375.38 2018.52c0 0 -0.99 0 -1.99 0c0 0 -0.99 0 -0.99 0c-0.99 0.99 -0.99 0.99 -1.99 1.99c0 0.99 0 1.99 0 2.98v8.95zm21.88 -5.97l2.98 0.99c0 0.99 -0.99 2.98 -1.99 3.98c-1.99 0.99 -2.98 0.99 -4.97 0.99C1382.34 2032.44 1381.34 2031.45 1379.35 2030.46c-0.99 -1.99 -1.99 -3.98 -1.99 -6.16c0 -2.79 0.99 -4.78 1.99 -6.77c1.99 -1.99 2.98 -1.99 5.97 -1.99c1.99 0 3.98 0 4.97 1.99c1.99 0.99 1.99 3.98 1.99 5.97C1392.28 2023.49 1392.28 2024.49 1392.28 2024.49l-11.93 0c0 1.99 0.99 2.98 0.99 3.98c0.99 0.99 2.98 1.99 3.98 1.99c0.99 0 1.99 -0.99 2.98 -0.99c0 -0.99 0.99 -0.99 0.99 -2.98zm-8.95 -3.98h8.95c0 -1.99 0 -2.98 -0.99 -2.98c-0.99 -0.99 -1.99 -1.99 -2.98 -1.99c-1.99 0 -2.98 0 -2.98 0.99c-0.99 0.99 -1.99 1.99 -1.99 3.98zm24.86 -9.94v-2.98h1.99v2.98zm0 19.89v-16.91h1.99l0 16.91zM1412.17 2032.44v-16.91h1.99v1.99C1415.16 2016.53 1417.14 2015.54 1420.13 2015.54c0.99 0 0.99 0 1.96 0c1.02 0.99 2.02 0.99 2.02 1.99c0.99 0 0.99 0.99 0.99 1.99c0 0 0 0.99 0 1.99l0 10.94h-2.98l-0.15 -9.94c0.15 -1.99 0.15 -1.99 0.15 -2.98c0 -0.99 -0.99 -0.99 -0.99 -0.99c-0.99 -0.99 -0.99 -0.99 -1.99 -0.99c-0.99 0 -1.99 0.99 -2.98 0.99c-0.99 0.99 -0.99 1.99 -0.99 4.97l0 8.46zm17.47 0v-14.92L1428.08 2017.53v-2.37l1.99 0.38v-1.99c0 -0.99 0 -1.99 0.99 -1.99c0 -0.99 0 -1.99 0.99 -1.99C1433.06 2009.57 1434.05 2008.58 1435.04 2008.58c0.99 0 0.99 0 1.99 0.99l0 1.99c-0.99 0 -0.99 0 -1.99 0c0 0 -0.99 0 -0.99 0c-0.99 0.99 -0.99 1.99 -0.99 2.98L1432.8 2015.54h3.24v1.99h-2.98v14.92zm6.96 -8.95c0 -2.98 0.99 -4.97 2.98 -5.97c0.99 -1.99 2.98 -1.99 4.97 -1.99c1.99 0 3.98 0 5.97 1.99c0.99 0.99 1.99 2.98 1.99 5.97c0 1.99 0 3.98 -0.99 4.97c-0.99 0.99 -1.99 1.99 -2.98 2.98c-0.99 0.99 -1.99 0.99 -3.98 0.99c-1.99 0 -3.98 -0.99 -4.97 -1.99c-1.99 -1.99 -2.98 -3.98 -2.98 -6.96zm2.98 0.26c0 1.99 0.99 3.98 1.99 4.97C1443 2029.46 1443.99 2030.46 1444.99 2030.46c1.99 0 2.98 -0.99 3.98 -1.99c0.99 -0.99 0.99 -2.98 0.99 -4.97c0 -1.99 0 -2.98 -0.99 -3.98c-0.99 -0.99 -1.99 -1.99 -3.98 -1.99c-0.99 0 -1.99 0.99 -2.98 1.99c-0.99 0.99 -1.99 1.99 -1.99 3.98zm15.91 8.95v-16.91h2.98v2.98c0 -1.99 0.99 -1.99 1.99 -2.98c0 0 0.99 0 0.99 0c0.99 0 1.99 0 2.98 0.99l-0.99 1.99C1463.88 2018.52 1462.89 2018.52 1461.89 2018.52c0 0 -0.99 0 -0.99 0c-0.99 0.99 -0.99 0.99 -1.99 1.99c0 0.99 0 1.99 0 2.98v8.95zm10.94 0v-16.91h1.99v1.99c0.99 0 1.99 -0.99 2.98 -1.99c0 0 0.99 0 1.99 -0.11c1.99 0.11 2.98 0.11 2.98 0.11c0.99 0.99 1.99 1.99 1.99 2.98c0.99 -1.99 2.98 -2.98 4.97 -2.98c1.99 0 2.98 0 3.98 0.99c0.99 0.99 0.99 1.99 0.99 3.98v11.93h-1.99v-10.94C1486.76 2020.51 1486.76 2019.52 1485.76 2019.52c0 -0.99 0 -0.99 -0.99 -0.99c0 -0.99 -0.99 -0.99 -1.36 -0.99c-1.62 0 -1.62 0.99 -2.61 0.99c-0.99 0.99 -0.99 1.99 -0.99 3.98l0 9.94h-2.98v-10.94c0 -0.99 0 -1.99 -0.99 -2.98c0 -0.99 -0.99 -0.99 -1.99 -0.92c-0.99 -0.08 -1.99 -0.08 -1.99 0.92c-0.99 0 -1.99 0.99 -1.99 1.99C1469.85 2020.51 1469.85 2022.5 1469.85 2023.49v8.95zm36.79 -1.99c-0.99 0 -1.99 0.99 -2.98 0.99c-0.99 0.99 -1.99 0.99 -2.98 0.99c-0.99 0 -2.98 0 -3.98 -0.99c-0.99 -0.99 -0.99 -1.99 -0.99 -3.98c0 -0.99 0 -0.99 0 -1.99c0.99 -0.99 0.99 -0.99 1.99 -1.99c0 0 0.99 0 1.99 0c0 -0.99 0.99 -0.99 1.99 -0.99c1.99 0 3.98 0 4.97 -0.99c0 0 0 -0.99 0 -0.99c0 -0.99 0 -1.99 -0.99 -1.99c0 -0.99 -0.99 -0.99 -3.47 -0.99c-0.51 0 -1.5 0 -2.49 0.99c0 0 -0.99 0.99 -0.99 1.99h-2.98c0 -0.99 0.99 -1.99 0.99 -2.98c0.99 -0.99 1.99 -0.99 2.98 -1.99c0.99 0 1.99 0 3.98 0c0.99 0 1.99 0 2.98 0c0.99 0.99 1.99 0.99 1.99 0.99c0 0.99 0.99 1.99 0.99 1.99c0 0.99 0 1.99 0 2.98l0 3.98c0 1.99 0 3.98 0 4.97c0 0 0.99 0.99 0.99 1.99h-2.98c0 -0.99 0 -1.99 -0.99 -1.99zm0 -6.96c-0.99 0.99 -1.99 0.99 -3.98 0.99c-1.99 0.99 -1.99 0.99 -2.98 0.99C1496.7 2025.48 1495.71 2025.48 1495.71 2026.48c0 0 0 0.99 0 0.99c0 0.99 0 1.99 0.99 1.99C1496.7 2030.46 1497.69 2030.46 1498.69 2030.46C1499.68 2030.46 1500.68 2030.46 1501.67 2029.46c0.99 0 0.99 -0.99 1.99 -1.99c0 0 0 -0.99 0 -2.98zm13.92 5.97v2.98c-0.99 0 -1.99 0 -1.99 0c-0.99 0 -1.99 0 -2.98 -0.99c0 0 0 0 -0.99 -0.99c0 0 0 -1.99 0 -2.98v-9.94h-1.99l0 -1.99h1.99l0 -3.98l2.98 -1.99v5.97h2.98v1.99h-2.98v9.94C1514.6 2028.47 1514.6 2028.47 1514.6 2029.46c0 0 0 0 0 0c0.99 0 0.99 0 0.99 0c0.99 0 0.99 0 1.99 0zm2.15 -16.91v-2.98h2.98v2.98zm0 19.89L1519.57 2015.54h2.98v16.91zm5.97 -8.95c0 -2.98 0.99 -4.97 2.98 -6.25c0.99 -1.71 2.98 -1.71 4.97 -1.71c1.99 0 3.98 0 5.97 1.99c0.99 0.99 1.99 2.98 1.99 5.97c0 1.99 0 3.98 -0.99 4.97c-0.99 0.99 -1.99 1.99 -2.98 2.98c-0.99 0.99 -1.99 0.99 -3.98 0.99c-1.99 0 -3.98 -0.99 -4.97 -1.99C1526.53 2028.47 1525.54 2026.48 1525.54 2023.49zm2.98 0c0 1.99 0.99 3.98 1.99 4.97c0.99 0.99 1.99 1.99 2.98 1.99c1.99 0 2.98 -0.99 3.98 -1.99C1538.47 2027.47 1538.47 2025.48 1538.47 2023.49c0 -1.99 0 -2.98 -0.99 -3.98c-0.99 -0.99 -1.99 -1.99 -3.98 -1.99C1532.5 2017.53 1531.51 2018.52 1530.51 2019.52c-0.99 0.99 -1.99 1.99 -1.99 3.98zm15.91 8.95L1544.43 2015.54h2.98v1.99c0.99 -0.99 2.98 -1.99 4.97 -1.99c0.99 0 1.99 0 2.98 0C1556.37 2016.53 1556.37 2016.53 1557.36 2017.53c0 0 0 0.99 0.99 1.78c0 0.21 0 1.2 0 2.2L1558.36 2032.44h-2.98v-9.94c0 -1.99 0 -1.99 0 -2.98c-0.99 -0.99 -0.99 -0.99 -1.99 -0.99c0 -0.99 -0.99 -0.99 -1.99 -0.99c-0.99 0 -1.99 0.99 -2.98 0.99c-0.99 0.99 -0.99 1.99 -0.99 4.97L1547.42 2032.44z"/></g></svg>
